<svg width="24" height="24" viewBox="0 0 24 24" fill="none" xmlns="http://www.w3.org/2000/svg">
<path d="M10.957 12.3539C10.9105 12.3074 10.8735 12.2523 10.8483 12.1915C10.8231 12.1308 10.8102 12.0657 10.8102 11.9999C10.8102 11.9341 10.8231 11.869 10.8483 11.8083C10.8735 11.7475 10.9105 11.6923 10.957 11.6459L15.543 7.06088C15.8244 6.77962 15.9826 6.39809 15.9827 6.00024C15.9828 5.60238 15.8248 5.22078 15.5435 4.93938C15.2623 4.65799 14.8808 4.49985 14.4829 4.49976C14.085 4.49966 13.7034 4.65762 13.422 4.93888L8.83605 9.52488C8.18082 10.1819 7.81287 11.072 7.81287 11.9999C7.81287 12.9278 8.18082 13.8178 8.83605 14.4749L13.422 19.0609C13.7034 19.3421 14.085 19.5001 14.4829 19.5C14.8808 19.4999 15.2623 19.3418 15.5435 19.0604C15.8248 18.779 15.9828 18.3974 15.9827 17.9995C15.9826 17.6017 15.8244 17.2201 15.543 16.9389L10.957 12.3539Z" fill="#232433"/>
</svg>
