<svg width="12" height="12" viewBox="0 0 12 12" fill="none" xmlns="http://www.w3.org/2000/svg">
<g clip-path="url(#clip0_3132_575)">
<path d="M10.5 12.0002H9V9.50024C9 9.23503 8.89464 8.98067 8.70711 8.79314C8.51957 8.6056 8.26522 8.50024 8 8.50024H4C3.73478 8.50024 3.48043 8.6056 3.29289 8.79314C3.10536 8.98067 3 9.23503 3 9.50024V12.0002H1.5V9.50024C1.50079 8.83745 1.76444 8.20202 2.23311 7.73335C2.70178 7.26469 3.3372 7.00104 4 7.00024H8C8.6628 7.00104 9.29822 7.26469 9.76689 7.73335C10.2356 8.20202 10.4992 8.83745 10.5 9.50024V12.0002Z" fill="white"/>
<path d="M6 6C5.40666 6 4.82664 5.82405 4.33329 5.49441C3.83994 5.16477 3.45543 4.69623 3.22836 4.14805C3.0013 3.59987 2.94189 2.99667 3.05765 2.41473C3.1734 1.83279 3.45912 1.29824 3.87868 0.878681C4.29824 0.459123 4.83279 0.173401 5.41473 0.0576455C5.99667 -0.0581102 6.59987 0.00129986 7.14805 0.228363C7.69623 0.455426 8.16477 0.839943 8.49441 1.33329C8.82405 1.82664 9 2.40666 9 3C8.99921 3.79541 8.68288 4.55801 8.12044 5.12044C7.55801 5.68288 6.79541 5.99921 6 6ZM6 1.5C5.70333 1.5 5.41332 1.58797 5.16665 1.7528C4.91997 1.91762 4.72771 2.15189 4.61418 2.42598C4.50065 2.70007 4.47095 3.00167 4.52882 3.29264C4.5867 3.58361 4.72956 3.85088 4.93934 4.06066C5.14912 4.27044 5.41639 4.4133 5.70737 4.47118C5.99834 4.52906 6.29994 4.49935 6.57403 4.38582C6.84812 4.27229 7.08238 4.08003 7.24721 3.83336C7.41203 3.58668 7.5 3.29667 7.5 3C7.5 2.60218 7.34197 2.22065 7.06066 1.93934C6.77936 1.65804 6.39783 1.5 6 1.5Z" fill="white"/>
</g>
<defs>
<clipPath id="clip0_3132_575">
<rect width="12" height="12" fill="white"/>
</clipPath>
</defs>
</svg>
