<svg width="88" height="88" viewBox="0 0 88 88" fill="none" xmlns="http://www.w3.org/2000/svg">
<g filter="url(#filter0_d_2342_419)">
<path d="M77.9998 73.0116H17.8967C13.9803 73.0116 10.8054 69.8308 10.8054 65.9072C10.8054 61.9836 13.9803 58.8028 17.8967 58.8028H77.9996C74.8676 63.0192 74.8676 68.795 77.9998 73.0116Z" fill="#FFF7E8"/>
<path d="M77.9999 58.8026H71.7499C68.6179 63.0192 68.6179 68.795 71.7499 73.0115H77.9999C74.8677 68.795 74.8677 63.0192 77.9999 58.8026Z" fill="#FFF1D6"/>
<path d="M79.9963 78.8281H18.0689C10.9575 78.8281 5.17188 73.0319 5.17188 65.9072C5.17188 58.7825 10.9575 52.9863 18.0689 52.9863H79.9963C81.5603 52.9863 82.8281 54.2566 82.8281 55.8235C82.8281 57.3903 81.5603 58.6606 79.9963 58.6606H18.0689C14.0805 58.6606 10.8356 61.9116 10.8356 65.9074C10.8356 69.9031 14.0805 73.1541 18.0689 73.1541H79.9963C81.5603 73.1541 82.8281 74.4244 82.8281 75.9913C82.8281 77.5581 81.5603 78.8281 79.9963 78.8281Z" fill="#FF7893"/>
<path d="M77.9998 21.1973H17.8967C13.9803 21.1973 10.8054 18.0166 10.8054 14.093C10.8054 10.1694 13.9803 6.98859 17.8967 6.98859H77.9996C74.8676 11.205 74.8676 16.9808 77.9998 21.1973Z" fill="#FFF7E8"/>
<path d="M77.9999 6.98843H71.7499C68.6179 11.205 68.6179 16.9808 71.7499 21.1973H77.9999C74.8677 16.9808 74.8677 11.205 77.9999 6.98843Z" fill="#FFF1D6"/>
<path d="M79.9963 27.0139H18.0689C10.9575 27.0139 5.17188 21.2177 5.17188 14.093C5.17188 6.96813 10.9575 1.17188 18.0689 1.17188H79.9963C81.5603 1.17188 82.8281 2.44219 82.8281 4.00891C82.8281 5.57562 81.5603 6.84594 79.9963 6.84594H18.0689C14.0805 6.84594 10.8356 10.0969 10.8356 14.0927C10.8356 18.0884 14.0805 21.3394 18.0689 21.3394H79.9963C81.5603 21.3394 82.8281 22.6097 82.8281 24.1766C82.8281 25.7436 81.5603 27.0139 79.9963 27.0139Z" fill="#FF9E5E"/>
<path d="M10.0001 32.9608H70.1031C74.0195 32.9608 77.1943 36.1416 77.1943 40.0652C77.1943 43.9889 74.0195 47.1695 70.1031 47.1695H10.0001C13.1323 42.9531 13.1323 37.1773 10.0001 32.9608Z" fill="#FFF7E8"/>
<path d="M8.00375 27.1442H69.9311C77.0425 27.1442 82.8281 32.9405 82.8281 40.0652C82.8281 47.1898 77.0425 52.9861 69.9311 52.9861H8.00375C6.43969 52.9861 5.17188 51.7158 5.17188 50.1489C5.17188 48.582 6.43969 47.3117 8.00375 47.3117H69.9311C73.9195 47.3117 77.1644 44.0608 77.1644 40.065C77.1644 36.0692 73.9195 32.8183 69.9311 32.8183H8.00375C6.43969 32.8183 5.17188 31.548 5.17188 29.9811C5.17188 28.4145 6.43969 27.1442 8.00375 27.1442Z" fill="#59A1A5"/>
<path d="M69.9312 27.1442H63.6812C69.3797 27.1442 74.2236 30.8677 75.9247 36.0125C76.7071 37.17 77.1644 38.565 77.1644 40.0652C77.1644 41.5653 76.7071 42.9603 75.9247 44.1178C74.2236 49.2627 69.3797 52.9861 63.6812 52.9861H69.9312C77.0426 52.9861 82.8282 47.1898 82.8282 40.0652C82.8282 32.9405 77.0426 27.1442 69.9312 27.1442Z" fill="#419296"/>
<path d="M53.2317 40.0652H63.5247V64.3548L58.4684 59.4702L53.2317 64.3548V40.0652Z" fill="#FFD88F"/>
<path d="M58.3782 40.0652V59.5544L58.4685 59.4702L63.5247 64.3548V40.0652H58.3782Z" fill="#FFC963"/>
<path d="M84 24.1766C84 21.9661 82.2039 20.1677 79.9963 20.1677H78.7047C77.4723 18.3737 76.8225 16.2822 76.8225 14.0928C76.8225 11.9034 77.4723 9.81188 78.7048 8.01781H79.9963C85.1489 8.01781 85.1842 0 79.9963 0H33.993C32.4778 0 32.4778 2.34375 33.993 2.34375H79.9963C82.0739 2.34375 82.1683 5.67406 79.9963 5.67406H18.0689C13.4342 5.67406 9.66375 9.45063 9.66375 14.0928C9.66375 18.7348 13.4344 22.5114 18.0689 22.5114H79.9963C82.1139 22.5114 82.1342 25.9722 79.9963 25.9722H69.9311H18.0689C14.9539 25.9722 12.0133 24.7277 9.78875 22.468C7.56719 20.2116 6.34375 17.237 6.34375 14.0928C6.34375 7.61437 11.6036 2.34375 18.0689 2.34375H27.7489C29.2641 2.34375 29.2641 0 27.7489 0H18.0689C10.3113 0 4 6.32203 4 14.0928C4 17.8561 5.46266 21.4144 8.11844 24.1123C8.81203 24.8169 9.565 25.437 10.3641 25.9722H8.00375C5.79609 25.9723 4 27.7706 4 29.9814C4 32.1919 5.79609 33.9903 8.00375 33.9903H9.29516C10.5277 35.7842 11.1775 37.8756 11.1775 40.0652C11.1775 42.2547 10.5277 44.3461 9.29516 46.1402H8.00375C5.79609 46.1402 4 47.9386 4 50.1491C4 52.3595 5.79609 54.158 8.00375 54.158H10.3089C6.50984 56.6841 4 61.0072 4 65.9072C4 73.678 10.3113 80 18.0689 80H79.9963C85.1489 80 85.1842 71.982 79.9963 71.982H78.7047C77.4723 70.1881 76.8225 68.0966 76.8225 65.9072C76.8225 63.7178 77.4723 61.6264 78.7047 59.8323H79.9963C85.1489 59.8323 85.1842 51.8144 79.9963 51.8144H77.6911C81.4902 49.2881 84 44.965 84 40.0652C84 35.1653 81.4902 30.8422 77.6911 28.3161H79.9963C82.1666 28.3161 84 26.4205 84 24.1766ZM12.0075 14.0928C12.0075 10.7431 14.7267 8.01781 18.0689 8.01781H75.9717C74.9909 9.88172 74.4788 11.9486 74.4788 14.0928C74.4788 16.2369 74.9909 18.3037 75.9716 20.1677H18.0689C14.7266 20.1677 12.0075 17.4425 12.0075 14.0928ZM12.0283 33.9903H69.9311C73.2734 33.9903 75.9925 36.7155 75.9925 40.0652C75.9925 43.4148 73.2733 46.1402 69.9311 46.1402H64.6966V41.237H67.4977C69.0128 41.237 69.0128 38.8933 67.4977 38.8933H27.1384C25.6233 38.8933 25.6233 41.237 27.1384 41.237H52.0598V46.1402H12.0283C13.0091 44.2762 13.5212 42.2094 13.5212 40.0652C13.5212 37.9209 13.0089 35.8542 12.0283 33.9903ZM54.4036 41.237H62.3528V61.5931L59.2828 58.6273C58.8344 58.1941 58.1253 58.188 57.6692 58.6131L54.4038 61.6591V41.237H54.4036ZM8.00375 51.8142C7.08844 51.8142 6.34375 51.0672 6.34375 50.1491C6.34375 49.2309 7.08844 48.4839 8.00375 48.4839H52.0598V51.8142H8.00375ZM75.9717 71.982H61.8125C60.2973 71.982 60.2973 74.3258 61.8125 74.3258H79.9963C82.0739 74.3258 82.1683 77.6562 79.9963 77.6562H18.0689C11.6036 77.6562 6.34375 72.3856 6.34375 65.9072C6.34375 59.4287 11.6036 54.1581 18.0689 54.1581H52.0598V57.4886H18.0689C13.4342 57.4886 9.66375 61.2652 9.66375 65.9072C9.66375 70.5492 13.4344 74.3258 18.0689 74.3258H55.5586C57.0737 74.3258 57.0737 71.982 55.5586 71.982H18.0689C14.7266 71.982 12.0075 69.2569 12.0075 65.9072C12.0075 62.5575 14.7267 59.8323 18.0689 59.8323H52.0598V64.3547C52.0598 65.3594 53.2964 65.897 54.0311 65.2116L58.4544 61.0858L62.7105 65.1973C63.4577 65.9198 64.6966 65.3564 64.6966 64.3545V59.8322H75.9717C74.9911 61.6961 74.4789 63.7628 74.4789 65.907C74.4789 68.0512 74.9911 70.1181 75.9717 71.982ZM79.9963 54.158C82.0741 54.158 82.1683 57.4884 79.9963 57.4884H64.6966V54.158H69.9311H79.9963ZM81.6562 40.0652C81.6562 46.5436 76.3964 51.8142 69.9311 51.8142H64.6966V48.4839H69.9311C74.5658 48.4839 78.3363 44.7073 78.3363 40.0652C78.3363 35.4231 74.5656 31.6466 69.9311 31.6466H8.00375C7.08844 31.6466 6.34375 30.8995 6.34375 29.9814C6.34375 29.0631 7.08844 28.3161 8.00375 28.3161H18.0689H69.9311C76.3964 28.3161 81.6562 33.5867 81.6562 40.0652Z" fill="black"/>
</g>
<defs>
<filter id="filter0_d_2342_419" x="0" y="0" width="88" height="88" filterUnits="userSpaceOnUse" color-interpolation-filters="sRGB">
<feFlood flood-opacity="0" result="BackgroundImageFix"/>
<feColorMatrix in="SourceAlpha" type="matrix" values="0 0 0 0 0 0 0 0 0 0 0 0 0 0 0 0 0 0 127 0" result="hardAlpha"/>
<feOffset dy="4"/>
<feGaussianBlur stdDeviation="2"/>
<feComposite in2="hardAlpha" operator="out"/>
<feColorMatrix type="matrix" values="0 0 0 0 0 0 0 0 0 0 0 0 0 0 0 0 0 0 0.25 0"/>
<feBlend mode="normal" in2="BackgroundImageFix" result="effect1_dropShadow_2342_419"/>
<feBlend mode="normal" in="SourceGraphic" in2="effect1_dropShadow_2342_419" result="shape"/>
</filter>
</defs>
</svg>
