<svg width="16" height="16" viewBox="0 0 16 16" fill="none" xmlns="http://www.w3.org/2000/svg">
<g clip-path="url(#clip0_2387_538)">
<path d="M11.667 0.611328C10.9163 0.623005 10.1819 0.832564 9.53814 1.21884C8.89434 1.60512 8.36387 2.15444 8.0003 2.81133C7.63672 2.15444 7.10625 1.60512 6.46246 1.21884C5.81866 0.832564 5.08433 0.623005 4.33363 0.611328C3.13692 0.663322 2.00944 1.18683 1.19749 2.06748C0.385537 2.94814 -0.0448693 4.11435 0.000297715 5.31133C0.000297715 9.828 7.3043 15.0447 7.61496 15.266L8.0003 15.5387L8.38563 15.266C8.6963 15.046 16.0003 9.828 16.0003 5.31133C16.0455 4.11435 15.6151 2.94814 14.8031 2.06748C13.9912 1.18683 12.8637 0.663322 11.667 0.611328Z" fill="#F22626"/>
</g>
<defs>
<clipPath id="clip0_2387_538">
<rect width="16" height="16" fill="white"/>
</clipPath>
</defs>
</svg>
