<svg width="24" height="24" viewBox="0 0 24 24" fill="none" xmlns="http://www.w3.org/2000/svg">
<g clip-path="url(#clip0_2373_1132)">
<path d="M2.00002 17.5H4.5C5.60456 17.5 6.50002 18.3955 6.50002 19.5V22C6.50002 23.1046 5.60456 24 4.5 24H2.00002C0.895453 24 0 23.1046 0 22V19.5C0 18.3955 0.895453 17.5 2.00002 17.5Z" fill="#232433"/>
<path d="M19.5 17.5H22C23.1046 17.5 24 18.3955 24 19.5V22C24 23.1046 23.1046 24 22 24H19.5C18.3955 24 17.5 23.1046 17.5 22V19.5C17.5 18.3955 18.3955 17.5 19.5 17.5Z" fill="#232433"/>
<path d="M2.00002 8.75H4.5C5.60456 8.75 6.50002 9.64545 6.50002 10.75V13.25C6.50002 14.3546 5.60456 15.25 4.5 15.25H2.00002C0.895453 15.25 0 14.3546 0 13.25V10.75C0 9.64541 0.895453 8.75 2.00002 8.75Z" fill="#232433"/>
<path d="M19.5 8.75H22C23.1046 8.75 24 9.64545 24 10.75V13.25C24 14.3546 23.1046 15.25 22 15.25H19.5C18.3955 15.25 17.5 14.3546 17.5 13.25V10.75C17.5 9.64541 18.3955 8.75 19.5 8.75Z" fill="#232433"/>
<path d="M2.00002 0H4.5C5.60456 0 6.50002 0.895453 6.50002 2.00002V4.5C6.50002 5.60456 5.60456 6.50002 4.5 6.50002H2.00002C0.895453 6.50002 0 5.60456 0 4.5V2.00002C0 0.895453 0.895453 0 2.00002 0Z" fill="#232433"/>
<path d="M10.75 17.5H13.2499C14.3545 17.5 15.25 18.3955 15.25 19.5V22C15.25 23.1046 14.3545 24 13.2499 24H10.75C9.64539 24 8.74994 23.1046 8.74994 22V19.5C8.74999 18.3955 9.64539 17.5 10.75 17.5Z" fill="#232433"/>
<path d="M10.75 8.75H13.2499C14.3545 8.75 15.25 9.64545 15.25 10.75V13.25C15.25 14.3546 14.3545 15.25 13.2499 15.25H10.75C9.64539 15.25 8.74994 14.3546 8.74994 13.25V10.75C8.74999 9.64541 9.64539 8.75 10.75 8.75Z" fill="#232433"/>
<path d="M10.75 0H13.2499C14.3545 0 15.25 0.895453 15.25 2.00002V4.5C15.25 5.60456 14.3545 6.50002 13.2499 6.50002H10.75C9.64539 6.50002 8.74994 5.60456 8.74994 4.5V2.00002C8.74999 0.895453 9.64539 0 10.75 0Z" fill="#232433"/>
<path d="M19.5 0H22C23.1046 0 24 0.895453 24 2.00002V4.5C24 5.60456 23.1046 6.50002 22 6.50002H19.5C18.3955 6.50002 17.5 5.60456 17.5 4.5V2.00002C17.5 0.895453 18.3955 0 19.5 0Z" fill="#232433"/>
</g>
<defs>
<clipPath id="clip0_2373_1132">
<rect width="24" height="24" fill="white"/>
</clipPath>
</defs>
</svg>
