<svg width="16" height="16" viewBox="0 0 16 16" fill="none" xmlns="http://www.w3.org/2000/svg">
<g clip-path="url(#clip0_2387_530)">
<path d="M7.99991 15.641L7.42258 15.233C6.66258 14.6957 -9.02992e-05 9.85501 -9.02992e-05 5.43301C-0.0431968 4.194 0.405955 2.98832 1.24919 2.0795C2.09242 1.17069 3.26115 0.632652 4.49991 0.583008C5.18368 0.589728 5.85639 0.756451 6.46416 1.06983C7.07193 1.38321 7.59788 1.83453 7.99991 2.38767C8.40194 1.83453 8.92789 1.38321 9.53566 1.06983C10.1434 0.756451 10.8161 0.589728 11.4999 0.583008C12.7387 0.632652 13.9074 1.17069 14.7506 2.0795C15.5939 2.98832 16.043 4.194 15.9999 5.43301C15.9999 9.85501 9.33724 14.6957 8.57724 15.233L7.99991 15.641ZM4.49991 2.58301C3.79189 2.63317 3.13223 2.9606 2.66416 3.4942C2.1961 4.02779 1.9574 4.72448 1.99991 5.43301C1.99991 8.04367 5.90858 11.573 7.99991 13.1737C10.0912 11.5737 13.9999 8.04367 13.9999 5.43301C14.0424 4.72448 13.8037 4.02779 13.3357 3.4942C12.8676 2.9606 12.2079 2.63317 11.4999 2.58301C10.7919 2.63317 10.1322 2.9606 9.66417 3.4942C9.1961 4.02779 8.95741 4.72448 8.99991 5.43301H6.99991C7.04242 4.72448 6.80372 4.02779 6.33566 3.4942C5.86759 2.9606 5.20793 2.63317 4.49991 2.58301Z" fill="#51525C"/>
</g>
<defs>
<clipPath id="clip0_2387_530">
<rect width="16" height="16" fill="white"/>
</clipPath>
</defs>
</svg>
