<svg width="16" height="16" viewBox="0 0 16 16" fill="none" xmlns="http://www.w3.org/2000/svg">
    <g clip-path="url(#clip0_3084_578)">
        <path d="M15.9999 16H8.01128C6.45063 15.9991 4.92432 15.5418 3.62033 14.6843C2.31635 13.8269 1.29164 12.6067 0.672416 11.1742C0.0531943 9.74164 -0.133497 8.15926 0.135336 6.62194C0.404169 5.08462 1.11679 3.65951 2.18542 2.52212C3.25405 1.38473 4.63202 0.584749 6.14961 0.220701C7.6672 -0.143348 9.25814 -0.0555616 10.7265 0.473247C12.1948 1.00205 13.4764 1.94879 14.4134 3.19685C15.3504 4.4449 15.9019 5.93977 15.9999 7.49733V7.56V16ZM8.01128 2C7.22335 2 6.44313 2.15519 5.71518 2.45672C4.98722 2.75825 4.32579 3.20021 3.76864 3.75736C3.21148 4.31451 2.76953 4.97595 2.468 5.7039C2.16647 6.43185 2.01128 7.21207 2.01128 8C2.01128 8.78793 2.16647 9.56815 2.468 10.2961C2.76953 11.0241 3.21148 11.6855 3.76864 12.2426C4.32579 12.7998 4.98722 13.2417 5.71518 13.5433C6.44313 13.8448 7.22335 14 8.01128 14H13.9999V7.59267C13.8944 6.07581 13.2177 4.65535 12.1065 3.61754C10.9952 2.57973 9.53181 2.00173 8.01128 2Z" fill="#4F5FF5"/>
        <path d="M9.33337 5.3335H5.33337V7.3335H9.33337V5.3335Z" fill="#4F5FF5"/>
        <path d="M12 9.3335H5.33337V11.3335H12V9.3335Z" fill="#4F5FF5"/>
    </g>
    <defs>
        <clipPath id="clip0_3084_578">
            <rect width="16" height="16" fill="white"/>
        </clipPath>
    </defs>
</svg>
