<svg width="24" height="24" viewBox="0 0 24 24" fill="none" xmlns="http://www.w3.org/2000/svg">
<g clip-path="url(#clip0_2372_1037)">
<path d="M18.5 0.999756H5.5C4.0418 1.00134 2.64377 1.58132 1.61267 2.61242C0.581561 3.64353 0.00158817 5.04155 0 6.49976L0 17.4998C0.00158817 18.958 0.581561 20.356 1.61267 21.3871C2.64377 22.4182 4.0418 22.9982 5.5 22.9998H18.5C19.9582 22.9982 21.3562 22.4182 22.3873 21.3871C23.4184 20.356 23.9984 18.958 24 17.4998V6.49976C23.9984 5.04155 23.4184 3.64353 22.3873 2.61242C21.3562 1.58132 19.9582 1.00134 18.5 0.999756ZM18.5 3.99976C19.1065 4.00177 19.6911 4.2263 20.143 4.63076L13.643 11.1308C13.2015 11.5524 12.6145 11.7877 12.004 11.7877C11.3935 11.7877 10.8065 11.5524 10.365 11.1308L3.865 4.63076C4.31485 4.22813 4.8963 4.00373 5.5 3.99976H18.5ZM18.5 19.9998H5.5C4.83696 19.9998 4.20107 19.7364 3.73223 19.2675C3.26339 18.7987 3 18.1628 3 17.4998V8.01676L8.239 13.2558C8.73276 13.7497 9.319 14.1416 9.96424 14.4089C10.6095 14.6763 11.3011 14.8139 11.9995 14.8139C12.6979 14.8139 13.3895 14.6763 14.0348 14.4089C14.68 14.1416 15.2662 13.7497 15.76 13.2558L21 8.01676V17.4998C21 18.1628 20.7366 18.7987 20.2678 19.2675C19.7989 19.7364 19.163 19.9998 18.5 19.9998Z" fill="#232433"/>
</g>
<defs>
<clipPath id="clip0_2372_1037">
<rect width="24" height="24" fill="white"/>
</clipPath>
</defs>
</svg>
