<svg width="20" height="20" viewBox="0 0 20 20" fill="none" xmlns="http://www.w3.org/2000/svg">
<path d="M15.8333 8.74978H8.50577L10.5383 6.71728C10.7728 6.4829 10.9045 6.16496 10.9046 5.83341C10.9047 5.50186 10.7731 5.18386 10.5387 4.94936C10.3043 4.71487 9.98636 4.58309 9.65481 4.58301C9.32326 4.58293 9.00526 4.71456 8.77077 4.94895L5.78243 7.93728C5.23641 8.48481 4.92978 9.22652 4.92978 9.99978C4.92978 10.773 5.23641 11.5148 5.78243 12.0623L8.77077 15.0506C9.00526 15.285 9.32326 15.4166 9.65481 15.4166C9.98636 15.4165 10.3043 15.2847 10.5387 15.0502C10.7731 14.8157 10.9047 14.4977 10.9046 14.1662C10.9045 13.8346 10.7728 13.5167 10.5383 13.2823L8.50577 11.2498H15.8333C16.1648 11.2498 16.4827 11.1181 16.7172 10.8837C16.9516 10.6492 17.0833 10.3313 17.0833 9.99978C17.0833 9.66826 16.9516 9.35032 16.7172 9.1159C16.4827 8.88148 16.1648 8.74978 15.8333 8.74978Z" fill="#51525C"/>
</svg>
