<svg width="88" height="88" viewBox="0 0 88 88" fill="none" xmlns="http://www.w3.org/2000/svg">
<g filter="url(#filter0_d_2342_515)">
<path d="M78.3882 35.8603L81.8971 29.2851C82.4023 28.3385 82.6665 27.2821 82.6665 26.2091C82.6665 25.0809 82.3744 23.9719 81.8185 22.9901C81.2626 22.0084 80.462 21.1873 79.4946 20.6068L78.4823 19.9995H73.3332V25.3328L67.8022 30.5673L78.3882 35.8603Z" fill="#FFCEB6"/>
<path d="M78.6667 7.99945H73.3334C71.8607 7.99945 70.6667 9.19336 70.6667 10.6661V22.6661C70.6667 24.1389 71.8607 25.3328 73.3334 25.3328H78.6667C80.1395 25.3328 81.3334 24.1389 81.3334 22.6661V10.6661C81.3334 9.19336 80.1395 7.99945 78.6667 7.99945Z" fill="#4F5DFF"/>
<path d="M60 44.4499L67.8023 30.5673L78.3883 35.8603L69.7757 51.9994H60V44.4499Z" fill="#F78E00"/>
<path d="M74.6665 30.6661V26.8803C74.6665 26.3416 74.5577 25.8085 74.3466 25.3129C74.1355 24.8173 73.8265 24.3694 73.4381 23.9962L71.5274 22.1601C71.2928 21.9346 70.982 21.8056 70.6567 21.7988C70.3314 21.7919 70.0154 21.9077 69.7715 22.123C69.6337 22.2446 69.5234 22.3942 69.4478 22.5617C69.3723 22.7292 69.3332 22.9109 69.3332 23.0946V27.8433L67.8022 30.5673L74.6665 30.6661Z" fill="#FFCEB6"/>
<path d="M27.9999 44.4499L20.1976 30.5673L9.61157 35.8603L18.2242 51.9994H27.9999V44.4499Z" fill="#F78E00"/>
<path d="M9.61155 35.8603L6.10265 29.2851C5.5975 28.3385 5.33325 27.2821 5.33325 26.2091C5.33325 25.0809 5.62541 23.9719 6.18128 22.9901C6.73715 22.0084 7.53778 21.1873 8.50522 20.6068L9.51748 19.9995H14.6666V25.3328L20.1975 30.5673L9.61155 35.8603Z" fill="#FFCEB6"/>
<path d="M73.8034 54.7044V60.1428H65.4367L58.6667 50.6661V78.6661H29.3334V50.6661L22.6667 59.9994H10.6667L21.2301 44.1561C22.0821 42.8775 23.2367 41.8292 24.5913 41.104C25.9459 40.3789 27.4586 39.9995 28.9951 39.9995H59.0051C60.5415 39.9995 62.0542 40.3789 63.4088 41.104C64.7634 41.8292 65.918 42.8775 66.7701 44.1561L73.8034 54.7044Z" fill="#FFA100"/>
<path d="M45.3333 46.6661L48 62.6661L44 66.6661L40 62.6661L42.6667 46.6661H45.3333Z" fill="#EF5E3B"/>
<path d="M28 73.3328H48V75.9994C48 76.7067 47.719 77.385 47.2189 77.885C46.7188 78.3851 46.0406 78.6661 45.3333 78.6661H28V73.3328Z" fill="#3942ED"/>
<path d="M11.9999 78.6661L5.33325 59.9994H25.3332L31.9999 78.6661H11.9999Z" fill="#4F5DFF"/>
<path d="M18.6667 71.9994C20.1394 71.9994 21.3333 70.8055 21.3333 69.3327C21.3333 67.86 20.1394 66.6661 18.6667 66.6661C17.1939 66.6661 16 67.86 16 69.3327C16 70.8055 17.1939 71.9994 18.6667 71.9994Z" fill="#788DFF"/>
<path d="M82.6666 55.9994L66.6666 49.3328L57.3333 73.3327L73.3332 78.6661L82.6666 55.9994Z" fill="#FFC431"/>
<path d="M70.6667 65.3327H76.0001V63.2183C76.0001 62.9707 76.0489 62.7255 76.1436 62.4968C76.2384 62.268 76.3773 62.0601 76.5524 61.885C76.7275 61.7099 76.9353 61.571 77.1641 61.4763C77.3929 61.3815 77.6381 61.3327 77.8857 61.3327C78.3858 61.3327 78.8654 61.5314 79.219 61.885L82.6667 65.3327V69.3327C82.6667 70.3936 82.2453 71.411 81.4952 72.1612C80.745 72.9113 79.7276 73.3327 78.6667 73.3327H73.3334C72.6262 73.3327 71.9479 73.0518 71.4478 72.5517C70.9477 72.0516 70.6667 71.3733 70.6667 70.6661V65.3327Z" fill="#FFCEB6"/>
<path d="M13.3334 10.6661H10.6667V15.9995H13.3334V10.6661Z" fill="#FFA100"/>
<path d="M14.6668 15.9995H9.3335V23.9994C9.3335 24.7067 9.61445 25.385 10.1145 25.8851C10.6146 26.3852 11.2929 26.6661 12.0002 26.6661C12.7074 26.6661 13.3857 26.3852 13.8858 25.8851C14.3859 25.385 14.6668 24.7067 14.6668 23.9994V15.9995Z" fill="#C47220"/>
<path d="M42.6668 46.6661L41.3335 43.9994L44.0002 41.3328L46.6668 43.9994L45.3335 46.6661H42.6668Z" fill="#E04F2B"/>
<path d="M52 21.3328V33.3328C52 35.4545 51.1571 37.4893 49.6568 38.9896C48.1566 40.4899 46.1217 41.3328 44 41.3328C41.8783 41.3328 39.8434 40.4899 38.3431 38.9896C36.8429 37.4893 36 35.4545 36 33.3328V27.9995L42.6667 21.3328H52Z" fill="#FFCEB6"/>
<path d="M52 21.3328L52.8446 20.9105C53.3921 20.6367 53.8526 20.2159 54.1744 19.6952C54.4962 19.1745 54.6667 18.5744 54.6667 17.9623C54.6667 17.5294 54.5814 17.1008 54.4157 16.7009C54.2501 16.301 54.0073 15.9376 53.7012 15.6315C53.3952 15.3255 53.0318 15.0827 52.6319 14.917C52.232 14.7514 51.8033 14.6661 51.3705 14.6661H42.6667C40.8986 14.6661 39.2029 15.3685 37.9526 16.6187C36.7024 17.869 36 19.5647 36 21.3328V27.9994L42.6667 21.3328H52Z" fill="#C47220"/>
<path d="M13.3333 30.6661V26.8803C13.3333 26.3416 13.4421 25.8085 13.6531 25.3129C13.8642 24.8173 14.1733 24.3694 14.5617 23.9962L16.4723 22.1601C16.707 21.9346 17.0178 21.8056 17.3431 21.7988C17.6684 21.7919 17.9844 21.9077 18.2283 22.123C18.3661 22.2446 18.4764 22.3942 18.5519 22.5617C18.6275 22.7292 18.6666 22.9109 18.6666 23.0946V27.8433L20.1975 30.5673L13.3333 30.6661Z" fill="#FFCEB6"/>
<path d="M12.0001 11.9995C14.9456 11.9995 17.3334 9.61164 17.3334 6.66612C17.3334 3.72061 14.9456 1.33279 12.0001 1.33279C9.05456 1.33279 6.66675 3.72061 6.66675 6.66612C6.66675 9.61164 9.05456 11.9995 12.0001 11.9995Z" fill="#8BE0E8"/>
<path d="M18.6667 65.3328C17.8756 65.3328 17.1023 65.5674 16.4445 66.0069C15.7867 66.4464 15.274 67.0711 14.9712 67.802C14.6685 68.5329 14.5893 69.3372 14.7436 70.1131C14.8979 70.889 15.2789 71.6018 15.8383 72.1612C16.3977 72.7206 17.1105 73.1016 17.8864 73.2559C18.6623 73.4102 19.4666 73.331 20.1975 73.0283C20.9284 72.7255 21.5531 72.2128 21.9926 71.555C22.4321 70.8972 22.6667 70.1239 22.6667 69.3328C22.6655 68.2723 22.2437 67.2556 21.4938 66.5057C20.744 65.7558 19.7272 65.334 18.6667 65.3328ZM18.6667 70.6661C18.403 70.6661 18.1453 70.5879 17.926 70.4414C17.7067 70.2949 17.5358 70.0866 17.4349 69.843C17.334 69.5994 17.3076 69.3313 17.359 69.0726C17.4105 68.814 17.5375 68.5764 17.7239 68.39C17.9104 68.2035 18.148 68.0765 18.4066 68.025C18.6653 67.9736 18.9334 68 19.177 68.1009C19.4206 68.2018 19.6289 68.3727 19.7754 68.592C19.9219 68.8113 20.0001 69.0691 20.0001 69.3328C19.9997 69.6863 19.8591 70.0252 19.6091 70.2751C19.3591 70.5251 19.0202 70.6657 18.6667 70.6661Z" fill="black"/>
<path d="M42.6668 29.3328C43.4032 29.3328 44.0002 28.7358 44.0002 27.9994C44.0002 27.2631 43.4032 26.6661 42.6668 26.6661C41.9304 26.6661 41.3335 27.2631 41.3335 27.9994C41.3335 28.7358 41.9304 29.3328 42.6668 29.3328Z" fill="black"/>
<path d="M42.2761 32.3899L40.3904 34.2756C40.9356 34.8239 41.5842 35.2585 42.2986 35.5544C43.013 35.8503 43.7789 36.0016 44.5522 35.9994H47.9999V33.3328H44.5522C44.1293 33.3339 43.7104 33.2512 43.3197 33.0894C42.929 32.9275 42.5743 32.6898 42.2761 32.3899Z" fill="black"/>
<path d="M48.0001 29.3328C48.7365 29.3328 49.3334 28.7358 49.3334 27.9994C49.3334 27.2631 48.7365 26.6661 48.0001 26.6661C47.2637 26.6661 46.6667 27.2631 46.6667 27.9994C46.6667 28.7358 47.2637 29.3328 48.0001 29.3328Z" fill="black"/>
<path d="M81.5157 62.2961L83.8995 56.5071C84.0338 56.181 84.0334 55.815 83.8985 55.4892C83.7635 55.1633 83.505 54.9043 83.1795 54.7686L72.475 50.3084L67.8802 43.4159C66.9074 41.9535 65.588 40.7544 64.0394 39.9257C62.4908 39.0969 60.7612 38.6642 59.0048 38.6661H51.6528C52.7481 37.1034 53.3349 35.2411 53.3333 33.3328V22.1567L53.4407 22.103C54.3735 21.6366 55.1215 20.8689 55.5636 19.9244C56.0056 18.9798 56.1157 17.9136 55.8761 16.8986C55.6365 15.8836 55.0612 14.9793 54.2434 14.3321C53.4257 13.6849 52.4133 13.3328 51.3704 13.3328H42.6666C40.5456 13.3352 38.5122 14.1788 37.0124 15.6786C35.5126 17.1783 34.669 19.2118 34.6666 21.3328V33.3328C34.6651 35.2411 35.2519 37.1034 36.3471 38.6661H28.9951C27.2387 38.6642 25.5091 39.0969 23.9605 39.9257C22.412 40.7544 21.0925 41.9535 20.1198 43.4159L9.95311 58.6661H5.33333C5.11967 58.6661 4.90914 58.7175 4.71948 58.8158C4.52981 58.9142 4.36656 59.0567 4.24348 59.2314C4.1204 59.406 4.04109 59.6077 4.01222 59.8194C3.98336 60.0311 4.00579 60.2466 4.07763 60.4478L10.7443 79.1145C10.8368 79.3735 11.0071 79.5975 11.2319 79.756C11.4567 79.9144 11.725 79.9994 12 79.9994H45.3333C46.3938 79.9982 47.4105 79.5764 48.1604 78.8265C48.9103 78.0766 49.3321 77.0599 49.3333 75.9994V73.3328C49.3333 72.9791 49.1928 72.64 48.9428 72.39C48.6927 72.1399 48.3536 71.9994 48 71.9994H31.0349L30.6666 70.9684V50.6661C30.6666 50.3836 30.5769 50.1084 30.4104 49.8802C30.2439 49.652 30.0092 49.4826 29.7402 49.3964C29.4712 49.3102 29.1817 49.3117 28.9136 49.4006C28.6455 49.4895 28.4125 49.6613 28.2484 49.8912L21.9806 58.6661H13.1579L22.3385 44.8951C23.0681 43.7983 24.0577 42.899 25.2191 42.2774C26.3806 41.6559 27.6778 41.3313 28.9951 41.3328H35.0973L37.4287 47.1612C37.5106 47.3661 37.6421 47.5474 37.8114 47.689C37.9807 47.8305 38.1824 47.9278 38.3986 47.9722C38.6147 48.0166 38.8385 48.0066 39.0498 47.9432C39.2612 47.8798 39.4535 47.765 39.6095 47.609L40.9681 46.2504L41.2803 46.8746L38.6847 62.4469C38.6499 62.6562 38.6655 62.8709 38.7303 63.073C38.795 63.2751 38.9071 63.4588 39.0571 63.609L43.0571 67.609C43.3072 67.859 43.6463 67.9994 44 67.9994C44.3536 67.9994 44.6927 67.859 44.9428 67.609L48.9428 63.609C49.0929 63.4588 49.2049 63.2751 49.2697 63.073C49.3344 62.8709 49.3501 62.6562 49.3152 62.4469L46.7197 46.8746L47.0318 46.2504L48.3904 47.609C48.5465 47.765 48.7388 47.8799 48.9501 47.9433C49.1615 48.0067 49.3852 48.0166 49.6014 47.9723C49.8175 47.9279 50.0193 47.8306 50.1886 47.689C50.3578 47.5475 50.4893 47.3661 50.5713 47.1612L52.9026 41.3328H59.0048C60.3221 41.3313 61.6193 41.6559 62.7808 42.2774C63.9422 42.899 64.9319 43.7983 65.6614 44.8951L68.0376 48.4595L67.1795 48.102C67.0154 48.0336 66.8392 47.9988 66.6615 47.9995C66.4837 48.0002 66.3078 48.0364 66.1443 48.1061C65.9807 48.1757 65.8327 48.2774 65.709 48.405C65.5853 48.5327 65.4884 48.6838 65.4239 48.8495L63.1621 54.6659L59.7516 49.8912C59.5874 49.6613 59.3545 49.4895 59.0863 49.4006C58.8182 49.3117 58.5288 49.3102 58.2597 49.3964C57.9907 49.4826 57.756 49.652 57.5895 49.8802C57.423 50.1084 57.3333 50.3836 57.3333 50.6661V69.654L56.0906 72.8495C56.0252 73.0178 55.9946 73.1977 56.0008 73.3782C56.0069 73.5587 56.0497 73.7361 56.1265 73.8996C56.2032 74.063 56.3124 74.2092 56.4474 74.3292C56.5823 74.4492 56.7403 74.5406 56.9116 74.5977L57.3333 74.7383V79.9994H60V75.6272L72.9116 79.9311C73.232 80.0381 73.5811 80.0195 73.8883 79.8789C74.1955 79.7383 74.4378 79.4862 74.5662 79.1737L76.4223 74.6661H78.6666C80.0806 74.6645 81.4362 74.102 82.4361 73.1022C83.4359 72.1024 83.9983 70.7467 83.9999 69.3328V65.3328C83.9999 64.9791 83.8595 64.64 83.6095 64.3899L81.5157 62.2961ZM46.6666 74.6661V75.9994C46.6662 76.3529 46.5256 76.6918 46.2757 76.9418C46.0257 77.1917 45.6868 77.3323 45.3333 77.3327H32.9396L31.9872 74.6661H46.6666ZM28 54.8267V63.5017L26.589 59.551C26.4965 59.292 26.3262 59.068 26.1014 58.9096C25.8766 58.7511 25.6083 58.6661 25.3333 58.6661H25.2575L28 54.8267ZM24.3937 61.3328L30.108 77.3327H12.9396L7.22525 61.3328H24.3937ZM37.3333 21.3328C37.3349 19.9188 37.8973 18.5632 38.8972 17.5633C39.897 16.5635 41.2526 16.0011 42.6666 15.9995H51.3704C51.8126 15.9994 52.2418 16.1487 52.5886 16.4231C52.9353 16.6975 53.1792 17.081 53.2808 17.5113C53.3824 17.9417 53.3357 18.3937 53.1483 18.7942C52.9608 19.1947 52.6437 19.5202 52.2482 19.7179L51.6851 19.9995H42.6666C42.313 19.9995 41.9739 20.1399 41.7238 20.3899L37.3333 24.7804V21.3328ZM39.1536 44.2935L37.9693 41.3328H39.1983C39.8298 41.7136 40.5045 42.0179 41.2079 42.2391L39.1536 44.2935ZM44 64.7805L41.428 62.2084L43.7962 47.9994H44.2037L46.5719 62.2084L44 64.7805ZM42.9557 44.2628L44 43.2185L45.0442 44.2628L44.5092 45.3328H43.4907L42.9557 44.2628ZM48.8463 44.2935L46.792 42.2391C47.4955 42.0179 48.1701 41.7136 48.8016 41.3328H50.0306L48.8463 44.2935ZM50.6666 33.3328C50.6666 35.1009 49.9643 36.7966 48.714 38.0468C47.4638 39.2971 45.7681 39.9994 44 39.9994C42.2319 39.9994 40.5362 39.2971 39.2859 38.0468C38.0357 36.7966 37.3333 35.1009 37.3333 33.3328V28.5517L43.2189 22.6661H50.6666V33.3328ZM60 54.8267L62.0069 57.6363L60 62.797V54.8267ZM72.5742 77.0076L59.0836 72.5107L67.4143 51.0888L80.9282 56.7195L79.418 60.3869C78.9276 60.1217 78.3767 59.9885 77.8194 60.0001C77.262 60.0118 76.7172 60.1679 76.2383 60.4533C75.7593 60.7387 75.3627 61.1436 75.0872 61.6283C74.8117 62.1129 74.6668 62.6608 74.6666 63.2183V63.9994H70.6666C70.313 63.9994 69.9739 64.1399 69.7238 64.39C69.4738 64.64 69.3333 64.9791 69.3333 65.3328V70.6661C69.3345 71.7266 69.7563 72.7433 70.5062 73.4932C71.2561 74.2431 72.2728 74.6649 73.3333 74.6661H73.5384L72.5742 77.0076ZM81.3333 69.3328C81.3325 70.0398 81.0513 70.7176 80.5513 71.2175C80.0514 71.7174 79.3736 71.9986 78.6666 71.9994H73.3333C72.9798 71.999 72.6409 71.8584 72.3909 71.6085C72.141 71.3585 72.0004 71.0196 71.9999 70.6661V66.6661H75.9999C76.3536 66.6661 76.6927 66.5256 76.9427 66.2755C77.1928 66.0255 77.3333 65.6864 77.3333 65.3328V63.2183C77.3333 63.1091 77.3656 63.0023 77.4263 62.9115C77.487 62.8207 77.5733 62.7499 77.6742 62.7081C77.7751 62.6663 77.8861 62.6554 77.9932 62.6767C78.1004 62.698 78.1988 62.7506 78.276 62.8279L81.3333 65.885V69.3328Z" fill="black"/>
<path d="M13.4904 45.9605L15.8429 44.705L11.4326 36.4405L19.6577 32.328L22.8377 37.9861L25.1623 36.6795L20 27.4944V23.0947C20.0002 22.6276 19.8759 22.1688 19.6398 21.7658C19.4037 21.3627 19.0644 21.0299 18.6569 20.8017C18.2494 20.5734 17.7883 20.458 17.3213 20.4672C16.8543 20.4765 16.3982 20.6101 16 20.8543V15.9995C16 15.6458 15.8595 15.3067 15.6095 15.0567C15.3594 14.8066 15.0203 14.6661 14.6667 14.6661H13.3333V13.1986C14.9521 12.8682 16.3904 11.9485 17.3696 10.6178C18.3488 9.28718 18.799 7.64034 18.6329 5.9966C18.4669 4.35287 17.6964 2.82934 16.4709 1.72139C15.2454 0.613439 13.6521 0 12 0C10.3479 0 8.75466 0.613439 7.52914 1.72139C6.30363 2.82934 5.53316 4.35287 5.36711 5.9966C5.20106 7.64034 5.65125 9.28718 6.63042 10.6178C7.60958 11.9485 9.04796 12.8682 10.6667 13.1986V14.6661H9.33335C8.97973 14.6661 8.6406 14.8066 8.39056 15.0567C8.14051 15.3067 8.00003 15.6458 8.00001 15.9995V19.3551L7.81935 19.4635C6.0889 20.5017 4.82363 22.1653 4.28519 24.1102C3.74676 26.0551 3.97633 28.1325 4.92644 29.9129L13.4904 45.9605ZM8.00001 6.66612C8.00001 5.875 8.23461 5.10164 8.67414 4.44384C9.11366 3.78605 9.73837 3.27336 10.4693 2.97061C11.2002 2.66786 12.0044 2.58864 12.7804 2.74299C13.5563 2.89733 14.269 3.27829 14.8284 3.8377C15.3878 4.39711 15.7688 5.10984 15.9232 5.88576C16.0775 6.66169 15.9983 7.46595 15.6955 8.19686C15.3928 8.92776 14.8801 9.55247 14.2223 9.992C13.5645 10.4315 12.7911 10.6661 12 10.6661C10.9395 10.6649 9.92281 10.2431 9.17293 9.49321C8.42304 8.74333 8.00123 7.72662 8.00001 6.66612ZM10.6667 17.3328H13.3333V23.3554C12.8354 23.9224 12.4627 24.5879 12.2393 25.3086C12.047 25.346 11.8489 25.3401 11.6592 25.2914C11.4694 25.2427 11.2929 25.1524 11.1424 25.0271C10.9919 24.9018 10.8711 24.7446 10.7888 24.5669C10.7065 24.3891 10.6648 24.1953 10.6667 23.9994V17.3328ZM8.00001 22.7398V23.9994C8.00123 25.0599 8.42304 26.0767 9.17293 26.8265C9.92281 27.5764 10.9395 27.9982 12 27.9994V29.1767H14.6667V26.8803C14.6674 26.5213 14.7403 26.1661 14.8809 25.8358C15.0216 25.5056 15.2272 25.2069 15.4855 24.9576L17.3333 23.1821V27.8434C17.3334 28.0722 17.3923 28.2972 17.5044 28.4967L18.3496 30.0006L10.1766 34.0871L7.27915 28.6575C6.77633 27.7166 6.57576 26.6437 6.70475 25.5847C6.83375 24.5258 7.28604 23.5324 8.00001 22.7398Z" fill="black"/>
<path d="M71.2758 44.2584L72.8549 46.4072C73.7872 45.7238 74.5635 44.8499 75.1321 43.8435L82.9911 29.9749C83.6894 28.7427 84.0372 27.343 83.9967 25.9273C83.9563 24.5116 83.5292 23.1339 82.7618 21.9436L82.6666 22.005V10.6661C82.6654 9.60564 82.2435 8.58893 81.4937 7.83905C80.7438 7.08917 79.7271 6.66735 78.6666 6.66614H73.3332C72.2728 6.66735 71.256 7.08917 70.5062 7.83905C69.7563 8.58893 69.3345 9.60564 69.3332 10.6661V20.8098C69.1745 20.8985 69.0256 21.0037 68.8889 21.1236C68.6096 21.3705 68.3859 21.6738 68.2326 22.0136C68.0793 22.3534 68 22.7219 67.9999 23.0947V27.4944L62.8376 36.6795L65.1622 37.9861L68.3422 32.328L76.3295 36.3216L72.8121 42.5286C72.4286 43.2077 71.9049 43.7974 71.2758 44.2584ZM73.3332 9.3328H74.6666C74.6666 9.68642 74.8071 10.0256 75.0571 10.2756C75.3071 10.5257 75.6463 10.6661 75.9999 10.6661C76.3535 10.6661 76.6927 10.5257 76.9427 10.2756C77.1928 10.0256 77.3332 9.68642 77.3332 9.3328H78.6666C79.0201 9.33321 79.359 9.47381 79.6089 9.72377C79.8589 9.97373 79.9995 10.3126 79.9999 10.6661V22.6661C79.9995 23.0196 79.8589 23.3585 79.6089 23.6085C79.359 23.8584 79.0201 23.9991 78.6666 23.9995H75.1513C74.9271 23.648 74.6622 23.3242 74.3621 23.0348L72.4514 21.1988C72.314 21.0678 72.1626 20.9522 71.9999 20.8543V10.6661C72.0003 10.3126 72.1409 9.97373 72.3909 9.72377C72.6408 9.47381 72.9797 9.33321 73.3332 9.3328ZM69.6503 30.0006L70.4955 28.4967C70.6077 28.2972 70.6666 28.0722 70.6666 27.8434V23.1821L72.5144 24.9576C72.7727 25.2069 72.9783 25.5056 73.119 25.8359C73.2596 26.1661 73.3325 26.5213 73.3332 26.8803V29.1767H75.9999V26.8803C75.9999 26.8088 75.9973 26.7374 75.9944 26.6661H78.6666C79.6395 26.6667 80.5789 26.3111 81.3076 25.6665C81.3228 25.8264 81.3332 25.987 81.3332 26.1489C81.3328 27.029 81.1047 27.8941 80.6711 28.6601L77.646 33.9984L69.6503 30.0006Z" fill="black"/>
</g>
<defs>
<filter id="filter0_d_2342_515" x="0" y="0" width="88" height="87.9998" filterUnits="userSpaceOnUse" color-interpolation-filters="sRGB">
<feFlood flood-opacity="0" result="BackgroundImageFix"/>
<feColorMatrix in="SourceAlpha" type="matrix" values="0 0 0 0 0 0 0 0 0 0 0 0 0 0 0 0 0 0 127 0" result="hardAlpha"/>
<feOffset dy="4"/>
<feGaussianBlur stdDeviation="2"/>
<feComposite in2="hardAlpha" operator="out"/>
<feColorMatrix type="matrix" values="0 0 0 0 0 0 0 0 0 0 0 0 0 0 0 0 0 0 0.25 0"/>
<feBlend mode="normal" in2="BackgroundImageFix" result="effect1_dropShadow_2342_515"/>
<feBlend mode="normal" in="SourceGraphic" in2="effect1_dropShadow_2342_515" result="shape"/>
</filter>
</defs>
</svg>
