<svg width="49" height="49" viewBox="0 0 49 49" fill="none" xmlns="http://www.w3.org/2000/svg">
<path d="M1.75 39.0923C2.71729 39.0923 3.5 38.3096 3.5 37.3423V9.62256C3.5 8.65784 4.28442 7.87256 5.25 7.87256H32.9697C33.937 7.87256 34.7197 7.08899 34.7197 6.12256C34.7197 5.15613 33.937 4.37256 32.9697 4.37256H5.25C2.35498 4.37256 0 6.72754 0 9.62256V37.3423C0 38.3096 0.782715 39.0923 1.75 39.0923Z" fill="#E3E4E8"/>
<path d="M49 9.62244C49 7.68669 47.9352 6.01125 46.3719 5.10089L48.4856 2.9873C49.1692 2.30371 49.1692 1.19629 48.4856 0.512695C47.802 -0.170898 46.6946 -0.170898 46.011 0.512695L0.514404 46.0084C-0.169189 46.692 -0.169189 47.7994 0.514404 48.483C0.856201 48.8248 1.30396 48.9957 1.75171 48.9957C2.19946 48.9957 2.64722 48.8248 2.98901 48.483L6.84972 44.6224H43.75C46.645 44.6224 49 42.2675 49 39.3724V9.62244ZM45.5 39.3724C45.5 40.338 44.7156 41.1224 43.75 41.1224H10.3497L23.1503 28.3221L27.636 34.6573C27.9419 35.0914 28.429 35.3649 28.9587 35.3973C29.4834 35.4196 30.0063 35.2196 30.3618 34.8282L35.7075 28.9203L40.9319 36.1459C41.2737 36.6193 41.8086 36.8705 42.3521 36.8705C42.7075 36.8705 43.0664 36.7628 43.3757 36.5389C44.1584 35.9716 44.3345 34.8778 43.7688 34.0951L37.2764 25.1169C36.967 24.6888 36.48 24.4231 35.9519 24.3949C35.4341 24.3735 34.9128 24.5778 34.5591 24.97L29.2441 30.8583L25.6631 25.8094L30.2836 21.1889C31.3287 22.218 32.7533 22.8346 34.2822 22.8346C37.4182 22.8346 39.9697 20.2831 39.9697 17.1471C39.9697 15.6154 39.3516 14.1933 38.3185 13.1542L43.6004 7.87244H43.75C44.7156 7.87244 45.5 8.65771 45.5 9.62244V39.3724ZM35.8275 15.6451C36.218 16.0418 36.4697 16.5655 36.4697 17.1471C36.4697 18.3536 35.4888 19.3346 34.2822 19.3346C33.7017 19.3346 33.1754 19.0857 32.7735 18.6991L35.8275 15.6451Z" fill="#E3E4E8"/>
<path d="M18.0537 16.395C17.4777 16.4027 16.9411 16.6941 16.6215 17.1735L10.864 25.8004C10.3936 26.5054 10.5308 27.4068 11.1072 27.9851C11.1882 28.0663 11.2501 28.1618 11.3493 28.228C11.6467 28.4263 11.9851 28.522 12.3183 28.522C12.884 28.522 13.4377 28.2486 13.7761 27.7427L18.1562 21.1785C18.7526 21.6664 19.6191 21.7219 20.2788 21.2528C21.0666 20.6948 21.2546 19.6028 20.6958 18.8141L19.5063 17.1342C19.1731 16.6633 18.6296 16.3925 18.0537 16.395Z" fill="#E3E4E8"/>
</svg>
