<svg width="281" height="181" viewBox="0 0 281 181" fill="none" xmlns="http://www.w3.org/2000/svg">
<g filter="url(#filter0_d_1_744)">
<path d="M113.107 158.78C110.574 153.595 107.132 143.676 106.861 133.67C117.532 135.186 128.821 136 140.501 136C206.5 136 260.003 110.032 260.003 77.9999C260.003 45.9674 206.5 19.9999 140.501 19.9999C74.5025 20 21.0001 45.9675 21 77.9999C21 102.511 52.3279 123.471 96.6104 131.963C99.4997 138.879 105.516 150.813 113.107 158.78Z" fill="#F9FBFE"/>
<path d="M113.107 158.78L113.557 158.561L112.745 159.125L113.107 158.78ZM106.861 133.67L106.362 133.683L106.346 133.091L106.932 133.175L106.861 133.67ZM140.501 136V136.5V136ZM260.003 77.9999H260.503H260.003ZM140.501 19.9999V19.4999V19.9999ZM21 77.9999H20.5H21ZM96.6104 131.963L96.7045 131.472L96.9682 131.522L97.0717 131.77L96.6104 131.963ZM113.107 158.78L112.658 159C110.102 153.769 106.634 143.78 106.362 133.683L106.861 133.67L107.361 133.656C107.629 143.573 111.045 153.421 113.557 158.561L113.107 158.78ZM106.861 133.67L106.932 133.175C117.578 134.688 128.844 135.5 140.501 135.5V136V136.5C128.798 136.5 117.485 135.685 106.791 134.165L106.861 133.67ZM140.501 136V135.5C173.442 135.5 203.239 129.019 224.783 118.562C246.361 108.089 259.503 93.7169 259.503 77.9999H260.003H260.503C260.503 94.3154 246.893 108.943 225.22 119.462C203.512 129.997 173.559 136.5 140.501 136.5V136ZM260.003 77.9999H259.503C259.503 62.2829 246.361 47.9104 224.783 37.4375C203.239 26.9812 173.442 20.4999 140.501 20.4999V19.9999V19.4999C173.559 19.4999 203.512 26.0023 225.22 36.5379C246.893 47.0568 260.503 61.6844 260.503 77.9999H260.003ZM140.501 19.9999V20.4999C107.561 20.4999 77.7631 26.9813 56.2194 37.4376C34.6415 47.9105 21.5001 62.2829 21.5 77.9999H21H20.5C20.5001 61.6844 34.1099 47.0569 55.7828 36.5379C77.4899 26.0023 107.443 19.4999 140.501 19.4999V19.9999ZM21 77.9999H21.5C21.5 90.0249 29.1853 101.261 42.4862 110.579C55.7794 119.893 74.61 127.235 96.7045 131.472L96.6104 131.963L96.5162 132.454C74.3283 128.199 55.3537 120.816 41.9124 111.398C28.4787 101.986 20.5 90.4863 20.5 77.9999H21ZM96.6104 131.963L97.0717 131.77C99.9531 138.667 105.941 150.535 113.469 158.435L113.107 158.78L112.745 159.125C105.091 151.092 99.0463 139.091 96.149 132.156L96.6104 131.963Z" fill="black"/>
</g>
<defs>
<filter id="filter0_d_1_744" x="0.500031" y="0.499878" width="280.003" height="179.625" filterUnits="userSpaceOnUse" color-interpolation-filters="sRGB">
<feFlood flood-opacity="0" result="BackgroundImageFix"/>
<feColorMatrix in="SourceAlpha" type="matrix" values="0 0 0 0 0 0 0 0 0 0 0 0 0 0 0 0 0 0 127 0" result="hardAlpha"/>
<feOffset dy="1"/>
<feGaussianBlur stdDeviation="10"/>
<feComposite in2="hardAlpha" operator="out"/>
<feColorMatrix type="matrix" values="0 0 0 0 0 0 0 0 0 0 0 0 0 0 0 0 0 0 0.1 0"/>
<feBlend mode="normal" in2="BackgroundImageFix" result="effect1_dropShadow_1_744"/>
<feBlend mode="normal" in="SourceGraphic" in2="effect1_dropShadow_1_744" result="shape"/>
</filter>
</defs>
</svg>
