<svg width="56" height="38" viewBox="0 0 56 38" fill="none" xmlns="http://www.w3.org/2000/svg">
<g clip-path="url(#clip0_32_17)">
<path d="M35.4254 13.9475H52.7512C52.8889 13.9475 53 13.8362 53 13.6983C53 6.14479 46.8654 0 39.3261 0C36.9313 0 34.5763 0.629596 32.5132 1.81902C29.4534 3.58321 27.2178 6.4139 26.2161 9.78946C26.1763 9.9207 26.2526 10.0602 26.3836 10.1001C26.5163 10.1383 26.6539 10.0636 26.6937 9.93233C27.6589 6.67969 29.8133 3.952 32.762 2.25093C34.7505 1.1047 37.0192 0.498361 39.3278 0.498361C46.5088 0.498361 52.3681 6.28433 52.5008 13.4491H35.4254C35.2878 13.4491 35.1767 13.5604 35.1767 13.6983C35.1767 13.8362 35.2878 13.9475 35.4254 13.9475Z" fill="#BFAF6A"/>
<path d="M49.5833 13.9474C49.7209 13.9474 49.832 13.8361 49.832 13.6982C49.832 7.89565 45.1187 3.17285 39.3241 3.17285C34.8264 3.17285 30.8279 6.03676 29.3768 10.2977C29.332 10.4273 29.4016 10.5702 29.5327 10.6134C29.6637 10.6582 29.8046 10.5885 29.8478 10.4589C31.2309 6.39891 35.0387 3.67121 39.3241 3.67121C44.8434 3.67121 49.3345 8.16975 49.3345 13.6982C49.3345 13.8361 49.4456 13.9474 49.5833 13.9474Z" fill="#BFAF6A"/>
<path d="M46.4036 13.9475C46.5412 13.9475 46.6523 13.8362 46.6523 13.6983C46.6523 9.64992 43.3653 6.35742 39.3237 6.35742C36.0947 6.35742 33.2836 8.4306 32.325 11.5155C32.2836 11.6467 32.3582 11.7862 32.4892 11.8278C32.6202 11.8693 32.7595 11.7945 32.801 11.6633C33.6932 8.78776 36.3153 6.85578 39.3253 6.85578C43.0917 6.85578 46.1565 9.92568 46.1565 13.6983C46.1565 13.8362 46.2676 13.9475 46.4052 13.9475H46.4036Z" fill="#BFAF6A"/>
<path d="M35.4245 13.9475C35.5622 13.9475 35.6733 13.8362 35.6733 13.6983C35.6733 11.6816 37.3118 10.0404 39.3252 10.0404C41.3385 10.0404 42.9771 11.6816 42.9771 13.6983C42.9771 13.8362 43.0882 13.9475 43.2258 13.9475C43.3635 13.9475 43.4746 13.8362 43.4746 13.6983C43.4746 11.4059 41.6138 9.54199 39.3252 9.54199C37.0365 9.54199 35.1757 11.4059 35.1757 13.6983C35.1757 13.8362 35.2869 13.9475 35.4245 13.9475Z" fill="#BFAF6A"/>
<path d="M12.4736 23.5559H39.3255C39.4631 23.5559 39.5742 23.4446 39.5742 23.3067C39.5742 15.7532 33.4396 9.61011 25.9003 9.61011C18.361 9.61011 12.2248 15.7549 12.2248 23.3067C12.2248 23.4446 12.3359 23.5559 12.4736 23.5559ZM39.0734 23.0575H12.724C12.8567 15.8944 18.7159 10.1085 25.8987 10.1085C33.0814 10.1085 38.9407 15.8944 39.0734 23.0575Z" fill="#BFAF6A"/>
<path d="M15.6392 23.5558C15.7768 23.5558 15.888 23.4445 15.888 23.3066C15.888 17.7781 20.379 13.2796 25.8983 13.2796C31.4176 13.2796 35.9087 17.7781 35.9087 23.3066C35.9087 23.4445 36.0198 23.5558 36.1575 23.5558C36.2951 23.5558 36.4062 23.4445 36.4062 23.3066C36.4062 17.504 31.6929 12.7812 25.8983 12.7812C20.1037 12.7812 15.3904 17.5024 15.3904 23.3066C15.3904 23.4445 15.5015 23.5558 15.6392 23.5558Z" fill="#BFAF6A"/>
<path d="M18.818 23.5559C18.9556 23.5559 19.0668 23.4446 19.0668 23.3067C19.0668 19.5341 22.1316 16.4642 25.8979 16.4642C29.6642 16.4642 32.729 19.5341 32.729 23.3067C32.729 23.4446 32.8401 23.5559 32.9778 23.5559C33.1154 23.5559 33.2266 23.4446 33.2266 23.3067C33.2266 19.2583 29.9395 15.9658 25.8979 15.9658C21.8563 15.9658 18.5692 19.2583 18.5692 23.3067C18.5692 23.4446 18.6803 23.5559 18.818 23.5559Z" fill="#BFAF6A"/>
<path d="M21.9968 23.5559C22.1344 23.5559 22.2455 23.4446 22.2455 23.3067C22.2455 21.29 23.8841 19.6488 25.8974 19.6488C27.9108 19.6488 29.5493 21.29 29.5493 23.3067C29.5493 23.4446 29.6605 23.5559 29.7981 23.5559C29.9358 23.5559 30.0469 23.4446 30.0469 23.3067C30.0469 21.0143 28.1861 19.1504 25.8974 19.1504C23.6088 19.1504 21.748 21.0143 21.748 23.3067C21.748 23.4446 21.8591 23.5559 21.9968 23.5559Z" fill="#BFAF6A"/>
<path d="M-35.9 38.0001H-1.20527C-0.0742073 38.0001 0.84623 37.0781 0.84623 35.9452C0.84623 34.8122 -0.0742073 33.8903 -1.20527 33.8903H-26.412C-27.2694 33.8903 -27.966 33.1926 -27.966 32.3337C-27.966 31.4749 -27.2694 30.7772 -26.412 30.7772H-16.06C-14.9289 30.7772 -14.0085 29.8552 -14.0085 28.7223C-14.0085 27.5893 -14.9289 26.6674 -16.06 26.6674H-19.5477C-20.4051 26.6674 -21.1016 25.9697 -21.1016 25.1108C-21.1016 24.252 -20.4051 23.5543 -19.5477 23.5543H12.4719C12.6096 23.5543 12.7207 23.443 12.7207 23.3051C12.7207 23.1672 12.6096 23.0559 12.4719 23.0559H-19.5477C-20.6787 23.0559 -21.5992 23.9779 -21.5992 25.1108C-21.5992 26.2438 -20.6787 27.1657 -19.5477 27.1657H-16.06C-15.2026 27.1657 -14.506 27.8634 -14.506 28.7223C-14.506 29.5811 -15.2026 30.2788 -16.06 30.2788H-26.412C-27.543 30.2788 -28.4635 31.2008 -28.4635 32.3337C-28.4635 33.4667 -27.543 34.3886 -26.412 34.3886H-1.20527C-0.347851 34.3886 0.348696 35.0863 0.348696 35.9452C0.348696 36.804 -0.347851 37.5017 -1.20527 37.5017H-35.9C-36.0376 37.5017 -36.1487 37.613 -36.1487 37.7509C-36.1487 37.8888 -36.0376 38.0001 -35.9 38.0001Z" fill="#BFAF6A"/>
</g>
<defs>
<clipPath id="clip0_32_17">
<rect width="56" height="38" fill="white" transform="matrix(-1 0 0 1 56 0)"/>
</clipPath>
</defs>
</svg>
