<svg width="351" height="621" viewBox="0 0 351 621" fill="none" xmlns="http://www.w3.org/2000/svg">
<mask id="mask0_46_982" style="mask-type:luminance" maskUnits="userSpaceOnUse" x="0" y="0" width="351" height="621">
<path d="M351 0H0V621H351V0Z" fill="white"/>
</mask>
<g mask="url(#mask0_46_982)">
<path d="M351 0H0V621H351V0Z" fill="#F5F3EC"/>
<mask id="mask1_46_982" style="mask-type:luminance" maskUnits="userSpaceOnUse" x="9" y="45" width="56" height="38">
<path d="M9 45H65V83H9V45Z" fill="white"/>
</mask>
<g mask="url(#mask1_46_982)">
<path d="M44.4249 58.9475H61.7507C61.8884 58.9475 61.9995 58.8362 61.9995 58.6983C61.9995 51.1448 55.8649 45 48.3256 45C45.9308 45 43.5758 45.6296 41.5127 46.819C38.4529 48.5832 36.2173 51.4139 35.2156 54.7895C35.1758 54.9207 35.2521 55.0602 35.3831 55.1001C35.5158 55.1383 35.6534 55.0636 35.6932 54.9323C36.6584 51.6797 38.8128 48.952 41.7615 47.2509C43.75 46.1047 46.0187 45.4984 48.3273 45.4984C55.5083 45.4984 61.3676 51.2843 61.5003 58.4491H44.4249C44.2873 58.4491 44.1762 58.5604 44.1762 58.6983C44.1762 58.8362 44.2873 58.9475 44.4249 58.9475Z" fill="#BFAF6A"/>
<path d="M58.5829 58.9473C58.7205 58.9473 58.8316 58.8361 58.8316 58.6982C58.8316 52.8956 54.1183 48.1729 48.3237 48.1729C43.826 48.1729 39.8275 51.0367 38.3764 55.2976C38.3316 55.4272 38.4012 55.5701 38.5323 55.6133C38.6633 55.6581 38.8042 55.5885 38.8474 55.4589C40.2305 51.3989 44.0383 48.6712 48.3237 48.6712C53.843 48.6712 58.3341 53.1697 58.3341 58.6982C58.3341 58.8361 58.4452 58.9473 58.5829 58.9473Z" fill="#BFAF6A"/>
<path d="M55.4035 58.9475C55.5411 58.9475 55.6522 58.8362 55.6522 58.6983C55.6522 54.6499 52.3652 51.3574 48.3236 51.3574C45.0946 51.3574 42.2835 53.4306 41.3249 56.5155C41.2835 56.6467 41.3581 56.7862 41.4891 56.8278C41.6201 56.8693 41.7594 56.7945 41.8009 56.6633C42.6931 53.7878 45.3152 51.8558 48.3252 51.8558C52.0916 51.8558 55.1564 54.9257 55.1564 58.6983C55.1564 58.8362 55.2675 58.9475 55.4051 58.9475H55.4035Z" fill="#BFAF6A"/>
<path d="M44.4241 58.9475C44.5618 58.9475 44.6729 58.8362 44.6729 58.6983C44.6729 56.6816 46.3114 55.0404 48.3248 55.0404C50.3381 55.0404 51.9767 56.6816 51.9767 58.6983C51.9767 58.8362 52.0878 58.9475 52.2254 58.9475C52.3631 58.9475 52.4742 58.8362 52.4742 58.6983C52.4742 56.4059 50.6134 54.542 48.3248 54.542C46.0361 54.542 44.1753 56.4059 44.1753 58.6983C44.1753 58.8362 44.2865 58.9475 44.4241 58.9475Z" fill="#BFAF6A"/>
<path d="M21.4734 68.5557H48.3253C48.4629 68.5557 48.574 68.4444 48.574 68.3065C48.574 60.753 42.4394 54.6099 34.9001 54.6099C27.3608 54.6099 21.2246 60.7547 21.2246 68.3065C21.2246 68.4444 21.3357 68.5557 21.4734 68.5557ZM48.0732 68.0573H21.7238C21.8565 60.8942 27.7157 55.1083 34.8985 55.1083C42.0812 55.1083 47.9405 60.8942 48.0732 68.0573Z" fill="#BFAF6A"/>
<path d="M24.6389 68.556C24.7765 68.556 24.8877 68.4448 24.8877 68.3069C24.8877 62.7785 29.3787 58.2796 34.898 58.2796C40.4173 58.2796 44.9084 62.7785 44.9084 68.3069C44.9084 68.4448 45.0195 68.556 45.1572 68.556C45.2948 68.556 45.4059 68.4448 45.4059 68.3069C45.4059 62.5044 40.6926 57.7812 34.898 57.7812C29.1034 57.7812 24.3901 62.5027 24.3901 68.3069C24.3901 68.4448 24.5012 68.556 24.6389 68.556Z" fill="#BFAF6A"/>
<path d="M27.8176 68.5559C27.9552 68.5559 28.0664 68.4446 28.0664 68.3067C28.0664 64.5341 31.1312 61.4642 34.8975 61.4642C38.6638 61.4642 41.7286 64.5341 41.7286 68.3067C41.7286 68.4446 41.8397 68.5559 41.9774 68.5559C42.115 68.5559 42.2262 68.4446 42.2262 68.3067C42.2262 64.2583 38.9391 60.9658 34.8975 60.9658C30.8559 60.9658 27.5688 64.2583 27.5688 68.3067C27.5688 68.4446 27.6799 68.5559 27.8176 68.5559Z" fill="#BFAF6A"/>
<path d="M30.9964 68.5559C31.134 68.5559 31.2451 68.4446 31.2451 68.3067C31.2451 66.29 32.8837 64.6488 34.897 64.6488C36.9104 64.6488 38.5489 66.29 38.5489 68.3067C38.5489 68.4446 38.6601 68.5559 38.7977 68.5559C38.9354 68.5559 39.0465 68.4446 39.0465 68.3067C39.0465 66.0143 37.1857 64.1504 34.897 64.1504C32.6084 64.1504 30.7476 66.0143 30.7476 68.3067C30.7476 68.4446 30.8587 68.5559 30.9964 68.5559Z" fill="#BFAF6A"/>
<path d="M-26.9002 82.9999H7.79447C8.92557 82.9999 9.84597 82.0779 9.84597 80.945C9.84597 79.812 8.92557 78.8901 7.79447 78.8901H-17.4122C-18.2696 78.8901 -18.9662 78.1924 -18.9662 77.3335C-18.9662 76.4747 -18.2696 75.777 -17.4122 75.777H-7.06032C-5.92926 75.777 -5.00882 74.855 -5.00882 73.7221C-5.00882 72.5891 -5.92926 71.6672 -7.06032 71.6672H-10.548C-11.4054 71.6672 -12.102 70.9695 -12.102 70.1106C-12.102 69.2518 -11.4054 68.5541 -10.548 68.5541H21.4717C21.6094 68.5541 21.7205 68.4428 21.7205 68.3049C21.7205 68.167 21.6094 68.0557 21.4717 68.0557H-10.548C-11.6791 68.0557 -12.5995 68.9777 -12.5995 70.1106C-12.5995 71.2436 -11.6791 72.1655 -10.548 72.1655H-7.06032C-6.2029 72.1655 -5.50636 72.8632 -5.50636 73.7221C-5.50636 74.5809 -6.2029 75.2786 -7.06032 75.2786H-17.4122C-18.5432 75.2786 -19.4637 76.2006 -19.4637 77.3335C-19.4637 78.4665 -18.5432 79.3884 -17.4122 79.3884H7.79447C8.65187 79.3884 9.34847 80.0861 9.34847 80.945C9.34847 81.8038 8.65187 82.5015 7.79447 82.5015H-26.9002C-27.0378 82.5015 -27.1489 82.6128 -27.1489 82.7507C-27.1489 82.8886 -27.0378 82.9999 -26.9002 82.9999Z" fill="#BFAF6A"/>
</g>
<mask id="mask2_46_982" style="mask-type:luminance" maskUnits="userSpaceOnUse" x="287" y="26" width="56" height="38">
<path d="M287 26H343V64H287V26Z" fill="white"/>
</mask>
<g mask="url(#mask2_46_982)">
<path d="M287.249 64H314.101C314.238 64 314.35 63.8887 314.35 63.7508C314.35 56.1973 308.215 50.0542 300.674 50.0542C293.133 50.0542 287 56.199 287 63.7508C287 63.8887 287.111 64 287.249 64ZM313.85 63.5016H287.501C287.634 56.3385 293.493 50.5526 300.676 50.5526C307.858 50.5526 313.718 56.3385 313.85 63.5016Z" fill="#BFAF6A"/>
<path d="M290.417 64.0001C290.554 64.0001 290.665 63.8888 290.665 63.7509C290.665 58.2225 295.156 53.7239 300.676 53.7239C306.195 53.7239 310.686 58.2225 310.686 63.7509C310.686 63.8888 310.797 64.0001 310.935 64.0001C311.073 64.0001 311.184 63.8888 311.184 63.7509C311.184 57.9484 306.47 53.2256 300.676 53.2256C294.881 53.2256 290.168 57.9467 290.168 63.7509C290.168 63.8888 290.279 64.0001 290.417 64.0001Z" fill="#BFAF6A"/>
<path d="M293.595 63.9997C293.733 63.9997 293.844 63.8884 293.844 63.7506C293.844 59.978 296.909 56.9081 300.675 56.9081C304.442 56.9081 307.506 59.978 307.506 63.7506C307.506 63.8884 307.617 63.9997 307.755 63.9997C307.893 63.9997 308.004 63.8884 308.004 63.7506C308.004 59.7039 304.717 56.4097 300.675 56.4097C296.634 56.4097 293.347 59.7022 293.347 63.7506C293.347 63.8884 293.458 63.9997 293.595 63.9997Z" fill="#BFAF6A"/>
<path d="M296.774 63.9997C296.912 63.9997 297.023 63.8884 297.023 63.7505C297.023 61.7338 298.661 60.0925 300.675 60.0925C302.688 60.0925 304.327 61.7338 304.327 63.7505C304.327 63.8884 304.438 63.9997 304.575 63.9997C304.713 63.9997 304.824 63.8884 304.824 63.7505C304.824 61.4581 302.963 59.5942 300.675 59.5942C298.386 59.5942 296.525 61.4581 296.525 63.7505C296.525 63.8884 296.636 63.9997 296.774 63.9997Z" fill="#BFAF6A"/>
<path d="M314.1 63.9998H348.795C349.926 63.9998 350.846 63.0779 350.846 61.9449C350.846 60.812 349.926 59.89 348.795 59.89H323.588C322.731 59.89 322.034 59.1923 322.034 58.3335C322.034 57.4746 322.731 56.7769 323.588 56.7769H333.94C335.071 56.7769 335.992 55.855 335.992 54.722C335.992 53.5891 335.071 52.6671 333.94 52.6671H330.452C329.595 52.6671 328.898 51.9694 328.898 51.1106C328.898 50.2517 329.595 49.554 330.452 49.554H362.472C362.61 49.554 362.721 49.4427 362.721 49.3048C362.721 49.167 362.61 49.0557 362.472 49.0557H330.452C329.321 49.0557 328.401 49.9776 328.401 51.1106C328.401 52.2435 329.321 53.1655 330.452 53.1655H333.94C334.797 53.1655 335.494 53.8632 335.494 54.722C335.494 55.5809 334.797 56.2786 333.94 56.2786H323.588C322.457 56.2786 321.537 57.2005 321.537 58.3335C321.537 59.4664 322.457 60.3884 323.588 60.3884H348.795C349.652 60.3884 350.349 61.0861 350.349 61.9449C350.349 62.8038 349.652 63.5015 348.795 63.5015H314.1C313.962 63.5015 313.851 63.6128 313.851 63.7507C313.851 63.8885 313.962 63.9998 314.1 63.9998Z" fill="#BFAF6A"/>
</g>
<path d="M0 8H351" stroke="#2B557E"/>
<path d="M0 613H351" stroke="#2B557E"/>
<path d="M342.5 0.5H8.5V620.5H342.5V0.5Z" stroke="#2B557E"/>
</g>
<path d="M349.5 1.5H1.5V619.5H349.5V1.5Z" stroke="#1B2F49" stroke-width="3"/>
</svg>
