<svg width="359" height="629" viewBox="0 0 359 629" fill="none" xmlns="http://www.w3.org/2000/svg">
<g filter="url(#filter0_d_24_37)">
<mask id="mask0_24_37" style="mask-type:luminance" maskUnits="userSpaceOnUse" x="4" y="0" width="351" height="621">
<path d="M355 0H4V621H355V0Z" fill="white"/>
</mask>
<g mask="url(#mask0_24_37)">
<path d="M355 0H4V621H355V0Z" fill="#F5F3EC"/>
<mask id="mask1_24_37" style="mask-type:luminance" maskUnits="userSpaceOnUse" x="13" y="45" width="56" height="38">
<path d="M13 45H69V83H13V45Z" fill="white"/>
</mask>
<g mask="url(#mask1_24_37)">
<path d="M48.4254 58.9475H65.7512C65.8889 58.9475 66 58.8362 66 58.6983C66 51.1448 59.8654 45 52.3261 45C49.9313 45 47.5763 45.6296 45.5132 46.819C42.4534 48.5832 40.2178 51.4139 39.2161 54.7895C39.1763 54.9207 39.2526 55.0602 39.3836 55.1001C39.5163 55.1383 39.6539 55.0636 39.6937 54.9323C40.6589 51.6797 42.8133 48.952 45.762 47.2509C47.7505 46.1047 50.0192 45.4984 52.3278 45.4984C59.5088 45.4984 65.3681 51.2843 65.5008 58.4491H48.4254C48.2878 58.4491 48.1767 58.5604 48.1767 58.6983C48.1767 58.8362 48.2878 58.9475 48.4254 58.9475Z" fill="#BFAF6A"/>
<path d="M62.5833 58.9473C62.7209 58.9473 62.832 58.8361 62.832 58.6982C62.832 52.8956 58.1187 48.1729 52.3241 48.1729C47.8264 48.1729 43.8279 51.0367 42.3768 55.2976C42.332 55.4272 42.4016 55.5701 42.5327 55.6133C42.6637 55.6581 42.8046 55.5885 42.8478 55.4589C44.2309 51.3989 48.0387 48.6712 52.3241 48.6712C57.8434 48.6712 62.3345 53.1697 62.3345 58.6982C62.3345 58.8361 62.4456 58.9473 62.5833 58.9473Z" fill="#BFAF6A"/>
<path d="M59.4036 58.9475C59.5412 58.9475 59.6523 58.8362 59.6523 58.6983C59.6523 54.6499 56.3653 51.3574 52.3237 51.3574C49.0947 51.3574 46.2836 53.4306 45.325 56.5155C45.2836 56.6467 45.3582 56.7862 45.4892 56.8278C45.6202 56.8693 45.7595 56.7945 45.801 56.6633C46.6932 53.7878 49.3153 51.8558 52.3253 51.8558C56.0917 51.8558 59.1565 54.9257 59.1565 58.6983C59.1565 58.8362 59.2676 58.9475 59.4052 58.9475H59.4036Z" fill="#BFAF6A"/>
<path d="M48.4245 58.9475C48.5622 58.9475 48.6733 58.8362 48.6733 58.6983C48.6733 56.6816 50.3118 55.0404 52.3252 55.0404C54.3385 55.0404 55.9771 56.6816 55.9771 58.6983C55.9771 58.8362 56.0882 58.9475 56.2258 58.9475C56.3635 58.9475 56.4746 58.8362 56.4746 58.6983C56.4746 56.4059 54.6138 54.542 52.3252 54.542C50.0365 54.542 48.1757 56.4059 48.1757 58.6983C48.1757 58.8362 48.2869 58.9475 48.4245 58.9475Z" fill="#BFAF6A"/>
<path d="M25.4736 68.5559H52.3255C52.4631 68.5559 52.5742 68.4446 52.5742 68.3067C52.5742 60.7532 46.4396 54.6101 38.9003 54.6101C31.361 54.6101 25.2248 60.7549 25.2248 68.3067C25.2248 68.4446 25.3359 68.5559 25.4736 68.5559ZM52.0734 68.0575H25.724C25.8567 60.8944 31.7159 55.1085 38.8987 55.1085C46.0814 55.1085 51.9407 60.8944 52.0734 68.0575Z" fill="#BFAF6A"/>
<path d="M28.6392 68.556C28.7768 68.556 28.888 68.4447 28.888 68.3068C28.888 62.7784 33.379 58.2798 38.8983 58.2798C44.4176 58.2798 48.9087 62.7784 48.9087 68.3068C48.9087 68.4447 49.0198 68.556 49.1575 68.556C49.2951 68.556 49.4062 68.4447 49.4062 68.3068C49.4062 62.5043 44.6929 57.7815 38.8983 57.7815C33.1037 57.7815 28.3904 62.5026 28.3904 68.3068C28.3904 68.4447 28.5015 68.556 28.6392 68.556Z" fill="#BFAF6A"/>
<path d="M31.818 68.5559C31.9556 68.5559 32.0668 68.4446 32.0668 68.3067C32.0668 64.5341 35.1316 61.4642 38.8979 61.4642C42.6642 61.4642 45.729 64.5341 45.729 68.3067C45.729 68.4446 45.8401 68.5559 45.9778 68.5559C46.1154 68.5559 46.2266 68.4446 46.2266 68.3067C46.2266 64.2583 42.9395 60.9658 38.8979 60.9658C34.8563 60.9658 31.5692 64.2583 31.5692 68.3067C31.5692 68.4446 31.6803 68.5559 31.818 68.5559Z" fill="#BFAF6A"/>
<path d="M34.9968 68.5559C35.1344 68.5559 35.2455 68.4446 35.2455 68.3067C35.2455 66.29 36.8841 64.6488 38.8974 64.6488C40.9108 64.6488 42.5493 66.29 42.5493 68.3067C42.5493 68.4446 42.6605 68.5559 42.7981 68.5559C42.9358 68.5559 43.0469 68.4446 43.0469 68.3067C43.0469 66.0143 41.1861 64.1504 38.8974 64.1504C36.6088 64.1504 34.748 66.0143 34.748 68.3067C34.748 68.4446 34.8591 68.5559 34.9968 68.5559Z" fill="#BFAF6A"/>
<path d="M-22.9 83.0001H11.7947C12.9258 83.0001 13.8462 82.0781 13.8462 80.9452C13.8462 79.8122 12.9258 78.8903 11.7947 78.8903H-13.412C-14.2694 78.8903 -14.966 78.1926 -14.966 77.3337C-14.966 76.4749 -14.2694 75.7772 -13.412 75.7772H-3.05995C-1.92889 75.7772 -1.00845 74.8552 -1.00845 73.7223C-1.00845 72.5893 -1.92889 71.6674 -3.05995 71.6674H-6.54766C-7.40508 71.6674 -8.10162 70.9697 -8.10162 70.1108C-8.10162 69.252 -7.40508 68.5543 -6.54766 68.5543H25.4719C25.6096 68.5543 25.7207 68.443 25.7207 68.3051C25.7207 68.1672 25.6096 68.0559 25.4719 68.0559H-6.54766C-7.67872 68.0559 -8.59916 68.9779 -8.59916 70.1108C-8.59916 71.2438 -7.67872 72.1657 -6.54766 72.1657H-3.05995C-2.20253 72.1657 -1.50599 72.8634 -1.50599 73.7223C-1.50599 74.5811 -2.20253 75.2788 -3.05995 75.2788H-13.412C-14.543 75.2788 -15.4635 76.2008 -15.4635 77.3337C-15.4635 78.4667 -14.543 79.3886 -13.412 79.3886H11.7947C12.6521 79.3886 13.3487 80.0863 13.3487 80.9452C13.3487 81.804 12.6521 82.5017 11.7947 82.5017H-22.9C-23.0376 82.5017 -23.1487 82.613 -23.1487 82.7509C-23.1487 82.8888 -23.0376 83.0001 -22.9 83.0001Z" fill="#BFAF6A"/>
</g>
<mask id="mask2_24_37" style="mask-type:luminance" maskUnits="userSpaceOnUse" x="291" y="26" width="56" height="38">
<path d="M291 26H347V64H291V26Z" fill="white"/>
</mask>
<g mask="url(#mask2_24_37)">
<path d="M291.249 64H318.101C318.238 64 318.35 63.8887 318.35 63.7508C318.35 56.1973 312.215 50.0542 304.674 50.0542C297.133 50.0542 291 56.199 291 63.7508C291 63.8887 291.111 64 291.249 64ZM317.85 63.5016H291.501C291.634 56.3385 297.493 50.5526 304.676 50.5526C311.858 50.5526 317.718 56.3385 317.85 63.5016Z" fill="#BFAF6A"/>
<path d="M294.417 64.0001C294.554 64.0001 294.665 63.8888 294.665 63.7509C294.665 58.2225 299.156 53.7239 304.676 53.7239C310.195 53.7239 314.686 58.2225 314.686 63.7509C314.686 63.8888 314.797 64.0001 314.935 64.0001C315.073 64.0001 315.184 63.8888 315.184 63.7509C315.184 57.9484 310.47 53.2256 304.676 53.2256C298.881 53.2256 294.168 57.9467 294.168 63.7509C294.168 63.8888 294.279 64.0001 294.417 64.0001Z" fill="#BFAF6A"/>
<path d="M297.595 63.9999C297.733 63.9999 297.844 63.8886 297.844 63.7508C297.844 59.9782 300.909 56.9083 304.675 56.9083C308.442 56.9083 311.506 59.9782 311.506 63.7508C311.506 63.8886 311.617 63.9999 311.755 63.9999C311.893 63.9999 312.004 63.8886 312.004 63.7508C312.004 59.7041 308.717 56.4099 304.675 56.4099C300.634 56.4099 297.347 59.7024 297.347 63.7508C297.347 63.8886 297.458 63.9999 297.595 63.9999Z" fill="#BFAF6A"/>
<path d="M300.774 64C300.912 64 301.023 63.8887 301.023 63.7508C301.023 61.7341 302.661 60.0928 304.675 60.0928C306.688 60.0928 308.327 61.7341 308.327 63.7508C308.327 63.8887 308.438 64 308.575 64C308.713 64 308.824 63.8887 308.824 63.7508C308.824 61.4584 306.963 59.5945 304.675 59.5945C302.386 59.5945 300.525 61.4584 300.525 63.7508C300.525 63.8887 300.636 64 300.774 64Z" fill="#BFAF6A"/>
<path d="M318.1 63.9998H352.795C353.926 63.9998 354.846 63.0779 354.846 61.9449C354.846 60.812 353.926 59.89 352.795 59.89H327.588C326.731 59.89 326.034 59.1923 326.034 58.3335C326.034 57.4746 326.731 56.7769 327.588 56.7769H337.94C339.071 56.7769 339.992 55.855 339.992 54.722C339.992 53.5891 339.071 52.6671 337.94 52.6671H334.452C333.595 52.6671 332.898 51.9694 332.898 51.1106C332.898 50.2517 333.595 49.554 334.452 49.554H366.472C366.61 49.554 366.721 49.4427 366.721 49.3048C366.721 49.167 366.61 49.0557 366.472 49.0557H334.452C333.321 49.0557 332.401 49.9776 332.401 51.1106C332.401 52.2435 333.321 53.1655 334.452 53.1655H337.94C338.797 53.1655 339.494 53.8632 339.494 54.722C339.494 55.5809 338.797 56.2786 337.94 56.2786H327.588C326.457 56.2786 325.537 57.2005 325.537 58.3335C325.537 59.4664 326.457 60.3884 327.588 60.3884H352.795C353.652 60.3884 354.349 61.0861 354.349 61.9449C354.349 62.8038 353.652 63.5015 352.795 63.5015H318.1C317.962 63.5015 317.851 63.6128 317.851 63.7507C317.851 63.8885 317.962 63.9998 318.1 63.9998Z" fill="#BFAF6A"/>
</g>
<path d="M4 8H355" stroke="#2B557E"/>
<path d="M4 613H355" stroke="#2B557E"/>
<path d="M346.5 0.5H12.5V620.5H346.5V0.5Z" stroke="#2B557E"/>
</g>
<path d="M353.5 1.5H5.5V619.5H353.5V1.5Z" stroke="#1B2F49" stroke-width="3"/>
</g>
<defs>
<filter id="filter0_d_24_37" x="0" y="0" width="359" height="629" filterUnits="userSpaceOnUse" color-interpolation-filters="sRGB">
<feFlood flood-opacity="0" result="BackgroundImageFix"/>
<feColorMatrix in="SourceAlpha" type="matrix" values="0 0 0 0 0 0 0 0 0 0 0 0 0 0 0 0 0 0 127 0" result="hardAlpha"/>
<feOffset dy="4"/>
<feGaussianBlur stdDeviation="2"/>
<feComposite in2="hardAlpha" operator="out"/>
<feColorMatrix type="matrix" values="0 0 0 0 0 0 0 0 0 0 0 0 0 0 0 0 0 0 0.25 0"/>
<feBlend mode="normal" in2="BackgroundImageFix" result="effect1_dropShadow_24_37"/>
<feBlend mode="normal" in="SourceGraphic" in2="effect1_dropShadow_24_37" result="shape"/>
</filter>
</defs>
</svg>
