<svg width="56" height="38" viewBox="0 0 56 38" fill="none" xmlns="http://www.w3.org/2000/svg">
<g clip-path="url(#clip0_32_34)">
<path d="M0.24894 38H27.1008C27.2385 38 27.3496 37.8887 27.3496 37.7508C27.3496 30.1973 21.215 24.0542 13.6741 24.0542C6.13311 24.0542 0.000171661 30.199 0.000171661 37.7508C0.000171661 37.8887 0.111288 38 0.24894 38ZM26.8504 37.5016H0.501026C0.633701 30.3385 6.49299 24.5526 13.6757 24.5526C20.8585 24.5526 26.7177 30.3385 26.8504 37.5016Z" fill="#BFAF6A"/>
<path d="M3.41654 37.9999C3.55419 37.9999 3.66531 37.8886 3.66531 37.7507C3.66531 32.2222 8.15638 27.7237 13.6757 27.7237C19.195 27.7237 23.6861 32.2222 23.6861 37.7507C23.6861 37.8886 23.7972 37.9999 23.9348 37.9999C24.0725 37.9999 24.1836 37.8886 24.1836 37.7507C24.1836 31.9481 19.4703 27.2253 13.6757 27.2253C7.88107 27.2253 3.16777 31.9465 3.16777 37.7507C3.16777 37.8886 3.27889 37.9999 3.41654 37.9999Z" fill="#BFAF6A"/>
<path d="M6.59533 37.9999C6.73298 37.9999 6.84409 37.8886 6.84409 37.7508C6.84409 33.9782 9.9089 30.9083 13.6752 30.9083C17.4416 30.9083 20.5064 33.9782 20.5064 37.7508C20.5064 37.8886 20.6175 37.9999 20.7551 37.9999C20.8928 37.9999 21.0039 37.8886 21.0039 37.7508C21.0039 33.7041 17.7169 30.4099 13.6752 30.4099C9.6336 30.4099 6.34656 33.7024 6.34656 37.7508C6.34656 37.8886 6.45768 37.9999 6.59533 37.9999Z" fill="#BFAF6A"/>
<path d="M9.77412 38C9.91177 38 10.0229 37.8887 10.0229 37.7508C10.0229 35.7341 11.6614 34.0928 13.6748 34.0928C15.6881 34.0928 17.3267 35.7341 17.3267 37.7508C17.3267 37.8887 17.4378 38 17.5755 38C17.7131 38 17.8242 37.8887 17.8242 37.7508C17.8242 35.4584 15.9634 33.5945 13.6748 33.5945C11.3861 33.5945 9.52535 35.4584 9.52535 37.7508C9.52535 37.8887 9.63647 38 9.77412 38Z" fill="#BFAF6A"/>
<path d="M27.1 37.9998H61.7947C62.9258 37.9998 63.8462 37.0779 63.8462 35.9449C63.8462 34.812 62.9258 33.89 61.7947 33.89H36.588C35.7306 33.89 35.034 33.1923 35.034 32.3335C35.034 31.4746 35.7306 30.7769 36.588 30.7769H46.94C48.0711 30.7769 48.9915 29.855 48.9915 28.722C48.9915 27.5891 48.0711 26.6671 46.94 26.6671H43.4523C42.5949 26.6671 41.8984 25.9694 41.8984 25.1106C41.8984 24.2517 42.5949 23.554 43.4523 23.554H75.4719C75.6096 23.554 75.7207 23.4427 75.7207 23.3048C75.7207 23.167 75.6096 23.0557 75.4719 23.0557H43.4523C42.3213 23.0557 41.4008 23.9776 41.4008 25.1106C41.4008 26.2435 42.3213 27.1655 43.4523 27.1655H46.94C47.7974 27.1655 48.494 27.8632 48.494 28.722C48.494 29.5809 47.7974 30.2786 46.94 30.2786H36.588C35.457 30.2786 34.5365 31.2005 34.5365 32.3335C34.5365 33.4664 35.457 34.3884 36.588 34.3884H61.7947C62.6521 34.3884 63.3487 35.0861 63.3487 35.9449C63.3487 36.8038 62.6521 37.5015 61.7947 37.5015H27.1C26.9624 37.5015 26.8513 37.6128 26.8513 37.7507C26.8513 37.8885 26.9624 37.9998 27.1 37.9998Z" fill="#BFAF6A"/>
</g>
<defs>
<clipPath id="clip0_32_34">
<rect width="56" height="38" fill="white" transform="matrix(-1 0 0 1 56 0)"/>
</clipPath>
</defs>
</svg>
