<svg width="16" height="16" viewBox="0 0 16 16" fill="none" xmlns="http://www.w3.org/2000/svg">
<path d="M16 5.79394C15.9991 6.62822 15.6672 7.42807 15.0773 8.01799C14.4874 8.60792 13.6875 8.93974 12.8533 8.94066H10.21C10.0765 8.94066 9.94843 8.88761 9.85401 8.7932C9.75959 8.69878 9.70654 8.57071 9.70654 8.43718V5.79394C9.70654 4.95938 10.0381 4.15899 10.6282 3.56887C11.2183 2.97875 12.0187 2.64722 12.8533 2.64722C13.6878 2.64722 14.4882 2.97875 15.0783 3.56887C15.6685 4.15899 16 4.95938 16 5.79394Z" fill="#BDB4DB"/>
<path d="M2.64723 3.14672C2.64814 3.981 2.97997 4.78085 3.56989 5.37078C4.15982 5.9607 4.95967 6.29253 5.79395 6.29344H8.4372C8.57073 6.29344 8.69879 6.2404 8.79321 6.14598C8.88763 6.05156 8.94067 5.9235 8.94067 5.78997V3.14672C8.94067 2.31216 8.60915 1.51178 8.01902 0.921653C7.4289 0.331529 6.62851 0 5.79395 0C4.95939 0 4.15901 0.331529 3.56888 0.921653C2.97876 1.51178 2.64723 2.31216 2.64723 3.14672Z" fill="#FBE35D"/>
<path d="M13.3528 12.8533C13.3519 12.019 13.02 11.2191 12.4301 10.6292C11.8402 10.0393 11.0403 9.70747 10.206 9.70656H7.5628C7.42927 9.70656 7.30121 9.7596 7.20679 9.85402C7.11237 9.94844 7.05933 10.0765 7.05933 10.21V12.8533C7.05933 13.6878 7.39085 14.4882 7.98098 15.0783C8.5711 15.6685 9.37149 16 10.206 16C11.0406 16 11.841 15.6685 12.4311 15.0783C13.0212 14.4882 13.3528 13.6878 13.3528 12.8533Z" fill="#B1DDE3"/>
<path d="M1.12057e-05 10.2061C0.000927405 9.37178 0.33275 8.57193 0.922677 7.98201C1.5126 7.39208 2.31245 7.06026 3.14673 7.05934H5.78998C5.92351 7.05934 6.05157 7.11239 6.14599 7.2068C6.24041 7.30122 6.29346 7.42929 6.29346 7.56282V10.2061C6.29346 11.0406 5.96193 11.841 5.3718 12.4311C4.78168 13.0213 3.9813 13.3528 3.14673 13.3528C2.31217 13.3528 1.51179 13.0213 0.921665 12.4311C0.33154 11.841 1.12181e-05 11.0406 1.12057e-05 10.2061Z" fill="#F5BED7"/>
</svg>
