<svg width="112" height="83" viewBox="0 0 112 83" fill="none" xmlns="http://www.w3.org/2000/svg">
<path d="M2.39758 37.7188V32.3906H27.878V37.7188H18.339V63.5H11.9366V37.7188H2.39758ZM31.3052 63.5V40.168H37.6646V63.5H31.3052ZM34.4849 37.1172C32.5513 37.1172 31.0045 35.6562 31.0045 33.8945C31.0045 32.0898 32.5513 30.6289 34.4849 30.6289C36.3755 30.6289 37.9224 32.0898 37.9224 33.8945C37.9224 35.6562 36.3755 37.1172 34.4849 37.1172ZM48.5254 50.0078V63.5H42.166V40.168H48.2246V44.25H48.4824C49.5566 41.543 52.0488 39.8672 55.4863 39.8672C60.3418 39.8672 63.5645 43.1758 63.5215 48.6328V63.5H57.2051V49.75C57.2051 46.8711 55.6152 45.1523 52.9941 45.1523C50.3301 45.1523 48.5254 46.9141 48.5254 50.0078ZM78.5073 72.7383C72.062 72.7383 68.1088 69.8594 67.7221 65.4336H73.9955C74.3393 67.2812 76.101 68.1406 78.6362 68.1406C81.601 68.1406 83.5776 66.8945 83.5776 63.6289V59.375H83.2768C82.4174 61.2656 80.3549 63.1562 76.6166 63.1562C71.3315 63.1562 67.1205 59.4609 67.1205 51.6836C67.1205 43.7773 71.4604 39.8672 76.6166 39.8672C80.5268 39.8672 82.4174 42.1875 83.2768 44.0781H83.5346V40.168H89.851V63.7578C89.851 69.6875 85.1245 72.7383 78.5073 72.7383ZM78.5932 58.3867C81.7729 58.3867 83.5776 55.8945 83.5776 51.7695C83.5776 47.6016 81.7729 44.9375 78.5932 44.9375C75.3705 44.9375 73.6518 47.7305 73.6518 51.7695C73.6518 55.8086 75.3705 58.3867 78.5932 58.3867Z" fill="#60D5E5"/>
<path d="M111.071 13.5646C111.067 15.4417 110.319 17.2407 108.991 18.567C107.662 19.8932 105.862 20.6383 103.985 20.6388L98.0375 20.6338C97.7371 20.6336 97.4491 20.514 97.2368 20.3014C97.0245 20.0888 96.9054 19.8005 96.9057 19.5001L96.9106 13.5528C96.9122 11.675 97.6596 9.87478 98.9885 8.5481C100.317 7.22143 102.119 6.47699 103.997 6.47855C105.874 6.48011 107.675 7.22755 109.001 8.55643C110.328 9.88532 111.072 11.6868 111.071 13.5646Z" fill="#AB99E7"/>
<path d="M81.0321 7.58396C81.0326 9.4611 81.7777 11.2614 83.1039 12.5898C84.4302 13.9183 86.2292 14.6664 88.1063 14.67L94.0536 14.6749C94.3541 14.6752 94.6423 14.5561 94.8549 14.3438C95.0676 14.1315 95.1872 13.8435 95.1874 13.543L95.1924 7.59575C95.1939 5.71798 94.4495 3.9165 93.1228 2.58762C91.7961 1.25873 89.9959 0.511296 88.1181 0.509733C86.2404 0.50817 84.4389 1.25261 83.11 2.57929C81.7811 3.90596 81.0337 5.7062 81.0321 7.58396Z" fill="#FFEA77"/>
<path d="M105.101 29.4434C105.1 27.5662 104.355 25.766 103.029 24.4375C101.703 23.1091 99.9036 22.361 98.0265 22.3574L92.0792 22.3524C91.7787 22.3522 91.4905 22.4713 91.2779 22.6835C91.0653 22.8958 90.9457 23.1839 90.9454 23.4843L90.9405 29.4316C90.9389 31.3094 91.6833 33.1108 93.01 34.4397C94.3367 35.7686 96.1369 36.516 98.0147 36.5176C99.8925 36.5192 101.694 35.7747 103.023 34.4481C104.352 33.1214 105.099 31.3211 105.101 29.4434Z" fill="#60D5E5"/>
<path d="M75.062 23.4628C75.0656 21.5857 75.8137 19.7866 77.1421 18.4604C78.4706 17.1342 80.2708 16.3891 82.148 16.3886L88.0953 16.3935C88.3957 16.3938 88.6838 16.5133 88.896 16.726C89.1083 16.9386 89.2274 17.2268 89.2271 17.5273L89.2222 23.4746C89.2206 25.3523 88.4732 27.1526 87.1443 28.4792C85.8154 29.8059 84.014 30.5504 82.1362 30.5488C80.2584 30.5472 78.4582 29.7998 77.1315 28.4709C75.8048 27.142 75.0604 25.3405 75.062 23.4628Z" fill="#FFB6D7"/>
</svg>
