<svg width="36" height="36" viewBox="0 0 36 37" fill="none" xmlns="http://www.w3.org/2000/svg" preserveAspectRatio="xMidYMid meet">
<path d="M32 12.5909C31.9981 14.2717 31.3296 15.8831 30.1411 17.0716C28.9526 18.2601 27.3412 18.9286 25.6604 18.9305H20.3351C20.0661 18.9305 19.8081 18.8236 19.6178 18.6334C19.4276 18.4432 19.3207 18.1852 19.3207 17.9162V12.5909C19.3207 10.9095 19.9887 9.29699 21.1776 8.10808C22.3665 6.91917 23.979 6.25125 25.6604 6.25125C27.3417 6.25125 28.9542 6.91917 30.1432 8.10808C31.3321 9.29699 32 10.9095 32 12.5909Z" fill="#BDB4DB"/>
<path d="M6.03774 6.33962C6.03958 8.02043 6.7081 9.63186 7.89661 10.8204C9.08512 12.0089 10.6966 12.6774 12.3774 12.6792H17.7026C17.9717 12.6792 18.2297 12.5724 18.4199 12.3822C18.6101 12.1919 18.717 11.9339 18.717 11.6649V6.33962C18.717 4.65825 18.0491 3.04574 16.8601 1.85683C15.6712 0.667922 14.0587 0 12.3774 0C10.696 0 9.08348 0.667922 7.89457 1.85683C6.70566 3.04574 6.03774 4.65825 6.03774 6.33962Z" fill="#FBE35D"/>
<path d="M25.9623 25.6604C25.9604 23.9796 25.2919 22.3681 24.1034 21.1796C22.9149 19.9911 21.3034 19.3226 19.6226 19.3208H14.2974C14.0283 19.3208 13.7703 19.4276 13.5801 19.6178C13.3899 19.8081 13.283 20.0661 13.283 20.3351V25.6604C13.283 27.3418 13.9509 28.9543 15.1399 30.1432C16.3288 31.3321 17.9413 32 19.6226 32C21.304 32 22.9165 31.3321 24.1054 30.1432C25.2943 28.9543 25.9623 27.3418 25.9623 25.6604Z" fill="#B1DDE3"/>
<path d="M-4.53591e-05 19.6227C0.00180048 17.9419 0.670315 16.3304 1.85883 15.1419C3.04734 13.9534 4.65877 13.2849 6.33958 13.283H11.6649C11.9339 13.283 12.1919 13.3899 12.3821 13.5801C12.5723 13.7704 12.6792 14.0284 12.6792 14.2974V19.6227C12.6792 21.304 12.0113 22.9165 10.8224 24.1054C9.63346 25.2944 8.02095 25.9623 6.33958 25.9623C4.6582 25.9623 3.0457 25.2944 1.85679 24.1054C0.667877 22.9165 -4.53341e-05 21.304 -4.53591e-05 19.6227Z" fill="#F5BED7"/>
</svg>
