<svg width="16" height="16" viewBox="0 0 16 16" fill="none" xmlns="http://www.w3.org/2000/svg">
<path d="M11.6666 0H4.33323C3.36115 0.00123484 2.42924 0.38794 1.74187 1.07531C1.0545 1.76267 0.6678 2.69459 0.666565 3.66667V13.648C0.667066 14.1149 0.807633 14.5709 1.07009 14.9571C1.33254 15.3433 1.70482 15.6418 2.13877 15.8141C2.57271 15.9864 3.04838 16.0246 3.50425 15.9237C3.96012 15.8227 4.37523 15.5874 4.6959 15.248L7.97057 11.7813L11.3126 15.2813C11.6343 15.6181 12.0494 15.851 12.5045 15.9498C12.9596 16.0487 13.4339 16.0091 13.8664 15.8362C14.2988 15.6633 14.6696 15.3649 14.931 14.9794C15.1924 14.5939 15.3325 14.1391 15.3332 13.6733V3.66667C15.332 2.69459 14.9453 1.76267 14.2579 1.07531C13.5706 0.38794 12.6386 0.00123484 11.6666 0ZM13.3332 13.6733C13.3331 13.7398 13.3131 13.8047 13.2758 13.8598C13.2385 13.9148 13.1856 13.9574 13.1239 13.9821C13.0622 14.0068 12.9945 14.0126 12.9295 13.9985C12.8645 13.9845 12.8052 13.9513 12.7592 13.9033L8.69256 9.64267C8.59886 9.54456 8.48618 9.46654 8.36137 9.41336C8.23656 9.36018 8.10223 9.33295 7.96657 9.33333C7.83095 9.33374 7.69683 9.36172 7.57236 9.41559C7.4479 9.46945 7.33569 9.54807 7.24257 9.64667L3.24256 13.8767C3.19793 13.9271 3.13849 13.9621 3.07276 13.9767C3.00702 13.9913 2.93836 13.9848 2.87656 13.958C2.81291 13.9357 2.75812 13.8936 2.7203 13.8377C2.68248 13.7819 2.66364 13.7154 2.66656 13.648V3.66667C2.66656 3.22464 2.84216 2.80072 3.15472 2.48816C3.46728 2.17559 3.8912 2 4.33323 2H11.6666C12.1086 2 12.5325 2.17559 12.8451 2.48816C13.1576 2.80072 13.3332 3.22464 13.3332 3.66667V13.6733Z" fill="#374957"/>
</svg>
