<svg width="24" height="24" viewBox="0 0 24 24" fill="none" xmlns="http://www.w3.org/2000/svg">
<g clip-path="url(#clip0_2373_1153)">
<path d="M22.9747 8.69514L15.8887 1.60916C13.7393 -0.534759 10.2602 -0.534759 8.11071 1.60916L1.02472 8.69514C0.366223 9.35013 -0.00286988 10.2413 -0.00029176 11.1701V21.5481C0.00191136 22.9027 1.1001 24 2.45473 24.0011H21.5447C22.8993 24 23.9975 22.9027 23.9997 21.5481V11.1701C24.0023 10.2413 23.6332 9.35013 22.9747 8.69514ZM20.9997 21.0011H15.9997V17.8191C15.9997 15.7105 14.2903 14.0011 12.1817 14.0011H11.8177C9.7091 14.0011 7.99971 15.7105 7.99971 17.8191V21.0011H2.9997V11.1701C3.00003 11.0375 3.05244 10.9104 3.14572 10.8161L10.2317 3.73015C11.2079 2.7537 12.7908 2.75352 13.7672 3.72969C13.7674 3.72983 13.7676 3.73001 13.7677 3.73015L20.8537 10.8161C20.9469 10.9104 20.9994 11.0375 20.9997 11.1701V21.0011H20.9997Z" fill="#232433"/>
</g>
<defs>
<clipPath id="clip0_2373_1153">
<rect width="24" height="24" fill="white"/>
</clipPath>
</defs>
</svg>
