<svg width="24" height="24" viewBox="0 0 24 24" fill="none" xmlns="http://www.w3.org/2000/svg">
<g clip-path="url(#clip0_2372_1126)">
<path d="M21.0001 21.9493C21.0001 19.4641 18.9854 17.4493 16.5001 17.4493H10.8321V19.1293C10.8298 20.3521 9.83665 21.3414 8.61391 21.3391C8.00201 21.3379 7.41785 21.0835 7.00015 20.6363L0.778102 13.9414C-0.25896 12.8154 -0.25896 11.0823 0.778102 9.95637L7.0001 3.26135C7.83176 2.36501 9.23262 2.31256 10.129 3.14421C10.5808 3.56342 10.8374 4.15198 10.8371 4.76834V6.44932H14.5001C19.7443 6.45542 23.9941 10.7051 24.0001 15.9493V21.9493C24.0001 22.7778 23.3285 23.4493 22.5001 23.4493C21.6717 23.4493 21.0001 22.7778 21.0001 21.9493ZM21.0001 15.9493C20.9957 12.3613 18.0882 9.45373 14.5001 9.44932H9.33213C8.50371 9.44932 7.83213 8.77774 7.83213 7.94932V6.74932L2.9771 11.9004L7.83209 17.1284V15.9494C7.83209 15.121 8.50366 14.4494 9.33209 14.4494H16.5001C18.1237 14.4474 19.7036 14.975 21.0001 15.9524V15.9493Z" fill="#232433"/>
</g>
<defs>
<clipPath id="clip0_2372_1126">
<rect width="24" height="24" fill="white"/>
</clipPath>
</defs>
</svg>
