<svg width="24" height="24" viewBox="0 0 24 24" fill="none" xmlns="http://www.w3.org/2000/svg">
<g clip-path="url(#clip0_2372_1081)">
<path d="M22.4999 17.5005H20.4999V15.5005C20.4999 15.1027 20.3419 14.7211 20.0606 14.4398C19.7793 14.1585 19.3977 14.0005 18.9999 14.0005C18.6021 14.0005 18.2206 14.1585 17.9393 14.4398C17.658 14.7211 17.4999 15.1027 17.4999 15.5005V17.5005H15.4999C15.1021 17.5005 14.7206 17.6585 14.4393 17.9398C14.158 18.2211 13.9999 18.6027 13.9999 19.0005C13.9999 19.3983 14.158 19.7798 14.4393 20.0611C14.7206 20.3425 15.1021 20.5005 15.4999 20.5005H17.4999V22.5005C17.4999 22.8983 17.658 23.2798 17.9393 23.5611C18.2206 23.8425 18.6021 24.0005 18.9999 24.0005C19.3977 24.0005 19.7793 23.8425 20.0606 23.5611C20.3419 23.2798 20.4999 22.8983 20.4999 22.5005V20.5005H22.4999C22.8977 20.5005 23.2793 20.3425 23.5606 20.0611C23.8419 19.7798 23.9999 19.3983 23.9999 19.0005C23.9999 18.6027 23.8419 18.2211 23.5606 17.9398C23.2793 17.6585 22.8977 17.5005 22.4999 17.5005Z" fill="#232433"/>
<path d="M11.5701 20.9898C9.82868 20.9065 8.14898 20.3191 6.73507 19.2992C5.32117 18.2792 4.23393 16.8706 3.60547 15.2444C2.97701 13.6183 2.83438 11.8446 3.19492 10.1389C3.55546 8.43316 4.40364 6.86889 5.6364 5.63613C6.86916 4.40337 8.43343 3.55519 10.1391 3.19465C11.8448 2.83411 13.6185 2.97674 15.2447 3.6052C16.8709 4.23366 18.2795 5.3209 19.2995 6.7348C20.3194 8.14871 20.9067 9.82841 20.9901 11.5698C21.0086 11.9676 21.1845 12.3418 21.4789 12.61C21.7733 12.8781 22.1622 13.0184 22.5601 12.9998C22.9579 12.9812 23.3321 12.8054 23.6002 12.511C23.8684 12.2165 24.0086 11.8276 23.9901 11.4298C23.8797 9.10773 23.0972 6.8677 21.7378 4.98196C20.3783 3.09621 18.5003 1.64594 16.3322 0.807391C14.164 -0.0311561 11.7989 -0.221872 9.52435 0.258422C7.24981 0.738715 5.16374 1.86934 3.51967 3.51288C1.87561 5.15643 0.744319 7.24213 0.263301 9.51652C-0.217716 11.7909 -0.0277542 14.156 0.810102 16.3245C1.64796 18.493 3.09763 20.3714 4.98294 21.7314C6.86826 23.0915 9.10804 23.8747 11.4301 23.9858H11.5011C11.8989 23.995 12.2841 23.8457 12.5718 23.5709C12.8596 23.296 13.0264 22.9181 13.0356 22.5203C13.0447 22.1225 12.8955 21.7373 12.6206 21.4495C12.3458 21.1618 11.9679 20.995 11.5701 20.9858V20.9898Z" fill="#232433"/>
<path d="M12 6C11.6021 6 11.2206 6.15803 10.9393 6.43934C10.658 6.72064 10.5 7.10217 10.5 7.5V11.055L8.09995 12.555C7.93294 12.6596 7.78816 12.796 7.6739 12.9565C7.55963 13.1171 7.47811 13.2985 7.434 13.4906C7.38989 13.6826 7.38405 13.8815 7.41682 14.0758C7.44958 14.2701 7.5203 14.456 7.62495 14.623C7.72952 14.79 7.86596 14.9348 8.02649 15.049C8.18702 15.1633 8.3685 15.2448 8.56054 15.2889C8.75259 15.333 8.95144 15.3389 9.14574 15.3061C9.34005 15.2734 9.52599 15.2026 9.69295 15.098L12.562 13.298C12.8498 13.1176 13.087 12.8669 13.2511 12.5695C13.4152 12.272 13.5008 11.9377 13.5 11.598V7.5C13.5 7.10217 13.3419 6.72064 13.0606 6.43934C12.7793 6.15803 12.3978 6 12 6Z" fill="#232433"/>
</g>
<defs>
<clipPath id="clip0_2372_1081">
<rect width="24" height="24" fill="white"/>
</clipPath>
</defs>
</svg>
