<svg width="12" height="12" viewBox="0 0 12 12" fill="none" xmlns="http://www.w3.org/2000/svg">
<g clip-path="url(#clip0_3257_673)">
<path d="M5.20467 9.79364C4.41065 10.617 3.11755 10.693 2.23262 9.96817C1.7056 9.51187 1.43639 8.82577 1.51248 8.13283C1.57838 7.62194 1.81716 7.14897 2.18911 6.79259L3.62739 5.35332C3.92022 5.06039 3.92022 4.58556 3.62739 4.29263C3.33446 3.99979 2.85962 3.99979 2.56669 4.29263L1.15893 5.7009C0.517233 6.31969 0.112556 7.1437 0.0152018 8.0298C-0.166637 10.0256 1.30385 11.7909 3.29965 11.9728C4.37143 12.0704 5.43129 11.6873 6.19284 10.9268L7.69713 9.42307C7.98997 9.13014 7.98997 8.6553 7.69713 8.36237C7.4042 8.06954 6.92936 8.06954 6.63643 8.36237L5.20467 9.79364Z" fill="white"/>
<path d="M10.5807 0.733724C9.08734 -0.363497 7.01355 -0.191481 5.72134 1.13681L4.30556 2.55307C4.01273 2.846 4.01273 3.32084 4.30556 3.61377C4.59849 3.90661 5.07333 3.90661 5.36626 3.61377L6.80454 2.17699C7.58122 1.37371 8.83784 1.28323 9.72158 1.96696C10.6312 2.71283 10.7639 4.05485 10.0181 4.96447C9.97442 5.01771 9.92822 5.06879 9.8796 5.11755L8.37531 6.62184C8.08248 6.91477 8.08248 7.38961 8.37531 7.68254C8.66824 7.97537 9.14308 7.97537 9.43601 7.68254L10.9403 6.17825C12.3565 4.75753 12.3528 2.45776 10.9321 1.04156C10.8217 0.931527 10.7044 0.828711 10.5807 0.733724Z" fill="white"/>
<path d="M4.30553 6.62294L6.63624 4.29223C6.92919 3.99927 7.40415 3.99927 7.6971 4.29223C7.99006 4.58518 7.99006 5.06014 7.6971 5.35309L5.36639 7.6838C5.07344 7.97676 4.59848 7.97676 4.30553 7.6838C4.01258 7.39085 4.01258 6.91589 4.30553 6.62294Z" fill="white"/>
</g>
<defs>
<clipPath id="clip0_3257_673">
<rect width="12" height="12" fill="white"/>
</clipPath>
</defs>
</svg>
