<svg width="24" height="24" viewBox="0 0 24 24" fill="none" xmlns="http://www.w3.org/2000/svg">
<g clip-path="url(#clip0_2372_1028)">
<path d="M21 24.0005H18V19.0005C18 18.4701 17.7893 17.9613 17.4142 17.5863C17.0391 17.2112 16.5304 17.0005 16 17.0005H8C7.46957 17.0005 6.96086 17.2112 6.58579 17.5863C6.21071 17.9613 6 18.4701 6 19.0005V24.0005H3V19.0005C3.00159 17.6749 3.52888 16.404 4.46622 15.4667C5.40356 14.5294 6.67441 14.0021 8 14.0005H16C17.3256 14.0021 18.5964 14.5294 19.5338 15.4667C20.4711 16.404 20.9984 17.6749 21 19.0005V24.0005Z" fill="#51525C"/>
<path d="M12.0001 12C10.8134 12 9.65334 11.6481 8.66664 10.9888C7.67995 10.3295 6.91091 9.39246 6.45679 8.2961C6.00266 7.19975 5.88384 5.99335 6.11535 4.82946C6.34686 3.66558 6.91831 2.59648 7.75742 1.75736C8.59654 0.918247 9.66564 0.346802 10.8295 0.115291C11.9934 -0.11622 13.1998 0.00259972 14.2962 0.456726C15.3925 0.910851 16.3296 1.67989 16.9889 2.66658C17.6482 3.65328 18.0001 4.81331 18.0001 6C17.9985 7.59081 17.3658 9.11602 16.2409 10.2409C15.1161 11.3658 13.5909 11.9984 12.0001 12ZM12.0001 3C11.4067 3 10.8267 3.17595 10.3334 3.50559C9.84001 3.83524 9.45549 4.30377 9.22842 4.85195C9.00136 5.40013 8.94195 6.00333 9.05771 6.58527C9.17346 7.16722 9.45919 7.70177 9.87874 8.12132C10.2983 8.54088 10.8328 8.8266 11.4148 8.94236C11.9967 9.05812 12.5999 8.9987 13.1481 8.77164C13.6963 8.54458 14.1648 8.16006 14.4945 7.66671C14.8241 7.17337 15.0001 6.59335 15.0001 6C15.0001 5.20435 14.684 4.44129 14.1214 3.87868C13.5588 3.31607 12.7957 3 12.0001 3Z" fill="#51525C"/>
</g>
<defs>
<clipPath id="clip0_2372_1028">
<rect width="24" height="24" fill="white"/>
</clipPath>
</defs>
</svg>
