<svg width="88" height="88" viewBox="0 0 88 88" fill="none" xmlns="http://www.w3.org/2000/svg">
<g filter="url(#filter0_d_2424_1784)">
<path fill-rule="evenodd" clip-rule="evenodd" d="M78.9883 1.5625H9.0127C7.12143 1.5625 5.57125 3.10377 5.5625 4.99505V5.0127V18.0166H82.4386V5.01286C82.4386 3.11268 80.884 1.5625 78.9883 1.5625Z" fill="#FF7D95"/>
<path fill-rule="evenodd" clip-rule="evenodd" d="M82.4386 18.0166H5.5625V62.8702V62.8879C5.57141 64.7746 7.12158 66.3204 9.0127 66.3204H21.9855C19.4299 62.2899 17.9506 57.5153 17.9506 52.3908C17.9506 38.005 29.6125 26.3433 43.9982 26.3433C58.3839 26.3433 70.0457 38.0052 70.0457 52.3908C70.0457 57.5153 68.5663 62.2899 66.0108 66.3204H78.9882C80.8839 66.3204 82.4384 64.7659 82.4384 62.8702V18.0166H82.4386Z" fill="white"/>
<path fill-rule="evenodd" clip-rule="evenodd" d="M70.0458 52.391C70.0458 38.0052 58.3839 26.3435 43.9982 26.3435C29.6126 26.3435 17.9507 38.0054 17.9507 52.391C17.9507 57.5155 19.4301 62.2901 21.9856 66.3206C26.6052 73.6021 34.737 78.4386 43.9982 78.4386C53.2594 78.4386 61.3958 73.6019 66.0109 66.3206C68.5665 62.2901 70.0458 57.5155 70.0458 52.391ZM30.8837 48.7192L43.9982 35.6047L57.1173 48.7192V66.6217H47.9181H40.083H30.8838L30.8837 48.7192Z" fill="#FFF1A0"/>
<path fill-rule="evenodd" clip-rule="evenodd" d="M57.1173 48.7193L43.9983 35.6047L30.8838 48.7193V66.6219H40.083V56.8999H47.9181V66.6219H57.1173V48.7193Z" fill="#A0E5A5"/>
<path fill-rule="evenodd" clip-rule="evenodd" d="M40.083 56.8999H47.9181V66.6217H40.083V56.8999Z" fill="#D0F2D2"/>
<path d="M64.5846 11.35C65.4475 11.35 66.1472 10.6503 66.1472 9.7875C66.1472 8.92467 65.4475 8.22498 64.5846 8.22498H64.5757C63.7129 8.22498 63.0176 8.92467 63.0176 9.7875C63.0176 10.6503 63.7218 11.35 64.5846 11.35Z" fill="black"/>
<path d="M73.0177 11.35C73.8806 11.35 74.5803 10.6503 74.5803 9.7875C74.5803 8.92467 73.8806 8.22498 73.0177 8.22498H73.0088C72.146 8.22498 71.4507 8.92467 71.4507 9.7875C71.4507 10.6503 72.1549 11.35 73.0177 11.35Z" fill="black"/>
<path d="M56.1518 11.35C57.0146 11.35 57.7143 10.6503 57.7143 9.7875C57.7143 8.92467 57.0146 8.22498 56.1518 8.22498H56.1429C55.28 8.22498 54.5847 8.92467 54.5847 9.7875C54.5847 10.6503 55.2888 11.35 56.1518 11.35Z" fill="black"/>
<path d="M14.9788 11.35H38.4575C39.3204 11.35 40.0201 10.6503 40.0201 9.7875C40.0201 8.92467 39.3204 8.22498 38.4575 8.22498H14.9788C14.116 8.22498 13.4163 8.92467 13.4163 9.7875C13.4163 10.6503 14.1158 11.35 14.9788 11.35Z" fill="black"/>
<path d="M78.9884 0H9.01272C6.24878 0 4 2.24878 4 5.01272V62.8702C4 65.6342 6.24878 67.883 9.01272 67.883H21.137C22.1109 69.3128 23.226 70.6608 24.477 71.9118C29.6903 77.1275 36.6234 80 43.9988 80C51.3741 80 58.3082 77.1276 63.5238 71.9121C64.7815 70.6544 65.8902 69.3034 66.854 67.883H78.9882C81.7522 67.883 84.0009 65.6342 84.0009 62.8702V5.01272C84.0011 2.24878 81.7523 0 78.9884 0ZM9.01272 3.12504H78.9884C80.0292 3.12504 80.876 3.97193 80.876 5.01272V16.4541H7.12504V5.01272C7.12504 3.97193 7.97193 3.12504 9.01272 3.12504ZM78.9884 64.7581H68.6856C73.8558 54.4178 72.1361 41.4815 63.5239 32.8656C59.1733 28.5151 53.6563 25.7985 47.5693 25.01C41.6744 24.2461 35.5932 25.4255 30.4438 28.3312C29.6922 28.7552 29.4268 29.7081 29.8508 30.4598C30.2749 31.2115 31.228 31.4765 31.9794 31.0528C41.5072 25.6774 53.57 27.3315 61.3139 35.0752C70.8589 44.624 70.8589 60.1579 61.3141 69.7025C56.6887 74.3279 50.5395 76.8751 43.999 76.8751C37.4586 76.8751 31.3105 74.3279 26.687 69.7025C18.9483 61.9638 17.2889 49.9076 22.652 40.3843C23.0753 39.6324 22.809 38.6796 22.0571 38.256C21.3052 37.833 20.3524 38.0988 19.929 38.8508C17.0302 43.9983 15.8558 50.0769 16.6217 55.9672C17.0255 59.0725 17.9322 62.029 19.3004 64.7582H9.01272C7.97193 64.7582 7.12504 63.9113 7.12504 62.8705V19.5793H80.876V62.8705C80.876 63.9112 80.0292 64.7581 78.9884 64.7581Z" fill="black"/>
<path d="M25.9962 53.6067C26.6065 54.2167 27.5956 54.2167 28.2061 53.6067L29.3212 52.4915V66.6219C29.3212 67.4847 30.0209 68.1844 30.8838 68.1844H57.1174C57.9802 68.1844 58.6799 67.4847 58.6799 66.6219V52.492L59.7951 53.6068C60.1003 53.9118 60.5001 54.0643 60.8998 54.0643C61.2998 54.0643 61.6997 53.9117 62.0048 53.6065C62.6148 52.9962 62.6147 52.007 62.0045 51.3966L45.103 34.4995C44.4927 33.8895 43.5038 33.8897 42.8933 34.4997L25.9962 51.3968C25.386 52.007 25.386 52.9964 25.9962 53.6067ZM46.3555 65.0592H41.6453V58.4624H46.3555V65.0592ZM43.9983 37.8143L55.5547 49.3677V65.0593H49.4806V56.9C49.4806 56.0372 48.7809 55.3375 47.9181 55.3375H40.0828C39.22 55.3375 38.5203 56.0372 38.5203 56.9V65.0593H32.4461V49.3665L43.9983 37.8143Z" fill="black"/>
<path d="M41.1194 50.2818H46.8775C47.7403 50.2818 48.44 49.5821 48.44 48.7193C48.44 47.8564 47.7403 47.1567 46.8775 47.1567H41.1194C40.2566 47.1567 39.5569 47.8564 39.5569 48.7193C39.5569 49.5821 40.2564 50.2818 41.1194 50.2818Z" fill="black"/>
<path d="M26.6824 35.0797L26.6868 35.0753C27.2969 34.4652 27.2947 33.478 26.6844 32.8678C26.0741 32.2576 25.0827 32.26 24.4725 32.87C23.8624 33.4801 23.8624 34.4695 24.4725 35.0799C24.7777 35.3849 25.1775 35.5375 25.5774 35.5375C25.9772 35.5375 26.3772 35.3847 26.6824 35.0797Z" fill="black"/>
</g>
<defs>
<filter id="filter0_d_2424_1784" x="0" y="0" width="88.001" height="88" filterUnits="userSpaceOnUse" color-interpolation-filters="sRGB">
<feFlood flood-opacity="0" result="BackgroundImageFix"/>
<feColorMatrix in="SourceAlpha" type="matrix" values="0 0 0 0 0 0 0 0 0 0 0 0 0 0 0 0 0 0 127 0" result="hardAlpha"/>
<feOffset dy="4"/>
<feGaussianBlur stdDeviation="2"/>
<feComposite in2="hardAlpha" operator="out"/>
<feColorMatrix type="matrix" values="0 0 0 0 0 0 0 0 0 0 0 0 0 0 0 0 0 0 0.25 0"/>
<feBlend mode="normal" in2="BackgroundImageFix" result="effect1_dropShadow_2424_1784"/>
<feBlend mode="normal" in="SourceGraphic" in2="effect1_dropShadow_2424_1784" result="shape"/>
</filter>
</defs>
</svg>
