<svg width="12" height="12" viewBox="0 0 12 12" fill="none" xmlns="http://www.w3.org/2000/svg">
<g clip-path="url(#clip0_3130_550)">
<path d="M10.5 10.9747C10.5 9.73204 9.49266 8.72467 8.25003 8.72467H5.41604V9.56467C5.41486 10.176 4.91829 10.6707 4.30693 10.6695C4.00097 10.669 3.7089 10.5418 3.50004 10.3182L0.389021 6.97068C-0.129511 6.40771 -0.129511 5.54113 0.389021 4.97818L3.50002 1.63068C3.91585 1.1825 4.61628 1.15628 5.06445 1.57211C5.29036 1.78171 5.41866 2.07599 5.41852 2.38417V3.22466H7.25002C9.87211 3.22771 11.997 5.35257 12 7.97467V10.9747C12 11.3889 11.6642 11.7247 11.25 11.7247C10.8358 11.7247 10.5 11.3889 10.5 10.9747ZM10.5 7.97467C10.4978 6.18067 9.04404 4.72686 7.25002 4.72466H4.66604C4.25182 4.72466 3.91604 4.38887 3.91604 3.97466V3.37466L1.48852 5.95018L3.91601 8.56419V7.97469C3.91601 7.56048 4.2518 7.22469 4.66601 7.22469H8.25003C9.06183 7.22368 9.85179 7.48752 10.5 7.97619V7.97467Z" fill="#9A9DAD"/>
</g>
<defs>
<clipPath id="clip0_3130_550">
<rect width="12" height="12" fill="white"/>
</clipPath>
</defs>
</svg>
