<svg width="24" height="24" viewBox="0 0 24 24" fill="none" xmlns="http://www.w3.org/2000/svg">
<path d="M15.7501 9.52488L11.1641 4.93888C10.8827 4.65762 10.5011 4.49966 10.1033 4.49976C9.70543 4.49985 9.3239 4.65799 9.04264 4.93938C8.76138 5.22078 8.60342 5.60238 8.60352 6.00024C8.60361 6.39809 8.76175 6.77962 9.04314 7.06088L13.6291 11.6459C13.6757 11.6923 13.7126 11.7475 13.7378 11.8083C13.7631 11.869 13.776 11.9341 13.776 11.9999C13.776 12.0657 13.7631 12.1308 13.7378 12.1915C13.7126 12.2523 13.6757 12.3074 13.6291 12.3539L9.04314 16.9389C8.76175 17.2201 8.60361 17.6017 8.60352 17.9995C8.60342 18.3974 8.76138 18.779 9.04264 19.0604C9.3239 19.3418 9.70543 19.4999 10.1033 19.5C10.5011 19.5001 10.8827 19.3421 11.1641 19.0609L15.7501 14.4749C16.4054 13.8178 16.7733 12.9278 16.7733 11.9999C16.7733 11.072 16.4054 10.1819 15.7501 9.52488Z" fill="#232433"/>
</svg>
