<svg width="24" height="24" viewBox="0 0 24 24" fill="none" xmlns="http://www.w3.org/2000/svg">
<g clip-path="url(#clip0_2372_1070)">
<path d="M11 14.0005H5C3.67441 14.0021 2.40356 14.5294 1.46622 15.4667C0.528882 16.404 0.00158786 17.6749 0 19.0005L0 24.0005H3V19.0005C3 18.4701 3.21071 17.9613 3.58579 17.5863C3.96086 17.2112 4.46957 17.0005 5 17.0005H11C11.5304 17.0005 12.0391 17.2112 12.4142 17.5863C12.7893 17.9613 13 18.4701 13 19.0005V24.0005H16V19.0005C15.9984 17.6749 15.4711 16.404 14.5338 15.4667C13.5964 14.5294 12.3256 14.0021 11 14.0005Z" fill="#232433"/>
<path d="M8.00012 12C9.18681 12 10.3468 11.6481 11.3335 10.9888C12.3202 10.3295 13.0893 9.39246 13.5434 8.2961C13.9975 7.19975 14.1163 5.99335 13.8848 4.82946C13.6533 3.66558 13.0819 2.59648 12.2428 1.75736C11.4036 0.918247 10.3346 0.346802 9.17066 0.115291C8.00678 -0.11622 6.80038 0.00259972 5.70402 0.456726C4.60767 0.910851 3.67059 1.67989 3.0113 2.66658C2.35202 3.65328 2.00012 4.81331 2.00012 6C2.00171 7.59081 2.63436 9.11602 3.75924 10.2409C4.88411 11.3658 6.40931 11.9984 8.00012 12ZM8.00012 3C8.59347 3 9.17349 3.17595 9.66683 3.50559C10.1602 3.83524 10.5447 4.30377 10.7718 4.85195C10.9988 5.40013 11.0582 6.00333 10.9425 6.58527C10.8267 7.16722 10.541 7.70177 10.1214 8.12132C9.70189 8.54088 9.16734 8.8266 8.58539 8.94236C8.00345 9.05812 7.40025 8.9987 6.85207 8.77164C6.30389 8.54458 5.83536 8.16006 5.50571 7.66671C5.17607 7.17337 5.00012 6.59335 5.00012 6C5.00012 5.20435 5.31619 4.44129 5.8788 3.87868C6.44141 3.31607 7.20447 3 8.00012 3Z" fill="#232433"/>
<path d="M21 9.99927V6.99927H18V9.99927H15V12.9993H18V15.9993H21V12.9993H24V9.99927H21Z" fill="#232433"/>
</g>
<defs>
<clipPath id="clip0_2372_1070">
<rect width="24" height="24" fill="white"/>
</clipPath>
</defs>
</svg>
