<svg width="59" height="54" viewBox="0 0 59 54" fill="none" xmlns="http://www.w3.org/2000/svg">
<g opacity="0.5">
<path d="M19.8569 16.7142C24.1255 16.7142 27.5455 13.2685 27.5455 8.99993C27.5455 4.73136 24.1255 1.28564 19.8569 1.28564C15.5884 1.28564 12.1426 4.73136 12.1426 8.99993C12.1426 13.2685 15.5884 16.7142 19.8569 16.7142ZM19.8569 21.8571C13.8655 21.8571 1.85693 24.8657 1.85693 30.8571V37.2857H19.8569V31.4999C19.8569 29.3142 20.7055 25.4828 25.9512 22.5771C23.7141 22.1142 21.5541 21.8571 19.8569 21.8571Z" fill="#005EAE"/>
<path d="M56.7756 35.8163C56.7756 26.6914 49.3699 19.2856 40.245 19.2856C31.1201 19.2856 23.7144 26.6914 23.7144 35.8163C23.7144 44.9412 31.1201 52.3469 40.245 52.3469C49.3699 52.3469 56.7756 44.9412 56.7756 35.8163ZM45.2042 26.7244L50.9899 32.5101L45.2042 38.2958V34.1632H38.5919V30.8571H45.2042V26.7244ZM35.2858 44.9081L29.5001 39.1224L35.2858 33.3367V37.4693H41.898V40.7754H35.2858V44.9081Z" fill="#005EAE"/>
</g>
</svg>
