<svg width="1100" height="640" viewBox="0 0 1100 640" fill="none" xmlns="http://www.w3.org/2000/svg">
<mask id="mask0_2449_227787" style="mask-type:alpha" maskUnits="userSpaceOnUse" x="0" y="226" width="1100" height="336">
<rect x="0.5" y="226.5" width="1099" height="335" rx="7.5" fill="white" stroke="#EDEFF2"/>
</mask>
<g mask="url(#mask0_2449_227787)">
<rect x="802.909" y="235.909" width="225.182" height="444.182" rx="6.36243" fill="#EDEFF2" fill-opacity="0.2" stroke="#EDEFF2" stroke-width="1.81784"/>
<rect x="538.909" y="235.909" width="225.182" height="444.182" rx="6.36243" fill="#EDEFF2" fill-opacity="0.2" stroke="#EDEFF2" stroke-width="1.81784"/>
<rect x="275.909" y="235.909" width="225.182" height="444.182" rx="6.36243" fill="#EDEFF2" fill-opacity="0.2" stroke="#EDEFF2" stroke-width="1.81784"/>
<rect x="71.9089" y="235.909" width="165.182" height="444.182" rx="6.36243" fill="#EDEFF2" fill-opacity="0.2" stroke="#EDEFF2" stroke-width="1.81784"/>
<line x1="202.793" y1="266.431" x2="258.237" y2="266.431" stroke="#B4B5B8" stroke-width="1.81784"/>
<line x1="257.329" y1="267.34" x2="257.329" y2="572.736" stroke="#B4B5B8" stroke-width="1.81784"/>
<line x1="256.42" y1="495.478" x2="285.505" y2="495.478" stroke="#B4B5B8" stroke-width="1.81784" stroke-dasharray="3.64 3.64"/>
<line x1="256.42" y1="266.431" x2="285.505" y2="266.431" stroke="#B4B5B8" stroke-width="1.81784" stroke-dasharray="3.64 3.64"/>
<line x1="466.379" y1="266.431" x2="521.823" y2="266.431" stroke="#B4B5B8" stroke-width="1.81784"/>
<line x1="520.006" y1="266.431" x2="549.091" y2="266.431" stroke="#B4B5B8" stroke-width="1.81784" stroke-dasharray="3.64 3.64"/>
<line x1="520.006" y1="342.779" x2="549.091" y2="342.779" stroke="#B4B5B8" stroke-width="1.81784" stroke-dasharray="3.64 3.64"/>
<line x1="520.915" y1="267.34" x2="520.915" y2="343.689" stroke="#B4B5B8" stroke-width="1.81784"/>
<line x1="729.967" y1="266.431" x2="819.041" y2="266.431" stroke="#B4B5B8" stroke-width="1.81784"/>
<line x1="757.057" y1="266.8" x2="813.41" y2="343.149" stroke="#B4B5B8" stroke-width="1.81784" stroke-dasharray="3.64 3.64"/>
<line x1="757.182" y1="267.034" x2="811.717" y2="419.732" stroke="#B4B5B8" stroke-width="1.81784" stroke-dasharray="3.64 3.64"/>
<path d="M79.7773 257.086C79.7773 252.668 83.3591 249.086 87.7773 249.086H220.84C225.258 249.086 228.84 252.668 228.84 257.086V277.443C228.84 281.861 225.258 285.443 220.84 285.443H87.7773C83.3591 285.443 79.7773 281.861 79.7773 277.443V257.086Z" fill="#EDEFF2"/>
<path d="M105.159 262.004H103.755V270.948H105.159V262.004ZM96.6244 265.903C96.6244 264.772 97.4288 264.036 98.5195 264.036C99.5966 264.036 100.415 264.772 100.415 265.903C100.415 267.021 99.5966 267.771 98.5195 267.771C97.4288 267.771 96.6244 267.021 96.6244 265.903ZM101.778 265.903C101.778 264.104 100.374 262.822 98.5195 262.822C96.6653 262.822 95.2474 264.104 95.2474 265.903C95.2474 267.689 96.6653 268.985 98.5195 268.985C100.374 268.985 101.778 267.689 101.778 265.903ZM98.5331 272.938V270.048H97.1152V274.084H105.514V272.938H98.5331ZM116.965 266.899C117.306 265.631 117.306 264.608 117.306 263.627V262.59H108.853V263.722H115.915C115.915 264.649 115.902 265.535 115.588 266.749L116.965 266.899ZM113.079 273.238C111.252 273.238 110.134 272.788 110.134 272.011C110.134 271.248 111.252 270.798 113.079 270.798C114.893 270.798 115.983 271.248 115.983 272.011C115.983 272.788 114.893 273.238 113.079 273.238ZM113.079 269.721C110.421 269.721 108.744 270.593 108.744 272.011C108.744 273.443 110.421 274.315 113.079 274.315C115.697 274.315 117.388 273.443 117.388 272.011C117.388 270.593 115.697 269.721 113.079 269.721ZM113.352 267.635V265.372H111.934V267.635H107.571V268.766H118.669V267.635H113.352ZM124.64 264.39H127.38V263.231H120.481V264.39H123.222V265.563C123.222 267.676 121.954 269.966 120.045 270.852L120.85 271.97C122.295 271.275 123.399 269.816 123.944 268.098C124.517 269.694 125.621 271.03 127.053 271.657L127.83 270.553C125.908 269.734 124.64 267.608 124.64 265.563V264.39ZM128.812 262.004V274.315H130.23V262.004H128.812ZM142.513 265.276H135.505V262.236H134.1V266.408H142.513V265.276ZM138.177 273.197C136.377 273.197 135.368 272.775 135.368 272.025C135.368 271.248 136.377 270.852 138.177 270.852C139.977 270.852 140.999 271.248 140.999 272.025C140.999 272.775 139.977 273.197 138.177 273.197ZM138.177 269.748C135.546 269.748 133.937 270.58 133.937 272.025C133.937 273.456 135.546 274.288 138.177 274.288C140.822 274.288 142.417 273.456 142.417 272.025C142.417 270.58 140.822 269.748 138.177 269.748ZM132.642 267.649V268.794H143.78V267.649H132.642Z" fill="#212121"/>
<g clip-path="url(#clip0_2449_227787)">
<path d="M209.882 262.848C207.642 262.848 205.792 264.516 205.506 266.678H202.757C202.64 266.39 202.441 266.144 202.183 265.97C201.926 265.797 201.622 265.704 201.312 265.704C200.452 265.704 199.754 266.402 199.754 267.262C199.754 268.123 200.452 268.821 201.312 268.821C201.966 268.821 202.526 268.418 202.757 267.847H205.504C205.792 270.009 207.642 271.677 209.882 271.677C212.32 271.677 214.297 269.7 214.297 267.262C214.297 264.825 212.32 262.848 209.882 262.848ZM211.959 267.684C211.959 267.756 211.901 267.814 211.83 267.814H210.434V269.21C210.434 269.282 210.375 269.34 210.304 269.34H209.46C209.388 269.34 209.33 269.282 209.33 269.21V267.814H207.934C207.863 267.814 207.804 267.756 207.804 267.684V266.84C207.804 266.769 207.863 266.711 207.934 266.711H209.33V265.315C209.33 265.243 209.388 265.185 209.46 265.185H210.304C210.375 265.185 210.434 265.243 210.434 265.315V266.711H211.83C211.901 266.711 211.959 266.769 211.959 266.84V267.684Z" fill="#212121"/>
</g>
<path d="M282.939 562.406C282.939 557.988 286.521 554.406 290.939 554.406H483.991C488.409 554.406 491.991 557.988 491.991 562.406V582.763C491.991 587.181 488.409 590.763 483.991 590.763H290.939C286.521 590.763 282.939 587.181 282.939 582.763V562.406Z" fill="#FEF5ED"/>
<circle cx="301.118" cy="572.583" r="10.907" fill="#FBE0C9"/>
<path d="M283.25 257.086C283.25 252.668 286.832 249.086 291.25 249.086H484.301C488.719 249.086 492.301 252.668 492.301 257.086V277.443C492.301 281.861 488.72 285.443 484.301 285.443H291.25C286.832 285.443 283.25 281.861 283.25 277.443V257.086Z" fill="#EFF2FF"/>
<circle cx="301.428" cy="267.262" r="10.907" fill="#B5D0FA"/>
<circle r="3.63567" transform="matrix(1 0 0 -1 301.429 267.263)" fill="#2F80ED"/>
<path d="M328.019 266.798C326.274 267.152 324.761 267.234 322.184 267.234V263.812H326.82V262.912H321.066V268.147H322.075C324.761 268.147 326.329 268.052 328.129 267.711L328.019 266.798ZM329.26 273.287H323.588V271.733H329.26V273.287ZM329.26 270.847H323.588V269.293H322.484V274.201H330.364V269.293H329.26V270.847ZM329.247 262.121V268.706H330.364V262.121H329.247ZM334.426 267.547H338.762V263.266H333.295V264.18H337.671V266.648H333.322V271.433H334.263C336.471 271.433 338.026 271.365 339.866 271.038L339.757 270.111C337.998 270.424 336.512 270.506 334.426 270.506V267.547ZM341.816 262.121V266.839H339.484V267.752H341.816V274.378H342.934V262.121H341.816ZM355.421 262.135H354.303V269.443H355.421V262.135ZM353.008 266.92C351.127 267.316 349.395 267.452 347.282 267.452V262.953H346.164V268.393H347.159C349.381 268.393 351.154 268.256 353.144 267.847L353.008 266.92ZM351.372 273.451C349.518 273.451 348.373 272.892 348.373 271.951C348.373 270.997 349.518 270.438 351.372 270.438C353.213 270.438 354.358 270.997 354.358 271.951C354.358 272.892 353.213 273.451 351.372 273.451ZM351.372 269.538C348.85 269.538 347.255 270.438 347.255 271.951C347.255 273.451 348.85 274.351 351.372 274.351C353.894 274.351 355.476 273.451 355.476 271.951C355.476 270.438 353.894 269.538 351.372 269.538Z" fill="#212121"/>
<path d="M283.25 486.133C283.25 481.715 286.832 478.133 291.25 478.133H484.301C488.719 478.133 492.301 481.715 492.301 486.133V506.49C492.301 510.908 488.72 514.49 484.301 514.49H291.25C286.832 514.49 283.25 510.908 283.25 506.49V486.133Z" fill="#FAFAFC"/>
<circle cx="301.428" cy="496.309" r="10.907" fill="#EDEFF2"/>
<circle r="3.63567" transform="matrix(1 0 0 -1 301.429 496.31)" fill="#6F7075"/>
<path d="M325.279 499.43H321.912V493.268H325.279V499.43ZM329.287 491.182V495.64H326.383V492.382H320.821V500.316H326.383V496.553H329.287V503.439H330.405V491.182H329.287ZM342.906 491.182H341.789V500.153H342.906V491.182ZM340.234 497.276C338.421 496.608 337.18 494.945 337.18 493.104V491.863H336.062V493.104C336.062 495.013 334.835 496.785 332.995 497.494L333.581 498.408C335.013 497.808 336.117 496.622 336.635 495.136C337.18 496.526 338.257 497.631 339.648 498.162L340.234 497.276ZM336.158 502.225V499.321H335.04V503.139H343.275V502.225H336.158ZM346.968 496.594H351.304V492.313H345.837V493.227H350.213V495.695H345.864V500.48H346.805C349.013 500.48 350.568 500.412 352.408 500.085L352.299 499.158C350.54 499.471 349.054 499.553 346.968 499.553V496.594ZM354.358 491.168V495.885H352.026V496.799H354.358V503.425H355.476V491.168H354.358ZM367.963 491.182H366.845V498.489H367.963V491.182ZM365.55 495.967C363.669 496.363 361.937 496.499 359.824 496.499V492H358.706V497.44H359.701C361.923 497.44 363.696 497.303 365.686 496.894L365.55 495.967ZM363.914 502.498C362.06 502.498 360.915 501.939 360.915 500.998C360.915 500.044 362.06 499.485 363.914 499.485C365.755 499.485 366.9 500.044 366.9 500.998C366.9 501.939 365.755 502.498 363.914 502.498ZM363.914 498.585C361.392 498.585 359.797 499.485 359.797 500.998C359.797 502.498 361.392 503.398 363.914 503.398C366.436 503.398 368.018 502.498 368.018 500.998C368.018 499.485 366.436 498.585 363.914 498.585Z" fill="#6F7075"/>
<path d="M290.521 479.042H485.03V477.224H290.521V479.042ZM491.392 485.404V507.218H493.21V485.404H491.392ZM485.03 513.581H290.521V515.398H485.03V513.581ZM284.159 507.218V485.404H282.341V507.218H284.159ZM290.521 513.581C287.007 513.581 284.159 510.732 284.159 507.218H282.341C282.341 511.736 286.004 515.398 290.521 515.398V513.581ZM491.392 507.218C491.392 510.732 488.544 513.581 485.03 513.581V515.398C489.548 515.398 493.21 511.736 493.21 507.218H491.392ZM485.03 479.042C488.544 479.042 491.392 481.89 491.392 485.404H493.21C493.21 480.886 489.548 477.224 485.03 477.224V479.042ZM290.521 477.224C286.004 477.224 282.341 480.886 282.341 485.404H284.159C284.159 481.89 287.007 479.042 290.521 479.042V477.224Z" fill="#EDEFF2"/>
<path d="M546.836 257.086C546.836 252.668 550.418 249.086 554.836 249.086H747.887C752.305 249.086 755.887 252.668 755.887 257.086V277.443C755.887 281.861 752.305 285.443 747.887 285.443H554.836C550.418 285.443 546.836 281.861 546.836 277.443V257.086Z" fill="white"/>
<circle r="3.63567" transform="matrix(1 0 0 -1 565.015 267.263)" fill="#2F80ED"/>
<path d="M585.811 270.839H592.86V274.288H593.991V269.925H585.811V270.839ZM590.256 266.585C590.337 266.299 590.392 265.999 590.392 265.658C590.392 265.331 590.337 265.031 590.256 264.745H592.86V266.585H590.256ZM587.243 267.662C586.056 267.662 585.17 266.83 585.17 265.658C585.17 264.513 586.056 263.681 587.243 263.681C588.442 263.681 589.329 264.513 589.329 265.658C589.329 266.83 588.442 267.662 587.243 267.662ZM592.86 262.059V263.845H589.778C589.206 263.149 588.306 262.727 587.243 262.727C585.443 262.727 584.107 263.94 584.107 265.658C584.107 267.389 585.443 268.617 587.243 268.617C588.306 268.617 589.192 268.194 589.765 267.499H592.86V269.257H593.991V262.045L592.86 262.059ZM602.948 265.426V266.34H605.402V271.016H606.533V262.059H605.402V265.426H602.948ZM603.67 268.303C601.898 267.676 600.698 266.149 600.698 264.554V263.954H603.384V263.04H596.853V263.954H599.58V264.567C599.58 266.299 598.312 267.921 596.499 268.576L597.085 269.448C598.517 268.93 599.635 267.798 600.166 266.408C600.698 267.662 601.748 268.685 603.111 269.175L603.67 268.303ZM599.839 273.088V270.225H598.708V274.002H606.874V273.088H599.839ZM611.563 264.267H613.567V270.212C612.899 270.239 612.218 270.266 611.563 270.28V264.267ZM614.658 264.267H615.967V263.368H609.164V264.267H610.472V270.293C609.9 270.307 609.354 270.307 608.85 270.307L608.986 271.248C611.14 271.248 614.044 271.207 616.608 270.798L616.526 269.966C615.926 270.048 615.299 270.103 614.658 270.143V264.267ZM620.425 266.94H618.407V262.059H617.289V274.275H618.407V267.867H620.425V266.94ZM625.913 265.194C625.913 264.145 626.786 263.381 627.972 263.381C629.172 263.381 630.044 264.145 630.044 265.194C630.044 266.271 629.172 267.021 627.972 267.021C626.786 267.021 625.913 266.271 625.913 265.194ZM631.135 265.194C631.135 263.599 629.813 262.481 627.972 262.481C626.145 262.481 624.823 263.599 624.823 265.194C624.823 266.817 626.145 267.935 627.972 267.935C629.813 267.935 631.135 266.817 631.135 265.194ZM627.44 271.848H634.08V268.848H626.309V269.734H632.976V271.016H626.35V274.111H634.53V273.211H627.44V271.848ZM634.08 264.676V262.045H632.962V268.276H634.08V265.603H635.893V264.676H634.08ZM645.763 264.485C645.763 265.958 645.763 267.676 645.3 270.021L646.418 270.143C646.881 267.676 646.881 265.999 646.881 264.485V263.272H638.305V264.186H645.763V264.485ZM642.559 271.643V267.267H641.441V271.643H637.147V272.557H648.204V271.643H642.559ZM651.502 267.539H656.015V263.177H650.343V264.09H654.883V266.64H650.384V271.33H651.393C653.492 271.33 655.347 271.248 657.555 270.88L657.446 269.966C655.306 270.307 653.506 270.403 651.502 270.403V267.539ZM658.591 262.031V274.288H659.709V262.031H658.591ZM663.239 267.035C665.244 266.79 667.071 265.903 667.752 264.567C668.42 265.903 670.261 266.79 672.265 267.035L672.66 266.149C670.493 265.917 668.516 264.854 668.475 263.477H672.279V262.577H663.239V263.477H667.03C666.989 264.854 665.012 265.917 662.844 266.149L663.239 267.035ZM664.671 270.88H670.834V273.211H664.671V270.88ZM663.58 274.111H671.924V269.994H663.58V274.111ZM662.217 267.771V268.671H673.274V267.771H662.217Z" fill="#212121"/>
<path d="M554.107 249.995H748.616V248.177H554.107V249.995ZM754.978 256.357V278.171H756.796V256.357H754.978ZM748.616 284.534H554.107V286.352H748.616V284.534ZM547.745 278.171V256.357H545.927V278.171H547.745ZM554.107 284.534C550.593 284.534 547.745 281.685 547.745 278.171H545.927C545.927 282.689 549.589 286.352 554.107 286.352V284.534ZM754.978 278.171C754.978 281.685 752.13 284.534 748.616 284.534V286.352C753.134 286.352 756.796 282.689 756.796 278.171H754.978ZM748.616 249.995C752.13 249.995 754.978 252.843 754.978 256.357H756.796C756.796 251.839 753.134 248.177 748.616 248.177V249.995ZM554.107 248.177C549.589 248.177 545.927 251.839 545.927 256.357H547.745C547.745 252.843 550.593 249.995 554.107 249.995V248.177Z" fill="#EDEFF2"/>
<path d="M810.422 257.086C810.422 252.668 814.004 249.086 818.422 249.086H1011.47C1015.89 249.086 1019.47 252.668 1019.47 257.086V277.443C1019.47 281.861 1015.89 285.443 1011.47 285.443H818.422C814.004 285.443 810.422 281.861 810.422 277.443V257.086Z" fill="white"/>
<circle r="3.63567" transform="matrix(1 0 0 -1 828.601 267.263)" fill="#2F80ED"/>
<path d="M851.292 273.443C852.996 273.443 854.51 271.984 854.51 269.435C854.51 267.171 853.473 265.672 851.551 265.672C850.733 265.672 849.901 266.135 849.233 266.721L849.274 265.385V262.413H848.034V273.266H849.029L849.138 272.502H849.192C849.833 273.088 850.61 273.443 851.292 273.443ZM851.088 272.407C850.597 272.407 849.929 272.202 849.274 271.63V267.744C849.983 267.076 850.638 266.721 851.265 266.721C852.669 266.721 853.214 267.826 853.214 269.462C853.214 271.302 852.315 272.407 851.088 272.407ZM857.953 273.443C858.866 273.443 859.698 272.966 860.407 272.379H860.448L860.557 273.266H861.579V268.712C861.579 266.885 860.816 265.672 859.016 265.672C857.83 265.672 856.78 266.203 856.099 266.64L856.589 267.499C857.176 267.103 857.953 266.708 858.812 266.708C860.025 266.708 860.339 267.621 860.339 268.576C857.189 268.93 855.785 269.734 855.785 271.343C855.785 272.679 856.712 273.443 857.953 273.443ZM858.307 272.448C857.571 272.448 856.998 272.107 856.998 271.261C856.998 270.307 857.844 269.694 860.339 269.394V271.466C859.616 272.107 859.03 272.448 858.307 272.448ZM866.862 273.443C867.748 273.443 868.593 273.102 869.261 272.502L868.716 271.67C868.252 272.093 867.653 272.407 866.971 272.407C865.607 272.407 864.68 271.275 864.68 269.571C864.68 267.867 865.662 266.708 867.012 266.708C867.598 266.708 868.048 266.98 868.484 267.362L869.125 266.544C868.593 266.081 867.925 265.672 866.957 265.672C865.062 265.672 863.385 267.103 863.385 269.571C863.385 272.025 864.898 273.443 866.862 273.443ZM870.881 273.266H872.108V271.316L873.499 269.694L875.666 273.266H877.016L874.221 268.848L876.689 265.862H875.298L872.149 269.775H872.108V262.413H870.881V273.266ZM881.452 276.388H882.693V273.879L882.666 272.584C883.334 273.129 884.043 273.443 884.711 273.443C886.415 273.443 887.928 271.984 887.928 269.448C887.928 267.171 886.892 265.672 884.983 265.672C884.125 265.672 883.293 266.162 882.625 266.708H882.584L882.475 265.862H881.452V276.388ZM884.506 272.407C884.015 272.407 883.361 272.202 882.693 271.63V267.744C883.416 267.076 884.056 266.721 884.684 266.721C886.088 266.721 886.633 267.826 886.633 269.462C886.633 271.302 885.733 272.407 884.506 272.407ZM889.907 273.266H891.148V268.507C891.638 267.239 892.402 266.803 893.015 266.803C893.315 266.803 893.493 266.83 893.738 266.926L893.97 265.835C893.738 265.713 893.506 265.672 893.179 265.672C892.347 265.672 891.597 266.271 891.079 267.212H891.038L890.929 265.862H889.907V273.266ZM897.923 273.443C899.736 273.443 901.359 272.025 901.359 269.571C901.359 267.103 899.736 265.672 897.923 265.672C896.11 265.672 894.487 267.103 894.487 269.571C894.487 272.025 896.11 273.443 897.923 273.443ZM897.923 272.407C896.641 272.407 895.782 271.275 895.782 269.571C895.782 267.867 896.641 266.708 897.923 266.708C899.204 266.708 900.077 267.867 900.077 269.571C900.077 271.275 899.204 272.407 897.923 272.407ZM903.314 276.388H904.555V273.879L904.528 272.584C905.196 273.129 905.905 273.443 906.573 273.443C908.277 273.443 909.79 271.984 909.79 269.448C909.79 267.171 908.754 265.672 906.845 265.672C905.987 265.672 905.155 266.162 904.487 266.708H904.446L904.337 265.862H903.314V276.388ZM906.368 272.407C905.877 272.407 905.223 272.202 904.555 271.63V267.744C905.278 267.076 905.918 266.721 906.546 266.721C907.95 266.721 908.495 267.826 908.495 269.462C908.495 271.302 907.595 272.407 906.368 272.407ZM913.26 273.443C914.174 273.443 915.005 272.966 915.714 272.379H915.755L915.864 273.266H916.887V268.712C916.887 266.885 916.123 265.672 914.323 265.672C913.137 265.672 912.088 266.203 911.406 266.64L911.897 267.499C912.483 267.103 913.26 266.708 914.119 266.708C915.332 266.708 915.646 267.621 915.646 268.576C912.497 268.93 911.092 269.734 911.092 271.343C911.092 272.679 912.019 273.443 913.26 273.443ZM913.615 272.448C912.878 272.448 912.306 272.107 912.306 271.261C912.306 270.307 913.151 269.694 915.646 269.394V271.466C914.923 272.107 914.337 272.448 913.615 272.448ZM921.746 276.674C924.037 276.674 925.496 275.488 925.496 274.111C925.496 272.898 924.623 272.352 922.905 272.352H921.46C920.465 272.352 920.165 272.025 920.165 271.548C920.165 271.139 920.369 270.893 920.642 270.662C920.969 270.825 921.378 270.921 921.746 270.921C923.246 270.921 924.446 269.925 924.446 268.344C924.446 267.703 924.201 267.158 923.846 266.817H925.359V265.862H922.783C922.524 265.767 922.155 265.672 921.746 265.672C920.247 265.672 918.965 266.694 918.965 268.317C918.965 269.203 919.442 269.912 919.933 270.307V270.362C919.551 270.634 919.101 271.125 919.101 271.739C919.101 272.325 919.388 272.72 919.783 272.952V273.007C919.088 273.456 918.692 274.056 918.692 274.684C918.692 275.965 919.933 276.674 921.746 276.674ZM921.746 270.075C920.887 270.075 920.165 269.394 920.165 268.317C920.165 267.226 920.874 266.585 921.746 266.585C922.619 266.585 923.328 267.239 923.328 268.317C923.328 269.394 922.592 270.075 921.746 270.075ZM921.924 275.829C920.588 275.829 919.783 275.311 919.783 274.52C919.783 274.084 920.001 273.647 920.533 273.266C920.86 273.347 921.215 273.388 921.487 273.388H922.769C923.751 273.388 924.282 273.62 924.282 274.302C924.282 275.079 923.342 275.829 921.924 275.829ZM928.398 273.443C929.312 273.443 930.143 272.966 930.852 272.379H930.893L931.002 273.266H932.025V268.712C932.025 266.885 931.261 265.672 929.462 265.672C928.276 265.672 927.226 266.203 926.544 266.64L927.035 267.499C927.621 267.103 928.398 266.708 929.257 266.708C930.471 266.708 930.784 267.621 930.784 268.576C927.635 268.93 926.231 269.734 926.231 271.343C926.231 272.679 927.158 273.443 928.398 273.443ZM928.753 272.448C928.017 272.448 927.444 272.107 927.444 271.261C927.444 270.307 928.289 269.694 930.784 269.394V271.466C930.062 272.107 929.475 272.448 928.753 272.448ZM936.521 273.443C936.971 273.443 937.462 273.307 937.885 273.17L937.639 272.243C937.394 272.339 937.053 272.434 936.794 272.434C935.935 272.434 935.649 271.916 935.649 271.002V266.871H937.653V265.862H935.649V263.777H934.613L934.463 265.862L933.304 265.931V266.871H934.408V270.975C934.408 272.448 934.94 273.443 936.521 273.443ZM939.329 273.266H940.57V265.862H939.329V273.266ZM939.956 264.336C940.447 264.336 940.788 264.008 940.788 263.504C940.788 263.027 940.447 262.699 939.956 262.699C939.466 262.699 939.125 263.027 939.125 263.504C939.125 264.008 939.466 264.336 939.956 264.336ZM945.961 273.443C947.774 273.443 949.396 272.025 949.396 269.571C949.396 267.103 947.774 265.672 945.961 265.672C944.147 265.672 942.525 267.103 942.525 269.571C942.525 272.025 944.147 273.443 945.961 273.443ZM945.961 272.407C944.679 272.407 943.82 271.275 943.82 269.571C943.82 267.867 944.679 266.708 945.961 266.708C947.242 266.708 948.115 267.867 948.115 269.571C948.115 271.275 947.242 272.407 945.961 272.407ZM951.352 273.266H952.593V267.894C953.343 267.144 953.861 266.762 954.624 266.762C955.606 266.762 956.028 267.349 956.028 268.739V273.266H957.269V268.576C957.269 266.681 956.56 265.672 955.006 265.672C953.997 265.672 953.234 266.231 952.525 266.926H952.484L952.375 265.862H951.352V273.266Z" fill="#212121"/>
<path d="M817.693 249.995H1012.2V248.177H817.693V249.995ZM1018.56 256.357V278.171H1020.38V256.357H1018.56ZM1012.2 284.534H817.693V286.352H1012.2V284.534ZM811.331 278.171V256.357H809.513V278.171H811.331ZM817.693 284.534C814.179 284.534 811.331 281.685 811.331 278.171H809.513C809.513 282.689 813.175 286.352 817.693 286.352V284.534ZM1018.56 278.171C1018.56 281.685 1015.72 284.534 1012.2 284.534V286.352C1016.72 286.352 1020.38 282.689 1020.38 278.171H1018.56ZM1012.2 249.995C1015.72 249.995 1018.56 252.843 1018.56 256.357H1020.38C1020.38 251.839 1016.72 248.177 1012.2 248.177V249.995ZM817.693 248.177C813.175 248.177 809.513 251.839 809.513 256.357H811.331C811.331 252.843 814.179 249.995 817.693 249.995V248.177Z" fill="#EDEFF2"/>
<path d="M810.422 333.434C810.422 329.015 814.004 325.434 818.422 325.434H1011.47C1015.89 325.434 1019.47 329.015 1019.47 333.434V353.79C1019.47 358.209 1015.89 361.79 1011.47 361.79H818.422C814.004 361.79 810.422 358.209 810.422 353.79V333.434Z" fill="white"/>
<circle r="3.63567" transform="matrix(1 0 0 -1 828.601 343.61)" fill="#2F80ED"/>
<path d="M849.397 347.186H856.446V350.636H857.577V346.273H849.397V347.186ZM853.842 342.933C853.923 342.646 853.978 342.346 853.978 342.006C853.978 341.678 853.923 341.378 853.842 341.092H856.446V342.933H853.842ZM850.829 344.01C849.642 344.01 848.756 343.178 848.756 342.006C848.756 340.86 849.642 340.029 850.829 340.029C852.028 340.029 852.914 340.86 852.914 342.006C852.914 343.178 852.028 344.01 850.829 344.01ZM856.446 338.406V340.192H853.364C852.792 339.497 851.892 339.074 850.829 339.074C849.029 339.074 847.693 340.288 847.693 342.006C847.693 343.737 849.029 344.964 850.829 344.964C851.892 344.964 852.778 344.542 853.351 343.846H856.446V345.605H857.577V338.393L856.446 338.406ZM866.534 341.774V342.687H868.988V347.364H870.119V338.406H868.988V341.774H866.534ZM867.256 344.651C865.484 344.023 864.284 342.496 864.284 340.901V340.301H866.97V339.388H860.439V340.301H863.166V340.915C863.166 342.646 861.898 344.269 860.085 344.923L860.671 345.796C862.103 345.278 863.221 344.146 863.752 342.755C864.284 344.01 865.334 345.032 866.697 345.523L867.256 344.651ZM863.425 349.436V346.573H862.293V350.35H870.46V349.436H863.425ZM875.149 340.615H877.153V346.559C876.485 346.587 875.803 346.614 875.149 346.627V340.615ZM878.244 340.615H879.553V339.715H872.75V340.615H874.058V346.641C873.486 346.655 872.94 346.655 872.436 346.655L872.572 347.595C874.726 347.595 877.63 347.555 880.194 347.146L880.112 346.314C879.512 346.396 878.885 346.45 878.244 346.491V340.615ZM884.011 343.287H881.993V338.406H880.875V350.622H881.993V344.214H884.011V343.287Z" fill="#212121"/>
<path d="M817.693 326.343H1012.2V324.525H817.693V326.343ZM1018.56 332.705V354.519H1020.38V332.705H1018.56ZM1012.2 360.881H817.693V362.699H1012.2V360.881ZM811.331 354.519V332.705H809.513V354.519H811.331ZM817.693 360.881C814.179 360.881 811.331 358.033 811.331 354.519H809.513C809.513 359.037 813.175 362.699 817.693 362.699V360.881ZM1018.56 354.519C1018.56 358.033 1015.72 360.881 1012.2 360.881V362.699C1016.72 362.699 1020.38 359.037 1020.38 354.519H1018.56ZM1012.2 326.343C1015.72 326.343 1018.56 329.191 1018.56 332.705H1020.38C1020.38 328.187 1016.72 324.525 1012.2 324.525V326.343ZM817.693 324.525C813.175 324.525 809.513 328.187 809.513 332.705H811.331C811.331 329.191 814.179 326.343 817.693 326.343V324.525Z" fill="#EDEFF2"/>
<path d="M810.422 409.785C810.422 405.367 814.004 401.785 818.422 401.785H1011.47C1015.89 401.785 1019.47 405.367 1019.47 409.785V430.142C1019.47 434.56 1015.89 438.142 1011.47 438.142H818.422C814.004 438.142 810.422 434.56 810.422 430.142V409.785Z" fill="white"/>
<circle r="3.63567" transform="matrix(1 0 0 -1 828.601 419.962)" fill="#2F80ED"/>
<path d="M849.656 418.753C849.656 417.348 851.088 416.435 853.037 416.435C854.987 416.435 856.405 417.348 856.405 418.753C856.405 420.157 854.987 421.07 853.037 421.07C851.088 421.07 849.656 420.157 849.656 418.753ZM853.596 424.479V421.929C855.873 421.766 857.468 420.552 857.468 418.753C857.468 416.803 855.614 415.549 853.037 415.549C850.447 415.549 848.579 416.803 848.579 418.753C848.579 420.552 850.188 421.766 852.465 421.929V424.479H847.488V425.406H858.6V424.479H853.596ZM868.66 417.526H861.394V420.77H870.065V419.871H862.512V418.371H869.792V415.221H861.353V416.121H868.66V417.526ZM871.128 422.038H860.03V422.938H862.921V426.987H864.039V422.938H867.12V426.987H868.238V422.938H871.128V422.038ZM874.481 423.538H881.53V426.987H882.661V422.625H874.481V423.538ZM878.926 419.284C879.007 418.998 879.062 418.698 879.062 418.357C879.062 418.03 879.007 417.73 878.926 417.444H881.53V419.284H878.926ZM875.913 420.361C874.726 420.361 873.84 419.53 873.84 418.357C873.84 417.212 874.726 416.38 875.913 416.38C877.112 416.38 877.999 417.212 877.999 418.357C877.999 419.53 877.112 420.361 875.913 420.361ZM881.53 414.758V416.544H878.448C877.876 415.849 876.976 415.426 875.913 415.426C874.113 415.426 872.777 416.639 872.777 418.357C872.777 420.089 874.113 421.316 875.913 421.316C876.976 421.316 877.862 420.893 878.435 420.198H881.53V421.957H882.661V414.744L881.53 414.758ZM891.618 418.125V419.039H894.072V423.715H895.203V414.758H894.072V418.125H891.618ZM892.34 421.002C890.568 420.375 889.368 418.848 889.368 417.253V416.653H892.054V415.74H885.523V416.653H888.25V417.266C888.25 418.998 886.982 420.62 885.169 421.275L885.755 422.147C887.187 421.629 888.305 420.498 888.836 419.107C889.368 420.361 890.418 421.384 891.781 421.875L892.34 421.002ZM888.509 425.788V422.925H887.377V426.701H895.544V425.788H888.509ZM900.233 416.967H902.237V422.911C901.569 422.938 900.887 422.965 900.233 422.979V416.967ZM903.328 416.967H904.637V416.067H897.834V416.967H899.142V422.993C898.57 423.006 898.024 423.006 897.52 423.006L897.656 423.947C899.81 423.947 902.714 423.906 905.278 423.497L905.196 422.665C904.596 422.747 903.969 422.802 903.328 422.843V416.967ZM909.095 419.639H907.077V414.758H905.959V426.974H907.077V420.566H909.095V419.639ZM911.534 417.894C911.534 416.844 912.407 416.08 913.593 416.08C914.793 416.08 915.665 416.844 915.665 417.894C915.665 418.971 914.793 419.721 913.593 419.721C912.407 419.721 911.534 418.971 911.534 417.894ZM916.756 417.894C916.756 416.298 915.434 415.181 913.593 415.181C911.766 415.181 910.444 416.298 910.444 417.894C910.444 419.516 911.766 420.634 913.593 420.634C915.434 420.634 916.756 419.516 916.756 417.894ZM913.061 424.547H919.701V421.548H911.93V422.434H918.597V423.715H911.971V426.81H920.151V425.91H913.061V424.547ZM919.701 417.376V414.744H918.583V420.975H919.701V418.303H921.514V417.376H919.701ZM931.384 417.185C931.384 418.657 931.384 420.375 930.921 422.72L932.039 422.843C932.502 420.375 932.502 418.698 932.502 417.185V415.971H923.926V416.885H931.384V417.185ZM928.18 424.342V419.966H927.062V424.342H922.768V425.256H933.825V424.342H928.18ZM937.123 420.239H941.636V415.876H935.964V416.789H940.504V419.339H936.005V424.029H937.014C939.113 424.029 940.968 423.947 943.176 423.579L943.067 422.665C940.927 423.006 939.127 423.102 937.123 423.102V420.239ZM944.212 414.731V426.987H945.33V414.731H944.212ZM948.86 419.734C950.865 419.489 952.692 418.603 953.373 417.266C954.041 418.603 955.882 419.489 957.886 419.734L958.281 418.848C956.114 418.616 954.137 417.553 954.096 416.176H957.9V415.276H948.86V416.176H952.651C952.61 417.553 950.633 418.616 948.465 418.848L948.86 419.734ZM950.292 423.579H956.455V425.91H950.292V423.579ZM949.201 426.81H957.545V422.693H949.201V426.81ZM947.838 420.47V421.37H958.895V420.47H947.838Z" fill="#212121"/>
<path d="M817.693 402.694H1012.2V400.876H817.693V402.694ZM1018.56 409.057V430.871H1020.38V409.057H1018.56ZM1012.2 437.233H817.693V439.051H1012.2V437.233ZM811.331 430.871V409.057H809.513V430.871H811.331ZM817.693 437.233C814.179 437.233 811.331 434.384 811.331 430.871H809.513C809.513 435.388 813.175 439.051 817.693 439.051V437.233ZM1018.56 430.871C1018.56 434.384 1015.72 437.233 1012.2 437.233V439.051C1016.72 439.051 1020.38 435.388 1020.38 430.871H1018.56ZM1012.2 402.694C1015.72 402.694 1018.56 405.543 1018.56 409.057H1020.38C1020.38 404.539 1016.72 400.876 1012.2 400.876V402.694ZM817.693 400.876C813.175 400.876 809.513 404.539 809.513 409.057H811.331C811.331 405.543 814.179 402.694 817.693 402.694V400.876Z" fill="#EDEFF2"/>
<path d="M546.836 333.434C546.836 329.015 550.418 325.434 554.836 325.434H747.887C752.305 325.434 755.887 329.015 755.887 333.434V353.79C755.887 358.209 752.305 361.79 747.887 361.79H554.836C550.418 361.79 546.836 358.209 546.836 353.79V333.434Z" fill="#FAFAFC"/>
<circle r="3.63567" transform="matrix(1 0 0 -1 565.015 343.61)" fill="#6F7075"/>
<path d="M587.87 346.968C586.738 346.968 585.92 346.178 585.92 345.073C585.92 343.983 586.738 343.192 587.87 343.192C589.001 343.192 589.833 343.983 589.833 345.073C589.833 346.178 589.001 346.968 587.87 346.968ZM587.87 342.265C586.125 342.265 584.857 343.424 584.857 345.073C584.857 346.75 586.125 347.895 587.87 347.895C589.642 347.895 590.896 346.75 590.896 345.073C590.896 343.424 589.642 342.265 587.87 342.265ZM588.415 338.515H587.297V340.37H584.189V341.283H591.524V340.37H588.415V338.515ZM592.805 338.393V350.622H593.923V338.393H592.805ZM606.247 342.319H598.967V339.824H606.138V338.911H597.849V343.219H606.247V342.319ZM598.994 346.764H597.876V350.336H606.356V349.422H598.994V346.764ZM596.458 344.569V345.469H607.515V344.569H596.458ZM610.486 343.983H613.758V339.742H609.368V340.656H612.681V343.096H609.409V347.623H610.213C611.768 347.623 613.158 347.555 614.862 347.268L614.767 346.355C613.199 346.627 611.877 346.682 610.486 346.682V343.983ZM615.844 342.783H614.331V343.71H615.844V349.981H616.894V338.693H615.844V342.783ZM618.312 338.393V350.622H619.389V338.393H618.312ZM630.431 338.393V350.649H631.549V338.393H630.431ZM625.1 339.333C623.287 339.333 621.992 340.997 621.992 343.601C621.992 346.205 623.287 347.868 625.1 347.868C626.914 347.868 628.209 346.205 628.209 343.601C628.209 340.997 626.914 339.333 625.1 339.333ZM625.1 340.342C626.287 340.342 627.132 341.624 627.132 343.601C627.132 345.591 626.287 346.873 625.1 346.873C623.901 346.873 623.055 345.591 623.055 343.601C623.055 341.624 623.901 340.342 625.1 340.342ZM637.356 346.873C636.184 346.873 635.366 345.591 635.366 343.601C635.366 341.624 636.184 340.342 637.356 340.342C638.515 340.342 639.333 341.624 639.333 343.601C639.333 345.591 638.515 346.873 637.356 346.873ZM643.041 338.393V343.055H640.383C640.206 340.765 639.006 339.333 637.356 339.333C635.57 339.333 634.302 340.997 634.302 343.601C634.302 346.205 635.57 347.868 637.356 347.868C639.06 347.868 640.274 346.368 640.383 343.969H643.041V350.649H644.159V338.393H643.041Z" fill="#6F7075"/>
<path d="M554.107 326.343H748.616V324.525H554.107V326.343ZM754.978 332.705V354.519H756.796V332.705H754.978ZM748.616 360.881H554.107V362.699H748.616V360.881ZM547.745 354.519V332.705H545.927V354.519H547.745ZM554.107 360.881C550.593 360.881 547.745 358.033 547.745 354.519H545.927C545.927 359.037 549.589 362.699 554.107 362.699V360.881ZM754.978 354.519C754.978 358.033 752.13 360.881 748.616 360.881V362.699C753.134 362.699 756.796 359.037 756.796 354.519H754.978ZM748.616 326.343C752.13 326.343 754.978 329.191 754.978 332.705H756.796C756.796 328.187 753.134 324.525 748.616 324.525V326.343ZM554.107 324.525C549.589 324.525 545.927 328.187 545.927 332.705H547.745C547.745 329.191 550.593 326.343 554.107 326.343V324.525Z" fill="#EDEFF2"/>
<path d="M546.836 562.484C546.836 558.066 550.418 554.484 554.836 554.484H747.887C752.305 554.484 755.887 558.066 755.887 562.484V582.841C755.887 587.259 752.305 590.841 747.887 590.841H554.836C550.418 590.841 546.836 587.259 546.836 582.841V562.484Z" fill="white"/>
<path d="M554.107 555.393H748.616V553.575H554.107V555.393ZM754.978 561.756V583.57H756.796V561.756H754.978ZM748.616 589.932H554.107V591.75H748.616V589.932ZM547.745 583.57V561.756H545.927V583.57H547.745ZM554.107 589.932C550.593 589.932 547.745 587.084 547.745 583.57H545.927C545.927 588.088 549.589 591.75 554.107 591.75V589.932ZM754.978 583.57C754.978 587.084 752.13 589.932 748.616 589.932V591.75C753.134 591.75 756.796 588.088 756.796 583.57H754.978ZM748.616 555.393C752.13 555.393 754.978 558.242 754.978 561.756H756.796C756.796 557.238 753.134 553.575 748.616 553.575V555.393ZM554.107 553.575C549.589 553.575 545.927 557.238 545.927 561.756H547.745C547.745 558.242 550.593 555.393 554.107 555.393V553.575Z" fill="#EDEFF2"/>
<rect y="156" width="1052" height="416" rx="8" fill="url(#paint0_linear_2449_227787)"/>
</g>
<rect opacity="0.7" x="73.9089" y="118.909" width="165.182" height="107.182" rx="6.36243" fill="#FAFAFC" stroke="#EDEFF2" stroke-width="1.81784"/>
<path d="M90.7769 136.628V137.926H95.6751C95.6133 138.698 95.4897 139.424 95.2888 140.104L90.0662 140.429L90.2825 141.804L94.7944 141.387C93.9445 143.102 92.4303 144.554 89.9735 145.775L90.8387 147.027C95.9378 144.477 97.2666 140.784 97.2666 136.628H90.7769ZM99.708 135.237V149.19H101.299V135.237H99.708ZM108.483 137.091C109.673 137.091 110.507 137.709 110.507 138.667C110.507 139.641 109.673 140.243 108.483 140.243C107.278 140.243 106.444 139.641 106.444 138.667C106.444 137.709 107.278 137.091 108.483 137.091ZM108.483 141.479C110.538 141.479 112.006 140.351 112.006 138.667C112.006 137.014 110.538 135.886 108.483 135.886C106.413 135.886 104.945 137.014 104.945 138.667C104.945 140.351 106.413 141.479 108.483 141.479ZM113.042 142.02C110.028 142.437 106.567 142.468 103.941 142.468L104.141 143.782C105.192 143.782 106.366 143.766 107.603 143.72V148.757H109.194V143.643C110.507 143.565 111.836 143.426 113.134 143.195L113.042 142.02ZM114.015 135.237V144.693H111.033V145.914H114.015V149.19H115.622V135.237H114.015ZM129.434 141.819H121.353V137.756H129.326V136.458H119.762V143.102H129.434V141.819ZM118.217 146.084V147.397H130.871V146.084H118.217Z" fill="#212121"/>
<path d="M99.2331 169.541C100.133 169.541 100.937 168.805 100.937 167.714C100.937 166.61 100.133 165.874 99.2331 165.874C98.3196 165.874 97.5288 166.61 97.5288 167.714C97.5288 168.805 98.3196 169.541 99.2331 169.541ZM116.268 170.291V167.769H120.003V166.855H112.723V165.015H119.608V164.129H112.723V162.411H119.881V161.497H111.591V167.769H115.15V170.291H110.16V171.205H121.271V170.291H116.268ZM125.551 162.411H127.542V166.133C126.874 166.174 126.206 166.187 125.551 166.201V162.411ZM130.418 165.915C129.832 165.983 129.232 166.024 128.619 166.078V162.411H129.818V161.497H123.261V162.411H124.46V166.228C123.929 166.228 123.397 166.228 122.933 166.228L123.042 167.169C125.156 167.169 128.019 167.128 130.487 166.746L130.418 165.915ZM124.569 169.446H131.632V172.745H132.75V168.532H124.569V169.446ZM131.632 160.516V167.919H132.75V160.516H131.632ZM138.87 162.861H141.093V161.947H135.421V162.861H137.793V163.815C137.793 166.296 136.88 168.382 135.135 169.364L135.816 170.209C137.084 169.473 137.943 168.151 138.352 166.487C138.788 167.932 139.634 169.119 140.833 169.787L141.488 168.928C139.756 168.028 138.87 166.051 138.87 163.815V162.861ZM144.61 160.488V165.437H143.001V160.775H141.951V172.132H143.001V166.365H144.61V172.732H145.687V160.488H144.61ZM151.998 167.987H154.793V170.305H151.998V167.987ZM155.898 170.305V167.987H157.806V167.074H150.281V165.11H157.52V161.402H149.149V162.315H156.429V164.21H149.176V167.987H150.894V170.305H147.786V171.218H158.897V170.305H155.898ZM163.109 169.01C162.127 169.01 161.514 167.769 161.514 165.765C161.514 163.801 162.127 162.561 163.109 162.561C164.063 162.561 164.69 163.801 164.69 165.765C164.69 167.769 164.063 169.01 163.109 169.01ZM167.24 165.26H165.699C165.563 162.956 164.581 161.525 163.109 161.525C161.514 161.525 160.491 163.161 160.491 165.765C160.491 168.41 161.514 170.046 163.109 170.046C164.609 170.046 165.604 168.573 165.699 166.174H167.24V172.132H168.303V160.775H167.24V165.26ZM169.667 160.502V172.732H170.73V160.502H169.667ZM177.164 161.552H176.046V163.747C176.046 166.01 174.656 168.369 172.883 169.255L173.565 170.141C174.942 169.405 176.074 167.864 176.605 166.051C177.164 167.769 178.282 169.228 179.673 169.923L180.327 169.037C178.555 168.192 177.164 165.969 177.164 163.747V161.552ZM181.841 160.502V164.647H179.005V165.56H181.841V172.745H182.959V160.502H181.841ZM189.224 161.279V162.193H193.56C193.328 164.265 191.515 165.86 188.611 166.692L189.074 167.564C192.578 166.569 194.746 164.374 194.746 161.279H189.224ZM191.746 168.887H197.445V171.654H191.746V168.887ZM190.642 172.554H198.55V168.001H190.642V172.554ZM197.418 160.502V163.651H194.759V164.565H197.418V167.483H198.55V160.502H197.418ZM207.138 166.296C205.556 165.669 204.656 164.251 204.656 162.874V161.225H203.579V162.874C203.579 164.265 202.625 165.874 201.03 166.596L201.63 167.455C202.816 166.924 203.688 165.887 204.125 164.729C204.561 165.778 205.406 166.678 206.538 167.142L207.138 166.296ZM203.116 169.473H210.219V172.732H211.337V168.573H203.116V169.473ZM210.26 160.516V163.692H208.706V160.72H207.642V167.823H208.706V164.606H210.26V167.905H211.337V160.516H210.26ZM220.811 162.002H217.757V160.502H216.64V162.002H213.599V162.902H220.811V162.002ZM215.344 165.846C215.344 165.001 216.094 164.456 217.199 164.456C218.303 164.456 219.066 165.001 219.066 165.846C219.066 166.705 218.303 167.251 217.199 167.251C216.094 167.251 215.344 166.705 215.344 165.846ZM220.13 165.846C220.13 164.483 218.93 163.583 217.199 163.583C215.467 163.583 214.281 164.483 214.281 165.846C214.281 167.224 215.467 168.123 217.199 168.123C218.93 168.123 220.13 167.224 220.13 165.846ZM216.558 168.955H215.44V172.459H223.593V171.545H216.558V168.955ZM223.047 164.538V160.502H221.929V169.678H223.047V165.478H224.847V164.538H223.047ZM111.087 179.77V180.683H115.572C115.518 181.433 115.409 182.142 115.177 182.824L110.46 183.138L110.65 184.119L114.822 183.724C114.073 185.36 112.668 186.764 110.419 187.855L111.019 188.741C115.409 186.573 116.677 183.315 116.677 179.77H111.087ZM119.09 178.502V190.732H120.208V178.502H119.09ZM126.655 179.975C127.842 179.975 128.673 180.602 128.673 181.515C128.673 182.456 127.842 183.069 126.655 183.069C125.469 183.069 124.638 182.456 124.638 181.515C124.638 180.602 125.469 179.975 126.655 179.975ZM126.655 183.928C128.469 183.928 129.723 182.96 129.723 181.515C129.723 180.084 128.469 179.116 126.655 179.116C124.842 179.116 123.588 180.084 123.588 181.515C123.588 182.96 124.842 183.928 126.655 183.928ZM130.718 184.542C128.06 184.924 124.978 184.937 122.674 184.937L122.811 185.878C123.779 185.878 124.883 185.864 126.042 185.823V190.363H127.16V185.769C128.36 185.701 129.587 185.578 130.786 185.373L130.718 184.542ZM131.645 178.516V186.86H128.878V187.732H131.645V190.745H132.763V178.516H131.645ZM145.06 184.365H137.766V180.547H144.937V179.62H136.662V185.278H145.06V184.365ZM135.244 188.155V189.082H146.342V188.155H135.244ZM156.716 178.516V185.074H157.834V178.516H156.716ZM149.953 185.673V190.568H157.834V185.673H156.729V187.173H151.058V185.673H149.953ZM151.058 188.046H156.729V189.668H151.058V188.046ZM151.262 179.088C149.422 179.088 148.086 180.234 148.086 181.897C148.086 183.587 149.422 184.719 151.262 184.719C153.116 184.719 154.466 183.587 154.466 181.897C154.466 180.234 153.116 179.088 151.262 179.088ZM151.262 180.015C152.503 180.015 153.375 180.793 153.375 181.897C153.375 183.015 152.503 183.792 151.262 183.792C150.049 183.792 149.176 183.015 149.176 181.897C149.176 180.793 150.049 180.015 151.262 180.015ZM162.223 179.688H161.105V187.569H162.114C164.063 187.569 165.986 187.432 168.113 186.996L167.99 186.042C165.958 186.451 164.063 186.614 162.223 186.614V179.688ZM169.244 178.502V190.718H170.362V178.502H169.244ZM174.519 180.602H179.087V179.675H173.401V187.705H174.369C176.673 187.705 178.282 187.623 180.15 187.269L180.027 186.341C178.255 186.655 176.687 186.75 174.519 186.75V180.602ZM184.308 183.328H182.291V178.502H181.173V190.759H182.291V184.256H184.308V183.328ZM186.598 189.9C187.089 189.9 187.498 189.518 187.498 188.959C187.498 188.387 187.089 187.991 186.598 187.991C186.107 187.991 185.698 188.387 185.698 188.959C185.698 189.518 186.107 189.9 186.598 189.9Z" fill="#6F7075"/>
<rect opacity="0.7" x="275.909" y="118.909" width="225.182" height="107.182" rx="6.36243" fill="#FAFAFC" stroke="#EDEFF2" stroke-width="1.81784"/>
<path d="M298.896 146.239V143.612H303.021V142.345H294.971V140.521H302.589V139.27H294.971V137.586H302.898V136.288H293.349V143.612H297.289V146.239H291.788V147.552H304.427V146.239H298.896ZM309.402 137.601H311.318V141.634C310.684 141.665 310.02 141.68 309.402 141.696V137.601ZM314.717 141.371C314.114 141.449 313.496 141.495 312.863 141.541V137.601H314.099V136.319H306.605V137.601H307.872V141.711C307.3 141.711 306.744 141.711 306.234 141.711L306.42 143.025C308.83 143.025 312.028 142.978 314.825 142.53L314.717 141.371ZM308.088 145.651H315.907V149.205H317.498V144.369H308.088V145.651ZM315.907 135.237V143.72H317.498V135.237H315.907Z" fill="#212121"/>
<path d="M301.233 169.541C302.133 169.541 302.937 168.805 302.937 167.714C302.937 166.61 302.133 165.874 301.233 165.874C300.32 165.874 299.529 166.61 299.529 167.714C299.529 168.805 300.32 169.541 301.233 169.541ZM319.263 166.378C317.477 165.778 316.304 164.32 316.304 162.683V162.261H318.99V161.347H312.446V162.261H315.173V162.697C315.173 164.456 313.973 166.024 312.119 166.651L312.691 167.551C314.137 167.033 315.241 165.942 315.759 164.579C316.291 165.819 317.34 166.801 318.717 167.264L319.263 166.378ZM315.077 169.146H320.558V171.668H315.077V169.146ZM313.987 172.568H321.662V168.26H313.987V172.568ZM323.476 163.556H321.662V160.516H320.544V167.701H321.662V164.483H323.476V163.556ZM328.328 162.861H330.551V161.947H324.879V162.861H327.251V163.815C327.251 166.296 326.338 168.382 324.593 169.364L325.274 170.209C326.542 169.473 327.401 168.151 327.81 166.487C328.246 167.932 329.092 169.119 330.291 169.787L330.946 168.928C329.214 168.028 328.328 166.051 328.328 163.815V162.861ZM334.068 160.488V165.437H332.459V160.775H331.409V172.132H332.459V166.365H334.068V172.732H335.145V160.488H334.068ZM342.201 162.602H346.878V161.661H341.097V169.718H342.079C344.546 169.718 346.141 169.637 348.023 169.296L347.9 168.355C346.101 168.696 344.56 168.764 342.201 168.764V162.602ZM349.195 160.502V172.759H350.313V160.502H349.195ZM354.675 165.996H359.188V161.634H353.516V162.547H358.056V165.097H353.557V169.787H354.566C356.666 169.787 358.52 169.705 360.729 169.337L360.619 168.423C358.479 168.764 356.679 168.86 354.675 168.86V165.996ZM361.765 160.488V172.745H362.883V160.488H361.765ZM367.831 170.414H375.125V167.564H366.699V168.437H374.034V169.582H366.726V172.568H375.561V171.695H367.831V170.414ZM374.77 165.506C375.057 164.06 375.057 162.97 375.057 162.015V161.088H366.808V161.975H373.952V162.015C373.952 162.37 373.952 162.752 373.939 163.161L366.508 163.392L366.645 164.279L373.884 163.951C373.83 164.415 373.761 164.933 373.639 165.506H365.418V166.405H376.434V165.506H374.77ZM379.418 166.092H382.69V161.852H378.3V162.765H381.613V165.206H378.341V169.732H379.146C380.7 169.732 382.091 169.664 383.795 169.378L383.699 168.464C382.131 168.737 380.809 168.791 379.418 168.791V166.092ZM384.776 164.892H383.263V165.819H384.776V172.091H385.826V160.802H384.776V164.892ZM387.244 160.502V172.732H388.321V160.502H387.244ZM400.776 161.62H397.722V160.379H396.604V161.62H393.564V162.479H400.776V161.62ZM395.309 165.028C395.309 164.292 396.032 163.856 397.163 163.856C398.295 163.856 399.031 164.292 399.031 165.028C399.031 165.751 398.295 166.201 397.163 166.201C396.032 166.201 395.309 165.751 395.309 165.028ZM400.095 165.028C400.095 163.788 398.936 163.024 397.163 163.024C395.405 163.024 394.246 163.788 394.246 165.028C394.246 166.269 395.405 167.033 397.163 167.033C398.936 167.033 400.095 166.269 400.095 165.028ZM396.373 170.564H403.012V167.851H395.241V168.682H401.908V169.746H395.282V172.595H403.462V171.736H396.373V170.564ZM403.012 163.406V160.461H401.894V167.224H403.012V164.333H404.826V163.406H403.012ZM413.155 165.465C411.546 165.806 410.142 165.887 407.715 165.887V162.343H412.01V161.443H406.611V166.801H407.565C410.142 166.801 411.601 166.719 413.278 166.378L413.155 165.465ZM411.669 171.818C409.855 171.818 408.737 171.273 408.737 170.373C408.737 169.473 409.855 168.928 411.669 168.928C413.468 168.928 414.586 169.473 414.586 170.373C414.586 171.273 413.468 171.818 411.669 171.818ZM411.669 168.028C409.187 168.028 407.633 168.9 407.633 170.373C407.633 171.845 409.187 172.718 411.669 172.718C414.136 172.718 415.691 171.845 415.691 170.373C415.691 168.9 414.136 168.028 411.669 168.028ZM415.568 163.679V160.502H414.436V167.782H415.568V164.606H417.368V163.679H415.568ZM421.143 174.409L421.92 174.04C420.734 172.104 420.175 169.8 420.175 167.483C420.175 165.165 420.734 162.874 421.92 160.925L421.143 160.57C419.889 162.602 419.139 164.81 419.139 167.483C419.139 170.168 419.889 172.363 421.143 174.409ZM423.855 171.723H429.486V170.646H425.123V161.715H423.855V171.723ZM431.257 171.723H433.821C436.834 171.723 438.483 169.855 438.483 166.692C438.483 163.515 436.834 161.715 433.766 161.715H431.257V171.723ZM432.525 170.686V162.752H433.657C436.016 162.752 437.175 164.156 437.175 166.692C437.175 169.214 436.016 170.686 433.657 170.686H432.525ZM442.202 166.133C442.557 165.001 442.884 163.924 443.198 162.752H443.252C443.579 163.911 443.893 165.001 444.261 166.133L444.738 167.66H441.712L442.202 166.133ZM439.148 171.723H440.43L441.398 168.669H445.052L446.006 171.723H447.342L443.948 161.715H442.543L439.148 171.723ZM448.739 174.409C450.007 172.363 450.757 170.168 450.757 167.483C450.757 164.81 450.007 162.602 448.739 160.57L447.975 160.925C449.148 162.874 449.72 165.165 449.72 167.483C449.72 169.8 449.148 172.104 447.975 174.04L448.739 174.409ZM458.24 161.266C455.704 161.266 453.795 162.615 453.795 164.647C453.795 166.692 455.704 168.028 458.24 168.028C460.776 168.028 462.685 166.692 462.685 164.647C462.685 162.615 460.776 161.266 458.24 161.266ZM458.24 162.179C460.176 162.179 461.621 163.174 461.621 164.647C461.621 166.133 460.176 167.114 458.24 167.114C456.318 167.114 454.859 166.133 454.859 164.647C454.859 163.174 456.318 162.179 458.24 162.179ZM452.705 170.182V171.109H463.816V170.182H452.705ZM471.355 170.305V168.001H475.268V167.101H467.742V165.124H474.981V161.402H466.61V162.315H473.89V164.224H466.637V168.001H470.223V170.305H465.247V171.218H476.358V170.305H471.355ZM316.291 180.683H319.004V179.756H312.391V180.683H315.186V182.238C315.186 184.31 313.714 186.628 311.969 187.5L312.623 188.387C314 187.678 315.186 186.123 315.745 184.337C316.304 185.973 317.45 187.405 318.813 188.087L319.454 187.187C317.681 186.355 316.291 184.187 316.291 182.238V180.683ZM323.598 183.437H321.581V178.516H320.463V190.732H321.581V184.378H323.598V183.437ZM330.251 189.859C328.315 189.859 327.183 189.382 327.183 188.523C327.183 187.664 328.315 187.187 330.251 187.187C332.159 187.187 333.291 187.664 333.291 188.523C333.291 189.382 332.159 189.859 330.251 189.859ZM330.251 186.314C327.633 186.314 326.051 187.105 326.051 188.523C326.051 189.941 327.633 190.732 330.251 190.732C332.841 190.732 334.423 189.941 334.423 188.523C334.423 187.105 332.841 186.314 330.251 186.314ZM330.81 184.542V183.124H334.491V182.224H327.224V179.961H334.409V179.061H326.106V183.124H329.692V184.542H324.715V185.442H335.786V184.542H330.81ZM340.843 180.847H343.024V179.934H337.448V180.847H339.766V181.951C339.766 184.201 338.812 186.423 337.107 187.446L337.789 188.277C339.002 187.514 339.889 186.082 340.311 184.405C340.734 185.96 341.579 187.269 342.765 187.978L343.447 187.16C341.756 186.205 340.843 184.078 340.843 181.951V180.847ZM344.115 182.892H342.097V183.806H344.115V190.091H345.178V178.775H344.115V182.892ZM346.569 178.488V190.718H347.646V178.488H346.569ZM354.135 179.565H353.03V181.761C353.03 184.078 351.544 186.423 349.745 187.282L350.426 188.196C351.858 187.459 353.03 185.932 353.589 184.092C354.176 185.837 355.348 187.282 356.739 187.964L357.407 187.064C355.594 186.246 354.135 183.996 354.135 181.761V179.565ZM358.689 178.502V190.759H359.806V178.502H358.689ZM369.594 180.002H366.54V178.502H365.423V180.002H362.382V180.902H369.594V180.002ZM364.127 183.846C364.127 183.001 364.877 182.456 365.982 182.456C367.086 182.456 367.849 183.001 367.849 183.846C367.849 184.705 367.086 185.251 365.982 185.251C364.877 185.251 364.127 184.705 364.127 183.846ZM368.913 183.846C368.913 182.483 367.713 181.583 365.982 181.583C364.25 181.583 363.064 182.483 363.064 183.846C363.064 185.224 364.25 186.123 365.982 186.123C367.713 186.123 368.913 185.224 368.913 183.846ZM365.341 186.955H364.223V190.459H372.376V189.545H365.341V186.955ZM371.83 182.538V178.502H370.712V187.678H371.83V183.478H373.63V182.538H371.83ZM384.027 188.291V185.769H387.762V184.855H380.482V183.015H387.367V182.129H380.482V180.411H387.64V179.497H379.35V185.769H382.909V188.291H377.919V189.205H389.03V188.291H384.027ZM393.31 180.411H395.301V184.133C394.633 184.174 393.965 184.187 393.31 184.201V180.411ZM398.177 183.915C397.591 183.983 396.991 184.024 396.378 184.078V180.411H397.577V179.497H391.02V180.411H392.219V184.228C391.688 184.228 391.156 184.228 390.692 184.228L390.801 185.169C392.915 185.169 395.778 185.128 398.246 184.746L398.177 183.915ZM392.328 187.446H399.391V190.745H400.509V186.532H392.328V187.446ZM399.391 178.516V185.919H400.509V178.516H399.391ZM411.933 178.516V185.074H413.051V178.516H411.933ZM405.17 185.673V190.568H413.051V185.673H411.946V187.173H406.275V185.673H405.17ZM406.275 188.046H411.946V189.668H406.275V188.046ZM406.479 179.088C404.639 179.088 403.303 180.234 403.303 181.897C403.303 183.587 404.639 184.719 406.479 184.719C408.333 184.719 409.683 183.587 409.683 181.897C409.683 180.234 408.333 179.088 406.479 179.088ZM406.479 180.015C407.72 180.015 408.592 180.793 408.592 181.897C408.592 183.015 407.72 183.792 406.479 183.792C405.266 183.792 404.393 183.015 404.393 181.897C404.393 180.793 405.266 180.015 406.479 180.015ZM417.44 179.688H416.322V187.569H417.331C419.28 187.569 421.203 187.432 423.33 186.996L423.207 186.042C421.175 186.451 419.28 186.614 417.44 186.614V179.688ZM424.461 178.502V190.718H425.579V178.502H424.461ZM429.736 180.602H434.304V179.675H428.618V187.705H429.586C431.89 187.705 433.499 187.623 435.367 187.269L435.244 186.341C433.472 186.655 431.904 186.75 429.736 186.75V180.602ZM439.525 183.328H437.508V178.502H436.39V190.759H437.508V184.256H439.525V183.328ZM441.815 189.9C442.306 189.9 442.715 189.518 442.715 188.959C442.715 188.387 442.306 187.991 441.815 187.991C441.324 187.991 440.915 188.387 440.915 188.959C440.915 189.518 441.324 189.9 441.815 189.9ZM301.233 205.541C302.133 205.541 302.937 204.805 302.937 203.714C302.937 202.61 302.133 201.874 301.233 201.874C300.32 201.874 299.529 202.61 299.529 203.714C299.529 204.805 300.32 205.541 301.233 205.541ZM316.168 198.574H319.208V202.583H316.168V198.574ZM318.254 206.291V203.483H322.194V202.583H320.326V198.574H322.221V197.675H313.155V198.574H315.05V202.583H313.182V203.483H317.122V206.291H312.173V207.205H323.258V206.291H318.254ZM331.968 197.797H328.914V196.393H327.796V197.797H324.756V198.697H331.968V197.797ZM326.501 201.492C326.501 200.688 327.238 200.156 328.355 200.156C329.473 200.156 330.223 200.688 330.223 201.492C330.223 202.296 329.473 202.828 328.355 202.828C327.238 202.828 326.501 202.296 326.501 201.492ZM331.287 201.492C331.287 200.156 330.101 199.311 328.355 199.311C326.61 199.311 325.438 200.156 325.438 201.492C325.438 202.814 326.61 203.66 328.355 203.66C330.101 203.66 331.287 202.814 331.287 201.492ZM327.619 205.446H333.1V207.668H327.619V205.446ZM326.529 208.568H334.204V204.56H326.529V208.568ZM336.018 199.761H334.204V196.516H333.086V203.864H334.204V200.688H336.018V199.761ZM336.685 210.163H337.598L341.675 196.897H340.775L336.685 210.163ZM343.305 197.702V205.65H348.922V197.702H343.305ZM347.832 198.602V204.764H344.396V198.602H347.832ZM351.486 196.502V208.759H352.603V196.502H351.486ZM359.133 198.574H362.173V202.583H359.133V198.574ZM361.219 206.291V203.483H365.159V202.583H363.291V198.574H365.186V197.675H356.12V198.574H358.015V202.583H356.147V203.483H360.087V206.291H355.138V207.205H366.223V206.291H361.219ZM374.933 197.797H371.879V196.393H370.762V197.797H367.721V198.697H374.933V197.797ZM369.466 201.492C369.466 200.688 370.203 200.156 371.321 200.156C372.438 200.156 373.188 200.688 373.188 201.492C373.188 202.296 372.438 202.828 371.321 202.828C370.203 202.828 369.466 202.296 369.466 201.492ZM374.252 201.492C374.252 200.156 373.066 199.311 371.321 199.311C369.575 199.311 368.403 200.156 368.403 201.492C368.403 202.814 369.575 203.66 371.321 203.66C373.066 203.66 374.252 202.814 374.252 201.492ZM370.584 205.446H376.065V207.668H370.584V205.446ZM369.494 208.568H377.169V204.56H369.494V208.568ZM378.983 199.761H377.169V196.516H376.051V203.864H377.169V200.688H378.983V199.761ZM379.65 210.163H380.563L384.64 196.897H383.74L379.65 210.163ZM389.147 198.847H391.328V197.934H385.752V198.847H388.07V199.951C388.07 202.201 387.116 204.423 385.411 205.446L386.093 206.277C387.306 205.514 388.193 204.082 388.615 202.405C389.038 203.96 389.883 205.269 391.069 205.978L391.751 205.16C390.06 204.205 389.147 202.078 389.147 199.951V198.847ZM392.419 200.892H390.401V201.806H392.419V208.091H393.483V196.775H392.419V200.892ZM394.873 196.488V208.718H395.95V196.488H394.873ZM399.889 200.156C399.889 199.024 400.816 198.247 402.057 198.247C403.339 198.247 404.252 199.024 404.252 200.156C404.252 201.301 403.339 202.092 402.057 202.092C400.816 202.092 399.889 201.301 399.889 200.156ZM402.616 203.005C404.239 202.814 405.343 201.697 405.343 200.156C405.343 198.452 403.979 197.293 402.057 197.293C400.176 197.293 398.799 198.452 398.799 200.156C398.799 201.697 399.917 202.801 401.498 203.005V205.119C400.298 205.16 399.167 205.16 398.185 205.16L398.321 206.1C400.53 206.1 403.489 206.073 406.243 205.569L406.147 204.737C405.016 204.914 403.802 205.01 402.616 205.078V203.005ZM406.952 196.488V208.759H408.07V196.488H406.952ZM422.638 205.65H423.77V196.516H422.638V199.379H419.966V200.306H422.638V205.65ZM420.838 202.76C419.08 202.106 417.88 200.497 417.88 198.793V197.238H416.762V198.752C416.762 200.619 415.535 202.351 413.708 203.019L414.294 203.905C415.726 203.333 416.816 202.174 417.335 200.715C417.853 202.037 418.902 203.087 420.252 203.619L420.838 202.76ZM417.021 207.545V204.641H415.903V208.459H424.056V207.545H417.021ZM431.962 202.037C430.681 202.296 429.59 202.365 427.845 202.365V200.701H431.349V199.842H427.845V198.302H431.485V197.402H426.768V203.278H427.545C429.508 203.278 430.667 203.224 432.072 202.937L431.962 202.037ZM428.336 205.459H435.439V208.732H436.557V204.56H428.336V205.459ZM435.48 196.516V199.692H433.844V196.734H432.781V203.837H433.844V200.606H435.48V203.919H436.557V196.516H435.48ZM439.433 197.811V198.738H443.918C443.659 201.628 441.982 203.973 438.86 205.541L439.474 206.414C443.427 204.437 445.023 201.288 445.023 197.811H439.433ZM450.149 201.465H448.186V196.502H447.068V208.732H448.186V202.392H450.149V201.465ZM461.123 199.911H453.938V196.761H452.82V200.81H461.123V199.911ZM456.842 207.818C454.92 207.818 453.788 207.314 453.788 206.468C453.788 205.596 454.92 205.105 456.842 205.105C458.764 205.105 459.896 205.596 459.896 206.468C459.896 207.314 458.751 207.818 456.842 207.818ZM456.842 204.232C454.238 204.232 452.656 205.037 452.656 206.468C452.656 207.886 454.238 208.691 456.842 208.691C459.446 208.691 461.028 207.886 461.028 206.468C461.028 205.037 459.446 204.232 456.842 204.232ZM451.334 202.228V203.142H462.391V202.228H451.334Z" fill="#6F7075"/>
<rect opacity="0.7" x="537.909" y="118.909" width="225.182" height="107.182" rx="6.36243" fill="#FAFAFC" stroke="#EDEFF2" stroke-width="1.81784"/>
<path d="M554.269 137.091C555.459 137.091 556.293 137.709 556.293 138.667C556.293 139.641 555.459 140.243 554.269 140.243C553.064 140.243 552.229 139.641 552.229 138.667C552.229 137.709 553.064 137.091 554.269 137.091ZM554.269 141.479C556.324 141.479 557.792 140.351 557.792 138.667C557.792 137.014 556.324 135.886 554.269 135.886C552.198 135.886 550.731 137.014 550.731 138.667C550.731 140.351 552.198 141.479 554.269 141.479ZM558.827 142.02C555.814 142.437 552.353 142.468 549.726 142.468L549.927 143.782C550.978 143.782 552.152 143.766 553.388 143.72V148.757H554.98V143.643C556.293 143.565 557.622 143.426 558.92 143.195L558.827 142.02ZM559.801 135.237V144.693H556.819V145.914H559.801V149.19H561.408V135.237H559.801ZM575.22 141.819H567.139V137.756H575.112V136.458H565.547V143.102H575.22V141.819ZM564.002 146.084V147.397H576.657V146.084H564.002Z" fill="#212121"/>
<path d="M559.233 169.541C560.133 169.541 560.937 168.805 560.937 167.714C560.937 166.61 560.133 165.874 559.233 165.874C558.32 165.874 557.529 166.61 557.529 167.714C557.529 168.805 558.32 169.541 559.233 169.541ZM576.268 170.291V167.769H580.003V166.855H572.723V165.015H579.608V164.129H572.723V162.411H579.881V161.497H571.591V167.769H575.15V170.291H570.16V171.205H581.271V170.291H576.268ZM585.551 162.411H587.542V166.133C586.874 166.174 586.206 166.187 585.551 166.201V162.411ZM590.418 165.915C589.832 165.983 589.232 166.024 588.619 166.078V162.411H589.818V161.497H583.261V162.411H584.46V166.228C583.929 166.228 583.397 166.228 582.933 166.228L583.042 167.169C585.156 167.169 588.019 167.128 590.487 166.746L590.418 165.915ZM584.569 169.446H591.632V172.745H592.75V168.532H584.569V169.446ZM591.632 160.516V167.919H592.75V160.516H591.632ZM604.146 160.502V172.759H605.264V160.502H604.146ZM598.816 161.443C597.002 161.443 595.707 163.106 595.707 165.71C595.707 168.314 597.002 169.978 598.816 169.978C600.629 169.978 601.924 168.314 601.924 165.71C601.924 163.106 600.629 161.443 598.816 161.443ZM598.816 162.452C600.002 162.452 600.847 163.733 600.847 165.71C600.847 167.701 600.002 168.982 598.816 168.982C597.616 168.982 596.771 167.701 596.771 165.71C596.771 163.733 597.616 162.452 598.816 162.452ZM614.843 162.574H617.883V166.583H614.843V162.574ZM616.929 170.291V167.483H620.869V166.583H619.001V162.574H620.896V161.675H611.83V162.574H613.725V166.583H611.857V167.483H615.797V170.291H610.848V171.205H621.932V170.291H616.929ZM630.643 161.797H627.589V160.393H626.471V161.797H623.431V162.697H630.643V161.797ZM625.176 165.492C625.176 164.688 625.912 164.156 627.03 164.156C628.148 164.156 628.898 164.688 628.898 165.492C628.898 166.296 628.148 166.828 627.03 166.828C625.912 166.828 625.176 166.296 625.176 165.492ZM629.962 165.492C629.962 164.156 628.776 163.311 627.03 163.311C625.285 163.311 624.113 164.156 624.113 165.492C624.113 166.814 625.285 167.66 627.03 167.66C628.776 167.66 629.962 166.814 629.962 165.492ZM626.294 169.446H631.775V171.668H626.294V169.446ZM625.204 172.568H632.879V168.56H625.204V172.568ZM634.693 163.761H632.879V160.516H631.761V167.864H632.879V164.688H634.693V163.761ZM639.518 169.078C638.414 169.078 637.609 168.287 637.609 167.196C637.609 166.092 638.414 165.301 639.518 165.301C640.636 165.301 641.44 166.092 641.44 167.196C641.44 168.287 640.636 169.078 639.518 169.078ZM639.518 164.374C637.8 164.374 636.559 165.547 636.559 167.196C636.559 168.86 637.8 170.005 639.518 170.005C641.263 170.005 642.504 168.86 642.504 167.196C642.504 165.547 641.263 164.374 639.518 164.374ZM640.063 160.652H638.945V162.465H635.864V163.365H643.076V162.465H640.063V160.652ZM647.357 165.533H645.353V160.516H644.235V172.732H645.353V166.474H647.357V165.533ZM658.277 164.183H651.078V160.952H649.96V165.097H658.277V164.183ZM650.997 168.86H649.879V172.432H658.345V171.518H650.997V168.86ZM648.461 166.733V167.633H659.545V166.733H648.461ZM668.005 161.975C669.192 161.975 670.023 162.602 670.023 163.515C670.023 164.456 669.192 165.069 668.005 165.069C666.819 165.069 665.988 164.456 665.988 163.515C665.988 162.602 666.819 161.975 668.005 161.975ZM668.005 165.928C669.819 165.928 671.073 164.96 671.073 163.515C671.073 162.084 669.819 161.116 668.005 161.116C666.192 161.116 664.938 162.084 664.938 163.515C664.938 164.96 666.192 165.928 668.005 165.928ZM672.068 166.542C669.41 166.924 666.328 166.937 664.024 166.937L664.161 167.878C665.129 167.878 666.233 167.864 667.392 167.823V172.363H668.51V167.769C669.71 167.701 670.937 167.578 672.136 167.373L672.068 166.542ZM672.995 160.516V168.86H670.228V169.732H672.995V172.745H674.113V160.516H672.995ZM686.41 166.365H679.116V162.547H686.287V161.62H678.012V167.278H686.41V166.365ZM676.594 170.155V171.082H687.692V170.155H676.594ZM691.685 174.409L692.462 174.04C691.276 172.104 690.717 169.8 690.717 167.483C690.717 165.165 691.276 162.874 692.462 160.925L691.685 160.57C690.431 162.602 689.681 164.81 689.681 167.483C689.681 170.168 690.431 172.363 691.685 174.409ZM699.278 171.859C697.355 171.859 696.224 171.382 696.224 170.55C696.224 169.718 697.355 169.241 699.278 169.241C701.186 169.241 702.332 169.718 702.332 170.55C702.332 171.382 701.186 171.859 699.278 171.859ZM699.278 168.369C696.66 168.369 695.092 169.146 695.092 170.55C695.092 171.954 696.66 172.718 699.278 172.718C701.909 172.718 703.463 171.954 703.463 170.55C703.463 169.146 701.909 168.369 699.278 168.369ZM697.587 165.124C698.092 165.206 698.664 165.26 699.278 165.26C699.905 165.26 700.477 165.206 700.982 165.124V166.555H697.587V165.124ZM696.128 162.997C696.128 162.111 697.328 161.593 699.278 161.593C701.227 161.593 702.427 162.111 702.427 162.997C702.427 163.87 701.227 164.401 699.278 164.401C697.328 164.401 696.128 163.87 696.128 162.997ZM702.086 166.555V164.824C703.027 164.442 703.572 163.815 703.572 162.997C703.572 161.565 701.936 160.72 699.278 160.72C696.633 160.72 694.983 161.565 694.983 162.997C694.983 163.829 695.515 164.442 696.483 164.838V166.555H693.742V167.455H704.813V166.555H702.086ZM709.57 168.982C708.398 168.982 707.58 167.701 707.58 165.71C707.58 163.733 708.398 162.452 709.57 162.452C710.729 162.452 711.547 163.733 711.547 165.71C711.547 167.701 710.729 168.982 709.57 168.982ZM715.255 160.502V165.165H712.597C712.42 162.874 711.22 161.443 709.57 161.443C707.784 161.443 706.516 163.106 706.516 165.71C706.516 168.314 707.784 169.978 709.57 169.978C711.274 169.978 712.488 168.478 712.597 166.078H715.255V172.759H716.373V160.502H715.255ZM719.467 174.409C720.735 172.363 721.485 170.168 721.485 167.483C721.485 164.81 720.735 162.602 719.467 160.57L718.704 160.925C719.876 162.874 720.449 165.165 720.449 167.483C720.449 169.8 719.876 172.104 718.704 174.04L719.467 174.409ZM724.674 169.773H732.022V172.745H733.14V168.873H724.674V169.773ZM725.955 161.893H731.981V164.265H725.955V161.893ZM729.541 166.705V165.151H733.086V161.007H724.865V165.151H728.423V166.705H723.433V167.605H734.504V166.705H729.541ZM737.216 169.991H744.605V172.622H745.723V169.078H737.216V169.991ZM742.097 167.224V165.942H745.914V165.069H738.511V163.788H745.655V160.816H737.379V161.688H744.551V162.956H737.407V165.942H740.965V167.224H735.975V168.137H747.073V167.224H742.097ZM579.09 178.516V185.074H580.208V178.516H579.09ZM572.327 185.673V190.568H580.208V185.673H579.103V187.173H573.432V185.673H572.327ZM573.432 188.046H579.103V189.668H573.432V188.046ZM573.636 179.088C571.796 179.088 570.46 180.234 570.46 181.897C570.46 183.587 571.796 184.719 573.636 184.719C575.49 184.719 576.84 183.587 576.84 181.897C576.84 180.234 575.49 179.088 573.636 179.088ZM573.636 180.015C574.877 180.015 575.749 180.793 575.749 181.897C575.749 183.015 574.877 183.792 573.636 183.792C572.423 183.792 571.55 183.015 571.55 181.897C571.55 180.793 572.423 180.015 573.636 180.015ZM584.597 179.688H583.479V187.569H584.488C586.437 187.569 588.36 187.432 590.487 186.996L590.364 186.042C588.332 186.451 586.437 186.614 584.597 186.614V179.688ZM591.618 178.502V190.718H592.736V178.502H591.618ZM596.893 180.602H601.461V179.675H595.775V187.705H596.743C599.047 187.705 600.656 187.623 602.524 187.269L602.401 186.341C600.629 186.655 599.061 186.75 596.893 186.75V180.602ZM606.682 183.328H604.665V178.502H603.547V190.759H604.665V184.256H606.682V183.328ZM608.972 189.9C609.463 189.9 609.872 189.518 609.872 188.959C609.872 188.387 609.463 187.991 608.972 187.991C608.481 187.991 608.072 188.387 608.072 188.959C608.072 189.518 608.481 189.9 608.972 189.9ZM559.233 205.541C560.133 205.541 560.937 204.805 560.937 203.714C560.937 202.61 560.133 201.874 559.233 201.874C558.32 201.874 557.529 202.61 557.529 203.714C557.529 204.805 558.32 205.541 559.233 205.541ZM571.278 202.964C573.173 202.678 574.931 201.737 575.709 200.415C576.486 201.737 578.231 202.678 580.126 202.964L580.521 202.065C578.34 201.765 576.268 200.415 576.268 198.915H580.167V198.015H576.268V196.502H575.15V198.015H571.25V198.915H575.136C575.136 200.429 573.077 201.765 570.869 202.065L571.278 202.964ZM581.244 203.892H570.187V204.805H575.15V208.745H576.268V204.805H581.244V203.892ZM583.37 197.811V198.738H587.855C587.596 201.628 585.919 203.973 582.797 205.541L583.411 206.414C587.364 204.437 588.96 201.288 588.96 197.811H583.37ZM594.086 201.465H592.123V196.502H591.005V208.732H592.123V202.392H594.086V201.465ZM594.685 210.163H595.598L599.675 196.897H598.775L594.685 210.163ZM604.182 198.847H606.363V197.934H600.787V198.847H603.105V199.951C603.105 202.201 602.151 204.423 600.446 205.446L601.128 206.277C602.341 205.514 603.228 204.082 603.65 202.405C604.073 203.96 604.918 205.269 606.104 205.978L606.786 205.16C605.095 204.205 604.182 202.078 604.182 199.951V198.847ZM607.454 200.892H605.436V201.806H607.454V208.091H608.518V196.775H607.454V200.892ZM609.908 196.488V208.718H610.985V196.488H609.908ZM613.67 197.825V198.724H618.128C617.924 201.587 616.41 203.919 613.125 205.528L613.738 206.4C617.801 204.396 619.246 201.301 619.246 197.825H613.67ZM622.082 196.516V201.41H619.219V202.324H622.082V208.732H623.2V196.516H622.082ZM625.108 210.163H626.021L630.098 196.897H629.198L625.108 210.163ZM639.963 199.651V201.383H637.141V199.651H639.963ZM636.037 202.569H632.737V200.36H636.037V202.569ZM637.141 202.296H639.963V205.555H641.095V196.516H639.963V198.752H637.141V197.32H636.037V199.474H632.737V197.32H631.633V203.469H637.141V202.296ZM634.346 207.545V204.669H633.228V208.459H641.381V207.545H634.346ZM652.505 199.665V201.301H649.301V202.215H652.505V203.823H653.637V196.516H652.505V198.752H649.737C649.819 198.329 649.874 197.879 649.874 197.429H644.352V198.329H648.66C648.456 200.442 646.643 202.065 643.725 202.937L644.175 203.823C646.806 203.06 648.66 201.628 649.451 199.665H652.505ZM649.642 207.804C647.842 207.804 646.697 207.245 646.697 206.318C646.697 205.405 647.842 204.846 649.642 204.846C651.442 204.846 652.587 205.405 652.587 206.318C652.587 207.245 651.442 207.804 649.642 207.804ZM649.642 203.96C647.174 203.96 645.593 204.846 645.593 206.318C645.593 207.791 647.174 208.677 649.642 208.677C652.11 208.677 653.691 207.791 653.691 206.318C653.691 204.846 652.11 203.96 649.642 203.96ZM659.807 197.811V198.738H664.292C664.033 201.628 662.356 203.973 659.234 205.541L659.848 206.414C663.801 204.437 665.397 201.288 665.397 197.811H659.807ZM670.523 201.465H668.56V196.502H667.442V208.732H668.56V202.392H670.523V201.465ZM681.497 199.911H674.312V196.761H673.194V200.81H681.497V199.911ZM677.216 207.818C675.294 207.818 674.162 207.314 674.162 206.468C674.162 205.596 675.294 205.105 677.216 205.105C679.138 205.105 680.27 205.596 680.27 206.468C680.27 207.314 679.125 207.818 677.216 207.818ZM677.216 204.232C674.612 204.232 673.03 205.037 673.03 206.468C673.03 207.886 674.612 208.691 677.216 208.691C679.82 208.691 681.402 207.886 681.402 206.468C681.402 205.037 679.82 204.232 677.216 204.232ZM671.708 202.228V203.142H682.765V202.228H671.708Z" fill="#6F7075"/>
<rect opacity="0.7" x="799.909" y="118.909" width="225.182" height="107.182" rx="6.36243" fill="#FAFAFC" stroke="#EDEFF2" stroke-width="1.81784"/>
<path d="M822.061 147.969C820.022 147.969 818.878 147.521 818.878 146.656C818.878 145.806 820.022 145.342 822.061 145.342C824.101 145.342 825.26 145.806 825.26 146.656C825.26 147.521 824.101 147.969 822.061 147.969ZM822.061 144.122C819.079 144.122 817.256 145.049 817.256 146.656C817.256 148.278 819.079 149.205 822.061 149.205C825.059 149.205 826.867 148.278 826.867 146.656C826.867 145.049 825.059 144.122 822.061 144.122ZM822.896 141.974V140.583H826.96V139.301H818.94V137.122H826.867V135.855H817.364V140.583H821.304V141.974H815.803V143.272H828.412V141.974H822.896ZM834.499 136.21C832.32 136.21 830.713 137.586 830.713 139.563C830.713 141.541 832.32 142.916 834.499 142.916C836.677 142.916 838.3 141.541 838.3 139.563C838.3 137.586 836.677 136.21 834.499 136.21ZM834.499 137.57C835.797 137.57 836.739 138.343 836.739 139.563C836.739 140.769 835.797 141.557 834.499 141.557C833.216 141.557 832.274 140.769 832.274 139.563C832.274 138.343 833.216 137.57 834.499 137.57ZM839.876 135.222V149.205H841.483V135.222H839.876ZM830.265 146.254C832.737 146.254 836.075 146.223 839.15 145.636L839.042 144.477C836.044 144.925 832.567 144.941 830.064 144.941L830.265 146.254ZM847.971 144.678C846.782 144.678 845.963 143.38 845.963 141.17C845.963 139.007 846.782 137.694 847.971 137.694C849.177 137.694 849.995 139.007 849.995 141.17C849.995 143.38 849.177 144.678 847.971 144.678ZM854.198 135.222V140.429H851.479C851.263 137.864 849.841 136.257 847.971 136.257C845.916 136.257 844.448 138.173 844.448 141.17C844.448 144.199 845.916 146.099 847.971 146.099C849.887 146.099 851.309 144.431 851.494 141.727H854.198V149.221H855.805V135.222H854.198ZM862.031 143.581C862.696 143.581 863.221 143.04 863.221 142.329C863.221 141.603 862.696 141.078 862.031 141.078C861.367 141.078 860.841 141.603 860.841 142.329C860.841 143.04 861.367 143.581 862.031 143.581ZM869.003 139.641C869.003 138.374 869.915 137.508 871.135 137.508C872.325 137.508 873.237 138.374 873.237 139.641C873.237 140.939 872.325 141.804 871.135 141.804C869.915 141.804 869.003 140.939 869.003 139.641ZM877.27 138.605V140.676H874.597C874.705 140.351 874.751 140.012 874.751 139.641C874.751 139.27 874.705 138.93 874.597 138.605H877.27ZM877.27 141.974V145.512H878.861V135.252H877.27V137.307H873.917C873.268 136.566 872.279 136.102 871.135 136.102C869.065 136.102 867.489 137.586 867.489 139.641C867.489 141.696 869.065 143.179 871.135 143.179C872.279 143.195 873.268 142.731 873.917 141.974H877.27ZM871.414 147.629V144.477H869.822V148.927H879.217V147.629H871.414ZM888.888 141.217C889.228 139.409 889.228 138.034 889.228 137.091V136.288H882.213V137.586H887.667C887.652 138.451 887.606 139.548 887.328 141.047L888.888 141.217ZM890.047 141.912C888.672 142.128 887.173 142.221 885.721 142.283V139.471H884.145V142.329C883.156 142.36 882.198 142.36 881.363 142.36L881.533 143.658C883.959 143.658 887.25 143.581 890.155 143.071L890.047 141.912ZM885.072 144.786H883.465V148.927H892.952V147.629H885.072V144.786ZM892.504 139.656V135.237H890.897V145.713H892.504V140.97H894.358V139.656H892.504ZM899.487 144.678C898.297 144.678 897.478 143.38 897.478 141.17C897.478 139.007 898.297 137.694 899.487 137.694C900.692 137.694 901.511 139.007 901.511 141.17C901.511 143.38 900.692 144.678 899.487 144.678ZM905.714 135.222V140.429H902.994C902.778 137.864 901.356 136.257 899.487 136.257C897.432 136.257 895.964 138.173 895.964 141.17C895.964 144.199 897.432 146.099 899.487 146.099C901.403 146.099 902.824 144.431 903.01 141.727H905.714V149.221H907.321V135.222H905.714Z" fill="#212121"/>
<path d="M825.233 169.541C826.133 169.541 826.937 168.805 826.937 167.714C826.937 166.61 826.133 165.874 825.233 165.874C824.32 165.874 823.529 166.61 823.529 167.714C823.529 168.805 824.32 169.541 825.233 169.541ZM840.113 161.975C841.3 161.975 842.131 162.602 842.131 163.515C842.131 164.456 841.3 165.069 840.113 165.069C838.927 165.069 838.096 164.456 838.096 163.515C838.096 162.602 838.927 161.975 840.113 161.975ZM840.113 165.928C841.927 165.928 843.181 164.96 843.181 163.515C843.181 162.084 841.927 161.116 840.113 161.116C838.3 161.116 837.046 162.084 837.046 163.515C837.046 164.96 838.3 165.928 840.113 165.928ZM844.176 166.542C841.518 166.924 838.436 166.937 836.132 166.937L836.269 167.878C837.237 167.878 838.341 167.864 839.5 167.823V172.363H840.618V167.769C841.818 167.701 843.045 167.578 844.244 167.373L844.176 166.542ZM845.103 160.516V168.86H842.336V169.732H845.103V172.745H846.221V160.516H845.103ZM858.518 166.365H851.224V162.547H858.395V161.62H850.12V167.278H858.518V166.365ZM848.702 170.155V171.082H859.8V170.155H848.702ZM863.793 174.409L864.57 174.04C863.384 172.104 862.825 169.8 862.825 167.483C862.825 165.165 863.384 162.874 864.57 160.925L863.793 160.57C862.539 162.602 861.789 164.81 861.789 167.483C861.789 170.168 862.539 172.363 863.793 174.409ZM871.386 171.859C869.463 171.859 868.332 171.382 868.332 170.55C868.332 169.718 869.463 169.241 871.386 169.241C873.294 169.241 874.44 169.718 874.44 170.55C874.44 171.382 873.294 171.859 871.386 171.859ZM871.386 168.369C868.768 168.369 867.2 169.146 867.2 170.55C867.2 171.954 868.768 172.718 871.386 172.718C874.017 172.718 875.571 171.954 875.571 170.55C875.571 169.146 874.017 168.369 871.386 168.369ZM869.695 165.124C870.2 165.206 870.772 165.26 871.386 165.26C872.013 165.26 872.585 165.206 873.09 165.124V166.555H869.695V165.124ZM868.236 162.997C868.236 162.111 869.436 161.593 871.386 161.593C873.335 161.593 874.535 162.111 874.535 162.997C874.535 163.87 873.335 164.401 871.386 164.401C869.436 164.401 868.236 163.87 868.236 162.997ZM874.194 166.555V164.824C875.135 164.442 875.68 163.815 875.68 162.997C875.68 161.565 874.044 160.72 871.386 160.72C868.741 160.72 867.091 161.565 867.091 162.997C867.091 163.829 867.623 164.442 868.591 164.838V166.555H865.85V167.455H876.921V166.555H874.194ZM881.678 168.982C880.506 168.982 879.688 167.701 879.688 165.71C879.688 163.733 880.506 162.452 881.678 162.452C882.837 162.452 883.655 163.733 883.655 165.71C883.655 167.701 882.837 168.982 881.678 168.982ZM887.363 160.502V165.165H884.705C884.528 162.874 883.328 161.443 881.678 161.443C879.892 161.443 878.624 163.106 878.624 165.71C878.624 168.314 879.892 169.978 881.678 169.978C883.382 169.978 884.596 168.478 884.705 166.078H887.363V172.759H888.481V160.502H887.363ZM891.575 174.409C892.843 172.363 893.593 170.168 893.593 167.483C893.593 164.81 892.843 162.602 891.575 160.57L890.812 160.925C891.984 162.874 892.557 165.165 892.557 167.483C892.557 169.8 891.984 172.104 890.812 174.04L891.575 174.409ZM904.139 171.859C902.203 171.859 901.071 171.382 901.071 170.523C901.071 169.664 902.203 169.187 904.139 169.187C906.048 169.187 907.179 169.664 907.179 170.523C907.179 171.382 906.048 171.859 904.139 171.859ZM904.139 168.314C901.521 168.314 899.94 169.105 899.94 170.523C899.94 171.941 901.521 172.732 904.139 172.732C906.729 172.732 908.311 171.941 908.311 170.523C908.311 169.105 906.729 168.314 904.139 168.314ZM904.698 166.542V165.124H908.379V164.224H901.112V161.961H908.297V161.061H899.994V165.124H903.58V166.542H898.604V167.442H909.674V166.542H904.698ZM915.113 161.402C913.218 161.402 911.841 162.561 911.841 164.279C911.841 165.983 913.218 167.155 915.113 167.155C917.022 167.155 918.385 165.983 918.385 164.279C918.385 162.561 917.022 161.402 915.113 161.402ZM915.113 162.356C916.381 162.356 917.295 163.133 917.295 164.279C917.295 165.41 916.381 166.201 915.113 166.201C913.859 166.201 912.932 165.41 912.932 164.279C912.932 163.133 913.859 162.356 915.113 162.356ZM919.994 160.502V172.759H921.112V160.502H919.994ZM911.364 170.073C913.573 170.073 916.531 170.046 919.285 169.541L919.19 168.71C916.517 169.119 913.45 169.132 911.228 169.132L911.364 170.073ZM926.96 168.982C925.787 168.982 924.969 167.701 924.969 165.71C924.969 163.733 925.787 162.452 926.96 162.452C928.119 162.452 928.937 163.733 928.937 165.71C928.937 167.701 928.119 168.982 926.96 168.982ZM932.645 160.502V165.165H929.987C929.809 162.874 928.61 161.443 926.96 161.443C925.174 161.443 923.906 163.106 923.906 165.71C923.906 168.314 925.174 169.978 926.96 169.978C928.664 169.978 929.877 168.478 929.987 166.078H932.645V172.759H933.763V160.502H932.645ZM940.533 164.347C940.533 163.133 941.419 162.261 942.619 162.261C943.805 162.261 944.691 163.133 944.691 164.347C944.691 165.56 943.805 166.433 942.619 166.433C941.419 166.433 940.533 165.56 940.533 164.347ZM948.222 163.324V165.356H945.591C945.7 165.042 945.755 164.701 945.755 164.347C945.755 163.979 945.7 163.638 945.591 163.324H948.222ZM948.222 166.256V169.541H949.354V160.516H948.222V162.424H945.114C944.541 161.715 943.669 161.279 942.619 161.279C940.819 161.279 939.47 162.561 939.47 164.347C939.47 166.133 940.819 167.414 942.619 167.414C943.669 167.414 944.555 166.978 945.128 166.256H948.222ZM942.66 171.545V168.614H941.528V172.459H949.695V171.545H942.66ZM958.242 165.724C958.556 164.115 958.556 162.902 958.556 162.097V161.456H952.475V162.37H957.465C957.465 163.147 957.424 164.197 957.138 165.601L958.242 165.724ZM959.401 166.46C958.16 166.624 956.77 166.733 955.434 166.787V164.183H954.329V166.828C953.402 166.842 952.516 166.855 951.739 166.855L951.848 167.769C954.016 167.769 956.947 167.701 959.483 167.278L959.401 166.46ZM954.725 168.873H953.607V172.459H961.732V171.545H954.725V168.873ZM961.337 164.483V160.502H960.219V169.718H961.337V165.41H963.082V164.483H961.337ZM967.635 168.982C966.462 168.982 965.644 167.701 965.644 165.71C965.644 163.733 966.462 162.452 967.635 162.452C968.794 162.452 969.612 163.733 969.612 165.71C969.612 167.701 968.794 168.982 967.635 168.982ZM973.32 160.502V165.165H970.662C970.484 162.874 969.284 161.443 967.635 161.443C965.849 161.443 964.581 163.106 964.581 165.71C964.581 168.314 965.849 169.978 967.635 169.978C969.339 169.978 970.552 168.478 970.662 166.078H973.32V172.759H974.438V160.502H973.32ZM825.233 187.541C826.133 187.541 826.937 186.805 826.937 185.714C826.937 184.61 826.133 183.874 825.233 183.874C824.32 183.874 823.529 184.61 823.529 185.714C823.529 186.805 824.32 187.541 825.233 187.541ZM837.278 184.964C839.173 184.678 840.931 183.737 841.709 182.415C842.486 183.737 844.231 184.678 846.126 184.964L846.521 184.065C844.34 183.765 842.268 182.415 842.268 180.915H846.167V180.015H842.268V178.502H841.15V180.015H837.25V180.915H841.136C841.136 182.429 839.077 183.765 836.869 184.065L837.278 184.964ZM847.244 185.892H836.187V186.805H841.15V190.745H842.268V186.805H847.244V185.892ZM849.37 179.811V180.738H853.855C853.596 183.628 851.919 185.973 848.797 187.541L849.411 188.414C853.364 186.437 854.96 183.288 854.96 179.811H849.37ZM860.086 183.465H858.123V178.502H857.005V190.732H858.123V184.392H860.086V183.465ZM860.685 192.163H861.598L865.675 178.897H864.775L860.685 192.163ZM870.182 180.847H872.363V179.934H866.787V180.847H869.105V181.951C869.105 184.201 868.151 186.423 866.446 187.446L867.128 188.277C868.341 187.514 869.228 186.082 869.65 184.405C870.073 185.96 870.918 187.269 872.104 187.978L872.786 187.16C871.095 186.205 870.182 184.078 870.182 181.951V180.847ZM873.454 182.892H871.436V183.806H873.454V190.091H874.518V178.775H873.454V182.892ZM875.908 178.488V190.718H876.985V178.488H875.908ZM879.67 179.825V180.724H884.128C883.924 183.587 882.41 185.919 879.125 187.528L879.738 188.4C883.801 186.396 885.246 183.301 885.246 179.825H879.67ZM888.082 178.516V183.41H885.219V184.324H888.082V190.732H889.2V178.516H888.082ZM891.108 192.163H892.021L896.098 178.897H895.198L891.108 192.163ZM905.963 181.651V183.383H903.141V181.651H905.963ZM902.037 184.569H898.737V182.36H902.037V184.569ZM903.141 184.296H905.963V187.555H907.095V178.516H905.963V180.752H903.141V179.32H902.037V181.474H898.737V179.32H897.633V185.469H903.141V184.296ZM900.346 189.545V186.669H899.228V190.459H907.381V189.545H900.346ZM918.505 181.665V183.301H915.301V184.215H918.505V185.823H919.637V178.516H918.505V180.752H915.737C915.819 180.329 915.874 179.879 915.874 179.429H910.352V180.329H914.66C914.456 182.442 912.643 184.065 909.725 184.937L910.175 185.823C912.806 185.06 914.66 183.628 915.451 181.665H918.505ZM915.642 189.804C913.842 189.804 912.697 189.245 912.697 188.318C912.697 187.405 913.842 186.846 915.642 186.846C917.442 186.846 918.587 187.405 918.587 188.318C918.587 189.245 917.442 189.804 915.642 189.804ZM915.642 185.96C913.174 185.96 911.593 186.846 911.593 188.318C911.593 189.791 913.174 190.677 915.642 190.677C918.11 190.677 919.691 189.791 919.691 188.318C919.691 186.846 918.11 185.96 915.642 185.96ZM925.807 179.811V180.738H930.292C930.033 183.628 928.356 185.973 925.234 187.541L925.848 188.414C929.801 186.437 931.397 183.288 931.397 179.811H925.807ZM936.523 183.465H934.56V178.502H933.442V190.732H934.56V184.392H936.523V183.465ZM947.497 181.911H940.312V178.761H939.194V182.81H947.497V181.911ZM943.216 189.818C941.294 189.818 940.162 189.314 940.162 188.468C940.162 187.596 941.294 187.105 943.216 187.105C945.138 187.105 946.27 187.596 946.27 188.468C946.27 189.314 945.125 189.818 943.216 189.818ZM943.216 186.232C940.612 186.232 939.03 187.037 939.03 188.468C939.03 189.886 940.612 190.691 943.216 190.691C945.82 190.691 947.402 189.886 947.402 188.468C947.402 187.037 945.82 186.232 943.216 186.232ZM937.708 184.228V185.142H948.765V184.228H937.708Z" fill="#6F7075"/>
<path d="M549.708 68.221C551.901 68.221 553.924 66.657 553.924 63.886C553.924 61.149 552.207 59.908 550.116 59.908C549.436 59.908 548.943 60.078 548.399 60.35L548.688 57.137H553.329V55.471H546.988L546.614 61.421L547.566 62.05C548.297 61.574 548.773 61.336 549.572 61.336C551 61.336 551.952 62.288 551.952 63.954C551.952 65.62 550.881 66.623 549.47 66.623C548.161 66.623 547.26 65.994 546.546 65.28L545.611 66.555C546.495 67.422 547.736 68.221 549.708 68.221ZM502.042 93.062V90.172H506.581V88.778H497.724V86.772H506.105V85.395H497.724V83.542H506.445V82.114H495.939V90.172H500.274V93.062H494.222V94.507H508.128V93.062H502.042ZM513.601 83.559H515.709V87.996C515.012 88.03 514.281 88.047 513.601 88.064V83.559ZM519.449 87.707C518.786 87.792 518.106 87.843 517.409 87.894V83.559H518.769V82.148H510.524V83.559H511.918V88.081C511.289 88.081 510.677 88.081 510.116 88.081L510.32 89.526C512.972 89.526 516.491 89.475 519.568 88.982L519.449 87.707ZM512.156 92.416H520.758V96.326H522.509V91.005H512.156V92.416ZM520.758 80.958V90.291H522.509V80.958H520.758ZM528.764 83.576H536.074V88.132H528.764V83.576ZM533.303 92.994V89.526H537.791V82.182H527.047V89.526H531.552V92.994H525.5V94.422H539.406V92.994H533.303ZM554.211 80.958H552.545V89.067H554.211V80.958ZM546.799 84.273V85.633H549.553V88.948H551.185V81.247H549.553V84.273H546.799ZM548.278 86.738C546.748 87.01 545.456 87.078 543.552 87.095V83.168H547.7V81.774H541.818V88.489H542.838C545.201 88.489 546.646 88.455 548.414 88.132L548.278 86.738ZM545.643 94.745V93.487H554.211V89.679H543.875V91.039H552.477V92.195H543.909V96.122H554.721V94.745H545.643ZM569.425 80.958H567.674V90.359H569.425V80.958ZM566.076 87.656C563.849 88.03 561.928 88.115 559.293 88.115V86.33H564.546V81.893H557.525V83.304H562.829V85.004H557.559V89.543H558.851C561.792 89.543 563.866 89.475 566.28 89.084L566.076 87.656ZM564.325 94.932C562.132 94.932 560.874 94.422 560.874 93.487C560.874 92.535 562.132 92.025 564.325 92.025C566.535 92.025 567.776 92.535 567.776 93.487C567.776 94.422 566.535 94.932 564.325 94.932ZM564.325 90.648C561.095 90.648 559.14 91.702 559.14 93.487C559.14 95.272 561.095 96.326 564.325 96.326C567.555 96.326 569.527 95.272 569.527 93.487C569.527 91.702 567.555 90.648 564.325 90.648ZM587.199 88.829H588.95V80.941H587.199V83.508H584.088V84.919H587.199V88.829ZM585.295 87.214C583 86.466 581.674 84.664 581.674 82.726V81.434H579.923V82.726C579.923 84.834 578.58 86.755 576.183 87.537L577.084 88.914C578.886 88.285 580.161 87.044 580.841 85.446C581.487 86.874 582.711 88.013 584.377 88.574L585.295 87.214ZM580.722 94.745V93.436H588.95V89.56H578.954V90.92H587.216V92.144H578.988V96.122H589.477V94.745H580.722ZM597.942 87.622H594.253V83.491H597.942V87.622ZM602.838 84.749V86.364H599.642V84.749H602.838ZM599.642 87.792H602.838V90.002H604.589V80.958H602.838V83.321H599.642V82.097H592.536V89.016H599.642V87.792ZM599.472 94.949C597.296 94.949 596.055 94.388 596.055 93.368C596.055 92.365 597.296 91.804 599.472 91.804C601.648 91.804 602.906 92.365 602.906 93.368C602.906 94.388 601.648 94.949 599.472 94.949ZM599.472 90.427C596.276 90.427 594.304 91.515 594.304 93.368C594.304 95.221 596.276 96.309 599.472 96.309C602.685 96.309 604.657 95.221 604.657 93.368C604.657 91.515 602.685 90.427 599.472 90.427Z" fill="#212121"/>
<path d="M0 595H1100V632C1100 636.418 1096.42 640 1092 640H7.99999C3.58171 640 0 636.418 0 632V595Z" fill="#0D0157"/>
<defs>
<linearGradient id="paint0_linear_2449_227787" x1="526.507" y1="172.787" x2="526.507" y2="642.425" gradientUnits="userSpaceOnUse">
<stop stop-color="white"/>
<stop offset="0.175251" stop-color="white" stop-opacity="0"/>
<stop offset="0.675041" stop-color="white" stop-opacity="0"/>
<stop offset="0.837591" stop-color="white"/>
</linearGradient>
<clipPath id="clip0_2449_227787">
<rect width="14.5427" height="14.5427" fill="white" transform="translate(199.754 259.992)"/>
</clipPath>
</defs>
</svg>
