<svg width="1100" height="640" viewBox="0 0 1100 640" fill="none" xmlns="http://www.w3.org/2000/svg">
<path d="M0 595H1100V632C1100 636.418 1096.42 640 1092 640H7.99999C3.58171 640 0 636.418 0 632V595Z" fill="#0D0157"/>
<mask id="mask0_2449_227516" style="mask-type:alpha" maskUnits="userSpaceOnUse" x="32" y="273" width="1037" height="279">
<rect x="32" y="273" width="1037" height="279" rx="8" fill="white"/>
</mask>
<g mask="url(#mask0_2449_227516)">
<line x1="192.836" y1="335.384" x2="251.122" y2="335.384" stroke="#B4B5B8" stroke-width="1.91103"/>
<line x1="250.166" y1="336.34" x2="250.166" y2="657.392" stroke="#B4B5B8" stroke-width="1.91103"/>
<line x1="249.211" y1="335.384" x2="279.787" y2="335.384" stroke="#B4B5B8" stroke-width="1.91103" stroke-dasharray="3.82 3.82"/>
<line x1="469.934" y1="335.384" x2="528.22" y2="335.384" stroke="#B4B5B8" stroke-width="1.91103"/>
<line x1="526.309" y1="335.384" x2="556.885" y2="335.384" stroke="#B4B5B8" stroke-width="1.91103" stroke-dasharray="3.82 3.82"/>
<line x1="526.309" y1="415.646" x2="556.885" y2="415.646" stroke="#B4B5B8" stroke-width="1.91103" stroke-dasharray="3.82 3.82"/>
<line x1="527.264" y1="336.34" x2="527.264" y2="416.603" stroke="#B4B5B8" stroke-width="1.91103"/>
<line x1="747.033" y1="335.384" x2="840.673" y2="335.384" stroke="#B4B5B8" stroke-width="1.91103"/>
<line x1="775.511" y1="335.772" x2="834.753" y2="416.035" stroke="#B4B5B8" stroke-width="1.91103" stroke-dasharray="3.82 3.82"/>
<line x1="775.642" y1="336.018" x2="832.973" y2="496.545" stroke="#B4B5B8" stroke-width="1.91103" stroke-dasharray="3.82 3.82"/>
<path d="M64 324.914C64 320.692 67.4224 317.27 71.6441 317.27H213.06C217.282 317.27 220.704 320.692 220.704 324.914V347.846C220.704 352.068 217.282 355.49 213.06 355.49H71.6441C67.4224 355.49 64 352.068 64 347.846V324.914Z" fill="#EDEFF2"/>
<path d="M90.6835 330.04H89.2073V339.442H90.6835V330.04ZM81.7113 334.139C81.7113 332.95 82.5569 332.176 83.7035 332.176C84.8358 332.176 85.6958 332.95 85.6958 334.139C85.6958 335.315 84.8358 336.103 83.7035 336.103C82.5569 336.103 81.7113 335.315 81.7113 334.139ZM87.129 334.139C87.129 332.247 85.6528 330.9 83.7035 330.9C81.7543 330.9 80.2637 332.247 80.2637 334.139C80.2637 336.017 81.7543 337.378 83.7035 337.378C85.6528 337.378 87.129 336.017 87.129 334.139ZM83.7179 341.535V338.496H82.2273V342.739H91.0562V341.535H83.7179ZM103.095 335.186C103.453 333.853 103.453 332.778 103.453 331.746V330.656H94.5666V331.846H101.991C101.991 332.821 101.977 333.752 101.647 335.028L103.095 335.186ZM99.0097 341.85C97.0891 341.85 95.9139 341.377 95.9139 340.56C95.9139 339.758 97.0891 339.285 99.0097 339.285C100.916 339.285 102.063 339.758 102.063 340.56C102.063 341.377 100.916 341.85 99.0097 341.85ZM99.0097 338.152C96.2148 338.152 94.4519 339.07 94.4519 340.56C94.4519 342.065 96.2148 342.983 99.0097 342.983C101.762 342.983 103.539 342.065 103.539 340.56C103.539 339.07 101.762 338.152 99.0097 338.152ZM99.2964 335.96V333.58H97.8058V335.96H93.2193V337.149H104.886V335.96H99.2964ZM111.163 332.548H114.044V331.33H106.791V332.548H109.672V333.781C109.672 336.003 108.339 338.41 106.333 339.342L107.178 340.517C108.697 339.786 109.858 338.253 110.432 336.447C111.034 338.124 112.195 339.528 113.7 340.188L114.517 339.027C112.496 338.167 111.163 335.931 111.163 333.781V332.548ZM115.549 330.04V342.983H117.039V330.04H115.549ZM129.952 333.48H122.585V330.284H121.108V334.67H129.952V333.48ZM125.394 341.807C123.502 341.807 122.441 341.363 122.441 340.575C122.441 339.758 123.502 339.342 125.394 339.342C127.286 339.342 128.361 339.758 128.361 340.575C128.361 341.363 127.286 341.807 125.394 341.807ZM125.394 338.181C122.628 338.181 120.936 339.055 120.936 340.575C120.936 342.08 122.628 342.954 125.394 342.954C128.175 342.954 129.851 342.08 129.851 340.575C129.851 339.055 128.175 338.181 125.394 338.181ZM119.575 335.974V337.178H131.285V335.974H119.575Z" fill="#212121"/>
<g clip-path="url(#clip0_2449_227516)">
<path d="M200.774 331.738C198.419 331.738 196.474 333.492 196.174 335.765H193.284C193.161 335.462 192.951 335.203 192.681 335.021C192.41 334.838 192.091 334.741 191.765 334.741C190.861 334.741 190.127 335.475 190.127 336.379C190.127 337.284 190.861 338.017 191.765 338.017C192.453 338.017 193.041 337.594 193.284 336.994H196.172C196.474 339.266 198.419 341.02 200.774 341.02C203.337 341.02 205.415 338.942 205.415 336.379C205.415 333.817 203.337 331.738 200.774 331.738ZM202.958 336.823C202.958 336.898 202.897 336.959 202.822 336.959H201.354V338.427C201.354 338.502 201.293 338.563 201.218 338.563H200.33C200.255 338.563 200.194 338.502 200.194 338.427V336.959H198.727C198.651 336.959 198.59 336.898 198.59 336.823V335.936C198.59 335.861 198.651 335.799 198.727 335.799H200.194V334.332C200.194 334.257 200.255 334.195 200.33 334.195H201.218C201.293 334.195 201.354 334.257 201.354 334.332V335.799H202.822C202.897 335.799 202.958 335.861 202.958 335.936V336.823Z" fill="#212121"/>
</g>
<path d="M278.1 324.914C278.1 320.692 281.522 317.27 285.744 317.27H490.223C494.445 317.27 497.868 320.692 497.868 324.914V347.846C497.868 352.068 494.445 355.49 490.223 355.49H285.744C281.522 355.49 278.1 352.068 278.1 347.846V324.914Z" fill="#EFF2FF"/>
<circle cx="297.21" cy="336.38" r="11.4662" fill="#B5D0FA"/>
<circle r="3.82205" transform="matrix(1 0 0 -1 297.211 336.381)" fill="#2F80ED"/>
<path d="M325.164 336.02C323.329 336.393 321.738 336.479 319.029 336.479V332.881H323.902V331.935H317.854V337.439H318.915C321.738 337.439 323.386 337.339 325.278 336.98L325.164 336.02ZM326.468 342.842H320.505V341.208H326.468V342.842ZM326.468 340.277H320.505V338.643H319.345V343.803H327.629V338.643H326.468V340.277ZM326.454 331.104V338.027H327.629V331.104H326.454ZM331.899 336.808H336.457V332.308H330.709V333.268H335.31V335.862H330.738V340.893H331.727C334.049 340.893 335.683 340.821 337.618 340.478L337.503 339.503C335.654 339.833 334.092 339.919 331.899 339.919V336.808ZM339.667 331.104V336.063H337.216V337.023H339.667V343.989H340.842V331.104H339.667ZM353.97 331.118H352.795V338.801H353.97V331.118ZM351.433 336.149C349.455 336.565 347.635 336.708 345.413 336.708V331.978H344.238V337.697H345.284C347.621 337.697 349.484 337.554 351.576 337.124L351.433 336.149ZM349.713 343.014C347.764 343.014 346.56 342.427 346.56 341.438C346.56 340.435 347.764 339.847 349.713 339.847C351.648 339.847 352.852 340.435 352.852 341.438C352.852 342.427 351.648 343.014 349.713 343.014ZM349.713 338.901C347.062 338.901 345.385 339.847 345.385 341.438C345.385 343.014 347.062 343.96 349.713 343.96C352.365 343.96 354.027 343.014 354.027 341.438C354.027 339.847 352.365 338.901 349.713 338.901Z" fill="#212121"/>
<path d="M555.197 324.914C555.197 320.692 558.62 317.27 562.841 317.27H767.321C771.543 317.27 774.965 320.692 774.965 324.914V347.846C774.965 352.068 771.543 355.49 767.321 355.49H562.841C558.62 355.49 555.197 352.068 555.197 347.846V324.914Z" fill="white"/>
<circle r="3.82205" transform="matrix(1 0 0 -1 574.308 336.381)" fill="#2F80ED"/>
<path d="M596.17 339.328H603.58V342.954H604.769V338.367H596.17V339.328ZM600.842 334.856C600.928 334.555 600.986 334.24 600.986 333.881C600.986 333.537 600.928 333.222 600.842 332.921H603.58V334.856H600.842ZM597.675 335.988C596.428 335.988 595.496 335.114 595.496 333.881C595.496 332.677 596.428 331.803 597.675 331.803C598.936 331.803 599.868 332.677 599.868 333.881C599.868 335.114 598.936 335.988 597.675 335.988ZM603.58 330.097V331.975H600.341C599.739 331.244 598.793 330.8 597.675 330.8C595.783 330.8 594.378 332.075 594.378 333.881C594.378 335.702 595.783 336.991 597.675 336.991C598.793 336.991 599.724 336.547 600.326 335.816H603.58V337.665H604.769V330.083L603.58 330.097ZM614.185 333.638V334.598H616.765V339.514H617.954V330.097H616.765V333.638H614.185ZM614.945 336.662C613.081 336.003 611.82 334.397 611.82 332.72V332.09H614.644V331.129H607.778V332.09H610.645V332.735C610.645 334.555 609.312 336.26 607.406 336.948L608.022 337.866C609.527 337.321 610.702 336.131 611.261 334.67C611.82 335.988 612.924 337.063 614.357 337.579L614.945 336.662ZM610.917 341.693V338.683H609.727V342.653H618.313V341.693H610.917ZM623.242 332.419H625.349V338.668C624.647 338.697 623.93 338.726 623.242 338.74V332.419ZM626.496 332.419H627.872V331.473H620.72V332.419H622.095V338.754C621.493 338.769 620.92 338.769 620.39 338.769L620.533 339.758C622.798 339.758 625.851 339.715 628.545 339.285L628.459 338.41C627.829 338.496 627.169 338.554 626.496 338.597V332.419ZM632.558 335.229H630.437V330.097H629.262V342.94H630.437V336.203H632.558V335.229ZM638.328 333.394C638.328 332.29 639.245 331.488 640.492 331.488C641.754 331.488 642.671 332.29 642.671 333.394C642.671 334.526 641.754 335.315 640.492 335.315C639.245 335.315 638.328 334.526 638.328 333.394ZM643.817 333.394C643.817 331.717 642.427 330.542 640.492 330.542C638.572 330.542 637.181 331.717 637.181 333.394C637.181 335.1 638.572 336.275 640.492 336.275C642.427 336.275 643.817 335.1 643.817 333.394ZM639.933 340.388H646.913V337.235H638.744V338.167H645.752V339.514H638.787V342.768H647.386V341.822H639.933V340.388ZM646.913 332.849V330.083H645.738V336.633H646.913V333.824H648.82V332.849H646.913ZM659.195 332.649C659.195 334.197 659.195 336.003 658.708 338.468L659.883 338.597C660.371 336.003 660.371 334.24 660.371 332.649V331.373H651.355V332.333H659.195V332.649ZM655.827 340.173V335.573H654.652V340.173H650.137V341.134H661.761V340.173H655.827ZM665.228 335.859H669.972V331.273H664.01V332.233H668.783V334.913H664.053V339.844H665.114C667.321 339.844 669.27 339.758 671.592 339.371L671.477 338.41C669.227 338.769 667.335 338.869 665.228 338.869V335.859ZM672.681 330.069V342.954H673.856V330.069H672.681ZM677.568 335.329C679.674 335.071 681.595 334.139 682.312 332.735C683.014 334.139 684.949 335.071 687.056 335.329L687.471 334.397C685.193 334.154 683.114 333.036 683.071 331.588H687.07V330.642H677.568V331.588H681.552C681.509 333.036 679.431 334.154 677.152 334.397L677.568 335.329ZM679.072 339.371H685.551V341.822H679.072V339.371ZM677.926 342.768H686.697V338.439H677.926V342.768ZM676.493 336.103V337.049H688.116V336.103H676.493Z" fill="#212121"/>
<path d="M562.841 318.225H767.321V316.314H562.841V318.225ZM774.01 324.914V347.846H775.921V324.914H774.01ZM767.321 354.535H562.841V356.446H767.321V354.535ZM556.153 347.846V324.914H554.242V347.846H556.153ZM562.841 354.535C559.147 354.535 556.153 351.54 556.153 347.846H554.242C554.242 352.595 558.092 356.446 562.841 356.446V354.535ZM774.01 347.846C774.01 351.54 771.015 354.535 767.321 354.535V356.446C772.071 356.446 775.921 352.595 775.921 347.846H774.01ZM767.321 318.225C771.015 318.225 774.01 321.22 774.01 324.914H775.921C775.921 320.164 772.071 316.314 767.321 316.314V318.225ZM562.841 316.314C558.092 316.314 554.242 320.164 554.242 324.914H556.153C556.153 321.22 559.147 318.225 562.841 318.225V316.314Z" fill="#EDEFF2"/>
<path d="M832.297 324.914C832.297 320.692 835.719 317.27 839.941 317.27H1044.42C1048.64 317.27 1052.06 320.692 1052.06 324.914V347.846C1052.06 352.068 1048.64 355.49 1044.42 355.49H839.941C835.719 355.49 832.297 352.068 832.297 347.846V324.914Z" fill="white"/>
<circle r="3.82205" transform="matrix(1 0 0 -1 851.408 336.381)" fill="#2F80ED"/>
<path d="M875.262 342.065C877.053 342.065 878.644 340.532 878.644 337.851C878.644 335.472 877.555 333.896 875.534 333.896C874.674 333.896 873.8 334.383 873.097 334.999L873.14 333.595V330.47H871.836V341.879H872.882L872.997 341.076H873.054C873.728 341.693 874.545 342.065 875.262 342.065ZM875.047 340.976C874.531 340.976 873.828 340.761 873.14 340.159V336.074C873.886 335.372 874.574 334.999 875.233 334.999C876.709 334.999 877.283 336.16 877.283 337.88C877.283 339.815 876.337 340.976 875.047 340.976ZM882.264 342.065C883.224 342.065 884.098 341.564 884.844 340.947H884.887L885.001 341.879H886.076V337.092C886.076 335.171 885.274 333.896 883.382 333.896C882.135 333.896 881.031 334.455 880.315 334.913L880.831 335.816C881.447 335.401 882.264 334.985 883.167 334.985C884.442 334.985 884.772 335.945 884.772 336.948C881.461 337.321 879.985 338.167 879.985 339.858C879.985 341.263 880.96 342.065 882.264 342.065ZM882.636 341.019C881.862 341.019 881.26 340.661 881.26 339.772C881.26 338.769 882.149 338.124 884.772 337.808V339.987C884.012 340.661 883.396 341.019 882.636 341.019ZM891.63 342.065C892.561 342.065 893.45 341.707 894.152 341.076L893.579 340.202C893.091 340.646 892.461 340.976 891.744 340.976C890.311 340.976 889.336 339.786 889.336 337.995C889.336 336.203 890.368 334.985 891.787 334.985C892.403 334.985 892.876 335.272 893.335 335.673L894.009 334.813C893.45 334.326 892.747 333.896 891.73 333.896C889.738 333.896 887.975 335.401 887.975 337.995C887.975 340.575 889.566 342.065 891.63 342.065ZM895.855 341.879H897.145V339.829L898.607 338.124L900.885 341.879H902.304L899.366 337.235L901.96 334.096H900.498L897.188 338.21H897.145V330.47H895.855V341.879ZM906.968 345.161H908.272V342.524L908.244 341.162C908.946 341.736 909.691 342.065 910.394 342.065C912.185 342.065 913.776 340.532 913.776 337.866C913.776 335.472 912.687 333.896 910.68 333.896C909.777 333.896 908.903 334.412 908.201 334.985H908.158L908.043 334.096H906.968V345.161ZM910.179 340.976C909.663 340.976 908.975 340.761 908.272 340.159V336.074C909.032 335.372 909.706 334.999 910.365 334.999C911.841 334.999 912.414 336.16 912.414 337.88C912.414 339.815 911.469 340.976 910.179 340.976ZM915.856 341.879H917.16V336.877C917.676 335.544 918.479 335.085 919.124 335.085C919.439 335.085 919.626 335.114 919.884 335.214L920.127 334.068C919.884 333.939 919.64 333.896 919.296 333.896C918.422 333.896 917.633 334.526 917.089 335.515H917.046L916.931 334.096H915.856V341.879ZM924.283 342.065C926.189 342.065 927.895 340.575 927.895 337.995C927.895 335.401 926.189 333.896 924.283 333.896C922.377 333.896 920.671 335.401 920.671 337.995C920.671 340.575 922.377 342.065 924.283 342.065ZM924.283 340.976C922.936 340.976 922.033 339.786 922.033 337.995C922.033 336.203 922.936 334.985 924.283 334.985C925.63 334.985 926.548 336.203 926.548 337.995C926.548 339.786 925.63 340.976 924.283 340.976ZM929.951 345.161H931.255V342.524L931.226 341.162C931.929 341.736 932.674 342.065 933.376 342.065C935.168 342.065 936.759 340.532 936.759 337.866C936.759 335.472 935.669 333.896 933.663 333.896C932.76 333.896 931.886 334.412 931.183 334.985H931.14L931.026 334.096H929.951V345.161ZM933.161 340.976C932.645 340.976 931.957 340.761 931.255 340.159V336.074C932.015 335.372 932.688 334.999 933.348 334.999C934.824 334.999 935.397 336.16 935.397 337.88C935.397 339.815 934.451 340.976 933.161 340.976ZM940.406 342.065C941.367 342.065 942.241 341.564 942.986 340.947H943.029L943.144 341.879H944.219V337.092C944.219 335.171 943.416 333.896 941.524 333.896C940.277 333.896 939.174 334.455 938.457 334.913L938.973 335.816C939.589 335.401 940.406 334.985 941.309 334.985C942.585 334.985 942.915 335.945 942.915 336.948C939.604 337.321 938.127 338.167 938.127 339.858C938.127 341.263 939.102 342.065 940.406 342.065ZM940.779 341.019C940.005 341.019 939.403 340.661 939.403 339.772C939.403 338.769 940.292 338.124 942.915 337.808V339.987C942.155 340.661 941.539 341.019 940.779 341.019ZM949.328 345.462C951.736 345.462 953.269 344.215 953.269 342.768C953.269 341.492 952.352 340.919 950.546 340.919H949.027C947.98 340.919 947.665 340.575 947.665 340.073C947.665 339.643 947.88 339.385 948.167 339.141C948.511 339.313 948.941 339.414 949.328 339.414C950.904 339.414 952.166 338.367 952.166 336.705C952.166 336.031 951.908 335.458 951.535 335.1H953.126V334.096H950.417C950.145 333.996 949.758 333.896 949.328 333.896C947.751 333.896 946.404 334.971 946.404 336.676C946.404 337.608 946.906 338.353 947.422 338.769V338.826C947.02 339.113 946.547 339.629 946.547 340.274C946.547 340.89 946.848 341.306 947.264 341.549V341.607C946.533 342.08 946.117 342.71 946.117 343.37C946.117 344.717 947.422 345.462 949.328 345.462ZM949.328 338.525C948.425 338.525 947.665 337.808 947.665 336.676C947.665 335.53 948.41 334.856 949.328 334.856C950.245 334.856 950.99 335.544 950.99 336.676C950.99 337.808 950.216 338.525 949.328 338.525ZM949.514 344.573C948.109 344.573 947.264 344.029 947.264 343.198C947.264 342.739 947.493 342.28 948.052 341.879C948.396 341.965 948.769 342.008 949.055 342.008H950.403C951.435 342.008 951.994 342.252 951.994 342.968C951.994 343.785 951.005 344.573 949.514 344.573ZM956.321 342.065C957.281 342.065 958.155 341.564 958.901 340.947H958.944L959.058 341.879H960.133V337.092C960.133 335.171 959.331 333.896 957.439 333.896C956.192 333.896 955.088 334.455 954.371 334.913L954.887 335.816C955.504 335.401 956.321 334.985 957.224 334.985C958.499 334.985 958.829 335.945 958.829 336.948C955.518 337.321 954.042 338.167 954.042 339.858C954.042 341.263 955.016 342.065 956.321 342.065ZM956.693 341.019C955.919 341.019 955.317 340.661 955.317 339.772C955.317 338.769 956.206 338.124 958.829 337.808V339.987C958.069 340.661 957.453 341.019 956.693 341.019ZM964.86 342.065C965.333 342.065 965.849 341.922 966.293 341.779L966.035 340.804C965.777 340.904 965.419 341.005 965.147 341.005C964.244 341.005 963.943 340.46 963.943 339.5V335.157H966.05V334.096H963.943V331.903H962.854L962.696 334.096L961.478 334.168V335.157H962.639V339.471C962.639 341.019 963.198 342.065 964.86 342.065ZM967.812 341.879H969.116V334.096H967.812V341.879ZM968.471 332.491C968.987 332.491 969.346 332.147 969.346 331.617C969.346 331.115 968.987 330.771 968.471 330.771C967.955 330.771 967.597 331.115 967.597 331.617C967.597 332.147 967.955 332.491 968.471 332.491ZM974.783 342.065C976.69 342.065 978.395 340.575 978.395 337.995C978.395 335.401 976.69 333.896 974.783 333.896C972.877 333.896 971.171 335.401 971.171 337.995C971.171 340.575 972.877 342.065 974.783 342.065ZM974.783 340.976C973.436 340.976 972.533 339.786 972.533 337.995C972.533 336.203 973.436 334.985 974.783 334.985C976.131 334.985 977.048 336.203 977.048 337.995C977.048 339.786 976.131 340.976 974.783 340.976ZM980.451 341.879H981.755V336.232C982.544 335.444 983.088 335.042 983.891 335.042C984.923 335.042 985.367 335.659 985.367 337.12V341.879H986.671V336.948C986.671 334.956 985.926 333.896 984.292 333.896C983.232 333.896 982.429 334.483 981.684 335.214H981.641L981.526 334.096H980.451V341.879Z" fill="#212121"/>
<path d="M839.941 318.225H1044.42V316.314H839.941V318.225ZM1051.11 324.914V347.846H1053.02V324.914H1051.11ZM1044.42 354.535H839.941V356.446H1044.42V354.535ZM833.252 347.846V324.914H831.341V347.846H833.252ZM839.941 354.535C836.247 354.535 833.252 351.54 833.252 347.846H831.341C831.341 352.595 835.192 356.446 839.941 356.446V354.535ZM1051.11 347.846C1051.11 351.54 1048.11 354.535 1044.42 354.535V356.446C1049.17 356.446 1053.02 352.595 1053.02 347.846H1051.11ZM1044.42 318.225C1048.11 318.225 1051.11 321.22 1051.11 324.914H1053.02C1053.02 320.164 1049.17 316.314 1044.42 316.314V318.225ZM839.941 316.314C835.192 316.314 831.341 320.164 831.341 324.914H833.252C833.252 321.22 836.247 318.225 839.941 318.225V316.314Z" fill="#EDEFF2"/>
<path d="M832.297 405.214C832.297 400.993 835.719 397.57 839.941 397.57H1044.42C1048.64 397.57 1052.06 400.993 1052.06 405.214V428.147C1052.06 432.368 1048.64 435.791 1044.42 435.791H839.941C835.719 435.791 832.297 432.368 832.297 428.147V405.214Z" fill="white"/>
<circle r="3.82205" transform="matrix(1 0 0 -1 851.408 416.682)" fill="#2F80ED"/>
<path d="M873.269 419.628H880.679V423.255H881.869V418.668H873.269V419.628ZM877.942 415.157C878.028 414.856 878.085 414.54 878.085 414.182C878.085 413.838 878.028 413.523 877.942 413.222H880.679V415.157H877.942ZM874.774 416.289C873.527 416.289 872.596 415.415 872.596 414.182C872.596 412.978 873.527 412.104 874.774 412.104C876.036 412.104 876.967 412.978 876.967 414.182C876.967 415.415 876.036 416.289 874.774 416.289ZM880.679 410.398V412.276H877.44C876.838 411.545 875.892 411.101 874.774 411.101C872.882 411.101 871.478 412.376 871.478 414.182C871.478 416.002 872.882 417.292 874.774 417.292C875.892 417.292 876.824 416.848 877.426 416.117H880.679V417.966H881.869V410.384L880.679 410.398ZM891.285 413.938V414.899H893.864V419.815H895.054V410.398H893.864V413.938H891.285ZM892.044 416.963C890.181 416.303 888.92 414.698 888.92 413.021V412.39H891.743V411.43H884.878V412.39H887.744V413.035C887.744 414.856 886.411 416.561 884.505 417.249L885.121 418.167C886.626 417.622 887.802 416.432 888.361 414.97C888.92 416.289 890.023 417.364 891.457 417.88L892.044 416.963ZM888.017 421.993V418.983H886.827V422.954H895.412V421.993H888.017ZM900.342 412.72H902.449V418.969C901.746 418.998 901.03 419.026 900.342 419.041V412.72ZM903.595 412.72H904.971V411.774H897.819V412.72H899.195V419.055C898.593 419.069 898.02 419.069 897.489 419.069L897.633 420.058C899.897 420.058 902.95 420.015 905.645 419.585L905.559 418.711C904.928 418.797 904.269 418.855 903.595 418.898V412.72ZM909.658 415.529H907.537V410.398H906.361V423.24H907.537V416.504H909.658V415.529Z" fill="#212121"/>
<path d="M839.941 398.526H1044.42V396.615H839.941V398.526ZM1051.11 405.214V428.147H1053.02V405.214H1051.11ZM1044.42 434.835H839.941V436.746H1044.42V434.835ZM833.252 428.147V405.214H831.341V428.147H833.252ZM839.941 434.835C836.247 434.835 833.252 431.841 833.252 428.147H831.341C831.341 432.896 835.192 436.746 839.941 436.746V434.835ZM1051.11 428.147C1051.11 431.841 1048.11 434.835 1044.42 434.835V436.746C1049.17 436.746 1053.02 432.896 1053.02 428.147H1051.11ZM1044.42 398.526C1048.11 398.526 1051.11 401.52 1051.11 405.214H1053.02C1053.02 400.465 1049.17 396.615 1044.42 396.615V398.526ZM839.941 396.615C835.192 396.615 831.341 400.465 831.341 405.214H833.252C833.252 401.52 836.247 398.526 839.941 398.526V396.615Z" fill="#EDEFF2"/>
<path d="M832.297 485.441C832.297 481.219 835.719 477.797 839.941 477.797H1044.42C1048.64 477.797 1052.06 481.219 1052.06 485.441V508.373C1052.06 512.595 1048.64 516.017 1044.42 516.017H839.941C835.719 516.017 832.297 512.595 832.297 508.373V485.441Z" fill="white"/>
<circle r="3.82205" transform="matrix(1 0 0 -1 851.408 496.908)" fill="#2F80ED"/>
<path d="M873.542 494.824C873.542 493.348 875.047 492.388 877.096 492.388C879.146 492.388 880.636 493.348 880.636 494.824C880.636 496.301 879.146 497.261 877.096 497.261C875.047 497.261 873.542 496.301 873.542 494.824ZM877.684 500.844V498.164C880.077 497.992 881.754 496.716 881.754 494.824C881.754 492.775 879.805 491.456 877.096 491.456C874.373 491.456 872.409 492.775 872.409 494.824C872.409 496.716 874.101 497.992 876.494 498.164V500.844H871.263V501.819H882.944V500.844H877.684ZM893.52 493.534H885.881V496.945H894.997V496H887.056V494.423H894.71V491.112H885.838V492.058H893.52V493.534ZM896.115 498.278H884.448V499.224H887.486V503.481H888.662V499.224H891.901V503.481H893.076V499.224H896.115V498.278ZM899.639 499.855H907.049V503.481H908.239V498.895H899.639V499.855ZM904.312 495.383C904.398 495.082 904.455 494.767 904.455 494.409C904.455 494.065 904.398 493.749 904.312 493.448H907.049V495.383H904.312ZM901.144 496.516C899.897 496.516 898.966 495.641 898.966 494.409C898.966 493.205 899.897 492.33 901.144 492.33C902.406 492.33 903.337 493.205 903.337 494.409C903.337 495.641 902.406 496.516 901.144 496.516ZM907.049 490.625V492.502H903.81C903.208 491.771 902.262 491.327 901.144 491.327C899.252 491.327 897.848 492.603 897.848 494.409C897.848 496.229 899.252 497.519 901.144 497.519C902.262 497.519 903.194 497.074 903.796 496.344H907.049V498.192H908.239V490.61L907.049 490.625ZM917.654 494.165V495.125H920.234V500.041H921.424V490.625H920.234V494.165H917.654ZM918.414 497.189C916.551 496.53 915.29 494.925 915.29 493.248V492.617H918.113V491.657H911.248V492.617H914.114V493.262C914.114 495.082 912.781 496.788 910.875 497.476L911.491 498.393C912.996 497.848 914.172 496.659 914.731 495.197C915.29 496.516 916.393 497.59 917.826 498.106L918.414 497.189ZM914.387 502.22V499.21H913.197V503.18H921.782V502.22H914.387ZM926.712 492.947H928.818V499.196C928.116 499.224 927.4 499.253 926.712 499.267V492.947ZM929.965 492.947H931.341V492.001H924.189V492.947H925.565V499.282C924.963 499.296 924.39 499.296 923.859 499.296L924.003 500.285C926.267 500.285 929.32 500.242 932.015 499.812L931.929 498.938C931.298 499.024 930.639 499.081 929.965 499.124V492.947ZM936.028 495.756H933.907V490.625H932.731V503.467H933.907V496.731H936.028V495.756ZM938.592 493.921C938.592 492.818 939.51 492.015 940.756 492.015C942.018 492.015 942.935 492.818 942.935 493.921C942.935 495.054 942.018 495.842 940.756 495.842C939.51 495.842 938.592 495.054 938.592 493.921ZM944.082 493.921C944.082 492.244 942.691 491.069 940.756 491.069C938.836 491.069 937.446 492.244 937.446 493.921C937.446 495.627 938.836 496.802 940.756 496.802C942.691 496.802 944.082 495.627 944.082 493.921ZM940.198 500.916H947.178V497.762H939.008V498.694H946.017V500.041H939.051V503.295H947.651V502.349H940.198V500.916ZM947.178 493.377V490.61H946.002V497.16H947.178V494.351H949.084V493.377H947.178ZM959.46 493.176C959.46 494.724 959.46 496.53 958.972 498.995L960.147 499.124C960.635 496.53 960.635 494.767 960.635 493.176V491.9H951.62V492.861H959.46V493.176ZM956.091 500.701V496.1H954.916V500.701H950.401V501.661H962.025V500.701H956.091ZM965.492 496.387H970.237V491.8H964.274V492.76H969.047V495.441H964.317V500.371H965.378C967.585 500.371 969.534 500.285 971.856 499.898L971.742 498.938C969.491 499.296 967.599 499.396 965.492 499.396V496.387ZM972.945 490.596V503.481H974.121V490.596H972.945ZM977.832 495.856C979.939 495.598 981.859 494.667 982.576 493.262C983.278 494.667 985.213 495.598 987.32 495.856L987.736 494.925C985.457 494.681 983.379 493.563 983.336 492.115H987.334V491.169H977.832V492.115H981.816C981.773 493.563 979.695 494.681 977.416 494.925L977.832 495.856ZM979.337 499.898H985.815V502.349H979.337V499.898ZM978.19 503.295H986.962V498.966H978.19V503.295ZM976.757 496.63V497.576H988.381V496.63H976.757Z" fill="#212121"/>
<path d="M839.941 478.752H1044.42V476.841H839.941V478.752ZM1051.11 485.441V508.373H1053.02V485.441H1051.11ZM1044.42 515.062H839.941V516.973H1044.42V515.062ZM833.252 508.373V485.441H831.341V508.373H833.252ZM839.941 515.062C836.247 515.062 833.252 512.067 833.252 508.373H831.341C831.341 513.123 835.192 516.973 839.941 516.973V515.062ZM1051.11 508.373C1051.11 512.067 1048.11 515.062 1044.42 515.062V516.973C1049.17 516.973 1053.02 513.123 1053.02 508.373H1051.11ZM1044.42 478.752C1048.11 478.752 1051.11 481.747 1051.11 485.441H1053.02C1053.02 480.692 1049.17 476.841 1044.42 476.841V478.752ZM839.941 476.841C835.192 476.841 831.341 480.692 831.341 485.441H833.252C833.252 481.747 836.247 478.752 839.941 478.752V476.841Z" fill="#EDEFF2"/>
<path d="M555.197 405.175C555.197 400.954 558.62 397.531 562.841 397.531H767.321C771.543 397.531 774.965 400.954 774.965 405.175V428.108C774.965 432.329 771.543 435.752 767.321 435.752H562.841C558.62 435.752 555.197 432.329 555.197 428.108V405.175Z" fill="#FAFAFC"/>
<circle r="3.82205" transform="matrix(1 0 0 -1 574.308 416.643)" fill="#6F7075"/>
<path d="M598.334 419.36C597.144 419.36 596.285 418.529 596.285 417.368C596.285 416.221 597.144 415.39 598.334 415.39C599.524 415.39 600.398 416.221 600.398 417.368C600.398 418.529 599.524 419.36 598.334 419.36ZM598.334 414.415C596.499 414.415 595.167 415.634 595.167 417.368C595.167 419.131 596.499 420.335 598.334 420.335C600.197 420.335 601.516 419.131 601.516 417.368C601.516 415.634 600.197 414.415 598.334 414.415ZM598.907 410.474H597.732V412.423H594.464V413.383H602.175V412.423H598.907V410.474ZM603.523 410.345V423.201H604.698V410.345H603.523ZM617.653 414.473H610V411.85H617.539V410.889H608.824V415.419H617.653V414.473ZM610.028 419.145H608.853V422.9H617.768V421.94H610.028V419.145ZM607.363 416.838V417.783H618.986V416.838H607.363ZM622.11 416.221H625.55V411.764H620.934V412.724H624.417V415.29H620.977V420.048H621.823C623.457 420.048 624.919 419.976 626.711 419.675L626.61 418.715C624.962 419.002 623.572 419.059 622.11 419.059V416.221ZM627.743 414.96H626.152V415.935H627.743V422.528H628.846V410.66H627.743V414.96ZM630.337 410.345V423.201H631.469V410.345H630.337ZM643.077 410.345V423.23H644.253V410.345H643.077ZM637.473 411.334C635.567 411.334 634.205 413.082 634.205 415.82C634.205 418.557 635.567 420.306 637.473 420.306C639.38 420.306 640.741 418.557 640.741 415.82C640.741 413.082 639.38 411.334 637.473 411.334ZM637.473 412.394C638.72 412.394 639.609 413.742 639.609 415.82C639.609 417.912 638.72 419.26 637.473 419.26C636.212 419.26 635.323 417.912 635.323 415.82C635.323 413.742 636.212 412.394 637.473 412.394ZM650.357 419.26C649.125 419.26 648.265 417.912 648.265 415.82C648.265 413.742 649.125 412.394 650.357 412.394C651.576 412.394 652.436 413.742 652.436 415.82C652.436 417.912 651.576 419.26 650.357 419.26ZM656.334 410.345V415.247H653.539C653.353 412.839 652.092 411.334 650.357 411.334C648.48 411.334 647.147 413.082 647.147 415.82C647.147 418.557 648.48 420.306 650.357 420.306C652.149 420.306 653.424 418.729 653.539 416.207H656.334V423.23H657.509V410.345H656.334Z" fill="#6F7075"/>
<path d="M562.841 398.487H767.321V396.576H562.841V398.487ZM774.01 405.175V428.108H775.921V405.175H774.01ZM767.321 434.796H562.841V436.707H767.321V434.796ZM556.153 428.108V405.175H554.242V428.108H556.153ZM562.841 434.796C559.147 434.796 556.153 431.802 556.153 428.108H554.242C554.242 432.857 558.092 436.707 562.841 436.707V434.796ZM774.01 428.108C774.01 431.802 771.015 434.796 767.321 434.796V436.707C772.071 436.707 775.921 432.857 775.921 428.108H774.01ZM767.321 398.487C771.015 398.487 774.01 401.481 774.01 405.175H775.921C775.921 400.426 772.071 396.576 767.321 396.576V398.487ZM562.841 396.576C558.092 396.576 554.242 400.426 554.242 405.175H556.153C556.153 401.481 559.147 398.487 562.841 398.487V396.576Z" fill="#EDEFF2"/>
<rect x="32" y="276" width="1052" height="276" rx="8" fill="url(#paint0_linear_2449_227516)"/>
</g>
<path d="M551.464 63.121L553.929 59.347C554.286 58.701 554.626 58.055 554.932 57.409H555C554.966 58.106 554.915 59.16 554.915 59.84V63.121H551.464ZM554.915 68H556.751V64.634H558.332V63.121H556.751V55.471H554.473L549.492 63.325V64.634H554.915V68ZM506.042 93.062V90.172H510.581V88.778H501.724V86.772H510.105V85.395H501.724V83.542H510.445V82.114H499.939V90.172H504.274V93.062H498.222V94.507H512.128V93.062H506.042ZM517.601 83.559H519.709V87.996C519.012 88.03 518.281 88.047 517.601 88.064V83.559ZM523.449 87.707C522.786 87.792 522.106 87.843 521.409 87.894V83.559H522.769V82.148H514.524V83.559H515.918V88.081C515.289 88.081 514.677 88.081 514.116 88.081L514.32 89.526C516.972 89.526 520.491 89.475 523.568 88.982L523.449 87.707ZM516.156 92.416H524.758V96.326H526.509V91.005H516.156V92.416ZM524.758 80.958V90.291H526.509V80.958H524.758ZM532.764 83.576H540.074V88.132H532.764V83.576ZM537.303 92.994V89.526H541.791V82.182H531.047V89.526H535.552V92.994H529.5V94.422H543.406V92.994H537.303ZM558.211 80.958H556.545V89.067H558.211V80.958ZM550.799 84.273V85.633H553.553V88.948H555.185V81.247H553.553V84.273H550.799ZM552.278 86.738C550.748 87.01 549.456 87.078 547.552 87.095V83.168H551.7V81.774H545.818V88.489H546.838C549.201 88.489 550.646 88.455 552.414 88.132L552.278 86.738ZM549.643 94.745V93.487H558.211V89.679H547.875V91.039H556.477V92.195H547.909V96.122H558.721V94.745H549.643ZM573.425 80.958H571.674V90.359H573.425V80.958ZM570.076 87.656C567.849 88.03 565.928 88.115 563.293 88.115V86.33H568.546V81.893H561.525V83.304H566.829V85.004H561.559V89.543H562.851C565.792 89.543 567.866 89.475 570.28 89.084L570.076 87.656ZM568.325 94.932C566.132 94.932 564.874 94.422 564.874 93.487C564.874 92.535 566.132 92.025 568.325 92.025C570.535 92.025 571.776 92.535 571.776 93.487C571.776 94.422 570.535 94.932 568.325 94.932ZM568.325 90.648C565.095 90.648 563.14 91.702 563.14 93.487C563.14 95.272 565.095 96.326 568.325 96.326C571.555 96.326 573.527 95.272 573.527 93.487C573.527 91.702 571.555 90.648 568.325 90.648ZM591.199 88.829H592.95V80.941H591.199V83.508H588.088V84.919H591.199V88.829ZM589.295 87.214C587 86.466 585.674 84.664 585.674 82.726V81.434H583.923V82.726C583.923 84.834 582.58 86.755 580.183 87.537L581.084 88.914C582.886 88.285 584.161 87.044 584.841 85.446C585.487 86.874 586.711 88.013 588.377 88.574L589.295 87.214ZM584.722 94.745V93.436H592.95V89.56H582.954V90.92H591.216V92.144H582.988V96.122H593.477V94.745H584.722ZM601.942 87.622H598.253V83.491H601.942V87.622ZM606.838 84.749V86.364H603.642V84.749H606.838ZM603.642 87.792H606.838V90.002H608.589V80.958H606.838V83.321H603.642V82.097H596.536V89.016H603.642V87.792ZM603.472 94.949C601.296 94.949 600.055 94.388 600.055 93.368C600.055 92.365 601.296 91.804 603.472 91.804C605.648 91.804 606.906 92.365 606.906 93.368C606.906 94.388 605.648 94.949 603.472 94.949ZM603.472 90.427C600.276 90.427 598.304 91.515 598.304 93.368C598.304 95.221 600.276 96.309 603.472 96.309C606.685 96.309 608.657 95.221 608.657 93.368C608.657 91.515 606.685 90.427 603.472 90.427Z" fill="#212121"/>
<path d="M389.489 137.956C386.585 137.956 384.957 137.318 384.957 136.086C384.957 134.876 386.585 134.216 389.489 134.216C392.393 134.216 394.043 134.876 394.043 136.086C394.043 137.318 392.393 137.956 389.489 137.956ZM389.489 132.478C385.243 132.478 382.647 133.798 382.647 136.086C382.647 138.396 385.243 139.716 389.489 139.716C393.757 139.716 396.331 138.396 396.331 136.086C396.331 133.798 393.757 132.478 389.489 132.478ZM390.677 129.42V127.44H396.463V125.614H385.045V122.512H396.331V120.708H382.801V127.44H388.411V129.42H380.579V131.268H398.531V129.42H390.677ZM407.197 121.214C404.095 121.214 401.807 123.172 401.807 125.988C401.807 128.804 404.095 130.762 407.197 130.762C410.299 130.762 412.609 128.804 412.609 125.988C412.609 123.172 410.299 121.214 407.197 121.214ZM407.197 123.15C409.045 123.15 410.387 124.25 410.387 125.988C410.387 127.704 409.045 128.826 407.197 128.826C405.371 128.826 404.029 127.704 404.029 125.988C404.029 124.25 405.371 123.15 407.197 123.15ZM414.853 119.806V139.716H417.141V119.806H414.853ZM401.169 135.514C404.689 135.514 409.441 135.47 413.819 134.634L413.665 132.984C409.397 133.622 404.447 133.644 400.883 133.644L401.169 135.514ZM426.379 133.27C424.685 133.27 423.519 131.422 423.519 128.276C423.519 125.196 424.685 123.326 426.379 123.326C428.095 123.326 429.261 125.196 429.261 128.276C429.261 131.422 428.095 133.27 426.379 133.27ZM435.245 119.806V127.22H431.373C431.065 123.568 429.041 121.28 426.379 121.28C423.453 121.28 421.363 124.008 421.363 128.276C421.363 132.588 423.453 135.294 426.379 135.294C429.107 135.294 431.131 132.918 431.395 129.068H435.245V139.738H437.533V119.806H435.245ZM444.043 125.834C444.043 124.096 445.363 122.996 447.167 122.996C448.971 122.996 450.269 124.096 450.269 125.834C450.269 127.572 448.971 128.65 447.167 128.65C445.363 128.65 444.043 127.572 444.043 125.834ZM448.311 130.498C450.775 130.058 452.469 128.276 452.469 125.834C452.469 123.018 450.225 121.06 447.167 121.06C444.109 121.06 441.843 123.018 441.843 125.834C441.843 128.276 443.581 130.08 446.045 130.52V133.644C444.263 133.688 442.547 133.688 441.051 133.688L441.359 135.558C444.769 135.558 449.323 135.536 453.481 134.81L453.283 133.138C451.699 133.358 450.005 133.49 448.311 133.556V130.498ZM459.619 127.836H456.715V119.828H454.449V139.672H456.715V129.728H459.619V127.836ZM468.871 126.098C468.871 124.294 470.169 123.062 471.907 123.062C473.601 123.062 474.899 124.294 474.899 126.098C474.899 127.946 473.601 129.178 471.907 129.178C470.169 129.178 468.871 127.946 468.871 126.098ZM480.641 124.624V127.572H476.835C476.989 127.11 477.055 126.626 477.055 126.098C477.055 125.57 476.989 125.086 476.835 124.624H480.641ZM480.641 129.42V134.458H482.907V119.85H480.641V122.776H475.867C474.943 121.72 473.535 121.06 471.907 121.06C468.959 121.06 466.715 123.172 466.715 126.098C466.715 129.024 468.959 131.136 471.907 131.136C473.535 131.158 474.943 130.498 475.867 129.42H480.641ZM472.303 137.472V132.984H470.037V139.32H483.413V137.472H472.303ZM497.183 128.342C497.667 125.768 497.667 123.81 497.667 122.468V121.324H487.679V123.172H495.445C495.423 124.404 495.357 125.966 494.961 128.1L497.183 128.342ZM498.833 129.332C496.875 129.64 494.741 129.772 492.673 129.86V125.856H490.429V129.926C489.021 129.97 487.657 129.97 486.469 129.97L486.711 131.818C490.165 131.818 494.851 131.708 498.987 130.982L498.833 129.332ZM491.749 133.424H489.461V139.32H502.969V137.472H491.749V133.424ZM502.331 126.12V119.828H500.043V134.744H502.331V127.99H504.971V126.12H502.331ZM512.274 133.27C510.58 133.27 509.414 131.422 509.414 128.276C509.414 125.196 510.58 123.326 512.274 123.326C513.99 123.326 515.156 125.196 515.156 128.276C515.156 131.422 513.99 133.27 512.274 133.27ZM521.14 119.806V127.22H517.268C516.96 123.568 514.936 121.28 512.274 121.28C509.348 121.28 507.258 124.008 507.258 128.276C507.258 132.588 509.348 135.294 512.274 135.294C515.002 135.294 517.026 132.918 517.29 129.068H521.14V139.738H523.428V119.806H521.14ZM540.652 123.216H529.454V127.682H543.248V126.098H531.676V124.69H542.896V120.312H529.41V121.874H540.652V123.216ZM531.522 136.394H542.962V131.95H529.234V133.512H540.718V134.92H529.278V139.474H543.556V137.912H531.522V136.394ZM527.144 128.936V130.608H545.162V128.936H527.144ZM564.028 121.5H559.518V119.652H557.23V121.5H552.676V123.15H564.028V121.5ZM555.756 126.736C555.756 125.834 556.768 125.284 558.352 125.284C559.936 125.284 560.948 125.834 560.948 126.736C560.948 127.616 559.936 128.144 558.352 128.144C556.768 128.144 555.756 127.616 555.756 126.736ZM564.578 130.388C562.972 130.63 561.234 130.74 559.518 130.828V129.596C561.718 129.332 563.082 128.298 563.082 126.736C563.082 124.888 561.212 123.766 558.352 123.766C555.492 123.766 553.622 124.888 553.622 126.736C553.622 128.298 554.986 129.354 557.23 129.596V130.916C555.404 130.96 553.666 130.96 552.17 130.96L552.434 132.764C555.91 132.742 560.552 132.72 564.754 131.972L564.578 130.388ZM554.634 135.954H565.634V139.716H567.9V134.15H554.634V135.954ZM570.628 125.702H567.9V119.85H565.634V133.27H567.9V127.572H570.628V125.702ZM588.952 119.828H586.686V134.26H588.952V119.828ZM575.18 126.12C575.18 124.294 576.478 123.106 578.238 123.106C579.976 123.106 581.296 124.294 581.296 126.12C581.296 127.924 579.976 129.134 578.238 129.134C576.478 129.134 575.18 127.924 575.18 126.12ZM583.496 126.12C583.496 123.216 581.23 121.148 578.238 121.148C575.246 121.148 572.958 123.216 572.958 126.12C572.958 129.002 575.246 131.092 578.238 131.092C581.23 131.092 583.496 129.002 583.496 126.12ZM578.26 137.472V132.808H575.972V139.32H589.524V137.472H578.26ZM604.57 121.5H599.84V119.63H597.574V121.5H592.844V123.216H604.57V121.5ZM596.056 127.176C596.056 126.142 597.09 125.548 598.696 125.548C600.324 125.548 601.358 126.142 601.358 127.176C601.358 128.188 600.324 128.782 598.696 128.782C597.09 128.782 596.056 128.188 596.056 127.176ZM603.514 127.176C603.514 125.152 601.622 123.898 598.696 123.898C595.792 123.898 593.878 125.152 593.878 127.176C593.878 129.178 595.792 130.41 598.696 130.41C601.622 130.41 603.514 129.178 603.514 127.176ZM597.772 136.262H608.332V131.576H595.506V133.248H606.088V134.678H595.55V139.518H608.992V137.824H597.772V136.262ZM608.332 124.316V119.784H606.066V130.674H608.332V126.186H611.148V124.316H608.332ZM635.184 127.154C631.18 126.582 628.188 124.096 628.188 121.522V120.466H625.79V121.522C625.79 124.14 622.842 126.582 618.794 127.154L619.674 128.98C622.974 128.452 625.724 126.802 627 124.492C628.298 126.78 631.004 128.452 634.304 128.98L635.184 127.154ZM635.954 130.85H618.002V132.698H625.79V139.716H628.056V132.698H635.954V130.85ZM659.55 119.85H657.284V131.136H659.55V119.85ZM648.836 122.798C650.596 122.798 651.894 123.92 651.894 125.614C651.894 127.33 650.596 128.43 648.836 128.43C647.076 128.43 645.778 127.33 645.778 125.614C645.778 123.92 647.076 122.798 648.836 122.798ZM648.836 130.3C651.872 130.3 654.094 128.386 654.094 125.614C654.094 122.842 651.872 120.928 648.836 120.928C645.8 120.928 643.556 122.842 643.556 125.614C643.556 128.386 645.8 130.3 648.836 130.3ZM657.438 131.994H655.216V132.874C655.216 134.37 654.38 136.24 652.62 137.428C650.882 136.328 650.112 134.546 650.112 132.874V131.994H647.912V132.874C647.912 134.81 646.592 136.856 644.062 137.758L645.162 139.43C647.01 138.748 648.286 137.472 649.012 135.91C649.628 137.516 650.794 138.88 652.664 139.606C654.468 138.858 655.656 137.428 656.294 135.866C656.976 137.472 658.274 138.748 660.188 139.43L661.31 137.758C658.736 136.922 657.438 134.92 657.438 132.874V131.994ZM680.426 125.768C676.488 125.262 673.562 123.084 673.562 120.796V120.026H671.23V120.796C671.23 123.106 668.348 125.262 664.366 125.768L665.202 127.528C668.436 127.088 671.12 125.592 672.396 123.524C673.694 125.592 676.378 127.088 679.612 127.528L680.426 125.768ZM676.818 137.648H667.864V135.514H676.818V137.648ZM676.818 133.776H667.864V131.752H665.62V139.452H679.084V131.752H676.818V133.776ZM663.398 128.716V130.52H681.394V128.716H663.398ZM687.068 121.764H684.824V134.678H686.518C689.598 134.678 692.81 134.436 696.22 133.732L695.978 131.84C692.854 132.478 689.884 132.72 687.068 132.742V121.764ZM697.804 119.828V139.694H700.07V119.828H697.804ZM706.954 123.546H713.928V121.698H704.688V134.832H706.316C709.902 134.832 712.586 134.722 715.6 134.172L715.358 132.302C712.586 132.786 710.166 132.918 706.954 132.94V123.546ZM722.376 127.462H719.274V119.806H717.008V139.716H719.274V129.332H722.376V127.462ZM726.291 138.286C727.237 138.286 727.985 137.56 727.985 136.526C727.985 135.47 727.237 134.722 726.291 134.722C725.345 134.722 724.597 135.47 724.597 136.526C724.597 137.56 725.345 138.286 726.291 138.286Z" fill="#212121"/>
<line x1="273" y1="225" x2="437" y2="225" stroke="#B4B5B8" stroke-width="2"/>
<path d="M459.855 229.97C457.875 229.97 456.765 229.535 456.765 228.695C456.765 227.87 457.875 227.42 459.855 227.42C461.835 227.42 462.96 227.87 462.96 228.695C462.96 229.535 461.835 229.97 459.855 229.97ZM459.855 226.235C456.96 226.235 455.19 227.135 455.19 228.695C455.19 230.27 456.96 231.17 459.855 231.17C462.765 231.17 464.52 230.27 464.52 228.695C464.52 227.135 462.765 226.235 459.855 226.235ZM460.665 224.15V222.8H464.61V221.555H456.825V219.44H464.52V218.21H455.295V222.8H459.12V224.15H453.78V225.41H466.02V224.15H460.665ZM471.929 218.555C469.814 218.555 468.254 219.89 468.254 221.81C468.254 223.73 469.814 225.065 471.929 225.065C474.044 225.065 475.619 223.73 475.619 221.81C475.619 219.89 474.044 218.555 471.929 218.555ZM471.929 219.875C473.189 219.875 474.104 220.625 474.104 221.81C474.104 222.98 473.189 223.745 471.929 223.745C470.684 223.745 469.769 222.98 469.769 221.81C469.769 220.625 470.684 219.875 471.929 219.875ZM477.149 217.595V231.17H478.709V217.595H477.149ZM467.819 228.305C470.219 228.305 473.459 228.275 476.444 227.705L476.339 226.58C473.429 227.015 470.054 227.03 467.624 227.03L467.819 228.305ZM485.008 226.775C483.853 226.775 483.058 225.515 483.058 223.37C483.058 221.27 483.853 219.995 485.008 219.995C486.178 219.995 486.973 221.27 486.973 223.37C486.973 225.515 486.178 226.775 485.008 226.775ZM491.053 217.595V222.65H488.413C488.203 220.16 486.823 218.6 485.008 218.6C483.013 218.6 481.588 220.46 481.588 223.37C481.588 226.31 483.013 228.155 485.008 228.155C486.868 228.155 488.248 226.535 488.428 223.91H491.053V231.185H492.613V217.595H491.053Z" fill="#6F7075"/>
<line x1="614" y1="225" x2="778" y2="225" stroke="#B4B5B8" stroke-width="2" stroke-dasharray="4 4"/>
<path d="M796.415 221.885C796.415 220.655 797.3 219.815 798.485 219.815C799.64 219.815 800.525 220.655 800.525 221.885C800.525 223.145 799.64 223.985 798.485 223.985C797.3 223.985 796.415 223.145 796.415 221.885ZM804.44 220.88V222.89H801.845C801.95 222.575 801.995 222.245 801.995 221.885C801.995 221.525 801.95 221.195 801.845 220.88H804.44ZM804.44 224.15V227.585H805.985V217.625H804.44V219.62H801.185C800.555 218.9 799.595 218.45 798.485 218.45C796.475 218.45 794.945 219.89 794.945 221.885C794.945 223.88 796.475 225.32 798.485 225.32C799.595 225.335 800.555 224.885 801.185 224.15H804.44ZM798.755 229.64V226.58H797.21V230.9H806.33V229.64H798.755ZM815.719 223.415C816.049 221.66 816.049 220.325 816.049 219.41V218.63H809.239V219.89H814.534C814.519 220.73 814.474 221.795 814.204 223.25L815.719 223.415ZM816.844 224.09C815.509 224.3 814.054 224.39 812.644 224.45V221.72H811.114V224.495C810.154 224.525 809.224 224.525 808.414 224.525L808.579 225.785C810.934 225.785 814.129 225.71 816.949 225.215L816.844 224.09ZM812.014 226.88H810.454V230.9H819.664V229.64H812.014V226.88ZM819.229 221.9V217.61H817.669V227.78H819.229V223.175H821.029V221.9H819.229ZM826.008 226.775C824.853 226.775 824.058 225.515 824.058 223.37C824.058 221.27 824.853 219.995 826.008 219.995C827.178 219.995 827.973 221.27 827.973 223.37C827.973 225.515 827.178 226.775 826.008 226.775ZM832.053 217.595V222.65H829.413C829.203 220.16 827.823 218.6 826.008 218.6C824.013 218.6 822.588 220.46 822.588 223.37C822.588 226.31 824.013 228.155 826.008 228.155C827.868 228.155 829.248 226.535 829.428 223.91H832.053V231.185H833.613V217.595H832.053Z" fill="#6F7075"/>
<defs>
<linearGradient id="paint0_linear_2449_227516" x1="558.507" y1="287.138" x2="558.507" y2="598.724" gradientUnits="userSpaceOnUse">
<stop stop-color="white"/>
<stop offset="0.175251" stop-color="white" stop-opacity="0"/>
<stop offset="0.675041" stop-color="white" stop-opacity="0"/>
<stop offset="0.837591" stop-color="white"/>
</linearGradient>
<clipPath id="clip0_2449_227516">
<rect width="15.2882" height="15.2882" fill="white" transform="translate(190.127 328.734)"/>
</clipPath>
</defs>
</svg>
