<svg width="278" height="78" viewBox="0 0 278 78" fill="none" xmlns="http://www.w3.org/2000/svg">
<g clip-path="url(#clip0_95_16300)">
<path d="M100.963 40.9824V39.8397H93.9512V37.9537H110.417V39.8397H103.433V40.9824C104.28 41.2503 105.026 41.7684 105.574 42.4691C106.145 43.1825 106.45 44.0734 106.438 44.9884C106.442 45.5404 106.332 46.087 106.115 46.5941C105.897 47.1012 105.578 47.5575 105.176 47.9343C104.369 48.7206 103.288 49.1605 102.164 49.1605C101.039 49.1605 99.9584 48.7206 99.1517 47.9343C98.7497 47.5575 98.43 47.1012 98.2127 46.5941C97.9954 46.087 97.8854 45.5404 97.8894 44.9884C97.877 44.0734 98.1825 43.1825 98.7537 42.4691C99.2986 41.7652 100.046 41.2463 100.894 40.9824H100.963ZM100.894 31.5525H95.8037V29.6665H108.606V31.5525H103.515C103.593 32.1885 103.889 32.7775 104.352 33.2182C104.832 33.6756 105.396 34.0356 106.013 34.2782C106.563 34.5119 107.139 34.6827 107.728 34.7875C108.299 34.8938 108.877 34.9628 109.457 34.9941C109.539 34.9941 109.567 34.9941 109.567 34.9941C109.577 35.0393 109.577 35.0864 109.567 35.1317L108.482 36.6184C107.859 36.6156 107.237 36.5417 106.63 36.3981C105.978 36.2626 105.343 36.0549 104.737 35.7787C104.252 35.5511 103.792 35.2744 103.364 34.9527C102.974 34.6663 102.643 34.3062 102.39 33.8927C102.355 33.8801 102.316 33.8801 102.28 33.8927C102.24 33.8828 102.197 33.8828 102.157 33.8927C101.92 34.3262 101.58 34.6948 101.169 34.9665C100.69 35.3034 100.174 35.5851 99.6321 35.8062C99.0382 36.0422 98.4283 36.2355 97.807 36.3845C97.2294 36.5381 96.6345 36.6167 96.0369 36.6184L94.9528 35.1317C94.9411 35.0819 94.9411 35.0301 94.9528 34.9803C94.9528 34.9803 94.9529 34.9803 95.0764 34.9803C95.7494 34.9313 96.4185 34.8392 97.0797 34.7049C97.738 34.5791 98.3756 34.3614 98.9735 34.0579C99.4883 33.804 99.9532 33.4589 100.346 33.0392C100.717 32.6194 100.952 32.0959 101.018 31.5387L100.894 31.5525ZM102.321 42.717C102.058 42.7259 101.8 42.7906 101.563 42.9068C101.327 43.0231 101.118 43.1883 100.949 43.3915C100.551 43.8218 100.33 44.3874 100.33 44.9747C100.33 45.5619 100.551 46.1273 100.949 46.5576C101.118 46.7609 101.327 46.926 101.563 47.0423C101.8 47.1586 102.058 47.2234 102.321 47.2323C102.584 47.2217 102.842 47.1561 103.078 47.0399C103.315 46.9238 103.524 46.7595 103.694 46.5576C104.092 46.1273 104.313 45.5619 104.313 44.9747C104.313 44.3874 104.092 43.8218 103.694 43.3915C103.518 43.1699 103.294 42.9905 103.04 42.8667C102.786 42.7428 102.508 42.6775 102.225 42.6756L102.321 42.717Z" fill="#727171"/>
<path d="M119.748 44.7405H126.705V46.6265H110.156V44.7405H117.305V41.8496C117.316 41.6418 117.253 41.4369 117.127 41.2714C117.07 41.2024 116.999 41.147 116.918 41.1089C116.838 41.0708 116.749 41.0509 116.66 41.0511H116.386V40.0324H119.748V44.7405ZM117.223 32.1719C117.234 32.0419 117.217 31.911 117.175 31.7877C117.132 31.6644 117.064 31.5514 116.976 31.456C116.911 31.3853 116.833 31.3283 116.745 31.2881C116.658 31.2479 116.564 31.2256 116.468 31.2221H116.18V30.0793H119.748V32.6123C119.725 33.5211 119.918 34.4223 120.31 35.2417C120.659 35.9315 121.144 36.5425 121.736 37.0373C122.328 37.5321 123.015 37.9001 123.755 38.1188C124.489 38.3426 125.251 38.4586 126.019 38.463C126.101 38.463 126.142 38.463 126.142 38.463C126.136 38.5115 126.111 38.556 126.073 38.587L124.825 40.2251C124.192 40.2155 123.564 40.1183 122.959 39.9361C122.284 39.7366 121.635 39.4594 121.024 39.1101C120.52 38.8159 120.059 38.4547 119.652 38.0363C119.234 37.6418 118.89 37.1756 118.636 36.6597C118.636 36.5358 118.527 36.4669 118.472 36.4669C118.417 36.4669 118.375 36.467 118.293 36.6597C118.021 37.2219 117.643 37.7265 117.182 38.1464C116.721 38.5845 116.204 38.9596 115.645 39.2615C115.069 39.5661 114.462 39.8061 113.834 39.9774C113.275 40.1324 112.698 40.2156 112.118 40.2251L110.87 38.587C110.86 38.551 110.86 38.5128 110.87 38.4768C110.87 38.4768 110.87 38.4768 110.993 38.4768C111.734 38.477 112.47 38.3609 113.175 38.1326C113.883 37.9028 114.547 37.5537 115.137 37.1001C115.793 36.5797 116.326 35.9221 116.701 35.173C117.128 34.2707 117.334 33.2799 117.305 32.2819L117.223 32.1719Z" fill="#727171"/>
<path d="M127.281 42.07C127.281 42.07 127.281 41.9873 127.281 41.9597C127.281 41.9322 127.281 41.9597 127.364 41.9597C128.379 41.7141 129.357 41.3346 130.273 40.831C131.232 40.2893 132.068 39.5532 132.729 38.6696C133.27 37.9001 133.687 37.05 133.964 36.1504C134.296 35.0391 134.453 33.8826 134.43 32.7226H128.297V30.8366H136.667C136.716 30.8187 136.769 30.8187 136.818 30.8366C136.838 30.8898 136.838 30.9486 136.818 31.0018V32.5161C136.847 33.9628 136.619 35.403 136.145 36.7698C135.737 37.9177 135.139 38.9882 134.376 39.9361C133.565 40.9134 132.572 41.7223 131.453 42.3177C130.467 42.8581 129.401 43.2391 128.297 43.4466L127.254 42.1525L127.281 42.07ZM142.485 48.8153H140.248V31.4836C140.243 31.2674 140.177 31.0572 140.056 30.8779C139.996 30.7844 139.913 30.7084 139.814 30.6576C139.715 30.6069 139.605 30.5831 139.494 30.5887H139.11V29.5425H142.485V48.8153Z" fill="#727171"/>
<path d="M156.962 33.4384V31.4011C156.958 31.1849 156.891 30.9745 156.77 30.7953C156.71 30.7017 156.626 30.6257 156.528 30.5749C156.429 30.5242 156.319 30.5005 156.208 30.5062H155.837V29.46H159.268V39.9223H157.017V35.4758H153.779C153.632 36.5904 153.086 37.6131 152.242 38.353C151.405 39.1026 150.318 39.5102 149.196 39.4955C148.579 39.5094 147.967 39.3943 147.398 39.1572C146.828 38.9202 146.314 38.5664 145.889 38.1189C145.01 37.1902 144.52 35.9582 144.52 34.6773C144.52 33.3964 145.01 32.1644 145.889 31.2357C146.315 30.7888 146.829 30.4357 147.398 30.1987C147.967 29.9617 148.58 29.846 149.196 29.8591C150.234 29.8537 151.243 30.2089 152.05 30.8642C152.868 31.5095 153.448 32.4108 153.697 33.4247H156.962V33.4384ZM146.808 34.7048C146.787 35.4678 147.034 36.2138 147.508 36.8111C147.696 37.0837 147.948 37.3066 148.24 37.4605C148.533 37.6143 148.859 37.6947 149.189 37.6947C149.52 37.6947 149.845 37.6143 150.138 37.4605C150.431 37.3066 150.682 37.0837 150.87 36.8111C151.343 36.2138 151.591 35.4678 151.57 34.7048C151.589 33.9381 151.341 33.1887 150.87 32.5849C150.682 32.3123 150.431 32.0895 150.138 31.9356C149.845 31.7817 149.52 31.7014 149.189 31.7014C148.859 31.7014 148.533 31.7817 148.24 31.9356C147.948 32.0895 147.696 32.3123 147.508 32.5849C147.037 33.1887 146.789 33.9381 146.808 34.7048ZM150.157 42.9646H156.935V42.6756C156.943 42.5808 156.931 42.4853 156.9 42.3953C156.87 42.3053 156.821 42.2226 156.756 42.1525C156.63 42.0337 156.463 41.9694 156.29 41.9735H156.084V40.8447H159.268V47.0534C159.301 47.5088 159.164 47.9604 158.883 48.3198C158.743 48.4682 158.572 48.5836 158.383 48.6574C158.193 48.7312 157.989 48.7616 157.786 48.7466H149.388C149.187 48.7596 148.986 48.7281 148.799 48.6543C148.611 48.5806 148.442 48.4663 148.304 48.3198C148.018 47.9624 147.876 47.5106 147.906 47.0534V42.9235C147.913 42.8308 147.901 42.7377 147.87 42.6501C147.839 42.5624 147.791 42.4821 147.728 42.4141C147.667 42.3526 147.594 42.3048 147.514 42.274C147.433 42.2431 147.347 42.2299 147.261 42.2352H147.055V41.0787H150.211V43.0749L150.157 42.9646ZM156.99 44.9471H150.211V46.6403C150.211 46.7917 150.211 46.8743 150.211 46.9018C150.288 46.9229 150.368 46.9229 150.445 46.9018H156.619C156.664 46.9056 156.709 46.9004 156.751 46.8862C156.794 46.872 156.833 46.8492 156.866 46.8193C156.919 46.7428 156.943 46.6502 156.935 46.5576L156.99 44.9471Z" fill="#727171"/>
<path d="M161.119 42.07C161.108 42.0538 161.102 42.0345 161.102 42.0149C161.102 41.9952 161.108 41.9759 161.119 41.9597C161.146 41.9503 161.175 41.9503 161.201 41.9597C162.217 41.7165 163.196 41.3368 164.11 40.831C165.072 40.2931 165.91 39.5563 166.567 38.6696C167.118 37.9041 167.539 37.0531 167.815 36.1504C168.148 35.0391 168.305 33.8826 168.282 32.7226H162.148V30.8366H170.518C170.587 30.8366 170.642 30.8366 170.656 30.8366C170.676 30.8898 170.676 30.9486 170.656 31.0018V32.5161C170.68 33.9636 170.448 35.404 169.97 36.7698C169.561 37.9145 168.967 38.9843 168.213 39.9361C167.401 40.9171 166.403 41.7266 165.277 42.3177C164.295 42.858 163.235 43.239 162.135 43.4466L161.092 42.1525L161.119 42.07ZM176.309 48.8153H174.072V31.4836C174.074 31.2663 174.007 31.0541 173.88 30.8779C173.821 30.7834 173.738 30.7065 173.639 30.6556C173.54 30.6047 173.429 30.5816 173.318 30.5887H172.988V29.5425H176.35L176.309 48.8153Z" fill="#727171"/>
<path d="M184.844 39.7708H177.832V37.94H194.298V39.7708H187.3V41.1475H192.034C192.055 41.1366 192.079 41.1308 192.102 41.1308C192.126 41.1308 192.15 41.1366 192.171 41.1475C192.171 41.1475 192.171 41.2301 192.171 41.3264V45.4563C192.176 45.5613 192.141 45.6642 192.075 45.7454C192.04 45.7831 191.998 45.8125 191.95 45.8316C191.903 45.8506 191.852 45.8589 191.801 45.8556H182.648V46.6953C182.639 46.7146 182.634 46.7357 182.634 46.7572C182.634 46.7787 182.639 46.8 182.648 46.8192C182.693 46.833 182.741 46.833 182.785 46.8192H192.308V48.6638H181.784C181.573 48.6861 181.36 48.6632 181.159 48.5968C180.958 48.5303 180.774 48.4217 180.618 48.2783C180.347 47.8736 180.226 47.3867 180.275 46.9017V45.9106C180.281 45.6948 180.218 45.4828 180.096 45.3049C180.026 45.2207 179.938 45.1541 179.838 45.111C179.737 45.0679 179.629 45.0495 179.52 45.0571H179.341V44.0522H189.825V42.937H179.52V41.1337H184.665V39.7571L184.844 39.7708ZM186.12 34.0027C186.402 34.4515 186.765 34.8438 187.19 35.1592C187.64 35.4892 188.122 35.7707 188.631 35.9989C189.258 36.2602 189.911 36.4539 190.579 36.577C191.153 36.6936 191.737 36.7581 192.322 36.7697L193.694 35.2003C193.71 35.1606 193.71 35.1162 193.694 35.0765C193.694 35.0765 193.694 34.9802 193.612 34.9802C193.043 34.9747 192.474 34.9332 191.91 34.8562C191.255 34.7641 190.611 34.6026 189.989 34.3744C189.275 34.1087 188.622 33.7014 188.068 33.1767C187.794 32.9045 187.581 32.5775 187.441 32.217C187.302 31.8565 187.24 31.4705 187.259 31.0842V29.1157H183.897V30.162H184.089C184.181 30.1618 184.272 30.1843 184.353 30.2275C184.434 30.2707 184.504 30.3332 184.555 30.4097C184.679 30.5815 184.742 30.7899 184.734 31.0017V31.0842C184.769 31.8305 184.513 32.5613 184.02 33.1218C183.534 33.6504 182.933 34.0601 182.264 34.3194C181.635 34.5759 180.975 34.7516 180.302 34.8426C179.675 34.932 179.042 34.978 178.408 34.9802C178.395 34.9777 178.381 34.9784 178.369 34.9824C178.356 34.9863 178.344 34.9934 178.335 35.0029C178.325 35.0124 178.318 35.024 178.314 35.0368C178.31 35.0496 178.31 35.0633 178.312 35.0765C178.301 35.0953 178.296 35.1167 178.296 35.1385C178.296 35.1602 178.301 35.1815 178.312 35.2003L179.616 36.7697C180.243 36.7622 180.868 36.6932 181.482 36.5634C182.168 36.4389 182.836 36.2307 183.471 35.9438C183.96 35.7296 184.421 35.4569 184.844 35.1316C185.244 34.8203 185.584 34.4376 185.846 34.0027C185.846 33.9201 185.955 33.8788 186.024 33.8926C186.092 33.9064 186.271 33.9476 186.298 34.0164L186.12 34.0027Z" fill="#727171"/>
<path d="M199.059 32.158H195.848V30.2858H204.864V32.1442H201.612C201.61 32.9076 201.735 33.666 201.982 34.3881C202.196 34.9732 202.492 35.5249 202.86 36.0264C203.268 36.5906 203.792 37.0601 204.397 37.4031C204.815 37.6532 205.284 37.8038 205.769 37.8435H205.851C205.858 37.8845 205.858 37.9263 205.851 37.9674L204.617 39.4267C203.801 39.26 203.038 38.8961 202.394 38.3666C201.545 37.7879 200.874 36.982 200.459 36.0402C200.451 36.0107 200.435 35.9838 200.413 35.9621C200.392 35.9404 200.365 35.9245 200.335 35.9162C200.335 35.9162 200.24 35.9163 200.212 36.0402C199.822 36.8776 199.249 37.6164 198.537 38.2025C197.825 38.7885 196.99 39.2069 196.096 39.4267L194.86 37.9674C194.851 37.9506 194.846 37.9317 194.846 37.9124C194.846 37.8931 194.851 37.874 194.86 37.8573C194.86 37.8573 194.861 37.8573 194.957 37.8573C195.438 37.821 195.907 37.68 196.329 37.4442C196.926 37.1311 197.446 36.6893 197.852 36.1503C198.245 35.6501 198.551 35.087 198.757 34.4846C199.005 33.7531 199.13 32.9856 199.128 32.2131L199.059 32.158ZM204.85 40.1701C205.446 40.1692 206.036 40.2908 206.584 40.5275C207.131 40.7643 207.625 41.1113 208.033 41.5467C208.452 41.9646 208.784 42.4625 209.007 43.0111C209.231 43.5597 209.343 44.1477 209.337 44.7404C209.346 45.3335 209.235 45.9222 209.011 46.4712C208.787 47.0201 208.454 47.5177 208.033 47.9342C207.403 48.5613 206.602 48.9875 205.731 49.1592C204.86 49.3309 203.958 49.2404 203.138 48.8991C202.318 48.5577 201.618 47.9808 201.124 47.2408C200.63 46.5009 200.365 45.631 200.363 44.7404C200.363 43.544 200.835 42.3962 201.675 41.5476C202.516 40.699 203.657 40.2185 204.85 40.2113V40.1701ZM204.85 42.0835C204.551 42.0818 204.255 42.1493 203.987 42.2806C203.718 42.4119 203.483 42.6036 203.299 42.8407C202.854 43.37 202.624 44.0483 202.655 44.7404C202.632 45.4355 202.861 46.1153 203.299 46.654C203.487 46.8869 203.724 47.0747 203.994 47.2037C204.263 47.3327 204.558 47.3996 204.857 47.3996C205.155 47.3996 205.45 47.3327 205.719 47.2037C205.989 47.0747 206.226 46.8869 206.414 46.654C206.868 46.1232 207.104 45.4391 207.073 44.7404C207.1 44.0465 206.865 43.3679 206.414 42.8407C206.229 42.6025 205.991 42.4104 205.72 42.2791C205.449 42.1478 205.151 42.0808 204.85 42.0835ZM208.006 33.9477V31.4973C208.001 31.2811 207.934 31.0707 207.814 30.8914C207.753 30.7979 207.67 30.7221 207.571 30.6713C207.472 30.6206 207.362 30.5967 207.251 30.6024H206.881V29.5562H210.256V40.3627H208.006V35.7923H204.246V33.8788L208.006 33.9477Z" fill="#727171"/>
<path d="M221.138 44.7543H228.191V46.6403H211.656V44.7543H218.791V42.9234C218.802 42.7156 218.739 42.5107 218.613 42.3452C218.557 42.2755 218.486 42.2193 218.405 42.1812C218.324 42.143 218.236 42.1238 218.147 42.1249H217.858V41.1062H221.138V44.7543ZM216.212 33.4384H223.855V32.0618C223.863 31.9691 223.851 31.8757 223.82 31.7879C223.789 31.7001 223.74 31.62 223.676 31.5525C223.615 31.4917 223.542 31.4443 223.462 31.4135C223.382 31.3827 223.296 31.3691 223.21 31.3735H222.99V30.2859H226.133V38.2291C226.164 38.6843 226.027 39.1349 225.748 39.4955C225.61 39.6464 225.439 39.7643 225.249 39.8405C225.059 39.9167 224.855 39.9494 224.651 39.9361H215.416C215.21 39.9515 215.002 39.92 214.81 39.8437C214.617 39.7674 214.445 39.6482 214.305 39.4955C214.015 39.1401 213.873 38.6868 213.907 38.2291V32.3508C213.915 32.256 213.903 32.1606 213.872 32.0705C213.842 31.9805 213.792 31.8978 213.728 31.8277C213.671 31.7697 213.602 31.724 213.527 31.6933C213.451 31.6625 213.371 31.6473 213.289 31.6487H213.07V30.5062H216.212V33.4384ZM223.855 35.2969H216.212V37.7473C216.212 37.8987 216.212 37.995 216.281 38.0226C216.362 38.0419 216.446 38.0419 216.527 38.0226H223.539C223.623 38.029 223.706 38.0044 223.773 37.9537C223.803 37.9181 223.827 37.8765 223.841 37.8315C223.855 37.7865 223.86 37.7391 223.855 37.6922V35.2969Z" fill="#727171"/>
<path d="M233.076 32.3648H229.81V30.5063H238.853V32.3648H235.573V32.9979C235.55 33.9362 235.703 34.8704 236.026 35.7512C236.283 36.4571 236.644 37.1206 237.096 37.7199C237.48 38.1934 237.944 38.5943 238.468 38.9038C238.889 39.1579 239.355 39.3263 239.84 39.3993C239.84 39.3993 239.923 39.3994 239.923 39.4682C239.923 39.5371 239.923 39.4682 239.923 39.5645L238.688 41.0376C238.263 40.9465 237.856 40.7884 237.48 40.5694C237.019 40.3318 236.59 40.0357 236.204 39.6884C235.85 39.3782 235.528 39.0322 235.244 38.6559C234.954 38.2801 234.715 37.8682 234.53 37.4307C234.53 37.3618 234.462 37.3206 234.407 37.3206C234.352 37.3206 234.311 37.3205 234.283 37.4307C234.086 37.9288 233.813 38.3932 233.474 38.8073C233.132 39.2287 232.745 39.6119 232.321 39.95C231.974 40.2192 231.602 40.4543 231.21 40.6521C230.866 40.8269 230.502 40.9565 230.125 41.0376L228.891 39.5645C228.88 39.5332 228.88 39.4995 228.891 39.4682C228.901 39.4503 228.914 39.4348 228.931 39.4229C228.947 39.4109 228.967 39.4029 228.987 39.3993C229.478 39.3407 229.948 39.1662 230.359 38.89C230.884 38.5644 231.348 38.1498 231.731 37.6648C232.191 37.0703 232.552 36.4057 232.801 35.6963C233.1 34.8479 233.244 33.9526 233.227 33.0531V32.4199L233.076 32.3648ZM235.532 41.9736V46.3788C235.53 46.4621 235.554 46.544 235.6 46.6129C235.629 46.6413 235.664 46.6633 235.702 46.6776C235.739 46.6918 235.78 46.698 235.82 46.6955H244.328V48.5815H234.722C234.516 48.5968 234.309 48.5679 234.115 48.4967C233.921 48.4255 233.745 48.3135 233.597 48.1685C233.308 47.8026 233.17 47.3394 233.213 46.8745V43.8872C233.221 43.6711 233.158 43.4583 233.035 43.2814C232.969 43.1957 232.883 43.1272 232.785 43.0817C232.687 43.0362 232.58 43.015 232.472 43.0199H231.992V41.9736H235.422H235.532ZM244.026 43.3503H241.762V31.4699C241.762 31.2549 241.7 31.0444 241.583 30.8643C241.523 30.7707 241.439 30.6947 241.341 30.644C241.242 30.5932 241.132 30.5694 241.021 30.5751H240.636V29.5288H244.026V43.3503Z" fill="#727171"/>
<path d="M245.562 40.404V38.5456H262.028V40.3627H245.562V40.404ZM250.667 32.4471H247.758V30.6851H252.643V30.4097C252.654 30.2018 252.59 29.9971 252.465 29.8316C252.402 29.7619 252.326 29.7062 252.241 29.6682C252.156 29.6303 252.064 29.6108 251.971 29.6113H251.888V28.9092H254.962V30.7952H259.792V32.5573H256.883C257.037 32.8144 257.152 33.0926 257.226 33.3832C257.386 33.9197 257.419 34.4864 257.323 35.038C257.226 35.5896 257.002 36.111 256.669 36.5603C256.336 37.0097 255.902 37.3746 255.403 37.6261C254.904 37.8775 254.354 38.0084 253.795 38.0084C253.237 38.0084 252.687 37.8775 252.188 37.6261C251.689 37.3746 251.256 37.0097 250.923 36.5603C250.589 36.111 250.365 35.5896 250.269 35.038C250.172 34.4864 250.205 33.9197 250.365 33.3832C250.445 33.0947 250.56 32.8173 250.708 32.5573L250.667 32.4471ZM253.809 41.1475C254.343 41.134 254.874 41.2323 255.368 41.4362C255.861 41.64 256.307 41.9449 256.677 42.3313C257.419 43.1014 257.834 44.1305 257.834 45.2016C257.834 46.2726 257.419 47.3019 256.677 48.072C255.919 48.8285 254.893 49.2532 253.823 49.2532C252.753 49.2532 251.728 48.8285 250.969 48.072C250.227 47.3019 249.812 46.2726 249.812 45.2016C249.812 44.1305 250.227 43.1014 250.969 42.3313C251.335 41.9477 251.777 41.6445 252.266 41.4407C252.754 41.2369 253.28 41.137 253.809 41.1475ZM253.809 43.0334C253.566 43.0412 253.328 43.1033 253.112 43.2153C252.896 43.3272 252.708 43.4861 252.561 43.6804C252.19 44.1018 251.99 44.6466 251.998 45.2085C251.995 45.7694 252.195 46.3125 252.561 46.7365C252.707 46.9358 252.899 47.0978 253.119 47.2094C253.34 47.321 253.583 47.3791 253.83 47.3791C254.077 47.3791 254.32 47.321 254.541 47.2094C254.761 47.0978 254.953 46.9358 255.099 46.7365C255.461 46.3111 255.656 45.7678 255.648 45.2085C255.662 44.6482 255.466 44.1031 255.099 43.6804C254.948 43.4807 254.753 43.3185 254.529 43.2064C254.306 43.0942 254.059 43.035 253.809 43.0334ZM253.809 32.5573C253.612 32.5523 253.416 32.5975 253.241 32.689C253.066 32.7805 252.917 32.9153 252.808 33.0804C252.566 33.4457 252.438 33.8743 252.438 34.3125C252.438 34.7508 252.566 35.1792 252.808 35.5445C252.923 35.7065 253.076 35.8386 253.252 35.9296C253.429 36.0207 253.624 36.0681 253.823 36.0681C254.022 36.0681 254.217 36.0207 254.394 35.9296C254.57 35.8386 254.723 35.7065 254.838 35.5445C255.08 35.1792 255.209 34.7508 255.209 34.3125C255.209 33.8743 255.08 33.4457 254.838 33.0804C254.732 32.8921 254.576 32.7371 254.387 32.6326C254.198 32.5281 253.984 32.4781 253.768 32.4884L253.809 32.5573Z" fill="#727171"/>
<path d="M269.245 39.7295V42.4828H266.885V39.7295H262.59V37.8436H274.239V39.7295H269.245ZM264.387 33.2732C264.376 32.7522 264.468 32.2342 264.659 31.7495C264.85 31.2649 265.135 30.8234 265.499 30.4511C265.85 30.0764 266.276 29.7799 266.749 29.5807C267.221 29.3816 267.73 29.2841 268.243 29.2947C268.755 29.2875 269.263 29.3865 269.736 29.5855C270.208 29.7844 270.634 30.0791 270.987 30.4511C271.705 31.217 272.105 32.2288 272.105 33.2801C272.105 34.3314 271.705 35.3431 270.987 36.109C270.633 36.4791 270.207 36.7717 269.734 36.9684C269.262 37.165 268.754 37.2616 268.243 37.2517C267.731 37.265 267.223 37.1699 266.75 36.9731C266.277 36.7762 265.851 36.4819 265.499 36.109C265.135 35.7341 264.849 35.2902 264.658 34.8033C264.468 34.3164 264.376 33.7963 264.387 33.2732ZM269.066 43.3088V46.3237C269.061 46.3653 269.064 46.4076 269.076 46.4479C269.088 46.4881 269.108 46.5255 269.135 46.5576C269.164 46.586 269.198 46.6082 269.236 46.6225C269.274 46.6367 269.314 46.6427 269.354 46.6403H277.999V48.5262H268.27C268.061 48.5429 267.851 48.5161 267.653 48.4474C267.454 48.3787 267.272 48.2696 267.118 48.127C266.84 47.756 266.708 47.2954 266.748 46.833V45.2223C266.752 45.0047 266.684 44.7919 266.555 44.6167C266.491 44.5291 266.406 44.4592 266.307 44.4135C266.209 44.3678 266.101 44.3477 265.993 44.355H265.622V43.3088H269.039H269.066ZM266.555 33.2732C266.532 33.8232 266.702 34.3639 267.036 34.8013C267.161 34.9971 267.333 35.1579 267.537 35.2686C267.741 35.3793 267.97 35.4364 268.202 35.4345C268.436 35.4302 268.667 35.3707 268.874 35.2607C269.081 35.1507 269.26 34.9933 269.396 34.8013C269.729 34.3578 269.903 33.8145 269.89 33.2594C269.908 32.7079 269.733 32.1674 269.396 31.7314C269.259 31.5411 269.08 31.3857 268.873 31.278C268.665 31.1704 268.435 31.1134 268.202 31.1118C267.97 31.1099 267.741 31.1669 267.537 31.2777C267.333 31.3884 267.161 31.5493 267.036 31.7452C266.706 32.1846 266.537 32.7238 266.555 33.2732ZM275.529 40.7758V31.4146C275.524 31.1984 275.458 30.9883 275.337 30.809C275.28 30.7119 275.197 30.6323 275.098 30.5789C274.999 30.5256 274.887 30.5004 274.774 30.5062H274.404V29.4599H277.78V43.8181H275.529V42.4415H271.783V40.7482L275.529 40.7758Z" fill="#727171"/>
<path d="M33.7695 78L75.9498 61.4666V17.5934L33.7695 0V78Z" fill="#005EAE"/>
<path d="M16.6716 33.2044H10.7714V48.485H5.9002V33.2044H0V29.5425H16.6716V33.2044Z" fill="#005EAE"/>
<path d="M29.8033 48.485H18.8262V45.1123H21.8998V32.9016H18.8262V29.5425H29.8033V32.9016H26.7159V45.1123H29.8033V48.485Z" fill="#005EAE"/>
<path d="M49.3982 35.5171C49.3962 36.3668 49.2479 37.2098 48.9594 38.0087C48.6832 38.7752 48.2481 39.4743 47.683 40.0599C46.9596 40.7841 46.1021 41.3593 45.1585 41.7531C44.0468 42.158 42.8691 42.3496 41.6869 42.3176H38.6544V48.4848H33.7832V29.5424H41.8101C42.834 29.5209 43.8569 29.6227 44.8566 29.8454C45.6343 30.0357 46.3756 30.3518 47.0519 30.7814C47.7893 31.2616 48.3898 31.9257 48.7946 32.7087C49.2149 33.5835 49.4217 34.5462 49.3982 35.5171ZM44.335 35.6271C44.347 35.134 44.1975 34.6504 43.9096 34.2505C43.6548 33.8974 43.3084 33.6213 42.9079 33.4521C42.4363 33.2561 41.9358 33.1398 41.4262 33.108H39.4913H38.6544V38.7797H40.0266C40.7112 38.7885 41.3952 38.7378 42.0711 38.6283C42.5771 38.5541 43.0523 38.3394 43.4433 38.0087C43.7529 37.754 43.9896 37.4215 44.1294 37.0451C44.2798 36.5881 44.3493 36.1082 44.335 35.6271Z" fill="white"/>
<path d="M68.7043 48.485H63.6273L62.2552 44.6579H55.3257L53.9535 48.485H49.0273L55.998 29.5425H61.6103L68.7043 48.485ZM61.1299 41.1751L58.8385 34.4847L56.5468 41.1751H61.1299Z" fill="white"/>
</g>
<defs>
<clipPath id="clip0_95_16300">
<rect width="278" height="78" fill="white"/>
</clipPath>
</defs>
</svg>
