<svg width="40" height="40" viewBox="0 0 40 40" fill="none" xmlns="http://www.w3.org/2000/svg">
<g clip-path="url(#clip0_95_16297)">
<path d="M18.0352 40L39.5002 31.5159V9.0255L18.0352 0V40Z" fill="#005EAE"/>
<path d="M9.31929 17.0223H6.31662V24.8591H3.83664V17.0223H0.833984V15.1418H9.31929V17.0223Z" fill="#005EAE"/>
<path d="M16.0055 24.8567H10.3848V23.1303H11.9551V16.8671H10.3848V15.1418H16.0055V16.8671H14.4339V23.1303H16.0055V24.8567Z" fill="#005EAE"/>
<path d="M25.9777 18.2111C25.9776 18.6471 25.901 19.0797 25.7514 19.4887C25.614 19.881 25.3933 20.2383 25.105 20.5354C24.7367 20.9072 24.2998 21.2023 23.8191 21.404C23.2556 21.6159 22.6569 21.716 22.0559 21.6988H20.5081V24.8569H18.0293V15.142H22.1154C22.6357 15.1323 23.1554 15.1856 23.6632 15.3008C24.0591 15.3967 24.4363 15.5594 24.7787 15.782C25.1555 16.0265 25.4625 16.3661 25.6693 16.7674C25.8851 17.2167 25.9909 17.7118 25.9777 18.2111ZM23.4024 18.2616C23.4092 18.0079 23.3317 17.7593 23.1822 17.5554C23.0543 17.3714 22.8777 17.2275 22.6726 17.1403C22.4323 17.0401 22.1772 16.9811 21.9178 16.9659C21.6725 16.9562 21.3451 16.9514 20.9355 16.9514H20.5093V19.8605H21.2236C21.5729 19.8661 21.922 19.8399 22.2666 19.7823C22.5185 19.7391 22.7551 19.6309 22.9536 19.4683C23.1098 19.3349 23.2292 19.1629 23.3 18.969C23.3748 18.741 23.4095 18.5016 23.4024 18.2616Z" fill="white"/>
<path d="M35.7892 24.8567H33.2057L32.5365 22.8945H29.016L28.3469 24.8567H25.8359L29.3875 15.1418H32.2449L35.7892 24.8567ZM31.9389 21.1127L30.7745 17.6791L29.6113 21.1127H31.9389Z" fill="white"/>
</g>
<defs>
<clipPath id="clip0_95_16297">
<rect width="38.6667" height="40" fill="white" transform="translate(0.833984)"/>
</clipPath>
</defs>
</svg>
