<svg width="1100" height="640" viewBox="0 0 1100 640" fill="none" xmlns="http://www.w3.org/2000/svg">
<path d="M545.726 157H554.158V154.892H551.438C550.843 154.892 550.01 154.96 549.381 155.028C551.676 152.784 553.563 150.336 553.563 148.058C553.563 145.712 551.982 144.182 549.602 144.182C547.885 144.182 546.763 144.845 545.607 146.086L546.967 147.446C547.613 146.749 548.361 146.154 549.279 146.154C550.486 146.154 551.166 146.919 551.166 148.194C551.166 150.132 549.143 152.495 545.726 155.555V157ZM502.281 181.926V179.325H506.735V177.557H498.014V175.925H506.259V174.191H498.014V172.661H506.616V170.876H495.736V179.325H500.037V181.926H494.07V183.745H508.248V181.926H502.281ZM513.772 172.729H515.421V176.894C514.877 176.911 514.316 176.928 513.772 176.945V172.729ZM519.399 176.605C518.804 176.656 518.209 176.707 517.58 176.758V172.729H518.804V170.927H510.372V172.729H511.613V176.979C511.035 176.979 510.491 176.979 509.981 176.979L510.219 178.815C512.905 178.815 516.441 178.747 519.552 178.237L519.399 176.605ZM512.038 181.807H520.453V185.479H522.714V180.022H512.038V181.807ZM520.453 169.805V179.376H522.714V169.805H520.453ZM529.036 172.729H535.785V176.877H529.036V172.729ZM533.541 181.824V178.645H537.978V170.961H526.843V178.645H531.297V181.824H525.347V183.643H539.525V181.824H533.541ZM554.416 169.805H552.291V177.982H554.416V169.805ZM546.817 173.086V174.769H549.197V177.897H551.288V170.094H549.197V173.086H546.817ZM548.092 175.551C546.732 175.789 545.576 175.84 543.859 175.857V172.321H547.701V170.553H541.649V177.608H542.72C545.151 177.608 546.579 177.591 548.245 177.319L548.092 175.551ZM545.933 183.541V182.674H554.416V178.509H543.689V180.226H552.206V181.059H543.723V185.275H554.858V183.541H545.933ZM569.63 169.805H567.369V179.308H569.63V169.805ZM566.077 176.435C564.037 176.775 562.218 176.86 559.634 176.877V175.5H564.615V170.723H557.407V172.508H562.405V173.834H557.424V178.679H558.801C561.912 178.679 564.003 178.611 566.332 178.22L566.077 176.435ZM564.36 183.745C562.32 183.745 561.249 183.371 561.249 182.538C561.249 181.722 562.32 181.348 564.36 181.348C566.417 181.348 567.488 181.722 567.488 182.538C567.488 183.371 566.417 183.745 564.36 183.745ZM564.36 179.597C561.045 179.597 559.005 180.685 559.005 182.538C559.005 184.391 561.045 185.479 564.36 185.479C567.692 185.479 569.732 184.391 569.732 182.538C569.732 180.685 567.692 179.597 564.36 179.597ZM586.961 177.761H589.205V169.805H586.961V172.1H584.105V173.885H586.961V177.761ZM585.465 175.857C583.017 175.109 581.946 173.29 581.946 171.437V170.315H579.685V171.437C579.685 173.426 578.597 175.347 575.996 176.129L577.152 177.88C578.937 177.319 580.161 176.163 580.858 174.701C581.521 176.01 582.677 177.047 584.326 177.574L585.465 175.857ZM581.113 183.541V182.623H589.205V178.424H578.886V180.141H586.995V181.008H578.903V185.275H589.647V183.541H581.113ZM597.584 176.367H594.609V172.712H597.584V176.367ZM602.599 173.851V175.194H599.777V173.851H602.599ZM599.777 176.979H602.599V178.985H604.843V169.805H602.599V172.066H599.777V170.927H592.399V178.135H599.777V176.979ZM599.539 183.745C597.499 183.745 596.428 183.32 596.428 182.419C596.428 181.518 597.499 181.093 599.539 181.093C601.596 181.093 602.667 181.518 602.667 182.419C602.667 183.32 601.596 183.745 599.539 183.745ZM599.539 179.376C596.224 179.376 594.184 180.498 594.184 182.419C594.184 184.34 596.224 185.462 599.539 185.462C602.871 185.462 604.911 184.34 604.911 182.419C604.911 180.498 602.871 179.376 599.539 179.376Z" fill="#212121"/>
<path d="M432.262 209.796V212.106H438.422C437.96 214.79 435.518 216.99 431.162 218.178L432.306 220.422C438.202 218.794 441.502 215.142 441.502 209.796H432.262ZM437.542 223.062H445.154V226.384H437.542V223.062ZM434.682 228.65H448.014V220.774H434.682V228.65ZM445.11 208.652V213.426H441.612V215.78H445.11V219.938H448.014V208.652H445.11ZM461.52 217.694C458.836 216.572 457.758 214.35 457.758 212.106V209.752H454.964V212.106C454.964 214.416 453.864 216.924 451.026 218.178L452.566 220.444C454.436 219.63 455.668 218.2 456.416 216.484C457.12 217.98 458.286 219.19 459.98 219.894L461.52 217.694ZM454.634 224.118H465.678V228.914H468.582V221.83H454.634V224.118ZM465.832 208.63V213.558H464.248V208.938H461.542V220.818H464.248V215.89H465.832V220.928H468.582V208.63H465.832ZM476.104 222.05C475.004 222.05 474.344 220.532 474.344 217.408C474.344 214.306 475.004 212.788 476.104 212.788C477.226 212.788 477.864 214.306 477.864 217.408C477.864 220.532 477.226 222.05 476.104 222.05ZM482.066 216.088H480.46C480.13 212.304 478.502 210.06 476.104 210.06C473.42 210.06 471.726 212.832 471.726 217.408C471.726 222.006 473.42 224.778 476.104 224.778C478.568 224.778 480.218 222.402 480.482 218.442H482.066V227.99H484.772V208.96H482.066V216.088ZM486.18 208.608V228.87H488.93V208.608H486.18ZM616.853 208.63V219.52H619.779V208.63H616.853ZM606.315 220.4V228.65H619.779V220.4H616.897V222.292H609.197V220.4H606.315ZM609.197 224.514H616.897V226.34H609.197V224.514ZM608.757 209.466C605.611 209.466 603.235 211.468 603.235 214.24C603.235 217.034 605.611 219.036 608.757 219.036C611.903 219.036 614.257 217.034 614.257 214.24C614.257 211.468 611.903 209.466 608.757 209.466ZM608.757 211.864C610.297 211.864 611.419 212.766 611.419 214.24C611.419 215.758 610.297 216.638 608.757 216.638C607.217 216.638 606.073 215.758 606.073 214.24C606.073 212.766 607.217 211.864 608.757 211.864ZM627.125 210.544H624.243V223.898H626.047C629.127 223.898 632.493 223.678 635.947 222.952L635.639 220.532C632.669 221.126 629.787 221.346 627.125 221.412V210.544ZM637.201 208.608V228.87H640.105V208.608H637.201ZM647.099 212.854H653.655V210.5H644.217V224.074H645.933C649.453 224.074 652.225 223.964 655.283 223.414L654.997 221.016C652.379 221.456 649.981 221.61 647.099 221.654V212.854ZM662.235 216.11H659.287V208.63H656.383V228.936H659.287V218.508H662.235V216.11ZM666.282 227.308C667.448 227.308 668.306 226.384 668.306 225.196C668.306 223.986 667.448 223.084 666.282 223.084C665.138 223.084 664.28 223.986 664.28 225.196C664.28 226.384 665.138 227.308 666.282 227.308Z" fill="#212121"/>
<path d="M503.197 213.008H506.145V210.654H497.125V213.008H500.381V213.998C500.381 217.474 499.325 221.104 496.377 222.974L498.093 225.108C499.919 223.964 501.107 221.984 501.811 219.674C502.471 221.808 503.637 223.546 505.419 224.624L507.113 222.512C504.187 220.796 503.197 217.386 503.197 213.998V213.008ZM507.311 215.538H504.737V217.892H507.311V227.968H510.017V208.96H507.311V215.538ZM511.403 208.608V228.87H514.153V208.608H511.403ZM520.773 214.79C520.773 213.206 521.961 212.282 523.523 212.282C525.085 212.282 526.273 213.206 526.273 214.79C526.273 216.374 525.085 217.298 523.523 217.298C521.961 217.298 520.773 216.374 520.773 214.79ZM524.975 219.63C527.395 219.102 529.111 217.232 529.111 214.79C529.111 211.886 526.691 209.796 523.523 209.796C520.355 209.796 517.957 211.886 517.957 214.79C517.957 217.232 519.651 219.102 522.071 219.63V222.468C520.289 222.512 518.573 222.512 517.099 222.512L517.473 224.866C520.971 224.866 525.723 224.822 530.079 223.942L529.903 221.852C528.319 222.094 526.625 222.226 524.975 222.336V219.63ZM531.003 208.608V228.936H533.907V208.608H531.003ZM554.124 208.608H551.198V223.876H554.124V208.608ZM549.988 218.816C548.514 218.948 546.952 219.058 545.39 219.124V217.144H548.932V214.834H541.914V212.15H548.8V209.84H539.01V217.144H542.486V219.234C540.704 219.278 538.944 219.278 537.338 219.278L537.712 221.588C541.43 221.588 545.962 221.5 550.186 220.884L549.988 218.816ZM543.322 226.23V222.776H540.396V228.54H554.652V226.23H543.322ZM574.418 217.606C571.228 216.616 569.864 214.24 569.864 211.798V209.73H566.916V211.556C566.916 214.306 565.552 217.012 562.164 218.134L563.682 220.422C565.992 219.608 567.554 218.046 568.434 216.066C569.292 217.782 570.766 219.146 572.9 219.85L574.418 217.606ZM571.8 226.648C569.204 226.648 567.818 226.12 567.818 224.976C567.818 223.854 569.204 223.326 571.8 223.326C574.374 223.326 575.76 223.854 575.76 224.976C575.76 226.12 574.374 226.648 571.8 226.648ZM571.8 221.082C567.576 221.082 564.936 222.534 564.936 224.976C564.936 227.44 567.576 228.892 571.8 228.892C576.002 228.892 578.642 227.44 578.642 224.976C578.642 222.534 576.002 221.082 571.8 221.082ZM578.422 213.338V208.652H575.518V220.62H578.422V215.736H581.106V213.338H578.422ZM586.143 218.266H591.159V216.022H586.143V213.03H591.577V210.72H583.393V224.272H584.801C587.837 224.272 589.839 224.228 592.171 223.832L591.907 221.5C590.015 221.786 588.387 221.874 586.143 221.896V218.266ZM597.341 208.608V216.462H595.713V208.938H593.007V227.99H595.713V218.794H597.341V228.892H600.091V208.608H597.341Z" fill="#F2994A"/>
<line x1="412" y1="420.694" x2="697" y2="420.694" stroke="#B4B5B8" stroke-width="2.61173" stroke-dasharray="5.22 5.22"/>
<path d="M138 403.676C138 399.258 141.582 395.676 146 395.676H430.349C434.767 395.676 438.349 399.258 438.349 403.676V439.91C438.349 444.329 434.767 447.91 430.349 447.91H146C141.582 447.91 138 444.329 138 439.91V403.676Z" fill="#FEF5ED"/>
<circle cx="164.118" cy="421.791" r="15.6704" fill="#FBE0C9"/>
<circle r="5.22345" transform="matrix(1 0 0 -1 164.118 421.792)" fill="#F2994A"/>
<path d="M200.028 428.064V424.441H205.395V423.128H194.935V420.484H204.827V419.211H194.935V416.743H205.219V415.43H193.31V424.441H198.422V428.064H191.253V429.377H207.217V428.064H200.028ZM213.366 416.743H216.226V422.09C215.266 422.149 214.306 422.168 213.366 422.188V416.743ZM220.359 421.777C219.517 421.875 218.655 421.933 217.774 422.012V416.743H219.497V415.43H210.075V416.743H211.799V422.227C211.035 422.227 210.271 422.227 209.605 422.227L209.762 423.579C212.798 423.579 216.912 423.52 220.457 422.971L220.359 421.777ZM211.956 426.85H222.102V431.59H223.709V425.538H211.956V426.85ZM222.102 414.02V424.656H223.709V414.02H222.102Z" fill="#212121"/>
<path d="M661.652 403.641C661.652 399.222 665.234 395.641 669.652 395.641H954.001C958.419 395.641 962.001 399.222 962.001 403.641V439.875C962.001 444.293 958.419 447.875 954.001 447.875H669.652C665.234 447.875 661.652 444.293 661.652 439.875V403.641Z" fill="white"/>
<circle r="5.22345" transform="matrix(1 0 0 -1 687.77 421.757)" fill="#F2994A"/>
<path d="M720.586 415.752C722.29 415.752 723.485 416.653 723.485 417.966C723.485 419.317 722.29 420.199 720.586 420.199C718.882 420.199 717.687 419.317 717.687 417.966C717.687 416.653 718.882 415.752 720.586 415.752ZM720.586 421.433C723.191 421.433 724.993 420.042 724.993 417.966C724.993 415.909 723.191 414.518 720.586 414.518C717.981 414.518 716.179 415.909 716.179 417.966C716.179 420.042 717.981 421.433 720.586 421.433ZM726.423 422.314C722.603 422.863 718.176 422.882 714.866 422.882L715.062 424.234C716.453 424.234 718.039 424.214 719.704 424.156V430.678H721.311V424.077C723.034 423.979 724.797 423.803 726.521 423.509L726.423 422.314ZM727.755 413.657V425.644H723.779V426.898H727.755V431.227H729.361V413.657H727.755ZM747.028 422.06H736.548V416.575H746.852V415.243H734.962V423.372H747.028V422.06ZM732.925 427.505V428.837H748.869V427.505H732.925Z" fill="#212121"/>
<path d="M672.099 396.946H951.554V394.335H672.099V396.946ZM960.695 406.088V437.428H963.307V406.088H960.695ZM951.554 446.569H672.099V449.181H951.554V446.569ZM662.958 437.428V406.088H660.346V437.428H662.958ZM672.099 446.569C667.051 446.569 662.958 442.477 662.958 437.428H660.346C660.346 443.919 665.608 449.181 672.099 449.181V446.569ZM960.695 437.428C960.695 442.477 956.603 446.569 951.554 446.569V449.181C958.045 449.181 963.307 443.919 963.307 437.428H960.695ZM951.554 396.946C956.603 396.946 960.695 401.039 960.695 406.088H963.307C963.307 399.597 958.045 394.335 951.554 394.335V396.946ZM672.099 394.335C665.608 394.335 660.346 399.597 660.346 406.088H662.958C662.958 401.039 667.051 396.946 672.099 396.946V394.335Z" fill="#EDEFF2"/>
<g filter="url(#filter0_d_2449_228077)">
<path d="M138 351.406C138 346.988 141.582 343.406 146 343.406H327.185C331.604 343.406 335.185 346.988 335.185 351.406V387.641C335.185 392.059 331.604 395.641 327.185 395.641H146C141.582 395.641 138 392.059 138 387.641V351.406Z" fill="white"/>
<rect x="140.611" y="346.02" width="47.0111" height="47.0111" rx="10.4469" fill="white"/>
<g clip-path="url(#clip0_2449_228077)">
<path d="M168.735 362.387C165.115 362.387 162.124 365.084 161.663 368.578H157.219C157.031 368.113 156.708 367.714 156.292 367.434C155.876 367.153 155.385 367.004 154.884 367.004C153.493 367.004 152.365 368.132 152.365 369.522C152.365 370.913 153.493 372.041 154.884 372.041C155.941 372.041 156.846 371.39 157.219 370.467H161.66C162.124 373.961 165.115 376.658 168.735 376.658C172.675 376.658 175.871 373.463 175.871 369.522C175.871 365.582 172.675 362.387 168.735 362.387ZM172.093 370.204C172.093 370.32 171.999 370.414 171.883 370.414H169.627V372.67C169.627 372.786 169.533 372.88 169.417 372.88H168.053C167.938 372.88 167.843 372.786 167.843 372.67V370.414H165.587C165.472 370.414 165.377 370.32 165.377 370.204V368.84C165.377 368.725 165.472 368.63 165.587 368.63H167.843V366.374C167.843 366.259 167.938 366.164 168.053 366.164H169.417C169.533 366.164 169.627 366.259 169.627 366.374V368.63H171.883C171.999 368.63 172.093 368.725 172.093 368.84V370.204Z" fill="#212121"/>
</g>
<rect x="188.928" y="346.02" width="47.0111" height="47.0111" rx="10.4469" fill="white"/>
<path d="M206.505 375.119C206.552 375.119 206.598 375.115 206.645 375.108L210.567 374.42C210.614 374.411 210.658 374.39 210.691 374.355L220.576 364.47C220.597 364.448 220.614 364.422 220.626 364.394C220.638 364.366 220.644 364.336 220.644 364.305C220.644 364.275 220.638 364.245 220.626 364.216C220.614 364.188 220.597 364.162 220.576 364.141L216.7 360.263C216.656 360.219 216.597 360.195 216.535 360.195C216.472 360.195 216.413 360.219 216.369 360.263L206.484 370.148C206.449 370.183 206.428 370.225 206.419 370.271L205.731 374.194C205.708 374.319 205.716 374.447 205.754 374.568C205.793 374.689 205.86 374.799 205.95 374.889C206.104 375.038 206.297 375.119 206.505 375.119V375.119ZM208.077 371.053L216.535 362.597L218.244 364.306L209.786 372.762L207.713 373.128L208.077 371.053V371.053ZM221.016 377.078H203.854C203.441 377.078 203.107 377.412 203.107 377.824V378.664C203.107 378.767 203.191 378.851 203.294 378.851H221.576C221.679 378.851 221.763 378.767 221.763 378.664V377.824C221.763 377.412 221.429 377.078 221.016 377.078Z" fill="#212121"/>
<rect x="237.246" y="346.02" width="47.0111" height="47.0111" rx="10.4469" fill="white"/>
<path d="M256.773 361.699H256.598C256.694 361.699 256.773 361.62 256.773 361.524V361.699H263.419V361.524C263.419 361.62 263.498 361.699 263.594 361.699H263.419V363.273H264.993V361.524C264.993 360.752 264.366 360.125 263.594 360.125H256.598C255.826 360.125 255.199 360.752 255.199 361.524V363.273H256.773V361.699ZM267.791 363.273H252.401C252.014 363.273 251.701 363.586 251.701 363.973V364.672C251.701 364.768 251.78 364.847 251.876 364.847H253.197L253.736 376.281C253.771 377.026 254.388 377.614 255.133 377.614H265.059C265.806 377.614 266.421 377.028 266.456 376.281L266.996 364.847H268.316C268.412 364.847 268.491 364.768 268.491 364.672V363.973C268.491 363.586 268.178 363.273 267.791 363.273ZM264.89 376.04H255.302L254.773 364.847H265.419L264.89 376.04Z" fill="#EB5757"/>
<rect x="286.215" y="346.672" width="45.7052" height="45.7052" rx="9.79398" fill="white" stroke="#EDEFF2" stroke-width="1.30586"/>
<g clip-path="url(#clip1_2449_228077)">
<path d="M309.068 359.406C303.478 359.406 298.947 363.937 298.947 369.527C298.947 375.116 303.478 379.647 309.068 379.647C314.657 379.647 319.188 375.116 319.188 369.527C319.188 363.937 314.657 359.406 309.068 359.406ZM312.332 369.527C312.332 371.327 310.868 372.791 309.068 372.791C307.268 372.791 305.803 371.327 305.803 369.527C305.803 367.727 307.268 366.262 309.068 366.262C310.868 366.262 312.332 367.727 312.332 369.527Z" fill="#F2994A"/>
</g>
</g>
<path d="M259 295C259 290.582 262.582 287 267 287H352.524C356.943 287 360.524 290.582 360.524 295V326.524C360.524 330.943 356.943 334.524 352.524 334.524H267C262.582 334.524 259 330.943 259 326.524V295Z" fill="#212121"/>
<path d="M274.277 304.602H278.002V303.042H268.478V304.602H272.437V306.488C272.437 310.331 270.807 314.126 267.896 315.873L269.06 317.293C271.133 315.989 272.647 313.544 273.368 310.68C274.09 313.335 275.534 315.57 277.56 316.781L278.724 315.384C275.837 313.754 274.277 310.121 274.277 306.488V304.602ZM279.865 308.095H276.419V309.655H279.865V320.39H281.682V301.063H279.865V308.095ZM284.057 300.574V321.462H285.897V300.574H284.057ZM292.625 306.838C292.625 304.905 294.208 303.578 296.327 303.578C298.516 303.578 300.076 304.905 300.076 306.838C300.076 308.794 298.516 310.144 296.327 310.144C294.208 310.144 292.625 308.794 292.625 306.838ZM297.282 311.705C300.053 311.379 301.939 309.469 301.939 306.838C301.939 303.927 299.611 301.947 296.327 301.947C293.114 301.947 290.762 303.927 290.762 306.838C290.762 309.469 292.671 311.355 295.372 311.705V315.314C293.323 315.384 291.39 315.384 289.714 315.384L289.947 316.991C293.719 316.991 298.772 316.944 303.476 316.082L303.313 314.662C301.38 314.965 299.308 315.128 297.282 315.244V311.705ZM304.687 300.574V321.531H306.597V300.574H304.687ZM317.12 315.244C315.234 315.244 313.86 313.894 313.86 312.031C313.86 310.144 315.234 308.794 317.12 308.794C319.03 308.794 320.404 310.144 320.404 312.031C320.404 313.894 319.03 315.244 317.12 315.244ZM317.12 307.21C314.186 307.21 312.067 309.213 312.067 312.031C312.067 314.872 314.186 316.828 317.12 316.828C320.101 316.828 322.22 314.872 322.22 312.031C322.22 309.213 320.101 307.21 317.12 307.21ZM318.052 300.853H316.142V303.95H310.879V305.487H323.198V303.95H318.052V300.853ZM330.51 309.19H327.087V300.62H325.177V321.485H327.087V310.796H330.51V309.19ZM333.652 302.856V304.393H341.499C341.104 309.353 338.309 313.358 332.697 316.036L333.722 317.596C340.661 314.196 343.432 308.887 343.432 302.856H333.652ZM347.647 300.597V321.485H349.557V300.597H347.647Z" fill="#EDEFF2"/>
<path d="M336.689 403.483L336.498 403.944C337.064 404.179 337.479 404.764 337.479 405.438C337.479 405.48 337.471 405.541 337.455 405.65L337.455 405.65L336.393 413.112C336.393 413.113 336.393 413.113 336.393 413.114C336.27 413.925 335.64 414.5 334.848 414.5H325.229C324.786 414.5 324.373 414.316 324.08 414.023L317.433 407.376L318.201 406.599C318.202 406.598 318.202 406.598 318.202 406.598C318.399 406.402 318.67 406.277 318.967 406.277C318.993 406.277 319.02 406.28 319.063 406.287C319.07 406.288 319.081 406.29 319.094 406.292C319.128 406.298 319.177 406.307 319.222 406.313L324.063 407.329L324.666 407.456V406.84V391.625C324.666 390.725 325.391 390 326.291 390C327.191 390 327.916 390.725 327.916 391.625V400.125V400.625H328.416H329.493C329.684 400.625 329.87 400.664 330.052 400.737L336.467 403.93L336.689 403.483ZM322.249 391.625V395.887C321.117 394.815 320.416 393.304 320.416 391.625C320.416 388.374 323.04 385.75 326.291 385.75C329.542 385.75 332.166 388.374 332.166 391.625C332.166 393.304 331.465 394.815 330.333 395.887V391.625C330.333 389.394 328.522 387.583 326.291 387.583C324.06 387.583 322.249 389.394 322.249 391.625Z" fill="white" stroke="#121A4C"/>
<path d="M0 595H1100V632C1100 636.418 1096.42 640 1092 640H7.99999C3.58171 640 0 636.418 0 632V595Z" fill="#0D0157"/>
<defs>
<filter id="filter0_d_2449_228077" x="124" y="334.406" width="225.186" height="80.2344" filterUnits="userSpaceOnUse" color-interpolation-filters="sRGB">
<feFlood flood-opacity="0" result="BackgroundImageFix"/>
<feColorMatrix in="SourceAlpha" type="matrix" values="0 0 0 0 0 0 0 0 0 0 0 0 0 0 0 0 0 0 127 0" result="hardAlpha"/>
<feOffset dy="5"/>
<feGaussianBlur stdDeviation="7"/>
<feColorMatrix type="matrix" values="0 0 0 0 0 0 0 0 0 0 0 0 0 0 0 0 0 0 0.05 0"/>
<feBlend mode="normal" in2="BackgroundImageFix" result="effect1_dropShadow_2449_228077"/>
<feBlend mode="normal" in="SourceGraphic" in2="effect1_dropShadow_2449_228077" result="shape"/>
</filter>
<clipPath id="clip0_2449_228077">
<rect width="23.5055" height="23.5055" fill="white" transform="translate(152.365 357.773)"/>
</clipPath>
<clipPath id="clip1_2449_228077">
<rect width="20.8938" height="20.8938" fill="white" transform="translate(298.621 359.078)"/>
</clipPath>
</defs>
</svg>
