<svg width="1100" height="640" viewBox="0 0 1100 640" fill="none" xmlns="http://www.w3.org/2000/svg">
<path d="M549.708 157.221C552.003 157.221 553.89 155.895 553.89 153.634C553.89 151.951 552.751 150.863 551.306 150.506V150.421C552.632 149.928 553.465 148.925 553.465 147.48C553.465 145.423 551.884 144.25 549.64 144.25C548.195 144.25 547.039 144.879 546.053 145.763L547.073 146.987C547.787 146.29 548.603 145.831 549.572 145.814C550.762 145.831 551.493 146.511 551.493 147.616C551.493 148.874 550.677 149.809 548.212 149.809V151.254C551.034 151.254 551.918 152.155 551.918 153.532C551.918 154.841 550.949 155.623 549.538 155.623C548.246 155.623 547.311 154.994 546.58 154.246L545.628 155.504C546.461 156.439 547.736 157.221 549.708 157.221ZM502.042 182.062V179.172H506.581V177.778H497.724V175.772H506.105V174.395H497.724V172.542H506.445V171.114H495.939V179.172H500.274V182.062H494.222V183.507H508.128V182.062H502.042ZM513.601 172.559H515.709V176.996C515.012 177.03 514.281 177.047 513.601 177.064V172.559ZM519.449 176.707C518.786 176.792 518.106 176.843 517.409 176.894V172.559H518.769V171.148H510.524V172.559H511.918V177.081C511.289 177.081 510.677 177.081 510.116 177.081L510.32 178.526C512.972 178.526 516.491 178.475 519.568 177.982L519.449 176.707ZM512.156 181.416H520.758V185.326H522.509V180.005H512.156V181.416ZM520.758 169.958V179.291H522.509V169.958H520.758ZM528.764 172.576H536.074V177.132H528.764V172.576ZM533.303 181.994V178.526H537.791V171.182H527.047V178.526H531.552V181.994H525.5V183.422H539.406V181.994H533.303ZM554.211 169.958H552.545V178.067H554.211V169.958ZM546.799 173.273V174.633H549.553V177.948H551.185V170.247H549.553V173.273H546.799ZM548.278 175.738C546.748 176.01 545.456 176.078 543.552 176.095V172.168H547.7V170.774H541.818V177.489H542.838C545.201 177.489 546.646 177.455 548.414 177.132L548.278 175.738ZM545.643 183.745V182.487H554.211V178.679H543.875V180.039H552.477V181.195H543.909V185.122H554.721V183.745H545.643ZM569.425 169.958H567.674V179.359H569.425V169.958ZM566.076 176.656C563.849 177.03 561.928 177.115 559.293 177.115V175.33H564.546V170.893H557.525V172.304H562.829V174.004H557.559V178.543H558.851C561.792 178.543 563.866 178.475 566.28 178.084L566.076 176.656ZM564.325 183.932C562.132 183.932 560.874 183.422 560.874 182.487C560.874 181.535 562.132 181.025 564.325 181.025C566.535 181.025 567.776 181.535 567.776 182.487C567.776 183.422 566.535 183.932 564.325 183.932ZM564.325 179.648C561.095 179.648 559.14 180.702 559.14 182.487C559.14 184.272 561.095 185.326 564.325 185.326C567.555 185.326 569.527 184.272 569.527 182.487C569.527 180.702 567.555 179.648 564.325 179.648ZM587.199 177.829H588.95V169.941H587.199V172.508H584.088V173.919H587.199V177.829ZM585.295 176.214C583 175.466 581.674 173.664 581.674 171.726V170.434H579.923V171.726C579.923 173.834 578.58 175.755 576.183 176.537L577.084 177.914C578.886 177.285 580.161 176.044 580.841 174.446C581.487 175.874 582.711 177.013 584.377 177.574L585.295 176.214ZM580.722 183.745V182.436H588.95V178.56H578.954V179.92H587.216V181.144H578.988V185.122H589.477V183.745H580.722ZM597.942 176.622H594.253V172.491H597.942V176.622ZM602.838 173.749V175.364H599.642V173.749H602.838ZM599.642 176.792H602.838V179.002H604.589V169.958H602.838V172.321H599.642V171.097H592.536V178.016H599.642V176.792ZM599.472 183.949C597.296 183.949 596.055 183.388 596.055 182.368C596.055 181.365 597.296 180.804 599.472 180.804C601.648 180.804 602.906 181.365 602.906 182.368C602.906 183.388 601.648 183.949 599.472 183.949ZM599.472 179.427C596.276 179.427 594.304 180.515 594.304 182.368C594.304 184.221 596.276 185.309 599.472 185.309C602.685 185.309 604.657 184.221 604.657 182.368C604.657 180.515 602.685 179.427 599.472 179.427Z" fill="#212121"/>
<path d="M422.663 210.016V211.864H429.241C428.845 214.922 426.161 217.32 421.607 218.552L422.531 220.356C428.273 218.728 431.683 215.164 431.683 210.016H422.663ZM427.217 222.688H435.709V226.626H427.217V222.688ZM424.995 228.452H437.931V220.884H424.995V228.452ZM435.665 208.806V213.756H431.727V215.626H435.665V220.07H437.931V208.806H435.665ZM451.657 218.002C449.083 216.968 447.807 214.724 447.807 212.502V209.972H445.607V212.502C445.607 214.768 444.265 217.298 441.603 218.508L442.813 220.246C444.705 219.41 446.003 217.87 446.729 216.044C447.455 217.65 448.687 218.992 450.447 219.718L451.657 218.002ZM445.057 223.678H456.255V228.716H458.521V221.852H445.057V223.678ZM456.365 208.828V213.844H454.275V209.158H452.141V220.752H454.275V215.692H456.365V220.862H458.521V208.828H456.365ZM466.417 222.336C465.053 222.336 464.217 220.554 464.217 217.408C464.217 214.262 465.053 212.502 466.417 212.502C467.781 212.502 468.617 214.262 468.617 217.408C468.617 220.554 467.781 222.336 466.417 222.336ZM472.775 216.352H470.641C470.399 212.634 468.793 210.368 466.417 210.368C463.843 210.368 462.149 213.052 462.149 217.408C462.149 221.764 463.843 224.47 466.417 224.47C468.837 224.47 470.465 222.094 470.663 218.222H472.775V227.748H474.887V209.202H472.775V216.352ZM476.757 208.828V228.672H478.913V208.828H476.757ZM627.604 208.828V219.498H629.87V208.828H627.604ZM616.89 220.422V228.452H629.87V220.422H627.626V222.622H619.134V220.422H616.89ZM619.134 224.382H627.626V226.626H619.134V224.382ZM619.156 209.73C616.12 209.73 613.876 211.622 613.876 214.35C613.876 217.078 616.12 218.97 619.156 218.97C622.192 218.97 624.414 217.078 624.414 214.35C624.414 211.622 622.192 209.73 619.156 209.73ZM619.156 211.6C620.938 211.6 622.214 212.7 622.214 214.35C622.214 216.022 620.938 217.1 619.156 217.1C617.352 217.1 616.098 216.022 616.098 214.35C616.098 212.7 617.352 211.6 619.156 211.6ZM637.15 210.764H634.906V223.678H636.6C639.68 223.678 642.892 223.436 646.302 222.732L646.06 220.84C642.936 221.478 639.966 221.72 637.15 221.742V210.764ZM647.886 208.828V228.694H650.152V208.828H647.886ZM657.036 212.546H664.01V210.698H654.77V223.832H656.398C659.984 223.832 662.668 223.722 665.682 223.172L665.44 221.302C662.668 221.786 660.248 221.918 657.036 221.94V212.546ZM672.458 216.462H669.356V208.806H667.09V228.716H669.356V218.332H672.458V216.462ZM676.373 227.286C677.319 227.286 678.067 226.56 678.067 225.526C678.067 224.47 677.319 223.722 676.373 223.722C675.427 223.722 674.679 224.47 674.679 225.526C674.679 226.56 675.427 227.286 676.373 227.286Z" fill="#212121"/>
<path d="M488.187 210.698V223.832H497.515V210.698H488.187ZM495.293 212.502V222.006H490.409V212.502H495.293ZM501.189 208.806V228.738H503.477V208.806H501.189ZM514.035 212.436H518.611V218.552H514.035V212.436ZM517.445 224.47V220.378H523.737V218.552H520.855V212.436H523.781V210.61H508.843V212.436H511.769V218.552H508.909V220.378H515.179V224.47H507.347V226.34H525.387V224.47H517.445ZM539.355 210.786H534.625V208.674H532.359V210.786H527.629V212.59H539.355V210.786ZM530.841 216.968C530.841 215.824 531.897 215.12 533.481 215.12C535.065 215.12 536.143 215.824 536.143 216.968C536.143 218.134 535.065 218.838 533.481 218.838C531.897 218.838 530.841 218.134 530.841 216.968ZM538.299 216.968C538.299 214.834 536.363 213.404 533.481 213.404C530.621 213.404 528.663 214.834 528.663 216.968C528.663 219.124 530.621 220.532 533.481 220.532C536.363 220.532 538.299 219.124 538.299 216.968ZM532.667 223.59H540.895V226.648H532.667V223.59ZM530.423 228.452H543.117V221.808H530.423V228.452ZM545.933 213.932H543.117V208.828H540.851V220.796H543.117V215.802H545.933V213.932ZM564.214 208.806H561.948V223.744H564.214V208.806ZM560.54 218.992C558.956 219.168 557.284 219.278 555.568 219.344V216.99H559.286V215.142H551.894V211.908H559.176V210.06H549.628V216.99H553.302V219.432C551.41 219.498 549.562 219.52 547.912 219.52L548.22 221.346C551.916 221.346 556.514 221.236 560.694 220.642L560.54 218.992ZM553.39 226.472V222.71H551.124V228.32H564.83V226.472H553.39ZM584.575 217.914C581.627 216.946 579.933 214.526 579.933 211.974V209.84H577.645V211.798C577.645 214.658 575.951 217.364 572.827 218.442L574.037 220.246C576.325 219.41 577.953 217.694 578.833 215.538C579.669 217.408 581.253 218.926 583.387 219.696L584.575 217.914ZM582.133 226.912C579.361 226.912 577.755 226.23 577.755 224.954C577.755 223.722 579.361 223.018 582.133 223.018C584.905 223.018 586.511 223.722 586.511 224.954C586.511 226.23 584.905 226.912 582.133 226.912ZM582.133 221.236C578.041 221.236 575.511 222.622 575.511 224.954C575.511 227.308 578.041 228.694 582.133 228.694C586.247 228.694 588.755 227.308 588.755 224.954C588.755 222.622 586.247 221.236 582.133 221.236ZM588.535 213.734V208.806H586.269V220.752H588.535V215.604H591.351V213.734H588.535ZM596.146 218.024H601.536V216.242H596.146V212.832H601.888V211.006H593.968V223.942H595.31C598.412 223.942 600.348 223.876 602.636 223.458L602.438 221.61C600.414 221.962 598.698 222.05 596.146 222.072V218.024ZM608.07 208.828V216.682H605.848V209.202H603.736V227.748H605.848V218.53H608.07V228.672H610.226V208.828H608.07Z" fill="#6F7075"/>
<line x1="412" y1="420.694" x2="697" y2="420.694" stroke="#B4B5B8" stroke-width="2.61173" stroke-dasharray="5.22 5.22"/>
<path d="M138 404.047C138 399.629 141.582 396.047 146 396.047H430.349C434.767 396.047 438.349 399.629 438.349 404.047V440.281C438.349 444.7 434.767 448.281 430.349 448.281H146C141.582 448.281 138 444.7 138 440.281V404.047Z" fill="#FAFAFC"/>
<circle cx="164.118" cy="422.163" r="15.6704" fill="#EDEFF2"/>
<circle r="5.22345" transform="matrix(1 0 0 -1 164.118 422.163)" fill="#6F7075"/>
<path d="M200.028 428.435V424.812H205.395V423.499H194.935V420.855H204.827V419.582H194.935V417.114H205.219V415.801H193.31V424.812H198.422V428.435H191.253V429.748H207.217V428.435H200.028ZM213.366 417.114H216.226V422.461C215.266 422.52 214.306 422.539 213.366 422.559V417.114ZM220.359 422.148C219.517 422.246 218.655 422.304 217.774 422.383V417.114H219.497V415.801H210.075V417.114H211.799V422.598C211.035 422.598 210.271 422.598 209.605 422.598L209.762 423.95C212.798 423.95 216.912 423.891 220.457 423.343L220.359 422.148ZM211.956 427.221H222.102V431.961H223.709V425.909H211.956V427.221ZM222.102 414.391V425.027H223.709V414.391H222.102Z" fill="#6F7075"/>
<path d="M148.447 397.353H427.902V394.741H148.447V397.353ZM437.043 406.494V437.835H439.655V406.494H437.043ZM427.902 446.976H148.447V449.587H427.902V446.976ZM139.306 437.835V406.494H136.694V437.835H139.306ZM148.447 446.976C143.398 446.976 139.306 442.883 139.306 437.835H136.694C136.694 444.325 141.956 449.587 148.447 449.587V446.976ZM437.043 437.835C437.043 442.883 432.95 446.976 427.902 446.976V449.587C434.393 449.587 439.655 444.325 439.655 437.835H437.043ZM427.902 397.353C432.95 397.353 437.043 401.445 437.043 406.494H439.655C439.655 400.003 434.393 394.741 427.902 394.741V397.353ZM148.447 394.741C141.956 394.741 136.694 400.003 136.694 406.494H139.306C139.306 401.445 143.398 397.353 148.447 397.353V394.741Z" fill="#EDEFF2"/>
<path d="M661.652 404.016C661.652 399.597 665.234 396.016 669.652 396.016H954.001C958.419 396.016 962.001 399.597 962.001 404.016V440.25C962.001 444.668 958.419 448.25 954.001 448.25H669.652C665.234 448.25 661.652 444.668 661.652 440.25V404.016Z" fill="#FAFAFC"/>
<circle r="5.22345" transform="matrix(1 0 0 -1 687.77 422.132)" fill="#6F7075"/>
<path d="M720.586 416.127C722.29 416.127 723.485 417.028 723.485 418.341C723.485 419.692 722.29 420.574 720.586 420.574C718.882 420.574 717.687 419.692 717.687 418.341C717.687 417.028 718.882 416.127 720.586 416.127ZM720.586 421.808C723.191 421.808 724.993 420.417 724.993 418.341C724.993 416.284 723.191 414.893 720.586 414.893C717.981 414.893 716.179 416.284 716.179 418.341C716.179 420.417 717.981 421.808 720.586 421.808ZM726.423 422.689C722.603 423.238 718.176 423.257 714.866 423.257L715.062 424.609C716.453 424.609 718.039 424.589 719.704 424.531V431.053H721.311V424.452C723.034 424.354 724.797 424.178 726.521 423.884L726.423 422.689ZM727.755 414.032V426.019H723.779V427.273H727.755V431.602H729.361V414.032H727.755ZM747.028 422.435H736.548V416.95H746.852V415.618H734.962V423.747H747.028V422.435ZM732.925 427.88V429.212H748.869V427.88H732.925Z" fill="#6F7075"/>
<path d="M672.099 397.321H951.554V394.71H672.099V397.321ZM960.695 406.463V437.803H963.307V406.463H960.695ZM951.554 446.944H672.099V449.556H951.554V446.944ZM662.958 437.803V406.463H660.346V437.803H662.958ZM672.099 446.944C667.051 446.944 662.958 442.852 662.958 437.803H660.346C660.346 444.294 665.608 449.556 672.099 449.556V446.944ZM960.695 437.803C960.695 442.852 956.603 446.944 951.554 446.944V449.556C958.045 449.556 963.307 444.294 963.307 437.803H960.695ZM951.554 397.321C956.603 397.321 960.695 401.414 960.695 406.463H963.307C963.307 399.972 958.045 394.71 951.554 394.71V397.321ZM672.099 394.71C665.608 394.71 660.346 399.972 660.346 406.463H662.958C662.958 401.414 667.051 397.321 672.099 397.321V394.71Z" fill="#EDEFF2"/>
<g filter="url(#filter0_d_2449_228076)">
<path d="M138 351.781C138 347.363 141.582 343.781 146 343.781H327.185C331.604 343.781 335.185 347.363 335.185 351.781V388.016C335.185 392.434 331.604 396.016 327.185 396.016H146C141.582 396.016 138 392.434 138 388.016V351.781Z" fill="white"/>
<rect x="140.611" y="346.395" width="47.0111" height="47.0111" rx="10.4469" fill="white"/>
<g clip-path="url(#clip0_2449_228076)">
<path d="M168.735 362.762C165.115 362.762 162.124 365.459 161.663 368.953H157.219C157.031 368.488 156.708 368.089 156.292 367.809C155.876 367.528 155.385 367.379 154.884 367.379C153.493 367.379 152.365 368.507 152.365 369.897C152.365 371.288 153.493 372.416 154.884 372.416C155.941 372.416 156.846 371.765 157.219 370.842H161.66C162.124 374.336 165.115 377.033 168.735 377.033C172.675 377.033 175.871 373.838 175.871 369.897C175.871 365.957 172.675 362.762 168.735 362.762ZM172.093 370.579C172.093 370.695 171.999 370.789 171.883 370.789H169.627V373.045C169.627 373.161 169.533 373.255 169.417 373.255H168.053C167.938 373.255 167.843 373.161 167.843 373.045V370.789H165.587C165.472 370.789 165.377 370.695 165.377 370.579V369.215C165.377 369.1 165.472 369.005 165.587 369.005H167.843V366.749C167.843 366.634 167.938 366.539 168.053 366.539H169.417C169.533 366.539 169.627 366.634 169.627 366.749V369.005H171.883C171.999 369.005 172.093 369.1 172.093 369.215V370.579Z" fill="#212121"/>
</g>
<rect x="188.928" y="346.395" width="47.0111" height="47.0111" rx="10.4469" fill="white"/>
<path d="M206.505 375.494C206.552 375.494 206.598 375.49 206.645 375.483L210.567 374.795C210.614 374.786 210.658 374.765 210.691 374.73L220.576 364.845C220.597 364.823 220.614 364.797 220.626 364.769C220.638 364.741 220.644 364.711 220.644 364.68C220.644 364.65 220.638 364.62 220.626 364.591C220.614 364.563 220.597 364.537 220.576 364.516L216.7 360.638C216.656 360.594 216.597 360.57 216.535 360.57C216.472 360.57 216.413 360.594 216.369 360.638L206.484 370.523C206.449 370.558 206.428 370.6 206.419 370.646L205.731 374.569C205.708 374.694 205.716 374.822 205.754 374.943C205.793 375.064 205.86 375.174 205.95 375.264C206.104 375.413 206.297 375.494 206.505 375.494V375.494ZM208.077 371.428L216.535 362.972L218.244 364.681L209.786 373.137L207.713 373.503L208.077 371.428V371.428ZM221.016 377.453H203.854C203.441 377.453 203.107 377.787 203.107 378.199V379.039C203.107 379.142 203.191 379.226 203.294 379.226H221.576C221.679 379.226 221.763 379.142 221.763 379.039V378.199C221.763 377.787 221.429 377.453 221.016 377.453Z" fill="#212121"/>
<rect x="237.246" y="346.395" width="47.0111" height="47.0111" rx="10.4469" fill="white"/>
<path d="M256.773 362.074H256.598C256.694 362.074 256.773 361.995 256.773 361.899V362.074H263.419V361.899C263.419 361.995 263.498 362.074 263.594 362.074H263.419V363.648H264.993V361.899C264.993 361.127 264.366 360.5 263.594 360.5H256.598C255.826 360.5 255.199 361.127 255.199 361.899V363.648H256.773V362.074ZM267.791 363.648H252.401C252.014 363.648 251.701 363.961 251.701 364.348V365.047C251.701 365.143 251.78 365.222 251.876 365.222H253.197L253.736 376.656C253.771 377.401 254.388 377.989 255.133 377.989H265.059C265.806 377.989 266.421 377.403 266.456 376.656L266.996 365.222H268.316C268.412 365.222 268.491 365.143 268.491 365.047V364.348C268.491 363.961 268.178 363.648 267.791 363.648ZM264.89 376.415H255.302L254.773 365.222H265.419L264.89 376.415Z" fill="#EB5757"/>
<rect x="286.215" y="347.047" width="45.7052" height="45.7052" rx="9.79398" fill="white" stroke="#EDEFF2" stroke-width="1.30586"/>
<g clip-path="url(#clip1_2449_228076)">
<path d="M319.101 369.296C318.281 367.569 317.305 366.161 316.174 365.071L314.988 366.258C315.955 367.182 316.798 368.392 317.527 369.898C315.586 373.914 312.833 375.821 309.069 375.821C307.939 375.821 306.899 375.647 305.947 375.299L304.662 376.585C305.983 377.195 307.452 377.5 309.069 377.5C313.551 377.5 316.895 375.166 319.101 370.497C319.189 370.31 319.235 370.105 319.235 369.897C319.235 369.689 319.189 369.484 319.101 369.296V369.296ZM317.618 361.819L316.624 360.824C316.607 360.807 316.586 360.793 316.564 360.784C316.541 360.774 316.517 360.77 316.492 360.77C316.468 360.77 316.443 360.774 316.421 360.784C316.398 360.793 316.378 360.807 316.36 360.824L313.81 363.373C312.404 362.655 310.823 362.296 309.069 362.296C304.587 362.296 301.243 364.63 299.037 369.299C298.948 369.487 298.902 369.692 298.902 369.899C298.902 370.107 298.948 370.312 299.037 370.5C299.918 372.356 300.979 373.844 302.22 374.963L299.752 377.43C299.717 377.465 299.698 377.513 299.698 377.562C299.698 377.611 299.717 377.659 299.752 377.694L300.748 378.689C300.783 378.724 300.83 378.744 300.88 378.744C300.929 378.744 300.977 378.724 301.012 378.689L317.618 362.083C317.636 362.066 317.649 362.046 317.659 362.023C317.668 362 317.673 361.976 317.673 361.951C317.673 361.927 317.668 361.903 317.659 361.88C317.649 361.857 317.636 361.837 317.618 361.819ZM300.611 369.898C302.554 365.883 305.307 363.975 309.069 363.975C310.341 363.975 311.497 364.193 312.546 364.637L310.907 366.276C310.13 365.862 309.242 365.708 308.371 365.838C307.501 365.967 306.695 366.373 306.073 366.995C305.451 367.618 305.045 368.423 304.915 369.294C304.786 370.164 304.94 371.053 305.354 371.829L303.409 373.775C302.332 372.824 301.404 371.537 300.611 369.898ZM306.364 369.898C306.364 369.487 306.462 369.082 306.648 368.715C306.835 368.349 307.105 368.031 307.437 367.789C307.769 367.547 308.154 367.386 308.56 367.32C308.966 367.254 309.381 367.285 309.773 367.41L306.488 370.696C306.405 370.438 306.364 370.169 306.364 369.898V369.898Z" fill="#B4B5B8"/>
<path d="M308.975 372.512C308.894 372.512 308.814 372.508 308.736 372.501L307.504 373.733C308.245 374.017 309.052 374.08 309.828 373.914C310.604 373.749 311.315 373.363 311.876 372.802C312.437 372.241 312.823 371.529 312.989 370.754C313.154 369.978 313.091 369.171 312.807 368.43L311.575 369.661C311.583 369.74 311.586 369.82 311.586 369.9C311.587 370.243 311.519 370.583 311.388 370.9C311.257 371.217 311.064 371.505 310.822 371.748C310.579 371.99 310.291 372.183 309.974 372.314C309.657 372.445 309.318 372.512 308.975 372.512V372.512Z" fill="#B4B5B8"/>
</g>
</g>
<path d="M259 296C259 291.582 262.582 288 267 288H352.524C356.943 288 360.524 291.582 360.524 296V327.524C360.524 331.943 356.943 335.524 352.524 335.524H267C262.582 335.524 259 331.943 259 327.524V296Z" fill="#212121"/>
<path d="M283.335 301.597V322.508H285.245V301.597H283.335ZM269.34 303.367V317.455H279.167V303.367H277.281V308.886H271.226V303.367H269.34ZM271.226 310.399H277.281V315.895H271.226V310.399ZM301.986 303.18H296.956V301.387H295.046V303.18H289.993V304.554H301.986V303.18ZM292.927 307.954C292.927 307.023 294.115 306.464 296.001 306.464C297.864 306.464 299.052 307.023 299.052 307.954C299.052 308.886 297.864 309.468 296.001 309.468C294.115 309.468 292.927 308.886 292.927 307.954ZM302.615 311.424C300.821 311.657 298.865 311.82 296.956 311.913V310.679C299.354 310.469 300.868 309.491 300.868 307.954C300.868 306.231 298.935 305.206 296.001 305.206C293.021 305.206 291.111 306.231 291.111 307.954C291.111 309.514 292.625 310.492 295.046 310.679V311.959C293.044 312.029 291.111 312.029 289.481 312.029L289.691 313.45C293.347 313.45 298.283 313.426 302.731 312.635L302.615 311.424ZM294.162 319.108H305.758V314.847H292.229V316.198H303.872V317.828H292.299V322.252H306.55V320.878H294.162V319.108ZM305.758 306.929V301.597H303.849V313.939H305.758V308.536H308.832V306.929H305.758ZM326.272 313.962H328.205V301.62H326.272V306.045H321.731V307.605H326.272V313.962ZM323.245 311.494C320.194 310.422 318.168 307.838 318.168 304.857V302.784H316.259V304.927C316.259 308.117 314.186 310.912 310.973 312.053L311.974 313.613C314.489 312.658 316.375 310.772 317.26 308.303C318.168 310.469 319.938 312.122 322.22 312.984L323.245 311.494ZM321.312 320.948C318.168 320.948 316.259 320.04 316.259 318.526C316.259 316.989 318.168 316.081 321.312 316.081C324.456 316.081 326.365 316.989 326.365 318.526C326.365 320.04 324.456 320.948 321.312 320.948ZM321.312 314.591C317.027 314.591 314.349 316.011 314.349 318.526C314.349 321.018 317.027 322.462 321.312 322.462C325.597 322.462 328.275 321.018 328.275 318.526C328.275 316.011 325.597 314.591 321.312 314.591ZM345.016 304.135H339.753V301.62H337.843V304.135H332.534V305.649H345.016V304.135ZM335.678 310.748C335.678 309.305 336.935 308.35 338.798 308.35C340.661 308.35 341.919 309.305 341.919 310.748C341.919 312.192 340.661 313.124 338.798 313.124C336.935 313.124 335.678 312.192 335.678 310.748ZM339.753 314.567C342.152 314.265 343.735 312.821 343.735 310.748C343.735 308.397 341.709 306.883 338.798 306.883C335.887 306.883 333.861 308.397 333.861 310.748C333.861 312.821 335.445 314.265 337.843 314.567V316.85C335.818 316.919 333.861 316.919 332.185 316.919L332.441 318.526C336.097 318.526 341.01 318.48 345.481 317.688L345.365 316.267C343.572 316.547 341.639 316.687 339.753 316.78V314.567ZM351.769 310.469H348.509V301.597H346.599V322.485H348.509V312.076H351.769V310.469Z" fill="#EDEFF2"/>
<path d="M336.689 402.483L336.498 402.944C337.064 403.179 337.479 403.764 337.479 404.438C337.479 404.48 337.471 404.541 337.455 404.65L337.455 404.65L336.393 412.112C336.393 412.113 336.393 412.113 336.393 412.114C336.27 412.925 335.64 413.5 334.848 413.5H325.229C324.786 413.5 324.373 413.316 324.08 413.023L317.433 406.376L318.201 405.599C318.202 405.598 318.202 405.598 318.202 405.598C318.399 405.402 318.67 405.277 318.967 405.277C318.993 405.277 319.02 405.28 319.063 405.287C319.07 405.288 319.081 405.29 319.094 405.292C319.128 405.298 319.177 405.307 319.222 405.313L324.063 406.329L324.666 406.456V405.84V390.625C324.666 389.725 325.391 389 326.291 389C327.191 389 327.916 389.725 327.916 390.625V399.125V399.625H328.416H329.493C329.684 399.625 329.87 399.664 330.052 399.737L336.467 402.93L336.689 402.483ZM322.249 390.625V394.887C321.117 393.815 320.416 392.304 320.416 390.625C320.416 387.374 323.04 384.75 326.291 384.75C329.542 384.75 332.166 387.374 332.166 390.625C332.166 392.304 331.465 393.815 330.333 394.887V390.625C330.333 388.394 328.522 386.583 326.291 386.583C324.06 386.583 322.249 388.394 322.249 390.625Z" fill="white" stroke="#121A4C"/>
<path d="M0 595H1100V632C1100 636.418 1096.42 640 1092 640H7.99999C3.58171 640 0 636.418 0 632V595Z" fill="#0D0157"/>
<defs>
<filter id="filter0_d_2449_228076" x="124" y="334.781" width="225.186" height="80.2344" filterUnits="userSpaceOnUse" color-interpolation-filters="sRGB">
<feFlood flood-opacity="0" result="BackgroundImageFix"/>
<feColorMatrix in="SourceAlpha" type="matrix" values="0 0 0 0 0 0 0 0 0 0 0 0 0 0 0 0 0 0 127 0" result="hardAlpha"/>
<feOffset dy="5"/>
<feGaussianBlur stdDeviation="7"/>
<feColorMatrix type="matrix" values="0 0 0 0 0 0 0 0 0 0 0 0 0 0 0 0 0 0 0.05 0"/>
<feBlend mode="normal" in2="BackgroundImageFix" result="effect1_dropShadow_2449_228076"/>
<feBlend mode="normal" in="SourceGraphic" in2="effect1_dropShadow_2449_228076" result="shape"/>
</filter>
<clipPath id="clip0_2449_228076">
<rect width="23.5055" height="23.5055" fill="white" transform="translate(152.365 358.148)"/>
</clipPath>
<clipPath id="clip1_2449_228076">
<rect width="20.8938" height="20.8938" fill="white" transform="translate(298.621 359.453)"/>
</clipPath>
</defs>
</svg>
