<svg width="1100" height="640" viewBox="0 0 1100 640" fill="none" xmlns="http://www.w3.org/2000/svg">
<path d="M546.614 157H553.754V155.385H551.306V144.471H549.827C549.113 144.93 548.28 145.219 547.107 145.44V146.681H549.351V155.385H546.614V157ZM502.042 182.062V179.172H506.581V177.778H497.724V175.772H506.105V174.395H497.724V172.542H506.445V171.114H495.939V179.172H500.274V182.062H494.222V183.507H508.128V182.062H502.042ZM513.601 172.559H515.709V176.996C515.012 177.03 514.281 177.047 513.601 177.064V172.559ZM519.449 176.707C518.786 176.792 518.106 176.843 517.409 176.894V172.559H518.769V171.148H510.524V172.559H511.918V177.081C511.289 177.081 510.677 177.081 510.116 177.081L510.32 178.526C512.972 178.526 516.491 178.475 519.568 177.982L519.449 176.707ZM512.156 181.416H520.758V185.326H522.509V180.005H512.156V181.416ZM520.758 169.958V179.291H522.509V169.958H520.758ZM528.764 172.576H536.074V177.132H528.764V172.576ZM533.303 181.994V178.526H537.791V171.182H527.047V178.526H531.552V181.994H525.5V183.422H539.406V181.994H533.303ZM554.211 169.958H552.545V178.067H554.211V169.958ZM546.799 173.273V174.633H549.553V177.948H551.185V170.247H549.553V173.273H546.799ZM548.278 175.738C546.748 176.01 545.456 176.078 543.552 176.095V172.168H547.7V170.774H541.818V177.489H542.838C545.201 177.489 546.646 177.455 548.414 177.132L548.278 175.738ZM545.643 183.745V182.487H554.211V178.679H543.875V180.039H552.477V181.195H543.909V185.122H554.721V183.745H545.643ZM569.425 169.958H567.674V179.359H569.425V169.958ZM566.076 176.656C563.849 177.03 561.928 177.115 559.293 177.115V175.33H564.546V170.893H557.525V172.304H562.829V174.004H557.559V178.543H558.851C561.792 178.543 563.866 178.475 566.28 178.084L566.076 176.656ZM564.325 183.932C562.132 183.932 560.874 183.422 560.874 182.487C560.874 181.535 562.132 181.025 564.325 181.025C566.535 181.025 567.776 181.535 567.776 182.487C567.776 183.422 566.535 183.932 564.325 183.932ZM564.325 179.648C561.095 179.648 559.14 180.702 559.14 182.487C559.14 184.272 561.095 185.326 564.325 185.326C567.555 185.326 569.527 184.272 569.527 182.487C569.527 180.702 567.555 179.648 564.325 179.648ZM587.199 177.829H588.95V169.941H587.199V172.508H584.088V173.919H587.199V177.829ZM585.295 176.214C583 175.466 581.674 173.664 581.674 171.726V170.434H579.923V171.726C579.923 173.834 578.58 175.755 576.183 176.537L577.084 177.914C578.886 177.285 580.161 176.044 580.841 174.446C581.487 175.874 582.711 177.013 584.377 177.574L585.295 176.214ZM580.722 183.745V182.436H588.95V178.56H578.954V179.92H587.216V181.144H578.988V185.122H589.477V183.745H580.722ZM597.942 176.622H594.253V172.491H597.942V176.622ZM602.838 173.749V175.364H599.642V173.749H602.838ZM599.642 176.792H602.838V179.002H604.589V169.958H602.838V172.321H599.642V171.097H592.536V178.016H599.642V176.792ZM599.472 183.949C597.296 183.949 596.055 183.388 596.055 182.368C596.055 181.365 597.296 180.804 599.472 180.804C601.648 180.804 602.906 181.365 602.906 182.368C602.906 183.388 601.648 183.949 599.472 183.949ZM599.472 179.427C596.276 179.427 594.304 180.515 594.304 182.368C594.304 184.221 596.276 185.309 599.472 185.309C602.685 185.309 604.657 184.221 604.657 182.368C604.657 180.515 602.685 179.427 599.472 179.427Z" fill="#212121"/>
<path d="M432.782 210.016V211.864H439.36C438.964 214.922 436.28 217.32 431.726 218.552L432.65 220.356C438.392 218.728 441.802 215.164 441.802 210.016H432.782ZM437.336 222.688H445.828V226.626H437.336V222.688ZM435.114 228.452H448.05V220.884H435.114V228.452ZM445.784 208.806V213.756H441.846V215.626H445.784V220.07H448.05V208.806H445.784ZM461.776 218.002C459.202 216.968 457.926 214.724 457.926 212.502V209.972H455.726V212.502C455.726 214.768 454.384 217.298 451.722 218.508L452.932 220.246C454.824 219.41 456.122 217.87 456.848 216.044C457.574 217.65 458.806 218.992 460.566 219.718L461.776 218.002ZM455.176 223.678H466.374V228.716H468.64V221.852H455.176V223.678ZM466.484 208.828V213.844H464.394V209.158H462.26V220.752H464.394V215.692H466.484V220.862H468.64V208.828H466.484ZM476.536 222.336C475.172 222.336 474.336 220.554 474.336 217.408C474.336 214.262 475.172 212.502 476.536 212.502C477.9 212.502 478.736 214.262 478.736 217.408C478.736 220.554 477.9 222.336 476.536 222.336ZM482.894 216.352H480.76C480.518 212.634 478.912 210.368 476.536 210.368C473.962 210.368 472.268 213.052 472.268 217.408C472.268 221.764 473.962 224.47 476.536 224.47C478.956 224.47 480.584 222.094 480.782 218.222H482.894V227.748H485.006V209.202H482.894V216.352ZM486.876 208.828V228.672H489.032V208.828H486.876ZM617.485 208.828V219.498H619.751V208.828H617.485ZM606.771 220.422V228.452H619.751V220.422H617.507V222.622H609.015V220.422H606.771ZM609.015 224.382H617.507V226.626H609.015V224.382ZM609.037 209.73C606.001 209.73 603.757 211.622 603.757 214.35C603.757 217.078 606.001 218.97 609.037 218.97C612.073 218.97 614.295 217.078 614.295 214.35C614.295 211.622 612.073 209.73 609.037 209.73ZM609.037 211.6C610.819 211.6 612.095 212.7 612.095 214.35C612.095 216.022 610.819 217.1 609.037 217.1C607.233 217.1 605.979 216.022 605.979 214.35C605.979 212.7 607.233 211.6 609.037 211.6ZM627.031 210.764H624.787V223.678H626.481C629.561 223.678 632.773 223.436 636.183 222.732L635.941 220.84C632.817 221.478 629.847 221.72 627.031 221.742V210.764ZM637.767 208.828V228.694H640.033V208.828H637.767ZM646.917 212.546H653.891V210.698H644.651V223.832H646.279C649.865 223.832 652.549 223.722 655.563 223.172L655.321 221.302C652.549 221.786 650.129 221.918 646.917 221.94V212.546ZM662.339 216.462H659.237V208.806H656.971V228.716H659.237V218.332H662.339V216.462ZM666.254 227.286C667.2 227.286 667.948 226.56 667.948 225.526C667.948 224.47 667.2 223.722 666.254 223.722C665.308 223.722 664.56 224.47 664.56 225.526C664.56 226.56 665.308 227.286 666.254 227.286Z" fill="#212121"/>
<path d="M503.916 212.436H508.492V218.552H503.916V212.436ZM507.326 224.47V220.378H513.618V218.552H510.736V212.436H513.662V210.61H498.724V212.436H501.65V218.552H498.79V220.378H505.06V224.47H497.228V226.34H515.268V224.47H507.326ZM529.236 210.786H524.506V208.674H522.24V210.786H517.51V212.59H529.236V210.786ZM520.722 216.968C520.722 215.824 521.778 215.12 523.362 215.12C524.946 215.12 526.024 215.824 526.024 216.968C526.024 218.134 524.946 218.838 523.362 218.838C521.778 218.838 520.722 218.134 520.722 216.968ZM528.18 216.968C528.18 214.834 526.244 213.404 523.362 213.404C520.502 213.404 518.544 214.834 518.544 216.968C518.544 219.124 520.502 220.532 523.362 220.532C526.244 220.532 528.18 219.124 528.18 216.968ZM522.548 223.59H530.776V226.648H522.548V223.59ZM520.304 228.452H532.998V221.808H520.304V228.452ZM535.814 213.932H532.998V208.828H530.732V220.796H532.998V215.802H535.814V213.932ZM554.094 208.806H551.828V223.744H554.094V208.806ZM550.42 218.992C548.836 219.168 547.164 219.278 545.448 219.344V216.99H549.166V215.142H541.774V211.908H549.056V210.06H539.508V216.99H543.182V219.432C541.29 219.498 539.442 219.52 537.792 219.52L538.1 221.346C541.796 221.346 546.394 221.236 550.574 220.642L550.42 218.992ZM543.27 226.472V222.71H541.004V228.32H554.71V226.472H543.27ZM574.456 217.914C571.508 216.946 569.814 214.526 569.814 211.974V209.84H567.526V211.798C567.526 214.658 565.832 217.364 562.708 218.442L563.918 220.246C566.206 219.41 567.834 217.694 568.714 215.538C569.55 217.408 571.134 218.926 573.268 219.696L574.456 217.914ZM572.014 226.912C569.242 226.912 567.636 226.23 567.636 224.954C567.636 223.722 569.242 223.018 572.014 223.018C574.786 223.018 576.392 223.722 576.392 224.954C576.392 226.23 574.786 226.912 572.014 226.912ZM572.014 221.236C567.922 221.236 565.392 222.622 565.392 224.954C565.392 227.308 567.922 228.694 572.014 228.694C576.128 228.694 578.636 227.308 578.636 224.954C578.636 222.622 576.128 221.236 572.014 221.236ZM578.416 213.734V208.806H576.15V220.752H578.416V215.604H581.232V213.734H578.416ZM586.026 218.024H591.416V216.242H586.026V212.832H591.768V211.006H583.848V223.942H585.19C588.292 223.942 590.228 223.876 592.516 223.458L592.318 221.61C590.294 221.962 588.578 222.05 586.026 222.072V218.024ZM597.95 208.828V216.682H595.728V209.202H593.616V227.748H595.728V218.53H597.95V228.672H600.106V208.828H597.95Z" fill="#2F80ED"/>
<line x1="412" y1="419.694" x2="697" y2="419.694" stroke="#B4B5B8" stroke-width="2.61173" stroke-dasharray="5.22 5.22"/>
<path d="M138 403.266C138 398.847 141.582 395.266 146 395.266H430.349C434.767 395.266 438.349 398.847 438.349 403.266V439.5C438.349 443.918 434.767 447.5 430.349 447.5H146C141.582 447.5 138 443.918 138 439.5V403.266Z" fill="#EFF2FF"/>
<circle cx="164.118" cy="421.381" r="15.6704" fill="#B5D0FA"/>
<circle r="5.22345" transform="matrix(1 0 0 -1 164.118 421.382)" fill="#2F80ED"/>
<path d="M200.028 427.654V424.03H205.395V422.718H194.935V420.074H204.827V418.8H194.935V416.332H205.219V415.02H193.31V424.03H198.422V427.654H191.253V428.967H207.217V427.654H200.028ZM213.366 416.332H216.226V421.68C215.266 421.739 214.306 421.758 213.366 421.778V416.332ZM220.359 421.366C219.517 421.464 218.655 421.523 217.774 421.602V416.332H219.497V415.02H210.075V416.332H211.799V421.817C211.035 421.817 210.271 421.817 209.605 421.817L209.762 423.169C212.798 423.169 216.912 423.11 220.457 422.561L220.359 421.366ZM211.956 426.44H222.102V431.18H223.709V425.127H211.956V426.44ZM222.102 413.61V424.246H223.709V413.61H222.102Z" fill="#212121"/>
<path d="M661.652 403.234C661.652 398.816 665.234 395.234 669.652 395.234H954.001C958.419 395.234 962.001 398.816 962.001 403.234V439.469C962.001 443.887 958.419 447.469 954.001 447.469H669.652C665.234 447.469 661.652 443.887 661.652 439.469V403.234Z" fill="white"/>
<circle r="5.22345" transform="matrix(1 0 0 -1 687.77 421.351)" fill="#2F80ED"/>
<path d="M720.586 415.346C722.29 415.346 723.485 416.247 723.485 417.56C723.485 418.911 722.29 419.793 720.586 419.793C718.882 419.793 717.687 418.911 717.687 417.56C717.687 416.247 718.882 415.346 720.586 415.346ZM720.586 421.027C723.191 421.027 724.993 419.636 724.993 417.56C724.993 415.503 723.191 414.112 720.586 414.112C717.981 414.112 716.179 415.503 716.179 417.56C716.179 419.636 717.981 421.027 720.586 421.027ZM726.423 421.908C722.603 422.457 718.176 422.476 714.866 422.476L715.062 423.828C716.453 423.828 718.039 423.808 719.704 423.749V430.272H721.311V423.671C723.034 423.573 724.797 423.397 726.521 423.103L726.423 421.908ZM727.755 413.25V425.238H723.779V426.492H727.755V430.821H729.361V413.25H727.755ZM747.028 421.653H736.548V416.169H746.852V414.837H734.962V422.966H747.028V421.653ZM732.925 427.099V428.431H748.869V427.099H732.925Z" fill="#212121"/>
<path d="M672.099 396.54H951.554V393.929H672.099V396.54ZM960.695 405.681V437.022H963.307V405.681H960.695ZM951.554 446.163H672.099V448.775H951.554V446.163ZM662.958 437.022V405.681H660.346V437.022H662.958ZM672.099 446.163C667.051 446.163 662.958 442.07 662.958 437.022H660.346C660.346 443.513 665.608 448.775 672.099 448.775V446.163ZM960.695 437.022C960.695 442.07 956.603 446.163 951.554 446.163V448.775C958.045 448.775 963.307 443.513 963.307 437.022H960.695ZM951.554 396.54C956.603 396.54 960.695 400.633 960.695 405.681H963.307C963.307 399.19 958.045 393.929 951.554 393.929V396.54ZM672.099 393.929C665.608 393.929 660.346 399.19 660.346 405.681H662.958C662.958 400.633 667.051 396.54 672.099 396.54V393.929Z" fill="#EDEFF2"/>
<g filter="url(#filter0_d_2449_228188)">
<path d="M138 351C138 346.582 141.582 343 146 343H327.185C331.604 343 335.185 346.582 335.185 351V387.235C335.185 391.653 331.604 395.235 327.185 395.235H146C141.582 395.235 138 391.653 138 387.235V351Z" fill="white"/>
<rect x="140.611" y="345.613" width="47.0111" height="47.0111" rx="10.4469" fill="white"/>
<g clip-path="url(#clip0_2449_228188)">
<path d="M168.735 361.98C165.115 361.98 162.124 364.677 161.663 368.172H157.219C157.031 367.706 156.708 367.308 156.292 367.027C155.876 366.747 155.385 366.597 154.884 366.598C153.493 366.598 152.365 367.726 152.365 369.116C152.365 370.506 153.493 371.635 154.884 371.635C155.941 371.635 156.846 370.984 157.219 370.061H161.66C162.124 373.555 165.115 376.252 168.735 376.252C172.675 376.252 175.871 373.056 175.871 369.116C175.871 365.176 172.675 361.98 168.735 361.98ZM172.093 369.798C172.093 369.914 171.999 370.008 171.883 370.008H169.627V372.264C169.627 372.38 169.533 372.474 169.417 372.474H168.053C167.938 372.474 167.843 372.38 167.843 372.264V370.008H165.587C165.472 370.008 165.377 369.914 165.377 369.798V368.434C165.377 368.319 165.472 368.224 165.587 368.224H167.843V365.968C167.843 365.853 167.938 365.758 168.053 365.758H169.417C169.533 365.758 169.627 365.853 169.627 365.968V368.224H171.883C171.999 368.224 172.093 368.319 172.093 368.434V369.798Z" fill="#212121"/>
</g>
<rect x="188.928" y="345.613" width="47.0111" height="47.0111" rx="10.4469" fill="white"/>
<path d="M206.505 374.713C206.552 374.713 206.598 374.709 206.645 374.702L210.567 374.014C210.614 374.004 210.658 373.983 210.691 373.948L220.576 364.063C220.597 364.042 220.614 364.016 220.626 363.988C220.638 363.96 220.644 363.93 220.644 363.899C220.644 363.868 220.638 363.838 220.626 363.81C220.614 363.782 220.597 363.756 220.576 363.735L216.7 359.857C216.656 359.812 216.597 359.789 216.535 359.789C216.472 359.789 216.413 359.812 216.369 359.857L206.484 369.742C206.449 369.777 206.428 369.819 206.419 369.865L205.731 373.787C205.708 373.912 205.716 374.041 205.754 374.162C205.793 374.283 205.86 374.393 205.95 374.482C206.104 374.632 206.297 374.713 206.505 374.713V374.713ZM208.077 370.646L216.535 362.191L218.244 363.9L209.786 372.356L207.713 372.722L208.077 370.646V370.646ZM221.016 376.672H203.854C203.441 376.672 203.107 377.005 203.107 377.418V378.258C203.107 378.36 203.191 378.444 203.294 378.444H221.576C221.679 378.444 221.763 378.36 221.763 378.258V377.418C221.763 377.005 221.429 376.672 221.016 376.672Z" fill="#212121"/>
<rect x="237.246" y="345.613" width="47.0111" height="47.0111" rx="10.4469" fill="white"/>
<path d="M256.773 361.293H256.598C256.694 361.293 256.773 361.214 256.773 361.118V361.293H263.419V361.118C263.419 361.214 263.498 361.293 263.594 361.293H263.419V362.867H264.993V361.118C264.993 360.346 264.366 359.719 263.594 359.719H256.598C255.826 359.719 255.199 360.346 255.199 361.118V362.867H256.773V361.293ZM267.791 362.867H252.401C252.014 362.867 251.701 363.179 251.701 363.566V364.266C251.701 364.362 251.78 364.441 251.876 364.441H253.197L253.736 375.874C253.771 376.62 254.388 377.208 255.133 377.208H265.059C265.806 377.208 266.421 376.622 266.456 375.874L266.996 364.441H268.316C268.412 364.441 268.491 364.362 268.491 364.266V363.566C268.491 363.179 268.178 362.867 267.791 362.867ZM264.89 375.634H255.302L254.773 364.441H265.419L264.89 375.634Z" fill="#EB5757"/>
<rect x="286.215" y="346.266" width="45.7052" height="45.7052" rx="9.79398" fill="white" stroke="#EDEFF2" stroke-width="1.30586"/>
<g clip-path="url(#clip1_2449_228188)">
<path d="M309.068 359C303.478 359 298.947 363.531 298.947 369.12C298.947 374.71 303.478 379.241 309.068 379.241C314.657 379.241 319.188 374.71 319.188 369.12C319.188 363.531 314.657 359 309.068 359ZM312.332 369.12C312.332 370.921 310.868 372.385 309.068 372.385C307.268 372.385 305.803 370.921 305.803 369.12C305.803 367.32 307.268 365.856 309.068 365.856C310.868 365.856 312.332 367.32 312.332 369.12Z" fill="#2F80ED"/>
</g>
</g>
<path d="M259 295C259 290.582 262.582 287 267 287H352.524C356.943 287 360.524 290.582 360.524 295V326.524C360.524 330.943 356.943 334.524 352.524 334.524H267C262.582 334.524 259 330.943 259 326.524V295Z" fill="#212121"/>
<path d="M274.975 304.136H280.168V310.983H274.975V304.136ZM278.538 317.317V312.52H285.268V310.983H282.078V304.136H285.314V302.6H269.829V304.136H273.066V310.983H269.875V312.52H276.605V317.317H268.152V318.877H287.084V317.317H278.538ZM301.963 302.809H296.746V300.411H294.837V302.809H289.644V304.346H301.963V302.809ZM292.625 309.12C292.625 307.746 293.882 306.838 295.792 306.838C297.701 306.838 298.982 307.746 298.982 309.12C298.982 310.494 297.701 311.402 295.792 311.402C293.882 311.402 292.625 310.494 292.625 309.12ZM300.798 309.12C300.798 306.838 298.772 305.394 295.792 305.394C292.811 305.394 290.808 306.838 290.808 309.12C290.808 311.379 292.811 312.822 295.792 312.822C298.772 312.822 300.798 311.379 300.798 309.12ZM294.534 315.873H303.895V319.669H294.534V315.873ZM292.671 321.205H305.782V314.359H292.671V321.205ZM308.879 306.162H305.782V300.62H303.872V313.172H305.782V307.746H308.879V306.162ZM317.12 315.244C315.234 315.244 313.86 313.894 313.86 312.031C313.86 310.144 315.234 308.794 317.12 308.794C319.03 308.794 320.404 310.144 320.404 312.031C320.404 313.894 319.03 315.244 317.12 315.244ZM317.12 307.21C314.186 307.21 312.067 309.213 312.067 312.031C312.067 314.872 314.186 316.828 317.12 316.828C320.101 316.828 322.22 314.872 322.22 312.031C322.22 309.213 320.101 307.21 317.12 307.21ZM318.052 300.853H316.142V303.95H310.879V305.487H323.198V303.95H318.052V300.853ZM330.51 309.19H327.087V300.62H325.177V321.485H327.087V310.796H330.51V309.19ZM333.652 302.856V304.393H341.499C341.104 309.353 338.309 313.358 332.697 316.036L333.722 317.596C340.661 314.196 343.432 308.887 343.432 302.856H333.652ZM347.647 300.597V321.485H349.557V300.597H347.647Z" fill="#EDEFF2"/>
<path d="M336.467 402.93L336.482 402.938L336.498 402.944C337.064 403.179 337.479 403.764 337.479 404.438C337.479 404.48 337.471 404.541 337.455 404.65L337.455 404.65L336.393 412.112C336.393 412.113 336.393 412.113 336.393 412.114C336.27 412.925 335.64 413.5 334.848 413.5H325.229C324.786 413.5 324.373 413.316 324.08 413.023L317.433 406.376L318.201 405.599C318.202 405.598 318.202 405.598 318.202 405.598C318.399 405.402 318.67 405.277 318.967 405.277C318.993 405.277 319.02 405.28 319.063 405.287C319.07 405.288 319.081 405.29 319.094 405.292C319.128 405.298 319.177 405.307 319.222 405.313L324.063 406.329L324.666 406.456V405.84V390.625C324.666 389.725 325.391 389 326.291 389C327.191 389 327.916 389.725 327.916 390.625V399.125V399.625H328.416H329.493C329.684 399.625 329.87 399.664 330.052 399.737L336.467 402.93ZM322.249 390.625V394.887C321.117 393.815 320.416 392.304 320.416 390.625C320.416 387.374 323.04 384.75 326.291 384.75C329.542 384.75 332.166 387.374 332.166 390.625C332.166 392.304 331.465 393.815 330.333 394.887V390.625C330.333 388.394 328.522 386.583 326.291 386.583C324.06 386.583 322.249 388.394 322.249 390.625Z" fill="white" stroke="#121A4C"/>
<path d="M0 595H1100V632C1100 636.418 1096.42 640 1092 640H7.99999C3.58171 640 0 636.418 0 632V595Z" fill="#0D0157"/>
<defs>
<filter id="filter0_d_2449_228188" x="124" y="334" width="225.186" height="80.2344" filterUnits="userSpaceOnUse" color-interpolation-filters="sRGB">
<feFlood flood-opacity="0" result="BackgroundImageFix"/>
<feColorMatrix in="SourceAlpha" type="matrix" values="0 0 0 0 0 0 0 0 0 0 0 0 0 0 0 0 0 0 127 0" result="hardAlpha"/>
<feOffset dy="5"/>
<feGaussianBlur stdDeviation="7"/>
<feColorMatrix type="matrix" values="0 0 0 0 0 0 0 0 0 0 0 0 0 0 0 0 0 0 0.05 0"/>
<feBlend mode="normal" in2="BackgroundImageFix" result="effect1_dropShadow_2449_228188"/>
<feBlend mode="normal" in="SourceGraphic" in2="effect1_dropShadow_2449_228188" result="shape"/>
</filter>
<clipPath id="clip0_2449_228188">
<rect width="23.5055" height="23.5055" fill="white" transform="translate(152.365 357.367)"/>
</clipPath>
<clipPath id="clip1_2449_228188">
<rect width="20.8938" height="20.8938" fill="white" transform="translate(298.621 358.672)"/>
</clipPath>
</defs>
</svg>
