<svg width="12" height="13" viewBox="0 0 12 13" fill="none" xmlns="http://www.w3.org/2000/svg">
<path d="M4.4318 11.3355L5.29993 0.871456C5.33418 0.458663 5.0273 0.0962608 4.61451 0.0620144C4.20171 0.027768 3.83931 0.334645 3.80507 0.747438L3.371 5.97946L2.93694 11.2115C2.90269 11.6243 3.20957 11.9867 3.62236 12.0209C4.03516 12.0552 4.39756 11.7483 4.4318 11.3355Z" fill="white"/>
<path d="M7.9318 11.3355L8.79993 0.871456C8.83418 0.458663 8.5273 0.0962608 8.11451 0.0620144C7.70171 0.027768 7.33931 0.334645 7.30507 0.747438L6.871 5.97946L6.43694 11.2115C6.40269 11.6243 6.70957 11.9867 7.12236 12.0209C7.53516 12.0552 7.89756 11.7483 7.9318 11.3355Z" fill="white"/>
<path d="M0.75 5.125L11.25 5.125C11.6642 5.125 12 4.78921 12 4.375C12 3.96079 11.6642 3.625 11.25 3.625L6 3.625L0.75 3.625C0.335789 3.625 1.01779e-07 3.96079 6.55671e-08 4.375C2.93556e-08 4.78921 0.335789 5.125 0.75 5.125Z" fill="white"/>
<path d="M0.75 8.375L11.25 8.375C11.6642 8.375 12 8.03921 12 7.625C12 7.21079 11.6642 6.875 11.25 6.875L6 6.875L0.75 6.875C0.335789 6.875 1.01779e-07 7.21079 6.55671e-08 7.625C2.93556e-08 8.03921 0.335789 8.375 0.75 8.375Z" fill="white"/>
</svg>
