<svg width="12" height="12" viewBox="0 0 12 12" fill="none" xmlns="http://www.w3.org/2000/svg">
<g clip-path="url(#clip0_3132_577)">
<path d="M6 3C5.60218 3 5.22064 3.15804 4.93934 3.43934C4.65804 3.72064 4.5 4.10218 4.5 4.5V10.5C4.5 10.8978 4.65804 11.2794 4.93934 11.5607C5.22064 11.842 5.60218 12 6 12C6.39782 12 6.77936 11.842 7.06066 11.5607C7.34196 11.2794 7.5 10.8978 7.5 10.5V4.5C7.5 4.10218 7.34196 3.72064 7.06066 3.43934C6.77936 3.15804 6.39782 3 6 3ZM6.5 10.5C6.5 10.6326 6.44732 10.7598 6.35355 10.8536C6.25979 10.9473 6.13261 11 6 11C5.86739 11 5.74021 10.9473 5.64645 10.8536C5.55268 10.7598 5.5 10.6326 5.5 10.5V4.5C5.5 4.36739 5.55268 4.24021 5.64645 4.14645C5.74021 4.05268 5.86739 4 6 4C6.13261 4 6.25979 4.05268 6.35355 4.14645C6.44732 4.24021 6.5 4.36739 6.5 4.5V10.5Z" fill="white"/>
<path d="M10.5 0C10.1022 0 9.72064 0.158035 9.43934 0.43934C9.15804 0.720644 9 1.10218 9 1.5V10.5C9 10.8978 9.15804 11.2794 9.43934 11.5607C9.72064 11.842 10.1022 12 10.5 12C10.8978 12 11.2794 11.842 11.5607 11.5607C11.842 11.2794 12 10.8978 12 10.5V1.5C12 1.10218 11.842 0.720644 11.5607 0.43934C11.2794 0.158035 10.8978 0 10.5 0V0ZM11 10.5C11 10.6326 10.9473 10.7598 10.8536 10.8536C10.7598 10.9473 10.6326 11 10.5 11C10.3674 11 10.2402 10.9473 10.1464 10.8536C10.0527 10.7598 10 10.6326 10 10.5V1.5C10 1.36739 10.0527 1.24021 10.1464 1.14645C10.2402 1.05268 10.3674 1 10.5 1C10.6326 1 10.7598 1.05268 10.8536 1.14645C10.9473 1.24021 11 1.36739 11 1.5V10.5Z" fill="white"/>
<path d="M1.5 6C1.10218 6 0.720644 6.15804 0.43934 6.43934C0.158035 6.72064 0 7.10218 0 7.5L0 10.5C0 10.8978 0.158035 11.2794 0.43934 11.5607C0.720644 11.842 1.10218 12 1.5 12C1.89782 12 2.27936 11.842 2.56066 11.5607C2.84196 11.2794 3 10.8978 3 10.5V7.5C3 7.10218 2.84196 6.72064 2.56066 6.43934C2.27936 6.15804 1.89782 6 1.5 6Z" fill="white"/>
</g>
<defs>
<clipPath id="clip0_3132_577">
<rect width="12" height="12" fill="white"/>
</clipPath>
</defs>
</svg>
